<?xml version="1.0" encoding="utf-8" standalone="no"?>
<!DOCTYPE svg PUBLIC "-//W3C//DTD SVG 1.1//EN"
  "http://www.w3.org/Graphics/SVG/1.1/DTD/svg11.dtd">
<svg xmlns:xlink="http://www.w3.org/1999/xlink" width="720pt" height="432pt" viewBox="0 0 720 432" xmlns="http://www.w3.org/2000/svg" version="1.1">
 <metadata>
  <rdf:RDF xmlns:dc="http://purl.org/dc/elements/1.1/" xmlns:cc="http://creativecommons.org/ns#" xmlns:rdf="http://www.w3.org/1999/02/22-rdf-syntax-ns#">
   <cc:Work>
    <dc:type rdf:resource="http://purl.org/dc/dcmitype/StillImage"/>
    <dc:date>2022-11-29T17:06:44.031963</dc:date>
    <dc:format>image/svg+xml</dc:format>
    <dc:creator>
     <cc:Agent>
      <dc:title>Matplotlib v3.5.1, https://matplotlib.org/</dc:title>
     </cc:Agent>
    </dc:creator>
   </cc:Work>
  </rdf:RDF>
 </metadata>
 <defs>
  <style type="text/css">*{stroke-linejoin: round; stroke-linecap: butt}</style>
 </defs>
 <g id="figure_1">
  <g id="patch_1">
   <path d="M 0 432 
L 720 432 
L 720 0 
L 0 0 
z
" style="fill: #ffffff"/>
  </g>
  <g id="axes_1">
   <g id="patch_2">
    <path d="M 61.99 386.44 
L 707.04 386.44 
L 707.04 31.2 
L 61.99 31.2 
z
" style="fill: #ffffff"/>
   </g>
   <g id="matplotlib.axis_1">
    <g id="xtick_1">
     <g id="line2d_1">
      <path d="M 91.310455 386.44 
L 91.310455 31.2 
" clip-path="url(#pf32147ff55)" style="fill: none; stroke: #b0b0b0; stroke-width: 0.8; stroke-linecap: square"/>
     </g>
     <g id="line2d_2">
      <defs>
       <path id="m571300ccd9" d="M 0 0 
L 0 3.5 
" style="stroke: #000000; stroke-width: 0.8"/>
      </defs>
      <g>
       <use xlink:href="#m571300ccd9" x="91.310455" y="386.44" style="stroke: #000000; stroke-width: 0.8"/>
      </g>
     </g>
     <g id="text_1">
      <!-- 0 -->
      <g transform="translate(87.492955 402.558125)scale(0.12 -0.12)">
       <defs>
        <path id="DejaVuSans-30" d="M 2034 4250 
Q 1547 4250 1301 3770 
Q 1056 3291 1056 2328 
Q 1056 1369 1301 889 
Q 1547 409 2034 409 
Q 2525 409 2770 889 
Q 3016 1369 3016 2328 
Q 3016 3291 2770 3770 
Q 2525 4250 2034 4250 
z
M 2034 4750 
Q 2819 4750 3233 4129 
Q 3647 3509 3647 2328 
Q 3647 1150 3233 529 
Q 2819 -91 2034 -91 
Q 1250 -91 836 529 
Q 422 1150 422 2328 
Q 422 3509 836 4129 
Q 1250 4750 2034 4750 
z
" transform="scale(0.015625)"/>
       </defs>
       <use xlink:href="#DejaVuSans-30"/>
      </g>
     </g>
    </g>
    <g id="xtick_2">
     <g id="line2d_3">
      <path d="M 208.709672 386.44 
L 208.709672 31.2 
" clip-path="url(#pf32147ff55)" style="fill: none; stroke: #b0b0b0; stroke-width: 0.8; stroke-linecap: square"/>
     </g>
     <g id="line2d_4">
      <g>
       <use xlink:href="#m571300ccd9" x="208.709672" y="386.44" style="stroke: #000000; stroke-width: 0.8"/>
      </g>
     </g>
     <g id="text_2">
      <!-- 200 -->
      <g transform="translate(197.257172 402.558125)scale(0.12 -0.12)">
       <defs>
        <path id="DejaVuSans-32" d="M 1228 531 
L 3431 531 
L 3431 0 
L 469 0 
L 469 531 
Q 828 903 1448 1529 
Q 2069 2156 2228 2338 
Q 2531 2678 2651 2914 
Q 2772 3150 2772 3378 
Q 2772 3750 2511 3984 
Q 2250 4219 1831 4219 
Q 1534 4219 1204 4116 
Q 875 4013 500 3803 
L 500 4441 
Q 881 4594 1212 4672 
Q 1544 4750 1819 4750 
Q 2544 4750 2975 4387 
Q 3406 4025 3406 3419 
Q 3406 3131 3298 2873 
Q 3191 2616 2906 2266 
Q 2828 2175 2409 1742 
Q 1991 1309 1228 531 
z
" transform="scale(0.015625)"/>
       </defs>
       <use xlink:href="#DejaVuSans-32"/>
       <use xlink:href="#DejaVuSans-30" x="63.623047"/>
       <use xlink:href="#DejaVuSans-30" x="127.246094"/>
      </g>
     </g>
    </g>
    <g id="xtick_3">
     <g id="line2d_5">
      <path d="M 326.108889 386.44 
L 326.108889 31.2 
" clip-path="url(#pf32147ff55)" style="fill: none; stroke: #b0b0b0; stroke-width: 0.8; stroke-linecap: square"/>
     </g>
     <g id="line2d_6">
      <g>
       <use xlink:href="#m571300ccd9" x="326.108889" y="386.44" style="stroke: #000000; stroke-width: 0.8"/>
      </g>
     </g>
     <g id="text_3">
      <!-- 400 -->
      <g transform="translate(314.656389 402.558125)scale(0.12 -0.12)">
       <defs>
        <path id="DejaVuSans-34" d="M 2419 4116 
L 825 1625 
L 2419 1625 
L 2419 4116 
z
M 2253 4666 
L 3047 4666 
L 3047 1625 
L 3713 1625 
L 3713 1100 
L 3047 1100 
L 3047 0 
L 2419 0 
L 2419 1100 
L 313 1100 
L 313 1709 
L 2253 4666 
z
" transform="scale(0.015625)"/>
       </defs>
       <use xlink:href="#DejaVuSans-34"/>
       <use xlink:href="#DejaVuSans-30" x="63.623047"/>
       <use xlink:href="#DejaVuSans-30" x="127.246094"/>
      </g>
     </g>
    </g>
    <g id="xtick_4">
     <g id="line2d_7">
      <path d="M 443.508107 386.44 
L 443.508107 31.2 
" clip-path="url(#pf32147ff55)" style="fill: none; stroke: #b0b0b0; stroke-width: 0.8; stroke-linecap: square"/>
     </g>
     <g id="line2d_8">
      <g>
       <use xlink:href="#m571300ccd9" x="443.508107" y="386.44" style="stroke: #000000; stroke-width: 0.8"/>
      </g>
     </g>
     <g id="text_4">
      <!-- 600 -->
      <g transform="translate(432.055607 402.558125)scale(0.12 -0.12)">
       <defs>
        <path id="DejaVuSans-36" d="M 2113 2584 
Q 1688 2584 1439 2293 
Q 1191 2003 1191 1497 
Q 1191 994 1439 701 
Q 1688 409 2113 409 
Q 2538 409 2786 701 
Q 3034 994 3034 1497 
Q 3034 2003 2786 2293 
Q 2538 2584 2113 2584 
z
M 3366 4563 
L 3366 3988 
Q 3128 4100 2886 4159 
Q 2644 4219 2406 4219 
Q 1781 4219 1451 3797 
Q 1122 3375 1075 2522 
Q 1259 2794 1537 2939 
Q 1816 3084 2150 3084 
Q 2853 3084 3261 2657 
Q 3669 2231 3669 1497 
Q 3669 778 3244 343 
Q 2819 -91 2113 -91 
Q 1303 -91 875 529 
Q 447 1150 447 2328 
Q 447 3434 972 4092 
Q 1497 4750 2381 4750 
Q 2619 4750 2861 4703 
Q 3103 4656 3366 4563 
z
" transform="scale(0.015625)"/>
       </defs>
       <use xlink:href="#DejaVuSans-36"/>
       <use xlink:href="#DejaVuSans-30" x="63.623047"/>
       <use xlink:href="#DejaVuSans-30" x="127.246094"/>
      </g>
     </g>
    </g>
    <g id="xtick_5">
     <g id="line2d_9">
      <path d="M 560.907324 386.44 
L 560.907324 31.2 
" clip-path="url(#pf32147ff55)" style="fill: none; stroke: #b0b0b0; stroke-width: 0.8; stroke-linecap: square"/>
     </g>
     <g id="line2d_10">
      <g>
       <use xlink:href="#m571300ccd9" x="560.907324" y="386.44" style="stroke: #000000; stroke-width: 0.8"/>
      </g>
     </g>
     <g id="text_5">
      <!-- 800 -->
      <g transform="translate(549.454824 402.558125)scale(0.12 -0.12)">
       <defs>
        <path id="DejaVuSans-38" d="M 2034 2216 
Q 1584 2216 1326 1975 
Q 1069 1734 1069 1313 
Q 1069 891 1326 650 
Q 1584 409 2034 409 
Q 2484 409 2743 651 
Q 3003 894 3003 1313 
Q 3003 1734 2745 1975 
Q 2488 2216 2034 2216 
z
M 1403 2484 
Q 997 2584 770 2862 
Q 544 3141 544 3541 
Q 544 4100 942 4425 
Q 1341 4750 2034 4750 
Q 2731 4750 3128 4425 
Q 3525 4100 3525 3541 
Q 3525 3141 3298 2862 
Q 3072 2584 2669 2484 
Q 3125 2378 3379 2068 
Q 3634 1759 3634 1313 
Q 3634 634 3220 271 
Q 2806 -91 2034 -91 
Q 1263 -91 848 271 
Q 434 634 434 1313 
Q 434 1759 690 2068 
Q 947 2378 1403 2484 
z
M 1172 3481 
Q 1172 3119 1398 2916 
Q 1625 2713 2034 2713 
Q 2441 2713 2670 2916 
Q 2900 3119 2900 3481 
Q 2900 3844 2670 4047 
Q 2441 4250 2034 4250 
Q 1625 4250 1398 4047 
Q 1172 3844 1172 3481 
z
" transform="scale(0.015625)"/>
       </defs>
       <use xlink:href="#DejaVuSans-38"/>
       <use xlink:href="#DejaVuSans-30" x="63.623047"/>
       <use xlink:href="#DejaVuSans-30" x="127.246094"/>
      </g>
     </g>
    </g>
    <g id="xtick_6">
     <g id="line2d_11">
      <path d="M 678.306542 386.44 
L 678.306542 31.2 
" clip-path="url(#pf32147ff55)" style="fill: none; stroke: #b0b0b0; stroke-width: 0.8; stroke-linecap: square"/>
     </g>
     <g id="line2d_12">
      <g>
       <use xlink:href="#m571300ccd9" x="678.306542" y="386.44" style="stroke: #000000; stroke-width: 0.8"/>
      </g>
     </g>
     <g id="text_6">
      <!-- 1000 -->
      <g transform="translate(663.036542 402.558125)scale(0.12 -0.12)">
       <defs>
        <path id="DejaVuSans-31" d="M 794 531 
L 1825 531 
L 1825 4091 
L 703 3866 
L 703 4441 
L 1819 4666 
L 2450 4666 
L 2450 531 
L 3481 531 
L 3481 0 
L 794 0 
L 794 531 
z
" transform="scale(0.015625)"/>
       </defs>
       <use xlink:href="#DejaVuSans-31"/>
       <use xlink:href="#DejaVuSans-30" x="63.623047"/>
       <use xlink:href="#DejaVuSans-30" x="127.246094"/>
       <use xlink:href="#DejaVuSans-30" x="190.869141"/>
      </g>
     </g>
    </g>
    <g id="text_7">
     <!-- Epoch -->
     <g transform="translate(366.141875 418.171875)scale(0.12 -0.12)">
      <defs>
       <path id="DejaVuSans-45" d="M 628 4666 
L 3578 4666 
L 3578 4134 
L 1259 4134 
L 1259 2753 
L 3481 2753 
L 3481 2222 
L 1259 2222 
L 1259 531 
L 3634 531 
L 3634 0 
L 628 0 
L 628 4666 
z
" transform="scale(0.015625)"/>
       <path id="DejaVuSans-70" d="M 1159 525 
L 1159 -1331 
L 581 -1331 
L 581 3500 
L 1159 3500 
L 1159 2969 
Q 1341 3281 1617 3432 
Q 1894 3584 2278 3584 
Q 2916 3584 3314 3078 
Q 3713 2572 3713 1747 
Q 3713 922 3314 415 
Q 2916 -91 2278 -91 
Q 1894 -91 1617 61 
Q 1341 213 1159 525 
z
M 3116 1747 
Q 3116 2381 2855 2742 
Q 2594 3103 2138 3103 
Q 1681 3103 1420 2742 
Q 1159 2381 1159 1747 
Q 1159 1113 1420 752 
Q 1681 391 2138 391 
Q 2594 391 2855 752 
Q 3116 1113 3116 1747 
z
" transform="scale(0.015625)"/>
       <path id="DejaVuSans-6f" d="M 1959 3097 
Q 1497 3097 1228 2736 
Q 959 2375 959 1747 
Q 959 1119 1226 758 
Q 1494 397 1959 397 
Q 2419 397 2687 759 
Q 2956 1122 2956 1747 
Q 2956 2369 2687 2733 
Q 2419 3097 1959 3097 
z
M 1959 3584 
Q 2709 3584 3137 3096 
Q 3566 2609 3566 1747 
Q 3566 888 3137 398 
Q 2709 -91 1959 -91 
Q 1206 -91 779 398 
Q 353 888 353 1747 
Q 353 2609 779 3096 
Q 1206 3584 1959 3584 
z
" transform="scale(0.015625)"/>
       <path id="DejaVuSans-63" d="M 3122 3366 
L 3122 2828 
Q 2878 2963 2633 3030 
Q 2388 3097 2138 3097 
Q 1578 3097 1268 2742 
Q 959 2388 959 1747 
Q 959 1106 1268 751 
Q 1578 397 2138 397 
Q 2388 397 2633 464 
Q 2878 531 3122 666 
L 3122 134 
Q 2881 22 2623 -34 
Q 2366 -91 2075 -91 
Q 1284 -91 818 406 
Q 353 903 353 1747 
Q 353 2603 823 3093 
Q 1294 3584 2113 3584 
Q 2378 3584 2631 3529 
Q 2884 3475 3122 3366 
z
" transform="scale(0.015625)"/>
       <path id="DejaVuSans-68" d="M 3513 2113 
L 3513 0 
L 2938 0 
L 2938 2094 
Q 2938 2591 2744 2837 
Q 2550 3084 2163 3084 
Q 1697 3084 1428 2787 
Q 1159 2491 1159 1978 
L 1159 0 
L 581 0 
L 581 4863 
L 1159 4863 
L 1159 2956 
Q 1366 3272 1645 3428 
Q 1925 3584 2291 3584 
Q 2894 3584 3203 3211 
Q 3513 2838 3513 2113 
z
" transform="scale(0.015625)"/>
      </defs>
      <use xlink:href="#DejaVuSans-45"/>
      <use xlink:href="#DejaVuSans-70" x="63.183594"/>
      <use xlink:href="#DejaVuSans-6f" x="126.660156"/>
      <use xlink:href="#DejaVuSans-63" x="187.841797"/>
      <use xlink:href="#DejaVuSans-68" x="242.822266"/>
     </g>
    </g>
   </g>
   <g id="matplotlib.axis_2">
    <g id="ytick_1">
     <g id="line2d_13">
      <path d="M 61.99 317.783145 
L 707.04 317.783145 
" clip-path="url(#pf32147ff55)" style="fill: none; stroke: #b0b0b0; stroke-width: 0.8; stroke-linecap: square"/>
     </g>
     <g id="line2d_14">
      <defs>
       <path id="mdb2227fc81" d="M 0 0 
L -3.5 0 
" style="stroke: #000000; stroke-width: 0.8"/>
      </defs>
      <g>
       <use xlink:href="#mdb2227fc81" x="61.99" y="317.783145" style="stroke: #000000; stroke-width: 0.8"/>
      </g>
     </g>
     <g id="text_8">
      <!-- 0.0091 -->
      <g transform="translate(13.00125 322.342207)scale(0.12 -0.12)">
       <defs>
        <path id="DejaVuSans-2e" d="M 684 794 
L 1344 794 
L 1344 0 
L 684 0 
L 684 794 
z
" transform="scale(0.015625)"/>
        <path id="DejaVuSans-39" d="M 703 97 
L 703 672 
Q 941 559 1184 500 
Q 1428 441 1663 441 
Q 2288 441 2617 861 
Q 2947 1281 2994 2138 
Q 2813 1869 2534 1725 
Q 2256 1581 1919 1581 
Q 1219 1581 811 2004 
Q 403 2428 403 3163 
Q 403 3881 828 4315 
Q 1253 4750 1959 4750 
Q 2769 4750 3195 4129 
Q 3622 3509 3622 2328 
Q 3622 1225 3098 567 
Q 2575 -91 1691 -91 
Q 1453 -91 1209 -44 
Q 966 3 703 97 
z
M 1959 2075 
Q 2384 2075 2632 2365 
Q 2881 2656 2881 3163 
Q 2881 3666 2632 3958 
Q 2384 4250 1959 4250 
Q 1534 4250 1286 3958 
Q 1038 3666 1038 3163 
Q 1038 2656 1286 2365 
Q 1534 2075 1959 2075 
z
" transform="scale(0.015625)"/>
       </defs>
       <use xlink:href="#DejaVuSans-30"/>
       <use xlink:href="#DejaVuSans-2e" x="63.623047"/>
       <use xlink:href="#DejaVuSans-30" x="95.410156"/>
       <use xlink:href="#DejaVuSans-30" x="159.033203"/>
       <use xlink:href="#DejaVuSans-39" x="222.65625"/>
       <use xlink:href="#DejaVuSans-31" x="286.279297"/>
      </g>
     </g>
    </g>
    <g id="ytick_2">
     <g id="line2d_15">
      <path d="M 61.99 247.872903 
L 707.04 247.872903 
" clip-path="url(#pf32147ff55)" style="fill: none; stroke: #b0b0b0; stroke-width: 0.8; stroke-linecap: square"/>
     </g>
     <g id="line2d_16">
      <g>
       <use xlink:href="#mdb2227fc81" x="61.99" y="247.872903" style="stroke: #000000; stroke-width: 0.8"/>
      </g>
     </g>
     <g id="text_9">
      <!-- 0.0092 -->
      <g transform="translate(13.00125 252.431965)scale(0.12 -0.12)">
       <use xlink:href="#DejaVuSans-30"/>
       <use xlink:href="#DejaVuSans-2e" x="63.623047"/>
       <use xlink:href="#DejaVuSans-30" x="95.410156"/>
       <use xlink:href="#DejaVuSans-30" x="159.033203"/>
       <use xlink:href="#DejaVuSans-39" x="222.65625"/>
       <use xlink:href="#DejaVuSans-32" x="286.279297"/>
      </g>
     </g>
    </g>
    <g id="ytick_3">
     <g id="line2d_17">
      <path d="M 61.99 177.962661 
L 707.04 177.962661 
" clip-path="url(#pf32147ff55)" style="fill: none; stroke: #b0b0b0; stroke-width: 0.8; stroke-linecap: square"/>
     </g>
     <g id="line2d_18">
      <g>
       <use xlink:href="#mdb2227fc81" x="61.99" y="177.962661" style="stroke: #000000; stroke-width: 0.8"/>
      </g>
     </g>
     <g id="text_10">
      <!-- 0.0093 -->
      <g transform="translate(13.00125 182.521724)scale(0.12 -0.12)">
       <defs>
        <path id="DejaVuSans-33" d="M 2597 2516 
Q 3050 2419 3304 2112 
Q 3559 1806 3559 1356 
Q 3559 666 3084 287 
Q 2609 -91 1734 -91 
Q 1441 -91 1130 -33 
Q 819 25 488 141 
L 488 750 
Q 750 597 1062 519 
Q 1375 441 1716 441 
Q 2309 441 2620 675 
Q 2931 909 2931 1356 
Q 2931 1769 2642 2001 
Q 2353 2234 1838 2234 
L 1294 2234 
L 1294 2753 
L 1863 2753 
Q 2328 2753 2575 2939 
Q 2822 3125 2822 3475 
Q 2822 3834 2567 4026 
Q 2313 4219 1838 4219 
Q 1578 4219 1281 4162 
Q 984 4106 628 3988 
L 628 4550 
Q 988 4650 1302 4700 
Q 1616 4750 1894 4750 
Q 2613 4750 3031 4423 
Q 3450 4097 3450 3541 
Q 3450 3153 3228 2886 
Q 3006 2619 2597 2516 
z
" transform="scale(0.015625)"/>
       </defs>
       <use xlink:href="#DejaVuSans-30"/>
       <use xlink:href="#DejaVuSans-2e" x="63.623047"/>
       <use xlink:href="#DejaVuSans-30" x="95.410156"/>
       <use xlink:href="#DejaVuSans-30" x="159.033203"/>
       <use xlink:href="#DejaVuSans-39" x="222.65625"/>
       <use xlink:href="#DejaVuSans-33" x="286.279297"/>
      </g>
     </g>
    </g>
    <g id="ytick_4">
     <g id="line2d_19">
      <path d="M 61.99 108.052419 
L 707.04 108.052419 
" clip-path="url(#pf32147ff55)" style="fill: none; stroke: #b0b0b0; stroke-width: 0.8; stroke-linecap: square"/>
     </g>
     <g id="line2d_20">
      <g>
       <use xlink:href="#mdb2227fc81" x="61.99" y="108.052419" style="stroke: #000000; stroke-width: 0.8"/>
      </g>
     </g>
     <g id="text_11">
      <!-- 0.0094 -->
      <g transform="translate(13.00125 112.611482)scale(0.12 -0.12)">
       <use xlink:href="#DejaVuSans-30"/>
       <use xlink:href="#DejaVuSans-2e" x="63.623047"/>
       <use xlink:href="#DejaVuSans-30" x="95.410156"/>
       <use xlink:href="#DejaVuSans-30" x="159.033203"/>
       <use xlink:href="#DejaVuSans-39" x="222.65625"/>
       <use xlink:href="#DejaVuSans-34" x="286.279297"/>
      </g>
     </g>
    </g>
    <g id="ytick_5">
     <g id="line2d_21">
      <path d="M 61.99 38.142178 
L 707.04 38.142178 
" clip-path="url(#pf32147ff55)" style="fill: none; stroke: #b0b0b0; stroke-width: 0.8; stroke-linecap: square"/>
     </g>
     <g id="line2d_22">
      <g>
       <use xlink:href="#mdb2227fc81" x="61.99" y="38.142178" style="stroke: #000000; stroke-width: 0.8"/>
      </g>
     </g>
     <g id="text_12">
      <!-- 0.0095 -->
      <g transform="translate(13.00125 42.70124)scale(0.12 -0.12)">
       <defs>
        <path id="DejaVuSans-35" d="M 691 4666 
L 3169 4666 
L 3169 4134 
L 1269 4134 
L 1269 2991 
Q 1406 3038 1543 3061 
Q 1681 3084 1819 3084 
Q 2600 3084 3056 2656 
Q 3513 2228 3513 1497 
Q 3513 744 3044 326 
Q 2575 -91 1722 -91 
Q 1428 -91 1123 -41 
Q 819 9 494 109 
L 494 744 
Q 775 591 1075 516 
Q 1375 441 1709 441 
Q 2250 441 2565 725 
Q 2881 1009 2881 1497 
Q 2881 1984 2565 2268 
Q 2250 2553 1709 2553 
Q 1456 2553 1204 2497 
Q 953 2441 691 2322 
L 691 4666 
z
" transform="scale(0.015625)"/>
       </defs>
       <use xlink:href="#DejaVuSans-30"/>
       <use xlink:href="#DejaVuSans-2e" x="63.623047"/>
       <use xlink:href="#DejaVuSans-30" x="95.410156"/>
       <use xlink:href="#DejaVuSans-30" x="159.033203"/>
       <use xlink:href="#DejaVuSans-39" x="222.65625"/>
       <use xlink:href="#DejaVuSans-35" x="286.279297"/>
      </g>
     </g>
    </g>
   </g>
   <g id="line2d_23">
    <path d="M 91.310455 47.347273 
L 677.719545 47.347273 
L 677.719545 47.347273 
" clip-path="url(#pf32147ff55)" style="fill: none; stroke: #1f77b4; stroke-width: 1.5; stroke-linecap: square"/>
   </g>
   <g id="line2d_24">
    <path d="M 91.310455 170.657041 
L 91.897451 194.60829 
L 92.484447 149.28548 
L 93.071443 139.854588 
L 93.658439 170.747924 
L 94.245435 94.196209 
L 95.419427 265.210643 
L 96.593419 203.465917 
L 97.180415 153.333283 
L 97.767412 227.794681 
L 98.354408 244.650041 
L 99.5284 164.868473 
L 100.115396 218.979 
L 100.702392 243.475549 
L 101.289388 197.936017 
L 101.876384 206.339228 
L 102.46338 216.979567 
L 103.050376 159.100878 
L 103.637372 230.975597 
L 104.224368 208.387598 
L 104.811365 224.753586 
L 105.398361 229.067048 
L 105.985357 236.596381 
L 106.572353 291.699633 
L 107.159349 265.73497 
L 107.746345 202.382309 
L 108.333341 252.193356 
L 108.920337 229.4935 
L 109.507333 212.267617 
L 110.094329 220.097564 
L 110.681325 151.19403 
L 111.268322 178.948396 
L 111.855318 306.926084 
L 112.442314 231.276211 
L 113.02931 230.304459 
L 113.616306 248.12458 
L 114.203302 220.181456 
L 114.790298 203.389016 
L 115.377294 296.166898 
L 115.96429 219.845887 
L 116.551286 235.876305 
L 117.138282 260.100204 
L 117.725278 132.458085 
L 118.312275 272.033882 
L 118.899271 233.869881 
L 119.486267 272.236622 
L 120.073263 259.512958 
L 120.660259 212.267617 
L 121.247255 258.086789 
L 121.834251 188.393269 
L 122.421247 185.107488 
L 123.008243 252.137428 
L 123.595239 191.455338 
L 124.182235 245.614802 
L 125.356228 171.076502 
L 125.943224 233.149806 
L 126.53022 251.424343 
L 127.117216 275.040023 
L 127.704212 230.143666 
L 128.291208 221.348957 
L 128.878204 331.779175 
L 129.4652 225.221985 
L 130.052196 282.492455 
L 130.639192 237.421322 
L 131.226188 209.715893 
L 131.813185 243.643333 
L 132.400181 225.438706 
L 132.987177 188.952551 
L 133.574173 183.702292 
L 134.161169 227.116552 
L 134.748165 220.817639 
L 135.335161 257.450606 
L 135.922157 207.234079 
L 136.509153 246.299922 
L 137.096149 249.019431 
L 137.683145 270.363028 
L 138.270142 261.547346 
L 138.857138 250.774178 
L 139.444134 223.495202 
L 140.03113 227.074606 
L 140.618126 283.198548 
L 141.205122 206.269318 
L 141.792118 227.752735 
L 142.379114 196.985238 
L 142.96611 149.90069 
L 143.553106 276.752824 
L 144.140102 250.277815 
L 144.727098 232.443713 
L 145.314095 259.624815 
L 145.901091 247.677154 
L 146.488087 212.407437 
L 147.075083 189.917312 
L 147.662079 193.650519 
L 148.249075 200.368894 
L 148.836071 254.094914 
L 149.423067 264.092079 
L 150.010063 197.949999 
L 150.597059 321.313612 
L 151.771052 196.614714 
L 152.358048 257.639364 
L 152.945044 173.51637 
L 153.53204 273.257312 
L 154.119036 232.094161 
L 154.706032 279.003934 
L 155.293028 257.932987 
L 155.880024 228.899263 
L 156.46702 218.601485 
L 157.054016 274.257028 
L 157.641012 198.08982 
L 158.228008 267.692456 
L 158.815005 252.011589 
L 159.402001 218.335826 
L 159.988997 207.073286 
L 160.575993 242.084335 
L 161.162989 224.257223 
L 161.749985 199.515989 
L 162.336981 240.797986 
L 162.923977 235.351979 
L 163.510973 286.701051 
L 164.097969 303.34668 
L 164.684965 292.650413 
L 165.271962 233.709088 
L 165.858958 329.073649 
L 167.03295 186.512684 
L 167.619946 238.043523 
L 168.206942 319.726649 
L 168.793938 210.869412 
L 169.380934 255.199496 
L 169.96793 283.778803 
L 170.554926 204.98297 
L 171.141922 213.931481 
L 171.728918 211.316837 
L 172.315915 235.282068 
L 172.902911 156.080755 
L 173.489907 281.338936 
L 174.076903 163.89672 
L 174.663899 186.715423 
L 175.250895 238.253254 
L 175.837891 228.46582 
L 176.424887 286.631141 
L 177.011883 176.082076 
L 177.598879 252.109464 
L 178.185875 261.239741 
L 178.772872 161.540745 
L 179.359868 289.930904 
L 179.946864 310.666282 
L 180.53386 188.777776 
L 181.120856 353.101799 
L 181.707852 206.702762 
L 182.294848 261.813005 
L 183.46884 268.790047 
L 184.055836 181.591003 
L 184.642832 236.869031 
L 185.229828 303.794105 
L 185.816825 151.396769 
L 186.403821 243.867046 
L 186.990817 238.546877 
L 187.577813 215.539416 
L 188.164809 223.600067 
L 189.338801 199.746692 
L 189.925797 256.157267 
L 190.512793 199.369177 
L 191.099789 207.276025 
L 191.686785 199.054581 
L 192.273782 180.640223 
L 192.860778 232.597515 
L 193.447774 229.248814 
L 194.621766 127.690206 
L 195.208762 233.17777 
L 195.795758 230.898696 
L 196.382754 236.491516 
L 196.96975 238.714661 
L 197.556746 278.290849 
L 198.143742 218.035212 
L 198.730738 247.089908 
L 199.317735 226.697091 
L 199.904731 229.458545 
L 200.491727 223.054767 
L 201.078723 317.901992 
L 201.665719 274.872238 
L 202.252715 218.461664 
L 202.839711 252.759629 
L 203.426707 208.226805 
L 204.013703 234.764733 
L 204.600699 242.860339 
L 205.187695 296.977857 
L 205.774692 256.940261 
L 206.361688 194.328649 
L 206.948684 194.503424 
L 207.53568 207.793361 
L 208.122676 261.141867 
L 208.709672 271.544511 
L 209.296668 193.440789 
L 209.883664 208.520428 
L 210.47066 205.458359 
L 211.057656 242.39194 
L 211.644652 248.152544 
L 212.231648 228.675551 
L 212.818645 318.9087 
L 213.405641 225.089155 
L 213.992637 170.440319 
L 214.579633 179.304938 
L 215.166629 249.110314 
L 215.753625 226.641162 
L 216.340621 255.108613 
L 216.927617 275.095951 
L 217.514613 259.93242 
L 218.101609 241.783721 
L 218.688605 261.134876 
L 219.275602 251.074792 
L 219.862598 190.644379 
L 220.449594 267.951124 
L 221.623586 160.492092 
L 222.210582 274.382867 
L 222.797578 265.560194 
L 223.384574 302.766425 
L 223.97157 180.164834 
L 224.558566 212.309563 
L 225.145562 290.811773 
L 225.732558 239.707387 
L 226.319555 219.929779 
L 226.906551 149.753879 
L 227.493547 291.273181 
L 228.080543 154.570694 
L 228.667539 252.843521 
L 229.254535 171.055529 
L 229.841531 167.364268 
L 230.428527 289.602326 
L 231.015523 146.335268 
L 231.602519 302.298026 
L 232.189515 178.990342 
L 232.776512 207.108241 
L 233.363508 185.946411 
L 233.950504 281.269025 
L 234.5375 201.802054 
L 235.124496 306.646443 
L 235.711492 204.612445 
L 236.298488 246.41877 
L 236.885484 196.188261 
L 238.059476 257.324768 
L 238.646472 271.782206 
L 239.233468 150.592801 
L 239.820465 218.133086 
L 240.407461 217.706634 
L 240.994457 272.90776 
L 241.581453 243.510504 
L 242.168449 258.806865 
L 242.755445 214.819341 
L 243.342441 239.029257 
L 243.929437 271.104076 
L 244.516433 208.100966 
L 245.103429 170.824825 
L 245.690425 240.147821 
L 246.277422 276.52212 
L 246.864418 200.858265 
L 247.451414 179.45874 
L 248.03841 259.848527 
L 248.625406 215.42756 
L 249.212402 293.419425 
L 249.799398 280.807618 
L 250.386394 265.713997 
L 251.560386 177.606119 
L 252.147382 239.679423 
L 252.734378 232.583533 
L 253.321375 237.833792 
L 253.908371 236.505498 
L 254.495367 364.203545 
L 255.669359 238.106442 
L 256.256355 273.04059 
L 256.843351 236.323731 
L 257.430347 186.016321 
L 258.017343 288.071292 
L 258.604339 308.142522 
L 259.191335 199.928459 
L 259.778332 163.777873 
L 260.365328 329.199487 
L 260.952324 307.184752 
L 261.53932 244.859771 
L 262.126316 228.374936 
L 262.713312 215.343667 
L 263.300308 265.979656 
L 263.887304 226.312584 
L 264.4743 218.608476 
L 265.061296 216.364357 
L 265.648292 321.872894 
L 266.235288 328.835954 
L 266.822285 248.690853 
L 267.409281 256.569737 
L 267.996277 176.683304 
L 268.583273 283.974552 
L 269.170269 240.126848 
L 269.757265 142.73489 
L 270.344261 189.379004 
L 270.931257 267.860241 
L 271.518253 209.275458 
L 272.105249 209.198557 
L 272.692245 161.918261 
L 273.279242 315.175493 
L 273.866238 204.892086 
L 274.453234 210.589771 
L 275.04023 244.062795 
L 275.627226 156.458271 
L 276.214222 260.855235 
L 276.801218 254.926846 
L 277.388214 257.00318 
L 277.97521 192.049575 
L 278.562206 179.997049 
L 279.149202 222.949902 
L 279.736198 292.657404 
L 280.323195 204.738284 
L 280.910191 273.571908 
L 281.497187 253.682444 
L 282.084183 272.509272 
L 282.671179 218.992982 
L 283.258175 221.418867 
L 283.845171 262.414233 
L 284.432167 142.965594 
L 285.019163 178.745656 
L 285.606159 161.652602 
L 286.193155 273.173419 
L 286.780152 185.233326 
L 287.367148 191.392419 
L 287.954144 257.520516 
L 288.54114 185.904465 
L 289.128136 281.09425 
L 289.715132 330.716539 
L 290.302128 297.48121 
L 290.889124 296.565386 
L 291.47612 252.270257 
L 292.063116 217.189298 
L 292.650112 219.349524 
L 293.237108 216.685944 
L 293.824105 267.140166 
L 294.411101 291.559813 
L 294.998097 300.466378 
L 295.585093 254.724107 
L 296.172089 256.269123 
L 296.759085 295.866284 
L 297.346081 200.802337 
L 297.933077 211.792227 
L 298.520073 247.229729 
L 299.107069 198.872814 
L 299.694065 238.218299 
L 300.281062 216.098698 
L 301.455054 291.601759 
L 302.04205 196.614714 
L 302.629046 133.366918 
L 303.803038 273.557926 
L 304.390034 181.115613 
L 304.97703 255.63294 
L 305.564026 209.058737 
L 306.151022 178.172392 
L 306.738018 310.246821 
L 307.325015 268.797038 
L 307.912011 213.798651 
L 308.499007 264.469594 
L 309.086003 270.712579 
L 309.672999 235.128266 
L 310.259995 217.392037 
L 310.846991 231.485942 
L 311.433987 249.725524 
L 312.020983 207.310981 
L 312.607979 296.79609 
L 313.194975 211.771254 
L 313.781972 168.042398 
L 314.368968 285.46364 
L 314.955964 222.404602 
L 315.54296 250.872052 
L 316.129956 214.162184 
L 317.303948 206.646833 
L 317.890944 225.585518 
L 318.47794 268.517397 
L 319.064936 271.551502 
L 319.651932 259.484994 
L 320.238928 198.935734 
L 320.825925 175.005458 
L 321.412921 193.524681 
L 321.999917 199.278294 
L 322.586913 239.994019 
L 323.173909 203.193267 
L 323.760905 258.576161 
L 324.347901 229.926944 
L 324.934897 229.241823 
L 325.521893 290.846729 
L 326.108889 254.038986 
L 326.695885 168.958222 
L 327.282882 170.433328 
L 327.869878 236.51948 
L 328.456874 317.517486 
L 329.04387 223.907672 
L 329.630866 194.384577 
L 330.217862 245.621793 
L 330.804858 240.34357 
L 331.391854 204.486607 
L 331.97885 296.411584 
L 332.565846 211.715326 
L 333.152842 194.908904 
L 333.739838 265.755943 
L 334.326835 287.595902 
L 334.913831 188.022745 
L 335.500827 205.507296 
L 336.087823 181.423218 
L 336.674819 274.382867 
L 337.261815 238.050514 
L 337.848811 294.356223 
L 338.435807 269.852683 
L 339.022803 169.14698 
L 339.609799 298.082439 
L 340.196795 266.874507 
L 340.783792 154.780425 
L 341.957784 253.088207 
L 342.54478 200.389867 
L 343.131776 178.060535 
L 343.718772 136.610753 
L 344.305768 235.939225 
L 344.892764 123.796206 
L 345.47976 163.714954 
L 346.653752 301.584942 
L 347.240748 198.781931 
L 347.827745 271.663358 
L 348.414741 244.202615 
L 349.001737 251.207621 
L 349.588733 228.507766 
L 350.175729 216.734881 
L 350.762725 218.29388 
L 351.349721 295.544697 
L 351.936717 207.269034 
L 352.523713 298.173322 
L 353.110709 211.009232 
L 353.697705 216.567097 
L 354.284702 178.144428 
L 354.871698 293.398452 
L 355.458694 168.94424 
L 356.04569 141.259784 
L 356.632686 243.098033 
L 357.219682 245.831524 
L 357.806678 240.105875 
L 358.393674 276.473183 
L 358.98067 241.000726 
L 359.567666 293.321551 
L 360.154662 275.739125 
L 360.741658 180.20678 
L 361.328655 281.017349 
L 361.915651 84.597533 
L 362.502647 250.333743 
L 363.089643 242.958213 
L 363.676639 159.289636 
L 364.263635 214.504744 
L 364.850631 200.417831 
L 365.437627 232.611497 
L 366.024623 211.512586 
L 366.611619 219.706066 
L 367.198615 193.489726 
L 367.785612 252.319194 
L 368.372608 194.776074 
L 368.959604 267.482726 
L 369.5466 210.10739 
L 370.133596 172.579573 
L 370.720592 203.472908 
L 371.307588 288.994107 
L 371.894584 258.520233 
L 373.068576 166.301633 
L 373.655572 177.396388 
L 374.242568 214.315987 
L 374.829565 223.837762 
L 375.416561 249.529776 
L 376.003557 199.187411 
L 376.590553 199.59289 
L 377.177549 222.306727 
L 377.764545 190.385711 
L 378.351541 174.103616 
L 378.938537 238.036532 
L 379.525533 248.138562 
L 380.112529 219.104838 
L 380.699525 135.114674 
L 381.873518 246.411779 
L 382.460514 222.523449 
L 383.04751 262.602991 
L 383.634506 227.934502 
L 384.221502 224.397044 
L 384.808498 248.425194 
L 385.395494 193.755385 
L 385.98249 196.223216 
L 386.569486 285.309837 
L 387.156482 222.013104 
L 387.743478 234.785706 
L 388.330475 204.416697 
L 388.917471 261.931853 
L 389.504467 255.604976 
L 390.091463 199.823594 
L 390.678459 236.491516 
L 391.265455 201.78108 
L 391.852451 136.04448 
L 392.439447 241.105591 
L 393.026443 227.906538 
L 393.613439 278.416688 
L 394.200435 225.543572 
L 394.787432 217.440975 
L 395.374428 223.991564 
L 395.961424 233.100869 
L 396.54842 214.295014 
L 397.135416 305.961323 
L 397.722412 271.579466 
L 398.309408 343.496132 
L 398.896404 214.183157 
L 399.4834 253.65448 
L 400.070396 270.901337 
L 400.657392 206.038614 
L 401.244388 125.208393 
L 401.831385 167.189493 
L 402.418381 193.783349 
L 403.005377 275.081969 
L 403.592373 235.49879 
L 404.179369 355.660514 
L 404.766365 278.927032 
L 405.353361 261.813005 
L 405.940357 261.057974 
L 406.527353 280.283291 
L 407.114349 164.511931 
L 407.701345 245.048529 
L 408.288342 286.337518 
L 408.875338 191.021894 
L 409.462334 306.975021 
L 410.04933 284.03048 
L 410.636326 136.421995 
L 411.223322 195.810746 
L 411.810318 169.818118 
L 412.397314 291.552822 
L 412.98431 157.185337 
L 413.571306 210.163318 
L 414.158302 194.468469 
L 414.745298 228.780416 
L 415.332295 210.974277 
L 415.919291 171.146413 
L 416.506287 318.803834 
L 417.093283 237.805828 
L 417.680279 235.855332 
L 418.267275 179.374848 
L 418.854271 185.995348 
L 419.441267 226.683109 
L 420.028263 161.107302 
L 420.615259 144.063185 
L 421.202255 238.91041 
L 421.789252 258.974649 
L 422.376248 214.602619 
L 422.963244 244.006867 
L 423.55024 221.481787 
L 424.137236 244.104741 
L 424.724232 212.77097 
L 425.311228 264.154998 
L 425.898224 157.1364 
L 426.48522 223.159632 
L 427.072216 261.736104 
L 427.659212 251.752921 
L 428.246208 103.179675 
L 428.833205 312.980311 
L 429.420201 281.541675 
L 430.007197 262.644937 
L 430.594193 201.606305 
L 431.181189 291.727598 
L 431.768185 287.819615 
L 432.942177 177.13772 
L 433.529173 289.301712 
L 434.116169 263.218201 
L 434.703165 252.591844 
L 435.290162 257.191938 
L 435.877158 232.527605 
L 436.464154 326.745638 
L 437.05115 223.138659 
L 437.638146 224.844469 
L 438.225142 266.657785 
L 438.812138 370.292727 
L 439.399134 211.337811 
L 439.98613 269.209509 
L 440.573126 225.725338 
L 441.160122 278.850131 
L 441.747118 198.746976 
L 442.334115 172.216039 
L 442.921111 236.204884 
L 443.508107 281.213097 
L 444.095103 166.189776 
L 444.682099 284.652681 
L 445.269095 211.624443 
L 445.856091 224.662703 
L 446.443087 182.360015 
L 447.030083 255.744796 
L 447.617079 150.187322 
L 448.204075 208.387598 
L 448.791072 171.377116 
L 449.378068 265.371436 
L 449.965064 240.448435 
L 450.55206 263.637662 
L 451.139056 275.522404 
L 451.726052 200.613579 
L 452.313048 232.660434 
L 453.48704 165.763324 
L 454.074036 246.950088 
L 454.661032 254.409511 
L 455.248028 239.623494 
L 455.835025 263.022452 
L 456.422021 291.622732 
L 457.009017 211.659398 
L 457.596013 269.188536 
L 458.770005 217.217262 
L 459.357001 279.493305 
L 459.943997 216.818773 
L 460.530993 250.648339 
L 461.117989 259.429066 
L 461.704985 238.36511 
L 462.291982 171.027565 
L 462.878978 242.329021 
L 463.465974 274.620561 
L 464.05297 162.093036 
L 464.639966 208.786087 
L 465.226962 198.068847 
L 465.813958 158.401775 
L 466.400954 319.551874 
L 466.98795 278.801194 
L 467.574946 185.799599 
L 468.161942 304.395333 
L 468.748938 210.135354 
L 469.922931 252.29123 
L 470.509927 200.82331 
L 471.096923 199.872531 
L 471.683919 249.438892 
L 472.270915 191.720997 
L 472.857911 176.830115 
L 473.444907 174.432194 
L 474.031903 287.071575 
L 474.618899 211.239936 
L 475.205895 326.997315 
L 475.792892 218.321844 
L 476.379888 199.718728 
L 476.966884 248.159535 
L 478.140876 194.321658 
L 478.727872 261.260714 
L 479.314868 250.305779 
L 479.901864 257.122028 
L 480.48886 326.885458 
L 481.662852 208.688212 
L 482.249848 204.689347 
L 482.836845 288.94517 
L 483.423841 186.603567 
L 484.010837 276.962554 
L 485.184829 166.14783 
L 485.771825 198.187694 
L 486.358821 212.120805 
L 486.945817 255.031712 
L 487.532813 174.823691 
L 488.119809 170.44731 
L 488.706805 181.793742 
L 489.293802 185.100497 
L 489.880798 195.15359 
L 490.467794 301.389193 
L 491.05479 220.782684 
L 491.641786 221.43984 
L 492.228782 278.50058 
L 492.815778 211.379757 
L 493.402774 215.742156 
L 493.98977 261.03001 
L 495.163762 207.702478 
L 495.750758 236.281785 
L 496.337755 240.091893 
L 496.924751 176.11004 
L 497.511747 285.897083 
L 498.098743 243.664306 
L 498.685739 235.533745 
L 499.272735 198.781931 
L 499.859731 230.115701 
L 500.446727 189.616698 
L 501.033723 198.460344 
L 501.620719 220.908523 
L 502.207715 249.837381 
L 502.794712 227.081597 
L 503.381708 217.741589 
L 503.968704 233.205734 
L 504.5557 285.764254 
L 505.142696 245.726658 
L 505.729692 189.735546 
L 506.316688 273.236339 
L 506.903684 193.965115 
L 507.49068 237.603088 
L 508.077676 244.64305 
L 508.664672 318.615077 
L 509.251668 251.508235 
L 509.838665 203.109375 
L 510.425661 222.907956 
L 511.012657 318.356409 
L 511.599653 263.309084 
L 512.186649 326.459006 
L 512.773645 132.192426 
L 513.360641 213.889534 
L 513.947637 215.888967 
L 514.534633 248.53705 
L 515.121629 249.865345 
L 515.708625 273.550935 
L 516.295622 193.797331 
L 516.882618 203.067429 
L 517.469614 306.989003 
L 518.05661 216.287456 
L 518.643606 294.097555 
L 519.230602 284.428968 
L 519.817598 255.597985 
L 520.404594 280.954429 
L 520.99159 314.273651 
L 521.578586 190.833137 
L 522.165582 221.894257 
L 522.752578 165.560584 
L 523.926571 286.092832 
L 524.513567 236.533462 
L 525.100563 290.986549 
L 525.687559 274.823301 
L 526.274555 241.734784 
L 526.861551 268.87394 
L 527.448547 268.440496 
L 528.035543 231.534879 
L 528.622539 269.594015 
L 529.209535 165.868189 
L 529.796532 219.125811 
L 530.383528 179.346884 
L 530.970524 153.598942 
L 531.55752 291.664678 
L 532.144516 262.679892 
L 532.731512 153.375229 
L 533.318508 267.217067 
L 533.905504 286.868836 
L 534.4925 223.900681 
L 535.079496 143.776553 
L 535.666492 198.677066 
L 536.253488 223.816789 
L 536.840485 211.12808 
L 537.427481 228.081313 
L 538.014477 283.086692 
L 538.601473 183.709283 
L 539.775465 256.576728 
L 540.362461 170.10475 
L 540.949457 216.133653 
L 541.536453 183.366723 
L 542.123449 270.132324 
L 542.710445 221.803374 
L 543.297442 202.277443 
L 543.884438 299.396751 
L 544.471434 187.002055 
L 545.05843 163.41434 
L 545.645426 231.325149 
L 546.819418 137.184017 
L 547.406414 190.455621 
L 548.580406 263.323066 
L 549.167402 263.1413 
L 549.754398 212.42841 
L 550.341395 196.125342 
L 550.928391 309.820368 
L 551.515387 246.160102 
L 552.102383 313.455701 
L 552.689379 270.474884 
L 553.276375 268.26572 
L 553.863371 224.774559 
L 554.450367 317.964911 
L 555.624359 252.025571 
L 556.211355 229.297752 
L 556.798352 216.014806 
L 557.385348 195.691898 
L 557.972344 273.278285 
L 558.55934 268.419523 
L 559.146336 245.167377 
L 559.733332 217.056468 
L 560.320328 237.742909 
L 561.49432 248.572005 
L 562.081316 158.91212 
L 562.668312 249.592695 
L 563.255308 260.386836 
L 563.842305 234.317307 
L 564.429301 192.112494 
L 565.016297 102.375708 
L 565.603293 232.919102 
L 566.190289 199.823594 
L 566.777285 248.362275 
L 567.364281 194.167855 
L 567.951277 237.7499 
L 568.538273 232.024251 
L 569.125269 242.615653 
L 569.712265 276.640967 
L 570.299262 303.877998 
L 570.886258 168.608671 
L 571.473254 276.31938 
L 572.06025 214.637574 
L 573.234242 193.818304 
L 573.821238 239.406773 
L 574.408234 192.476027 
L 574.99523 289.497461 
L 575.582226 282.765105 
L 576.169222 310.547435 
L 576.756218 187.148867 
L 577.343215 225.005263 
L 577.930211 165.399791 
L 578.517207 234.841634 
L 579.104203 250.235869 
L 579.691199 234.499074 
L 580.278195 182.66762 
L 580.865191 307.191743 
L 581.452187 273.439078 
L 582.626179 163.512214 
L 583.213175 144.161059 
L 583.800172 205.25562 
L 584.387168 310.813094 
L 584.974164 232.723354 
L 586.148156 300.424432 
L 586.735152 221.901248 
L 587.322148 250.249851 
L 587.909144 238.22529 
L 588.49614 244.64305 
L 589.083136 214.700493 
L 589.670132 196.153306 
L 590.257128 259.568886 
L 590.844125 294.510025 
L 591.431121 242.329021 
L 592.018117 221.859302 
L 592.605113 305.471951 
L 593.192109 314.665148 
L 593.779105 102.110049 
L 594.366101 254.849945 
L 594.953097 239.127132 
L 595.540093 245.286224 
L 596.127089 214.001391 
L 596.714085 203.521846 
L 597.301082 252.095481 
L 598.475074 221.726472 
L 599.06207 179.829265 
L 599.649066 276.123632 
L 600.236062 319.586829 
L 600.823058 250.85807 
L 601.410054 252.01858 
L 601.99705 174.683871 
L 602.584046 277.430953 
L 603.171042 221.111262 
L 603.758038 226.871866 
L 604.345035 243.874037 
L 604.932031 170.188642 
L 605.519027 307.254662 
L 606.106023 232.038233 
L 606.693019 210.988259 
L 607.280015 330.695566 
L 607.867011 220.13951 
L 608.454007 166.916843 
L 609.041003 178.284248 
L 609.627999 202.361335 
L 610.214995 212.777962 
L 610.801992 278.598454 
L 611.388988 261.98079 
L 611.975984 239.280934 
L 612.56298 122.481893 
L 613.149976 230.178621 
L 613.736972 194.363604 
L 614.323968 241.951505 
L 614.910964 267.342905 
L 615.49796 271.369735 
L 616.084956 191.874799 
L 616.671952 227.340265 
L 617.258948 312.043514 
L 617.845945 311.67299 
L 618.432941 295.09028 
L 619.019937 220.251366 
L 619.606933 225.809231 
L 620.193929 241.413197 
L 620.780925 235.778431 
L 621.367921 302.507757 
L 621.954917 304.947624 
L 622.541913 222.977866 
L 623.128909 308.26137 
L 623.715905 224.452972 
L 624.302902 207.073286 
L 624.889898 161.63862 
L 625.476894 236.694255 
L 626.06389 225.019245 
L 626.650886 182.94027 
L 627.237882 113.120912 
L 627.824878 232.226991 
L 628.411874 299.38976 
L 628.99887 332.401376 
L 629.585866 194.852976 
L 630.172862 327.262973 
L 630.759858 232.443713 
L 631.346855 241.0986 
L 631.933851 143.3501 
L 632.520847 296.817063 
L 633.107843 282.387589 
L 633.694839 139.428136 
L 634.281835 207.317972 
L 634.868831 216.818773 
L 635.455827 298.075448 
L 636.042823 240.238704 
L 636.629819 274.88622 
L 637.216815 225.87215 
L 637.803812 239.218015 
L 638.390808 202.829734 
L 639.5648 246.705402 
L 640.151796 236.952923 
L 640.738792 237.589106 
L 641.325788 295.411867 
L 641.912784 181.528083 
L 642.49978 269.635961 
L 643.086776 193.531672 
L 643.673772 293.754995 
L 644.260768 282.317679 
L 644.847765 297.907663 
L 645.434761 307.345546 
L 646.021757 187.09993 
L 646.608753 224.515891 
L 647.195749 222.383629 
L 647.782745 203.850424 
L 648.369741 177.662047 
L 648.956737 254.290663 
L 650.130729 230.31145 
L 650.717725 286.938746 
L 651.304722 206.793645 
L 651.891718 283.534117 
L 652.478714 278.325804 
L 653.06571 215.434551 
L 653.652706 256.534782 
L 654.239702 229.919953 
L 654.826698 299.683383 
L 655.413694 236.987878 
L 656.00069 231.255238 
L 656.587686 259.561895 
L 657.174682 301.29831 
L 657.761678 249.040404 
L 658.348675 300.389477 
L 658.935671 219.734031 
L 659.522667 215.602335 
L 660.109663 262.505117 
L 661.283655 182.5278 
L 661.870651 245.887452 
L 662.457647 172.139138 
L 663.044643 212.456374 
L 663.631639 199.180419 
L 664.805632 188.155574 
L 665.392628 172.055246 
L 665.979624 175.893318 
L 666.56662 247.705118 
L 667.153616 223.152641 
L 667.740612 101.550767 
L 668.327608 254.68216 
L 668.914604 191.993647 
L 669.5016 148.900974 
L 670.088596 145.482363 
L 670.675592 231.297185 
L 671.262588 92.944816 
L 671.849585 117.315526 
L 672.436581 150.64873 
L 673.023577 211.47064 
L 673.610573 240.588256 
L 674.197569 59.066313 
L 674.784565 118.580902 
L 675.371561 158.380802 
L 675.958557 129.291151 
L 676.545553 72.775711 
L 677.132549 76.956344 
L 677.719545 72.579963 
L 677.719545 72.579963 
" clip-path="url(#pf32147ff55)" style="fill: none; stroke: #ff7f0e; stroke-width: 1.5; stroke-linecap: square"/>
   </g>
   <g id="line2d_25">
    <path d="M 91.310455 151.375796 
L 92.484447 173.215756 
L 93.658439 188.120619 
L 94.832431 198.187694 
L 96.006423 204.968988 
L 97.180415 209.590054 
L 98.354408 212.83389 
L 99.5284 215.238802 
L 100.702392 217.147352 
L 102.46338 219.496336 
L 104.811365 222.152925 
L 107.159349 224.452972 
L 109.507333 226.375504 
L 111.268322 227.543005 
L 113.02931 228.479802 
L 115.377294 229.395626 
L 117.725278 229.996854 
L 120.073263 230.367378 
L 123.595239 230.647019 
L 128.291208 230.765867 
L 140.03113 230.800822 
L 640.738792 230.709939 
L 644.847765 230.493217 
L 647.782745 230.094728 
L 650.130729 229.514473 
L 651.891718 228.850326 
L 653.652706 227.934502 
L 655.413694 226.718064 
L 657.174682 225.159065 
L 658.935671 223.236534 
L 660.696659 220.950469 
L 662.457647 218.307862 
L 664.218635 215.301721 
L 665.979624 211.841164 
L 667.153616 209.114665 
L 668.327608 205.835875 
L 669.5016 201.634269 
L 670.675592 195.936584 
L 671.262588 192.273288 
L 671.849585 187.889915 
L 672.436581 182.604701 
L 673.023577 176.221896 
L 673.610573 168.503805 
L 674.197569 159.163797 
L 674.784565 147.887275 
L 675.371561 134.289733 
L 675.958557 117.95171 
L 676.545553 98.383833 
L 677.719545 47.349356 
L 677.719545 47.349356 
" clip-path="url(#pf32147ff55)" style="fill: none; stroke: #2ca02c; stroke-width: 1.5; stroke-linecap: square"/>
   </g>
   <g id="patch_3">
    <path d="M 61.99 386.44 
L 61.99 31.2 
" style="fill: none; stroke: #000000; stroke-width: 0.8; stroke-linejoin: miter; stroke-linecap: square"/>
   </g>
   <g id="patch_4">
    <path d="M 707.04 386.44 
L 707.04 31.2 
" style="fill: none; stroke: #000000; stroke-width: 0.8; stroke-linejoin: miter; stroke-linecap: square"/>
   </g>
   <g id="patch_5">
    <path d="M 61.99 386.44 
L 707.04 386.44 
" style="fill: none; stroke: #000000; stroke-width: 0.8; stroke-linejoin: miter; stroke-linecap: square"/>
   </g>
   <g id="patch_6">
    <path d="M 61.99 31.2 
L 707.04 31.2 
" style="fill: none; stroke: #000000; stroke-width: 0.8; stroke-linejoin: miter; stroke-linecap: square"/>
   </g>
   <g id="text_13">
    <!-- Comparison of sample RMS and estimated SD for $w$ -->
    <g transform="translate(198.467 25.2)scale(0.144 -0.144)">
     <defs>
      <path id="DejaVuSans-43" d="M 4122 4306 
L 4122 3641 
Q 3803 3938 3442 4084 
Q 3081 4231 2675 4231 
Q 1875 4231 1450 3742 
Q 1025 3253 1025 2328 
Q 1025 1406 1450 917 
Q 1875 428 2675 428 
Q 3081 428 3442 575 
Q 3803 722 4122 1019 
L 4122 359 
Q 3791 134 3420 21 
Q 3050 -91 2638 -91 
Q 1578 -91 968 557 
Q 359 1206 359 2328 
Q 359 3453 968 4101 
Q 1578 4750 2638 4750 
Q 3056 4750 3426 4639 
Q 3797 4528 4122 4306 
z
" transform="scale(0.015625)"/>
      <path id="DejaVuSans-6d" d="M 3328 2828 
Q 3544 3216 3844 3400 
Q 4144 3584 4550 3584 
Q 5097 3584 5394 3201 
Q 5691 2819 5691 2113 
L 5691 0 
L 5113 0 
L 5113 2094 
Q 5113 2597 4934 2840 
Q 4756 3084 4391 3084 
Q 3944 3084 3684 2787 
Q 3425 2491 3425 1978 
L 3425 0 
L 2847 0 
L 2847 2094 
Q 2847 2600 2669 2842 
Q 2491 3084 2119 3084 
Q 1678 3084 1418 2786 
Q 1159 2488 1159 1978 
L 1159 0 
L 581 0 
L 581 3500 
L 1159 3500 
L 1159 2956 
Q 1356 3278 1631 3431 
Q 1906 3584 2284 3584 
Q 2666 3584 2933 3390 
Q 3200 3197 3328 2828 
z
" transform="scale(0.015625)"/>
      <path id="DejaVuSans-61" d="M 2194 1759 
Q 1497 1759 1228 1600 
Q 959 1441 959 1056 
Q 959 750 1161 570 
Q 1363 391 1709 391 
Q 2188 391 2477 730 
Q 2766 1069 2766 1631 
L 2766 1759 
L 2194 1759 
z
M 3341 1997 
L 3341 0 
L 2766 0 
L 2766 531 
Q 2569 213 2275 61 
Q 1981 -91 1556 -91 
Q 1019 -91 701 211 
Q 384 513 384 1019 
Q 384 1609 779 1909 
Q 1175 2209 1959 2209 
L 2766 2209 
L 2766 2266 
Q 2766 2663 2505 2880 
Q 2244 3097 1772 3097 
Q 1472 3097 1187 3025 
Q 903 2953 641 2809 
L 641 3341 
Q 956 3463 1253 3523 
Q 1550 3584 1831 3584 
Q 2591 3584 2966 3190 
Q 3341 2797 3341 1997 
z
" transform="scale(0.015625)"/>
      <path id="DejaVuSans-72" d="M 2631 2963 
Q 2534 3019 2420 3045 
Q 2306 3072 2169 3072 
Q 1681 3072 1420 2755 
Q 1159 2438 1159 1844 
L 1159 0 
L 581 0 
L 581 3500 
L 1159 3500 
L 1159 2956 
Q 1341 3275 1631 3429 
Q 1922 3584 2338 3584 
Q 2397 3584 2469 3576 
Q 2541 3569 2628 3553 
L 2631 2963 
z
" transform="scale(0.015625)"/>
      <path id="DejaVuSans-69" d="M 603 3500 
L 1178 3500 
L 1178 0 
L 603 0 
L 603 3500 
z
M 603 4863 
L 1178 4863 
L 1178 4134 
L 603 4134 
L 603 4863 
z
" transform="scale(0.015625)"/>
      <path id="DejaVuSans-73" d="M 2834 3397 
L 2834 2853 
Q 2591 2978 2328 3040 
Q 2066 3103 1784 3103 
Q 1356 3103 1142 2972 
Q 928 2841 928 2578 
Q 928 2378 1081 2264 
Q 1234 2150 1697 2047 
L 1894 2003 
Q 2506 1872 2764 1633 
Q 3022 1394 3022 966 
Q 3022 478 2636 193 
Q 2250 -91 1575 -91 
Q 1294 -91 989 -36 
Q 684 19 347 128 
L 347 722 
Q 666 556 975 473 
Q 1284 391 1588 391 
Q 1994 391 2212 530 
Q 2431 669 2431 922 
Q 2431 1156 2273 1281 
Q 2116 1406 1581 1522 
L 1381 1569 
Q 847 1681 609 1914 
Q 372 2147 372 2553 
Q 372 3047 722 3315 
Q 1072 3584 1716 3584 
Q 2034 3584 2315 3537 
Q 2597 3491 2834 3397 
z
" transform="scale(0.015625)"/>
      <path id="DejaVuSans-6e" d="M 3513 2113 
L 3513 0 
L 2938 0 
L 2938 2094 
Q 2938 2591 2744 2837 
Q 2550 3084 2163 3084 
Q 1697 3084 1428 2787 
Q 1159 2491 1159 1978 
L 1159 0 
L 581 0 
L 581 3500 
L 1159 3500 
L 1159 2956 
Q 1366 3272 1645 3428 
Q 1925 3584 2291 3584 
Q 2894 3584 3203 3211 
Q 3513 2838 3513 2113 
z
" transform="scale(0.015625)"/>
      <path id="DejaVuSans-20" transform="scale(0.015625)"/>
      <path id="DejaVuSans-66" d="M 2375 4863 
L 2375 4384 
L 1825 4384 
Q 1516 4384 1395 4259 
Q 1275 4134 1275 3809 
L 1275 3500 
L 2222 3500 
L 2222 3053 
L 1275 3053 
L 1275 0 
L 697 0 
L 697 3053 
L 147 3053 
L 147 3500 
L 697 3500 
L 697 3744 
Q 697 4328 969 4595 
Q 1241 4863 1831 4863 
L 2375 4863 
z
" transform="scale(0.015625)"/>
      <path id="DejaVuSans-6c" d="M 603 4863 
L 1178 4863 
L 1178 0 
L 603 0 
L 603 4863 
z
" transform="scale(0.015625)"/>
      <path id="DejaVuSans-65" d="M 3597 1894 
L 3597 1613 
L 953 1613 
Q 991 1019 1311 708 
Q 1631 397 2203 397 
Q 2534 397 2845 478 
Q 3156 559 3463 722 
L 3463 178 
Q 3153 47 2828 -22 
Q 2503 -91 2169 -91 
Q 1331 -91 842 396 
Q 353 884 353 1716 
Q 353 2575 817 3079 
Q 1281 3584 2069 3584 
Q 2775 3584 3186 3129 
Q 3597 2675 3597 1894 
z
M 3022 2063 
Q 3016 2534 2758 2815 
Q 2500 3097 2075 3097 
Q 1594 3097 1305 2825 
Q 1016 2553 972 2059 
L 3022 2063 
z
" transform="scale(0.015625)"/>
      <path id="DejaVuSans-52" d="M 2841 2188 
Q 3044 2119 3236 1894 
Q 3428 1669 3622 1275 
L 4263 0 
L 3584 0 
L 2988 1197 
Q 2756 1666 2539 1819 
Q 2322 1972 1947 1972 
L 1259 1972 
L 1259 0 
L 628 0 
L 628 4666 
L 2053 4666 
Q 2853 4666 3247 4331 
Q 3641 3997 3641 3322 
Q 3641 2881 3436 2590 
Q 3231 2300 2841 2188 
z
M 1259 4147 
L 1259 2491 
L 2053 2491 
Q 2509 2491 2742 2702 
Q 2975 2913 2975 3322 
Q 2975 3731 2742 3939 
Q 2509 4147 2053 4147 
L 1259 4147 
z
" transform="scale(0.015625)"/>
      <path id="DejaVuSans-4d" d="M 628 4666 
L 1569 4666 
L 2759 1491 
L 3956 4666 
L 4897 4666 
L 4897 0 
L 4281 0 
L 4281 4097 
L 3078 897 
L 2444 897 
L 1241 4097 
L 1241 0 
L 628 0 
L 628 4666 
z
" transform="scale(0.015625)"/>
      <path id="DejaVuSans-53" d="M 3425 4513 
L 3425 3897 
Q 3066 4069 2747 4153 
Q 2428 4238 2131 4238 
Q 1616 4238 1336 4038 
Q 1056 3838 1056 3469 
Q 1056 3159 1242 3001 
Q 1428 2844 1947 2747 
L 2328 2669 
Q 3034 2534 3370 2195 
Q 3706 1856 3706 1288 
Q 3706 609 3251 259 
Q 2797 -91 1919 -91 
Q 1588 -91 1214 -16 
Q 841 59 441 206 
L 441 856 
Q 825 641 1194 531 
Q 1563 422 1919 422 
Q 2459 422 2753 634 
Q 3047 847 3047 1241 
Q 3047 1584 2836 1778 
Q 2625 1972 2144 2069 
L 1759 2144 
Q 1053 2284 737 2584 
Q 422 2884 422 3419 
Q 422 4038 858 4394 
Q 1294 4750 2059 4750 
Q 2388 4750 2728 4690 
Q 3069 4631 3425 4513 
z
" transform="scale(0.015625)"/>
      <path id="DejaVuSans-64" d="M 2906 2969 
L 2906 4863 
L 3481 4863 
L 3481 0 
L 2906 0 
L 2906 525 
Q 2725 213 2448 61 
Q 2172 -91 1784 -91 
Q 1150 -91 751 415 
Q 353 922 353 1747 
Q 353 2572 751 3078 
Q 1150 3584 1784 3584 
Q 2172 3584 2448 3432 
Q 2725 3281 2906 2969 
z
M 947 1747 
Q 947 1113 1208 752 
Q 1469 391 1925 391 
Q 2381 391 2643 752 
Q 2906 1113 2906 1747 
Q 2906 2381 2643 2742 
Q 2381 3103 1925 3103 
Q 1469 3103 1208 2742 
Q 947 2381 947 1747 
z
" transform="scale(0.015625)"/>
      <path id="DejaVuSans-74" d="M 1172 4494 
L 1172 3500 
L 2356 3500 
L 2356 3053 
L 1172 3053 
L 1172 1153 
Q 1172 725 1289 603 
Q 1406 481 1766 481 
L 2356 481 
L 2356 0 
L 1766 0 
Q 1100 0 847 248 
Q 594 497 594 1153 
L 594 3053 
L 172 3053 
L 172 3500 
L 594 3500 
L 594 4494 
L 1172 4494 
z
" transform="scale(0.015625)"/>
      <path id="DejaVuSans-44" d="M 1259 4147 
L 1259 519 
L 2022 519 
Q 2988 519 3436 956 
Q 3884 1394 3884 2338 
Q 3884 3275 3436 3711 
Q 2988 4147 2022 4147 
L 1259 4147 
z
M 628 4666 
L 1925 4666 
Q 3281 4666 3915 4102 
Q 4550 3538 4550 2338 
Q 4550 1131 3912 565 
Q 3275 0 1925 0 
L 628 0 
L 628 4666 
z
" transform="scale(0.015625)"/>
      <path id="DejaVuSans-Oblique-77" d="M 544 3500 
L 1113 3500 
L 1259 684 
L 2566 3500 
L 3231 3500 
L 3425 684 
L 4666 3500 
L 5241 3500 
L 3641 0 
L 2969 0 
L 2797 2900 
L 1459 0 
L 781 0 
L 544 3500 
z
" transform="scale(0.015625)"/>
     </defs>
     <use xlink:href="#DejaVuSans-43" transform="translate(0 0.015625)"/>
     <use xlink:href="#DejaVuSans-6f" transform="translate(69.824219 0.015625)"/>
     <use xlink:href="#DejaVuSans-6d" transform="translate(131.005859 0.015625)"/>
     <use xlink:href="#DejaVuSans-70" transform="translate(228.417969 0.015625)"/>
     <use xlink:href="#DejaVuSans-61" transform="translate(291.894531 0.015625)"/>
     <use xlink:href="#DejaVuSans-72" transform="translate(353.173828 0.015625)"/>
     <use xlink:href="#DejaVuSans-69" transform="translate(394.287109 0.015625)"/>
     <use xlink:href="#DejaVuSans-73" transform="translate(422.070312 0.015625)"/>
     <use xlink:href="#DejaVuSans-6f" transform="translate(474.169922 0.015625)"/>
     <use xlink:href="#DejaVuSans-6e" transform="translate(535.351562 0.015625)"/>
     <use xlink:href="#DejaVuSans-20" transform="translate(598.730469 0.015625)"/>
     <use xlink:href="#DejaVuSans-6f" transform="translate(630.517578 0.015625)"/>
     <use xlink:href="#DejaVuSans-66" transform="translate(691.699219 0.015625)"/>
     <use xlink:href="#DejaVuSans-20" transform="translate(726.904297 0.015625)"/>
     <use xlink:href="#DejaVuSans-73" transform="translate(758.691406 0.015625)"/>
     <use xlink:href="#DejaVuSans-61" transform="translate(810.791016 0.015625)"/>
     <use xlink:href="#DejaVuSans-6d" transform="translate(872.070312 0.015625)"/>
     <use xlink:href="#DejaVuSans-70" transform="translate(969.482422 0.015625)"/>
     <use xlink:href="#DejaVuSans-6c" transform="translate(1032.958984 0.015625)"/>
     <use xlink:href="#DejaVuSans-65" transform="translate(1060.742188 0.015625)"/>
     <use xlink:href="#DejaVuSans-20" transform="translate(1122.265625 0.015625)"/>
     <use xlink:href="#DejaVuSans-52" transform="translate(1154.052734 0.015625)"/>
     <use xlink:href="#DejaVuSans-4d" transform="translate(1223.535156 0.015625)"/>
     <use xlink:href="#DejaVuSans-53" transform="translate(1309.814453 0.015625)"/>
     <use xlink:href="#DejaVuSans-20" transform="translate(1373.291016 0.015625)"/>
     <use xlink:href="#DejaVuSans-61" transform="translate(1405.078125 0.015625)"/>
     <use xlink:href="#DejaVuSans-6e" transform="translate(1466.357422 0.015625)"/>
     <use xlink:href="#DejaVuSans-64" transform="translate(1529.736328 0.015625)"/>
     <use xlink:href="#DejaVuSans-20" transform="translate(1593.212891 0.015625)"/>
     <use xlink:href="#DejaVuSans-65" transform="translate(1625 0.015625)"/>
     <use xlink:href="#DejaVuSans-73" transform="translate(1686.523438 0.015625)"/>
     <use xlink:href="#DejaVuSans-74" transform="translate(1738.623047 0.015625)"/>
     <use xlink:href="#DejaVuSans-69" transform="translate(1777.832031 0.015625)"/>
     <use xlink:href="#DejaVuSans-6d" transform="translate(1805.615234 0.015625)"/>
     <use xlink:href="#DejaVuSans-61" transform="translate(1903.027344 0.015625)"/>
     <use xlink:href="#DejaVuSans-74" transform="translate(1964.306641 0.015625)"/>
     <use xlink:href="#DejaVuSans-65" transform="translate(2003.515625 0.015625)"/>
     <use xlink:href="#DejaVuSans-64" transform="translate(2065.039062 0.015625)"/>
     <use xlink:href="#DejaVuSans-20" transform="translate(2128.515625 0.015625)"/>
     <use xlink:href="#DejaVuSans-53" transform="translate(2160.302734 0.015625)"/>
     <use xlink:href="#DejaVuSans-44" transform="translate(2223.779297 0.015625)"/>
     <use xlink:href="#DejaVuSans-20" transform="translate(2300.78125 0.015625)"/>
     <use xlink:href="#DejaVuSans-66" transform="translate(2332.568359 0.015625)"/>
     <use xlink:href="#DejaVuSans-6f" transform="translate(2367.773438 0.015625)"/>
     <use xlink:href="#DejaVuSans-72" transform="translate(2428.955078 0.015625)"/>
     <use xlink:href="#DejaVuSans-20" transform="translate(2470.068359 0.015625)"/>
     <use xlink:href="#DejaVuSans-Oblique-77" transform="translate(2501.855469 0.015625)"/>
    </g>
   </g>
   <g id="legend_1">
    <g id="patch_7">
     <path d="M 70.39 380.44 
L 247.61125 380.44 
Q 250.01125 380.44 250.01125 378.04 
L 250.01125 326.39875 
Q 250.01125 323.99875 247.61125 323.99875 
L 70.39 323.99875 
Q 67.99 323.99875 67.99 326.39875 
L 67.99 378.04 
Q 67.99 380.44 70.39 380.44 
z
" style="fill: #ffffff; opacity: 0.8; stroke: #cccccc; stroke-linejoin: miter"/>
    </g>
    <g id="line2d_26">
     <path d="M 72.79 333.716875 
L 84.79 333.716875 
L 96.79 333.716875 
" style="fill: none; stroke: #1f77b4; stroke-width: 1.5; stroke-linecap: square"/>
    </g>
    <g id="text_14">
     <!-- Original SD -->
     <g transform="translate(106.39 337.916875)scale(0.12 -0.12)">
      <defs>
       <path id="DejaVuSans-4f" d="M 2522 4238 
Q 1834 4238 1429 3725 
Q 1025 3213 1025 2328 
Q 1025 1447 1429 934 
Q 1834 422 2522 422 
Q 3209 422 3611 934 
Q 4013 1447 4013 2328 
Q 4013 3213 3611 3725 
Q 3209 4238 2522 4238 
z
M 2522 4750 
Q 3503 4750 4090 4092 
Q 4678 3434 4678 2328 
Q 4678 1225 4090 567 
Q 3503 -91 2522 -91 
Q 1538 -91 948 565 
Q 359 1222 359 2328 
Q 359 3434 948 4092 
Q 1538 4750 2522 4750 
z
" transform="scale(0.015625)"/>
       <path id="DejaVuSans-67" d="M 2906 1791 
Q 2906 2416 2648 2759 
Q 2391 3103 1925 3103 
Q 1463 3103 1205 2759 
Q 947 2416 947 1791 
Q 947 1169 1205 825 
Q 1463 481 1925 481 
Q 2391 481 2648 825 
Q 2906 1169 2906 1791 
z
M 3481 434 
Q 3481 -459 3084 -895 
Q 2688 -1331 1869 -1331 
Q 1566 -1331 1297 -1286 
Q 1028 -1241 775 -1147 
L 775 -588 
Q 1028 -725 1275 -790 
Q 1522 -856 1778 -856 
Q 2344 -856 2625 -561 
Q 2906 -266 2906 331 
L 2906 616 
Q 2728 306 2450 153 
Q 2172 0 1784 0 
Q 1141 0 747 490 
Q 353 981 353 1791 
Q 353 2603 747 3093 
Q 1141 3584 1784 3584 
Q 2172 3584 2450 3431 
Q 2728 3278 2906 2969 
L 2906 3500 
L 3481 3500 
L 3481 434 
z
" transform="scale(0.015625)"/>
      </defs>
      <use xlink:href="#DejaVuSans-4f"/>
      <use xlink:href="#DejaVuSans-72" x="78.710938"/>
      <use xlink:href="#DejaVuSans-69" x="119.824219"/>
      <use xlink:href="#DejaVuSans-67" x="147.607422"/>
      <use xlink:href="#DejaVuSans-69" x="211.083984"/>
      <use xlink:href="#DejaVuSans-6e" x="238.867188"/>
      <use xlink:href="#DejaVuSans-61" x="302.246094"/>
      <use xlink:href="#DejaVuSans-6c" x="363.525391"/>
      <use xlink:href="#DejaVuSans-20" x="391.308594"/>
      <use xlink:href="#DejaVuSans-53" x="423.095703"/>
      <use xlink:href="#DejaVuSans-44" x="486.572266"/>
     </g>
    </g>
    <g id="line2d_27">
     <path d="M 72.79 351.330625 
L 84.79 351.330625 
L 96.79 351.330625 
" style="fill: none; stroke: #ff7f0e; stroke-width: 1.5; stroke-linecap: square"/>
    </g>
    <g id="text_15">
     <!-- Smoother sample RMS -->
     <g transform="translate(106.39 355.530625)scale(0.12 -0.12)">
      <use xlink:href="#DejaVuSans-53"/>
      <use xlink:href="#DejaVuSans-6d" x="63.476562"/>
      <use xlink:href="#DejaVuSans-6f" x="160.888672"/>
      <use xlink:href="#DejaVuSans-6f" x="222.070312"/>
      <use xlink:href="#DejaVuSans-74" x="283.251953"/>
      <use xlink:href="#DejaVuSans-68" x="322.460938"/>
      <use xlink:href="#DejaVuSans-65" x="385.839844"/>
      <use xlink:href="#DejaVuSans-72" x="447.363281"/>
      <use xlink:href="#DejaVuSans-20" x="488.476562"/>
      <use xlink:href="#DejaVuSans-73" x="520.263672"/>
      <use xlink:href="#DejaVuSans-61" x="572.363281"/>
      <use xlink:href="#DejaVuSans-6d" x="633.642578"/>
      <use xlink:href="#DejaVuSans-70" x="731.054688"/>
      <use xlink:href="#DejaVuSans-6c" x="794.53125"/>
      <use xlink:href="#DejaVuSans-65" x="822.314453"/>
      <use xlink:href="#DejaVuSans-20" x="883.837891"/>
      <use xlink:href="#DejaVuSans-52" x="915.625"/>
      <use xlink:href="#DejaVuSans-4d" x="985.107422"/>
      <use xlink:href="#DejaVuSans-53" x="1071.386719"/>
     </g>
    </g>
    <g id="line2d_28">
     <path d="M 72.79 368.944375 
L 84.79 368.944375 
L 96.79 368.944375 
" style="fill: none; stroke: #2ca02c; stroke-width: 1.5; stroke-linecap: square"/>
    </g>
    <g id="text_16">
     <!-- Smoother esimated SD -->
     <g transform="translate(106.39 373.144375)scale(0.12 -0.12)">
      <use xlink:href="#DejaVuSans-53"/>
      <use xlink:href="#DejaVuSans-6d" x="63.476562"/>
      <use xlink:href="#DejaVuSans-6f" x="160.888672"/>
      <use xlink:href="#DejaVuSans-6f" x="222.070312"/>
      <use xlink:href="#DejaVuSans-74" x="283.251953"/>
      <use xlink:href="#DejaVuSans-68" x="322.460938"/>
      <use xlink:href="#DejaVuSans-65" x="385.839844"/>
      <use xlink:href="#DejaVuSans-72" x="447.363281"/>
      <use xlink:href="#DejaVuSans-20" x="488.476562"/>
      <use xlink:href="#DejaVuSans-65" x="520.263672"/>
      <use xlink:href="#DejaVuSans-73" x="581.787109"/>
      <use xlink:href="#DejaVuSans-69" x="633.886719"/>
      <use xlink:href="#DejaVuSans-6d" x="661.669922"/>
      <use xlink:href="#DejaVuSans-61" x="759.082031"/>
      <use xlink:href="#DejaVuSans-74" x="820.361328"/>
      <use xlink:href="#DejaVuSans-65" x="859.570312"/>
      <use xlink:href="#DejaVuSans-64" x="921.09375"/>
      <use xlink:href="#DejaVuSans-20" x="984.570312"/>
      <use xlink:href="#DejaVuSans-53" x="1016.357422"/>
      <use xlink:href="#DejaVuSans-44" x="1079.833984"/>
     </g>
    </g>
   </g>
  </g>
 </g>
 <defs>
  <clipPath id="pf32147ff55">
   <rect x="61.99" y="31.2" width="645.05" height="355.24"/>
  </clipPath>
 </defs>
</svg>
