<?xml version="1.0" encoding="utf-8" standalone="no"?>
<!DOCTYPE svg PUBLIC "-//W3C//DTD SVG 1.1//EN"
  "http://www.w3.org/Graphics/SVG/1.1/DTD/svg11.dtd">
<svg xmlns:xlink="http://www.w3.org/1999/xlink" width="720pt" height="432pt" viewBox="0 0 720 432" xmlns="http://www.w3.org/2000/svg" version="1.1">
 <metadata>
  <rdf:RDF xmlns:dc="http://purl.org/dc/elements/1.1/" xmlns:cc="http://creativecommons.org/ns#" xmlns:rdf="http://www.w3.org/1999/02/22-rdf-syntax-ns#">
   <cc:Work>
    <dc:type rdf:resource="http://purl.org/dc/dcmitype/StillImage"/>
    <dc:date>2022-11-29T17:06:41.499730</dc:date>
    <dc:format>image/svg+xml</dc:format>
    <dc:creator>
     <cc:Agent>
      <dc:title>Matplotlib v3.5.1, https://matplotlib.org/</dc:title>
     </cc:Agent>
    </dc:creator>
   </cc:Work>
  </rdf:RDF>
 </metadata>
 <defs>
  <style type="text/css">*{stroke-linejoin: round; stroke-linecap: butt}</style>
 </defs>
 <g id="figure_1">
  <g id="patch_1">
   <path d="M 0 432 
L 720 432 
L 720 0 
L 0 0 
z
" style="fill: #ffffff"/>
  </g>
  <g id="axes_1">
   <g id="patch_2">
    <path d="M 46.69 386.44 
L 707.04 386.44 
L 707.04 31.2 
L 46.69 31.2 
z
" style="fill: #ffffff"/>
   </g>
   <g id="matplotlib.axis_1">
    <g id="xtick_1">
     <g id="line2d_1">
      <path d="M 76.705909 386.44 
L 76.705909 31.2 
" clip-path="url(#p7e39110968)" style="fill: none; stroke: #b0b0b0; stroke-width: 0.8; stroke-linecap: square"/>
     </g>
     <g id="line2d_2">
      <defs>
       <path id="mf9bdc15dca" d="M 0 0 
L 0 3.5 
" style="stroke: #000000; stroke-width: 0.8"/>
      </defs>
      <g>
       <use xlink:href="#mf9bdc15dca" x="76.705909" y="386.44" style="stroke: #000000; stroke-width: 0.8"/>
      </g>
     </g>
     <g id="text_1">
      <!-- 0 -->
      <g transform="translate(72.888409 402.558125)scale(0.12 -0.12)">
       <defs>
        <path id="DejaVuSans-30" d="M 2034 4250 
Q 1547 4250 1301 3770 
Q 1056 3291 1056 2328 
Q 1056 1369 1301 889 
Q 1547 409 2034 409 
Q 2525 409 2770 889 
Q 3016 1369 3016 2328 
Q 3016 3291 2770 3770 
Q 2525 4250 2034 4250 
z
M 2034 4750 
Q 2819 4750 3233 4129 
Q 3647 3509 3647 2328 
Q 3647 1150 3233 529 
Q 2819 -91 2034 -91 
Q 1250 -91 836 529 
Q 422 1150 422 2328 
Q 422 3509 836 4129 
Q 1250 4750 2034 4750 
z
" transform="scale(0.015625)"/>
       </defs>
       <use xlink:href="#DejaVuSans-30"/>
      </g>
     </g>
    </g>
    <g id="xtick_2">
     <g id="line2d_3">
      <path d="M 196.889729 386.44 
L 196.889729 31.2 
" clip-path="url(#p7e39110968)" style="fill: none; stroke: #b0b0b0; stroke-width: 0.8; stroke-linecap: square"/>
     </g>
     <g id="line2d_4">
      <g>
       <use xlink:href="#mf9bdc15dca" x="196.889729" y="386.44" style="stroke: #000000; stroke-width: 0.8"/>
      </g>
     </g>
     <g id="text_2">
      <!-- 200 -->
      <g transform="translate(185.437229 402.558125)scale(0.12 -0.12)">
       <defs>
        <path id="DejaVuSans-32" d="M 1228 531 
L 3431 531 
L 3431 0 
L 469 0 
L 469 531 
Q 828 903 1448 1529 
Q 2069 2156 2228 2338 
Q 2531 2678 2651 2914 
Q 2772 3150 2772 3378 
Q 2772 3750 2511 3984 
Q 2250 4219 1831 4219 
Q 1534 4219 1204 4116 
Q 875 4013 500 3803 
L 500 4441 
Q 881 4594 1212 4672 
Q 1544 4750 1819 4750 
Q 2544 4750 2975 4387 
Q 3406 4025 3406 3419 
Q 3406 3131 3298 2873 
Q 3191 2616 2906 2266 
Q 2828 2175 2409 1742 
Q 1991 1309 1228 531 
z
" transform="scale(0.015625)"/>
       </defs>
       <use xlink:href="#DejaVuSans-32"/>
       <use xlink:href="#DejaVuSans-30" x="63.623047"/>
       <use xlink:href="#DejaVuSans-30" x="127.246094"/>
      </g>
     </g>
    </g>
    <g id="xtick_3">
     <g id="line2d_5">
      <path d="M 317.073549 386.44 
L 317.073549 31.2 
" clip-path="url(#p7e39110968)" style="fill: none; stroke: #b0b0b0; stroke-width: 0.8; stroke-linecap: square"/>
     </g>
     <g id="line2d_6">
      <g>
       <use xlink:href="#mf9bdc15dca" x="317.073549" y="386.44" style="stroke: #000000; stroke-width: 0.8"/>
      </g>
     </g>
     <g id="text_3">
      <!-- 400 -->
      <g transform="translate(305.621049 402.558125)scale(0.12 -0.12)">
       <defs>
        <path id="DejaVuSans-34" d="M 2419 4116 
L 825 1625 
L 2419 1625 
L 2419 4116 
z
M 2253 4666 
L 3047 4666 
L 3047 1625 
L 3713 1625 
L 3713 1100 
L 3047 1100 
L 3047 0 
L 2419 0 
L 2419 1100 
L 313 1100 
L 313 1709 
L 2253 4666 
z
" transform="scale(0.015625)"/>
       </defs>
       <use xlink:href="#DejaVuSans-34"/>
       <use xlink:href="#DejaVuSans-30" x="63.623047"/>
       <use xlink:href="#DejaVuSans-30" x="127.246094"/>
      </g>
     </g>
    </g>
    <g id="xtick_4">
     <g id="line2d_7">
      <path d="M 437.25737 386.44 
L 437.25737 31.2 
" clip-path="url(#p7e39110968)" style="fill: none; stroke: #b0b0b0; stroke-width: 0.8; stroke-linecap: square"/>
     </g>
     <g id="line2d_8">
      <g>
       <use xlink:href="#mf9bdc15dca" x="437.25737" y="386.44" style="stroke: #000000; stroke-width: 0.8"/>
      </g>
     </g>
     <g id="text_4">
      <!-- 600 -->
      <g transform="translate(425.80487 402.558125)scale(0.12 -0.12)">
       <defs>
        <path id="DejaVuSans-36" d="M 2113 2584 
Q 1688 2584 1439 2293 
Q 1191 2003 1191 1497 
Q 1191 994 1439 701 
Q 1688 409 2113 409 
Q 2538 409 2786 701 
Q 3034 994 3034 1497 
Q 3034 2003 2786 2293 
Q 2538 2584 2113 2584 
z
M 3366 4563 
L 3366 3988 
Q 3128 4100 2886 4159 
Q 2644 4219 2406 4219 
Q 1781 4219 1451 3797 
Q 1122 3375 1075 2522 
Q 1259 2794 1537 2939 
Q 1816 3084 2150 3084 
Q 2853 3084 3261 2657 
Q 3669 2231 3669 1497 
Q 3669 778 3244 343 
Q 2819 -91 2113 -91 
Q 1303 -91 875 529 
Q 447 1150 447 2328 
Q 447 3434 972 4092 
Q 1497 4750 2381 4750 
Q 2619 4750 2861 4703 
Q 3103 4656 3366 4563 
z
" transform="scale(0.015625)"/>
       </defs>
       <use xlink:href="#DejaVuSans-36"/>
       <use xlink:href="#DejaVuSans-30" x="63.623047"/>
       <use xlink:href="#DejaVuSans-30" x="127.246094"/>
      </g>
     </g>
    </g>
    <g id="xtick_5">
     <g id="line2d_9">
      <path d="M 557.44119 386.44 
L 557.44119 31.2 
" clip-path="url(#p7e39110968)" style="fill: none; stroke: #b0b0b0; stroke-width: 0.8; stroke-linecap: square"/>
     </g>
     <g id="line2d_10">
      <g>
       <use xlink:href="#mf9bdc15dca" x="557.44119" y="386.44" style="stroke: #000000; stroke-width: 0.8"/>
      </g>
     </g>
     <g id="text_5">
      <!-- 800 -->
      <g transform="translate(545.98869 402.558125)scale(0.12 -0.12)">
       <defs>
        <path id="DejaVuSans-38" d="M 2034 2216 
Q 1584 2216 1326 1975 
Q 1069 1734 1069 1313 
Q 1069 891 1326 650 
Q 1584 409 2034 409 
Q 2484 409 2743 651 
Q 3003 894 3003 1313 
Q 3003 1734 2745 1975 
Q 2488 2216 2034 2216 
z
M 1403 2484 
Q 997 2584 770 2862 
Q 544 3141 544 3541 
Q 544 4100 942 4425 
Q 1341 4750 2034 4750 
Q 2731 4750 3128 4425 
Q 3525 4100 3525 3541 
Q 3525 3141 3298 2862 
Q 3072 2584 2669 2484 
Q 3125 2378 3379 2068 
Q 3634 1759 3634 1313 
Q 3634 634 3220 271 
Q 2806 -91 2034 -91 
Q 1263 -91 848 271 
Q 434 634 434 1313 
Q 434 1759 690 2068 
Q 947 2378 1403 2484 
z
M 1172 3481 
Q 1172 3119 1398 2916 
Q 1625 2713 2034 2713 
Q 2441 2713 2670 2916 
Q 2900 3119 2900 3481 
Q 2900 3844 2670 4047 
Q 2441 4250 2034 4250 
Q 1625 4250 1398 4047 
Q 1172 3844 1172 3481 
z
" transform="scale(0.015625)"/>
       </defs>
       <use xlink:href="#DejaVuSans-38"/>
       <use xlink:href="#DejaVuSans-30" x="63.623047"/>
       <use xlink:href="#DejaVuSans-30" x="127.246094"/>
      </g>
     </g>
    </g>
    <g id="xtick_6">
     <g id="line2d_11">
      <path d="M 677.62501 386.44 
L 677.62501 31.2 
" clip-path="url(#p7e39110968)" style="fill: none; stroke: #b0b0b0; stroke-width: 0.8; stroke-linecap: square"/>
     </g>
     <g id="line2d_12">
      <g>
       <use xlink:href="#mf9bdc15dca" x="677.62501" y="386.44" style="stroke: #000000; stroke-width: 0.8"/>
      </g>
     </g>
     <g id="text_6">
      <!-- 1000 -->
      <g transform="translate(662.35501 402.558125)scale(0.12 -0.12)">
       <defs>
        <path id="DejaVuSans-31" d="M 794 531 
L 1825 531 
L 1825 4091 
L 703 3866 
L 703 4441 
L 1819 4666 
L 2450 4666 
L 2450 531 
L 3481 531 
L 3481 0 
L 794 0 
L 794 531 
z
" transform="scale(0.015625)"/>
       </defs>
       <use xlink:href="#DejaVuSans-31"/>
       <use xlink:href="#DejaVuSans-30" x="63.623047"/>
       <use xlink:href="#DejaVuSans-30" x="127.246094"/>
       <use xlink:href="#DejaVuSans-30" x="190.869141"/>
      </g>
     </g>
    </g>
    <g id="text_7">
     <!-- Epoch -->
     <g transform="translate(358.491875 418.171875)scale(0.12 -0.12)">
      <defs>
       <path id="DejaVuSans-45" d="M 628 4666 
L 3578 4666 
L 3578 4134 
L 1259 4134 
L 1259 2753 
L 3481 2753 
L 3481 2222 
L 1259 2222 
L 1259 531 
L 3634 531 
L 3634 0 
L 628 0 
L 628 4666 
z
" transform="scale(0.015625)"/>
       <path id="DejaVuSans-70" d="M 1159 525 
L 1159 -1331 
L 581 -1331 
L 581 3500 
L 1159 3500 
L 1159 2969 
Q 1341 3281 1617 3432 
Q 1894 3584 2278 3584 
Q 2916 3584 3314 3078 
Q 3713 2572 3713 1747 
Q 3713 922 3314 415 
Q 2916 -91 2278 -91 
Q 1894 -91 1617 61 
Q 1341 213 1159 525 
z
M 3116 1747 
Q 3116 2381 2855 2742 
Q 2594 3103 2138 3103 
Q 1681 3103 1420 2742 
Q 1159 2381 1159 1747 
Q 1159 1113 1420 752 
Q 1681 391 2138 391 
Q 2594 391 2855 752 
Q 3116 1113 3116 1747 
z
" transform="scale(0.015625)"/>
       <path id="DejaVuSans-6f" d="M 1959 3097 
Q 1497 3097 1228 2736 
Q 959 2375 959 1747 
Q 959 1119 1226 758 
Q 1494 397 1959 397 
Q 2419 397 2687 759 
Q 2956 1122 2956 1747 
Q 2956 2369 2687 2733 
Q 2419 3097 1959 3097 
z
M 1959 3584 
Q 2709 3584 3137 3096 
Q 3566 2609 3566 1747 
Q 3566 888 3137 398 
Q 2709 -91 1959 -91 
Q 1206 -91 779 398 
Q 353 888 353 1747 
Q 353 2609 779 3096 
Q 1206 3584 1959 3584 
z
" transform="scale(0.015625)"/>
       <path id="DejaVuSans-63" d="M 3122 3366 
L 3122 2828 
Q 2878 2963 2633 3030 
Q 2388 3097 2138 3097 
Q 1578 3097 1268 2742 
Q 959 2388 959 1747 
Q 959 1106 1268 751 
Q 1578 397 2138 397 
Q 2388 397 2633 464 
Q 2878 531 3122 666 
L 3122 134 
Q 2881 22 2623 -34 
Q 2366 -91 2075 -91 
Q 1284 -91 818 406 
Q 353 903 353 1747 
Q 353 2603 823 3093 
Q 1294 3584 2113 3584 
Q 2378 3584 2631 3529 
Q 2884 3475 3122 3366 
z
" transform="scale(0.015625)"/>
       <path id="DejaVuSans-68" d="M 3513 2113 
L 3513 0 
L 2938 0 
L 2938 2094 
Q 2938 2591 2744 2837 
Q 2550 3084 2163 3084 
Q 1697 3084 1428 2787 
Q 1159 2491 1159 1978 
L 1159 0 
L 581 0 
L 581 4863 
L 1159 4863 
L 1159 2956 
Q 1366 3272 1645 3428 
Q 1925 3584 2291 3584 
Q 2894 3584 3203 3211 
Q 3513 2838 3513 2113 
z
" transform="scale(0.015625)"/>
      </defs>
      <use xlink:href="#DejaVuSans-45"/>
      <use xlink:href="#DejaVuSans-70" x="63.183594"/>
      <use xlink:href="#DejaVuSans-6f" x="126.660156"/>
      <use xlink:href="#DejaVuSans-63" x="187.841797"/>
      <use xlink:href="#DejaVuSans-68" x="242.822266"/>
     </g>
    </g>
   </g>
   <g id="matplotlib.axis_2">
    <g id="ytick_1">
     <g id="line2d_13">
      <path d="M 46.69 386.44 
L 707.04 386.44 
" clip-path="url(#p7e39110968)" style="fill: none; stroke: #b0b0b0; stroke-width: 0.8; stroke-linecap: square"/>
     </g>
     <g id="line2d_14">
      <defs>
       <path id="m39c831162e" d="M 0 0 
L -3.5 0 
" style="stroke: #000000; stroke-width: 0.8"/>
      </defs>
      <g>
       <use xlink:href="#m39c831162e" x="46.69" y="386.44" style="stroke: #000000; stroke-width: 0.8"/>
      </g>
     </g>
     <g id="text_8">
      <!-- 0.00 -->
      <g transform="translate(12.97125 390.999062)scale(0.12 -0.12)">
       <defs>
        <path id="DejaVuSans-2e" d="M 684 794 
L 1344 794 
L 1344 0 
L 684 0 
L 684 794 
z
" transform="scale(0.015625)"/>
       </defs>
       <use xlink:href="#DejaVuSans-30"/>
       <use xlink:href="#DejaVuSans-2e" x="63.623047"/>
       <use xlink:href="#DejaVuSans-30" x="95.410156"/>
       <use xlink:href="#DejaVuSans-30" x="159.033203"/>
      </g>
     </g>
    </g>
    <g id="ytick_2">
     <g id="line2d_15">
      <path d="M 46.69 346.968889 
L 707.04 346.968889 
" clip-path="url(#p7e39110968)" style="fill: none; stroke: #b0b0b0; stroke-width: 0.8; stroke-linecap: square"/>
     </g>
     <g id="line2d_16">
      <g>
       <use xlink:href="#m39c831162e" x="46.69" y="346.968889" style="stroke: #000000; stroke-width: 0.8"/>
      </g>
     </g>
     <g id="text_9">
      <!-- 0.01 -->
      <g transform="translate(12.97125 351.527951)scale(0.12 -0.12)">
       <use xlink:href="#DejaVuSans-30"/>
       <use xlink:href="#DejaVuSans-2e" x="63.623047"/>
       <use xlink:href="#DejaVuSans-30" x="95.410156"/>
       <use xlink:href="#DejaVuSans-31" x="159.033203"/>
      </g>
     </g>
    </g>
    <g id="ytick_3">
     <g id="line2d_17">
      <path d="M 46.69 307.497778 
L 707.04 307.497778 
" clip-path="url(#p7e39110968)" style="fill: none; stroke: #b0b0b0; stroke-width: 0.8; stroke-linecap: square"/>
     </g>
     <g id="line2d_18">
      <g>
       <use xlink:href="#m39c831162e" x="46.69" y="307.497778" style="stroke: #000000; stroke-width: 0.8"/>
      </g>
     </g>
     <g id="text_10">
      <!-- 0.02 -->
      <g transform="translate(12.97125 312.05684)scale(0.12 -0.12)">
       <use xlink:href="#DejaVuSans-30"/>
       <use xlink:href="#DejaVuSans-2e" x="63.623047"/>
       <use xlink:href="#DejaVuSans-30" x="95.410156"/>
       <use xlink:href="#DejaVuSans-32" x="159.033203"/>
      </g>
     </g>
    </g>
    <g id="ytick_4">
     <g id="line2d_19">
      <path d="M 46.69 268.026667 
L 707.04 268.026667 
" clip-path="url(#p7e39110968)" style="fill: none; stroke: #b0b0b0; stroke-width: 0.8; stroke-linecap: square"/>
     </g>
     <g id="line2d_20">
      <g>
       <use xlink:href="#m39c831162e" x="46.69" y="268.026667" style="stroke: #000000; stroke-width: 0.8"/>
      </g>
     </g>
     <g id="text_11">
      <!-- 0.03 -->
      <g transform="translate(12.97125 272.585729)scale(0.12 -0.12)">
       <defs>
        <path id="DejaVuSans-33" d="M 2597 2516 
Q 3050 2419 3304 2112 
Q 3559 1806 3559 1356 
Q 3559 666 3084 287 
Q 2609 -91 1734 -91 
Q 1441 -91 1130 -33 
Q 819 25 488 141 
L 488 750 
Q 750 597 1062 519 
Q 1375 441 1716 441 
Q 2309 441 2620 675 
Q 2931 909 2931 1356 
Q 2931 1769 2642 2001 
Q 2353 2234 1838 2234 
L 1294 2234 
L 1294 2753 
L 1863 2753 
Q 2328 2753 2575 2939 
Q 2822 3125 2822 3475 
Q 2822 3834 2567 4026 
Q 2313 4219 1838 4219 
Q 1578 4219 1281 4162 
Q 984 4106 628 3988 
L 628 4550 
Q 988 4650 1302 4700 
Q 1616 4750 1894 4750 
Q 2613 4750 3031 4423 
Q 3450 4097 3450 3541 
Q 3450 3153 3228 2886 
Q 3006 2619 2597 2516 
z
" transform="scale(0.015625)"/>
       </defs>
       <use xlink:href="#DejaVuSans-30"/>
       <use xlink:href="#DejaVuSans-2e" x="63.623047"/>
       <use xlink:href="#DejaVuSans-30" x="95.410156"/>
       <use xlink:href="#DejaVuSans-33" x="159.033203"/>
      </g>
     </g>
    </g>
    <g id="ytick_5">
     <g id="line2d_21">
      <path d="M 46.69 228.555556 
L 707.04 228.555556 
" clip-path="url(#p7e39110968)" style="fill: none; stroke: #b0b0b0; stroke-width: 0.8; stroke-linecap: square"/>
     </g>
     <g id="line2d_22">
      <g>
       <use xlink:href="#m39c831162e" x="46.69" y="228.555556" style="stroke: #000000; stroke-width: 0.8"/>
      </g>
     </g>
     <g id="text_12">
      <!-- 0.04 -->
      <g transform="translate(12.97125 233.114618)scale(0.12 -0.12)">
       <use xlink:href="#DejaVuSans-30"/>
       <use xlink:href="#DejaVuSans-2e" x="63.623047"/>
       <use xlink:href="#DejaVuSans-30" x="95.410156"/>
       <use xlink:href="#DejaVuSans-34" x="159.033203"/>
      </g>
     </g>
    </g>
    <g id="ytick_6">
     <g id="line2d_23">
      <path d="M 46.69 189.084444 
L 707.04 189.084444 
" clip-path="url(#p7e39110968)" style="fill: none; stroke: #b0b0b0; stroke-width: 0.8; stroke-linecap: square"/>
     </g>
     <g id="line2d_24">
      <g>
       <use xlink:href="#m39c831162e" x="46.69" y="189.084444" style="stroke: #000000; stroke-width: 0.8"/>
      </g>
     </g>
     <g id="text_13">
      <!-- 0.05 -->
      <g transform="translate(12.97125 193.643507)scale(0.12 -0.12)">
       <defs>
        <path id="DejaVuSans-35" d="M 691 4666 
L 3169 4666 
L 3169 4134 
L 1269 4134 
L 1269 2991 
Q 1406 3038 1543 3061 
Q 1681 3084 1819 3084 
Q 2600 3084 3056 2656 
Q 3513 2228 3513 1497 
Q 3513 744 3044 326 
Q 2575 -91 1722 -91 
Q 1428 -91 1123 -41 
Q 819 9 494 109 
L 494 744 
Q 775 591 1075 516 
Q 1375 441 1709 441 
Q 2250 441 2565 725 
Q 2881 1009 2881 1497 
Q 2881 1984 2565 2268 
Q 2250 2553 1709 2553 
Q 1456 2553 1204 2497 
Q 953 2441 691 2322 
L 691 4666 
z
" transform="scale(0.015625)"/>
       </defs>
       <use xlink:href="#DejaVuSans-30"/>
       <use xlink:href="#DejaVuSans-2e" x="63.623047"/>
       <use xlink:href="#DejaVuSans-30" x="95.410156"/>
       <use xlink:href="#DejaVuSans-35" x="159.033203"/>
      </g>
     </g>
    </g>
    <g id="ytick_7">
     <g id="line2d_25">
      <path d="M 46.69 149.613333 
L 707.04 149.613333 
" clip-path="url(#p7e39110968)" style="fill: none; stroke: #b0b0b0; stroke-width: 0.8; stroke-linecap: square"/>
     </g>
     <g id="line2d_26">
      <g>
       <use xlink:href="#m39c831162e" x="46.69" y="149.613333" style="stroke: #000000; stroke-width: 0.8"/>
      </g>
     </g>
     <g id="text_14">
      <!-- 0.06 -->
      <g transform="translate(12.97125 154.172396)scale(0.12 -0.12)">
       <use xlink:href="#DejaVuSans-30"/>
       <use xlink:href="#DejaVuSans-2e" x="63.623047"/>
       <use xlink:href="#DejaVuSans-30" x="95.410156"/>
       <use xlink:href="#DejaVuSans-36" x="159.033203"/>
      </g>
     </g>
    </g>
    <g id="ytick_8">
     <g id="line2d_27">
      <path d="M 46.69 110.142222 
L 707.04 110.142222 
" clip-path="url(#p7e39110968)" style="fill: none; stroke: #b0b0b0; stroke-width: 0.8; stroke-linecap: square"/>
     </g>
     <g id="line2d_28">
      <g>
       <use xlink:href="#m39c831162e" x="46.69" y="110.142222" style="stroke: #000000; stroke-width: 0.8"/>
      </g>
     </g>
     <g id="text_15">
      <!-- 0.07 -->
      <g transform="translate(12.97125 114.701285)scale(0.12 -0.12)">
       <defs>
        <path id="DejaVuSans-37" d="M 525 4666 
L 3525 4666 
L 3525 4397 
L 1831 0 
L 1172 0 
L 2766 4134 
L 525 4134 
L 525 4666 
z
" transform="scale(0.015625)"/>
       </defs>
       <use xlink:href="#DejaVuSans-30"/>
       <use xlink:href="#DejaVuSans-2e" x="63.623047"/>
       <use xlink:href="#DejaVuSans-30" x="95.410156"/>
       <use xlink:href="#DejaVuSans-37" x="159.033203"/>
      </g>
     </g>
    </g>
    <g id="ytick_9">
     <g id="line2d_29">
      <path d="M 46.69 70.671111 
L 707.04 70.671111 
" clip-path="url(#p7e39110968)" style="fill: none; stroke: #b0b0b0; stroke-width: 0.8; stroke-linecap: square"/>
     </g>
     <g id="line2d_30">
      <g>
       <use xlink:href="#m39c831162e" x="46.69" y="70.671111" style="stroke: #000000; stroke-width: 0.8"/>
      </g>
     </g>
     <g id="text_16">
      <!-- 0.08 -->
      <g transform="translate(12.97125 75.230174)scale(0.12 -0.12)">
       <use xlink:href="#DejaVuSans-30"/>
       <use xlink:href="#DejaVuSans-2e" x="63.623047"/>
       <use xlink:href="#DejaVuSans-30" x="95.410156"/>
       <use xlink:href="#DejaVuSans-38" x="159.033203"/>
      </g>
     </g>
    </g>
    <g id="ytick_10">
     <g id="line2d_31">
      <path d="M 46.69 31.2 
L 707.04 31.2 
" clip-path="url(#p7e39110968)" style="fill: none; stroke: #b0b0b0; stroke-width: 0.8; stroke-linecap: square"/>
     </g>
     <g id="line2d_32">
      <g>
       <use xlink:href="#m39c831162e" x="46.69" y="31.2" style="stroke: #000000; stroke-width: 0.8"/>
      </g>
     </g>
     <g id="text_17">
      <!-- 0.09 -->
      <g transform="translate(12.97125 35.759063)scale(0.12 -0.12)">
       <defs>
        <path id="DejaVuSans-39" d="M 703 97 
L 703 672 
Q 941 559 1184 500 
Q 1428 441 1663 441 
Q 2288 441 2617 861 
Q 2947 1281 2994 2138 
Q 2813 1869 2534 1725 
Q 2256 1581 1919 1581 
Q 1219 1581 811 2004 
Q 403 2428 403 3163 
Q 403 3881 828 4315 
Q 1253 4750 1959 4750 
Q 2769 4750 3195 4129 
Q 3622 3509 3622 2328 
Q 3622 1225 3098 567 
Q 2575 -91 1691 -91 
Q 1453 -91 1209 -44 
Q 966 3 703 97 
z
M 1959 2075 
Q 2384 2075 2632 2365 
Q 2881 2656 2881 3163 
Q 2881 3666 2632 3958 
Q 2384 4250 1959 4250 
Q 1534 4250 1286 3958 
Q 1038 3666 1038 3163 
Q 1038 2656 1286 2365 
Q 1534 2075 1959 2075 
z
" transform="scale(0.015625)"/>
       </defs>
       <use xlink:href="#DejaVuSans-30"/>
       <use xlink:href="#DejaVuSans-2e" x="63.623047"/>
       <use xlink:href="#DejaVuSans-30" x="95.410156"/>
       <use xlink:href="#DejaVuSans-39" x="159.033203"/>
      </g>
     </g>
    </g>
   </g>
   <g id="line2d_33">
    <path d="M 76.705909 34.095206 
L 77.306828 64.86649 
L 79.109585 123.544638 
L 80.311424 150.972324 
L 81.513262 171.114037 
L 82.114181 179.467308 
L 83.916938 198.856307 
L 85.118777 209.946111 
L 85.719696 214.683039 
L 86.921534 220.978286 
L 87.522453 224.268993 
L 89.926129 232.719363 
L 90.527048 234.776597 
L 91.127968 236.411491 
L 92.930725 240.082304 
L 94.132563 242.293081 
L 94.733482 243.281043 
L 95.93532 244.486885 
L 97.738078 245.234468 
L 98.338997 245.151184 
L 98.939916 245.749566 
L 99.540835 246.040074 
L 100.141754 246.469914 
L 100.742673 246.67398 
L 101.343592 247.008695 
L 101.944511 246.996853 
L 102.54543 246.429259 
L 103.14635 246.323476 
L 103.747269 246.506227 
L 104.348188 246.390182 
L 104.949107 246.130068 
L 105.550026 246.067703 
L 106.751864 246.575302 
L 107.953702 246.402813 
L 109.155541 246.840548 
L 110.357379 246.706346 
L 110.958298 246.436364 
L 111.559217 247.020536 
L 112.160136 246.843311 
L 113.361974 247.505636 
L 113.962893 248.138358 
L 114.563812 248.307294 
L 115.164732 247.926398 
L 116.967489 248.816077 
L 117.568408 248.465573 
L 118.169327 248.326635 
L 118.770246 248.337292 
L 119.371165 248.776606 
L 121.774842 248.167567 
L 122.375761 248.62109 
L 122.97668 248.277691 
L 123.577599 248.40163 
L 124.178518 248.758449 
L 124.779437 248.396104 
L 125.981275 248.677533 
L 126.582194 248.111912 
L 127.183114 247.959554 
L 127.784033 247.500505 
L 130.187709 247.339463 
L 130.788628 246.971197 
L 131.990466 246.874888 
L 135.595981 246.402418 
L 137.999657 246.991327 
L 139.201496 246.449389 
L 141.004253 246.440311 
L 141.605172 246.324266 
L 142.206091 246.345185 
L 142.80701 246.234272 
L 143.407929 245.90824 
L 144.609767 245.883768 
L 145.210687 246.040074 
L 145.811606 245.991919 
L 146.412525 245.73733 
L 147.013444 246.454126 
L 147.614363 246.460441 
L 148.215282 246.144672 
L 148.816201 245.97613 
L 149.41712 246.500307 
L 150.618959 246.45531 
L 151.820797 246.869756 
L 152.421716 246.630561 
L 153.022635 246.998827 
L 153.623554 247.198551 
L 154.224473 247.115661 
L 154.825392 247.231312 
L 155.426311 247.511162 
L 156.02723 247.543923 
L 156.62815 247.989157 
L 157.229069 247.866007 
L 157.829988 248.136779 
L 158.430907 247.866007 
L 159.632745 247.618129 
L 160.233664 247.316964 
L 160.834583 247.439325 
L 161.435502 247.17842 
L 162.036421 247.612603 
L 163.23826 247.628786 
L 164.440098 247.341041 
L 165.041017 246.702399 
L 165.641936 247.0083 
L 166.242855 246.910017 
L 166.843774 246.998827 
L 167.444693 246.966066 
L 168.045612 246.820812 
L 169.247451 247.343804 
L 169.84837 247.190657 
L 171.050208 247.650495 
L 171.651127 247.499715 
L 172.252046 247.766145 
L 172.852965 248.186513 
L 173.453884 248.237825 
L 174.054803 248.724504 
L 174.655723 248.827129 
L 175.857561 249.259337 
L 176.45848 249.224208 
L 177.059399 249.54274 
L 178.261237 248.865416 
L 178.862156 248.529517 
L 179.463075 248.332161 
L 180.063994 248.556752 
L 180.664914 248.486098 
L 181.866752 247.987578 
L 182.467671 247.784697 
L 183.06859 247.866007 
L 183.669509 248.114675 
L 184.270428 247.646943 
L 185.472266 247.30907 
L 186.674105 247.098294 
L 187.875943 247.409326 
L 188.476862 247.331174 
L 189.6787 247.52103 
L 190.279619 247.485111 
L 192.683296 247.826141 
L 193.284215 247.585368 
L 193.885134 247.995867 
L 194.486053 247.845482 
L 195.086972 248.144673 
L 195.687891 247.465375 
L 198.091567 247.52774 
L 198.692487 247.614576 
L 199.293406 247.5755 
L 199.894325 247.66431 
L 200.495244 248.035338 
L 201.096163 248.174277 
L 201.697082 248.506229 
L 202.298001 248.67556 
L 202.89892 248.508597 
L 203.499839 248.590302 
L 205.302597 247.731805 
L 205.903516 247.873901 
L 206.504435 247.378539 
L 207.105354 247.135397 
L 207.706273 247.191446 
L 208.307192 246.939226 
L 208.908111 247.518267 
L 210.109949 247.60984 
L 210.710869 247.801669 
L 211.912707 247.883769 
L 212.513626 248.191644 
L 213.715464 247.830483 
L 214.316383 248.028628 
L 214.917302 247.734568 
L 215.518221 248.020734 
L 216.72006 247.098689 
L 217.320979 247.04935 
L 217.921898 246.736344 
L 218.522817 246.921069 
L 219.123736 246.829496 
L 219.724655 246.302162 
L 220.926493 246.512938 
L 222.729251 246.428075 
L 223.931089 246.291899 
L 224.532008 246.774236 
L 225.132927 246.988959 
L 225.733846 246.370842 
L 226.334765 245.970999 
L 226.935684 246.090991 
L 227.536603 245.650494 
L 228.137523 245.690754 
L 228.738442 245.852586 
L 229.339361 245.729436 
L 230.541199 245.84035 
L 231.142118 246.338475 
L 231.743037 246.4486 
L 233.545794 247.152764 
L 234.747633 246.87844 
L 235.348552 247.093163 
L 235.949471 247.717201 
L 236.55039 248.068494 
L 237.151309 248.256377 
L 237.752228 248.76358 
L 239.554985 249.076192 
L 240.155905 248.885151 
L 241.357743 249.077376 
L 242.559581 248.571356 
L 243.1605 248.546094 
L 244.362338 248.795157 
L 246.165096 248.003761 
L 246.766015 247.966264 
L 247.967853 247.499321 
L 248.568772 246.61951 
L 251.573367 247.790617 
L 252.174287 247.368277 
L 252.775206 247.575105 
L 253.977044 247.321306 
L 254.577963 246.861862 
L 255.779801 246.758843 
L 256.981639 246.904096 
L 257.582558 246.744633 
L 258.183478 246.372815 
L 258.784397 246.286768 
L 259.385316 246.011654 
L 260.587154 246.125726 
L 261.788992 246.955014 
L 262.389911 246.913569 
L 262.99083 247.146054 
L 263.591749 246.959751 
L 264.192669 246.958172 
L 264.793588 247.343804 
L 265.394507 247.474849 
L 265.995426 247.884559 
L 266.596345 248.010472 
L 267.197264 248.317557 
L 269.000021 248.370448 
L 269.60094 247.894821 
L 270.20186 248.508202 
L 271.403698 248.301374 
L 272.605536 248.629773 
L 273.206455 248.065336 
L 274.408293 247.402616 
L 275.009212 247.214339 
L 276.211051 247.198156 
L 276.81197 246.934489 
L 277.412889 246.801077 
L 278.013808 246.504649 
L 278.614727 246.363342 
L 279.215646 245.914161 
L 279.816565 245.319726 
L 280.417484 245.448796 
L 281.018403 244.986984 
L 281.619323 244.906069 
L 282.220242 245.097898 
L 282.821161 244.915936 
L 284.022999 244.921857 
L 284.623918 244.738316 
L 285.224837 244.326238 
L 285.825756 244.339658 
L 286.426675 244.218482 
L 287.027594 244.335316 
L 288.229433 244.231507 
L 288.830352 244.496753 
L 289.431271 244.888307 
L 290.03219 245.141711 
L 290.633109 245.559316 
L 291.234028 245.750356 
L 291.834947 246.283216 
L 292.435866 246.392945 
L 293.637705 246.934094 
L 294.238624 247.629181 
L 295.440462 247.492216 
L 296.041381 247.480769 
L 297.243219 247.907847 
L 299.045976 248.301374 
L 299.646896 248.400051 
L 300.848734 248.20388 
L 301.449653 248.439917 
L 302.050572 248.991723 
L 302.651491 248.879625 
L 303.25241 249.000802 
L 303.853329 248.62109 
L 305.055167 248.425708 
L 305.656087 248.604512 
L 306.257006 248.389789 
L 306.857925 248.7099 
L 307.458844 248.144279 
L 308.059763 248.205064 
L 310.463439 247.922451 
L 311.064358 248.051916 
L 312.867116 248.115465 
L 313.468035 248.237036 
L 314.068954 248.837786 
L 314.669873 248.892651 
L 315.270792 249.129872 
L 315.871711 249.61813 
L 316.47263 249.224603 
L 317.073549 248.571356 
L 317.674469 248.59346 
L 319.477226 247.741673 
L 320.078145 248.16283 
L 320.679064 248.087835 
L 321.279983 247.769698 
L 322.481821 247.428273 
L 323.08274 247.19934 
L 323.68366 247.187499 
L 324.284579 247.817063 
L 324.885498 247.741673 
L 325.486417 247.967843 
L 326.688255 247.982842 
L 327.890093 247.612208 
L 328.491012 247.899558 
L 329.692851 247.439719 
L 330.29377 247.618129 
L 330.894689 247.586157 
L 331.495608 248.018366 
L 332.096527 248.267428 
L 332.697446 248.640825 
L 333.298365 249.300782 
L 335.101122 249.416827 
L 336.302961 249.116057 
L 336.90388 249.452746 
L 338.105718 249.507611 
L 338.706637 249.70694 
L 340.509394 249.594447 
L 341.110313 248.966067 
L 342.913071 248.917518 
L 343.51399 248.242562 
L 344.114909 247.996262 
L 344.715828 248.289927 
L 345.316747 248.289927 
L 346.518585 247.867981 
L 347.119505 247.768119 
L 347.720424 248.245325 
L 348.321343 247.827326 
L 348.922262 247.869165 
L 349.523181 247.646548 
L 350.1241 247.882585 
L 351.926857 247.969027 
L 353.128696 247.653258 
L 353.729615 247.413668 
L 354.330534 247.364329 
L 354.931453 247.142107 
L 356.133291 247.228549 
L 356.73421 246.627009 
L 357.335129 246.675559 
L 357.936048 246.891071 
L 358.536967 246.387419 
L 359.137887 246.139146 
L 359.738806 246.121384 
L 360.339725 246.475045 
L 361.541563 246.647534 
L 362.142482 246.787656 
L 363.34432 247.482743 
L 363.945239 247.559317 
L 364.546158 247.912978 
L 365.147078 248.588329 
L 365.747997 248.938043 
L 366.348916 249.07106 
L 366.949835 249.389197 
L 368.151673 249.616551 
L 368.752592 249.446825 
L 369.95443 249.669442 
L 370.555349 249.299598 
L 371.156269 249.417222 
L 372.358107 249.467745 
L 372.959026 248.746213 
L 374.160864 248.100071 
L 374.761783 247.72628 
L 375.362702 247.688387 
L 375.963621 247.821405 
L 376.56454 247.822589 
L 377.16546 247.950081 
L 377.766379 247.872717 
L 378.367298 247.603919 
L 379.569136 247.520635 
L 380.170055 247.163816 
L 380.770974 247.714043 
L 381.371893 247.902715 
L 381.972812 247.893242 
L 382.573731 248.473468 
L 383.174651 248.580434 
L 383.77557 248.100071 
L 384.376489 247.898374 
L 384.977408 247.98521 
L 385.578327 247.772855 
L 386.780165 247.644969 
L 387.381084 247.721938 
L 388.582922 246.866204 
L 390.38568 247.47248 
L 390.986599 247.309465 
L 391.587518 246.891466 
L 392.188437 246.954619 
L 392.789356 246.733186 
L 393.390275 246.171118 
L 393.991194 246.361763 
L 394.592113 246.203484 
L 395.193033 246.298215 
L 395.793952 245.940606 
L 396.99579 245.56642 
L 397.596709 245.169736 
L 398.197628 245.433797 
L 398.798547 245.414851 
L 399.399466 245.59405 
L 400.601304 244.986984 
L 401.202224 245.153947 
L 402.404062 244.959749 
L 403.004981 245.120791 
L 404.206819 245.82693 
L 404.807738 245.775222 
L 405.408657 245.963105 
L 406.009576 245.695096 
L 407.211415 246.45452 
L 407.812334 246.056257 
L 408.413253 245.815483 
L 409.014172 245.843902 
L 409.615091 246.156908 
L 410.21601 246.16796 
L 411.417848 245.931528 
L 412.018767 246.088228 
L 413.220606 246.025075 
L 413.821525 245.794169 
L 414.422444 245.065137 
L 415.023363 244.964091 
L 415.624282 245.420772 
L 416.82612 245.285386 
L 418.027958 245.877058 
L 418.628878 246.195985 
L 419.830716 246.429259 
L 420.431635 246.874493 
L 421.032554 246.668848 
L 421.633473 247.016984 
L 422.234392 247.219076 
L 422.835311 247.607866 
L 424.638069 248.162041 
L 425.839907 248.051127 
L 426.440826 248.379921 
L 427.041745 248.309663 
L 427.642664 247.99942 
L 428.243583 247.988368 
L 428.844502 248.13599 
L 429.445421 247.939818 
L 430.04634 248.282822 
L 431.849098 247.641022 
L 432.450017 247.847061 
L 433.050936 247.606287 
L 433.651855 247.106188 
L 434.252774 247.556948 
L 435.454612 247.168553 
L 436.055531 247.264862 
L 436.656451 247.030404 
L 437.25737 247.515504 
L 437.858289 247.334726 
L 438.459208 247.494189 
L 439.661046 247.598788 
L 440.261965 247.8218 
L 440.862884 247.64339 
L 441.463803 248.044022 
L 442.064722 247.769303 
L 443.86748 248.382289 
L 444.468399 248.287953 
L 445.069318 248.583197 
L 445.670237 248.227957 
L 446.872075 248.330188 
L 447.472994 247.966659 
L 448.674833 247.696281 
L 449.275752 247.92324 
L 449.876671 247.597604 
L 450.47759 248.088624 
L 451.078509 247.835614 
L 451.679428 248.413077 
L 452.280347 248.519649 
L 452.881266 248.054284 
L 454.083104 248.057047 
L 454.684024 247.800485 
L 456.486781 248.309268 
L 457.0877 248.235852 
L 457.688619 248.347555 
L 459.491376 247.969027 
L 460.092295 248.277691 
L 460.693215 247.696281 
L 461.294134 247.560896 
L 462.495972 247.625233 
L 463.096891 248.318741 
L 463.69781 248.385447 
L 464.298729 248.267034 
L 464.899648 247.873507 
L 466.101486 247.525372 
L 466.702406 247.858113 
L 467.904244 247.590499 
L 468.505163 247.208419 
L 469.106082 247.640627 
L 470.30792 247.522609 
L 470.908839 248.067705 
L 472.110677 248.184539 
L 473.913435 248.37479 
L 474.514354 248.387026 
L 475.115273 248.535437 
L 475.716192 248.2994 
L 476.317111 248.516491 
L 476.91803 248.357817 
L 477.518949 248.893046 
L 478.720788 249.039483 
L 479.321707 249.615367 
L 479.922626 249.462614 
L 480.523545 249.118426 
L 481.725383 248.938043 
L 482.927221 248.856337 
L 483.52814 248.677928 
L 484.12906 248.316373 
L 486.532736 247.976921 
L 487.133655 248.0606 
L 487.734574 248.394525 
L 488.335493 248.160462 
L 488.936412 247.794565 
L 489.537331 247.983236 
L 490.138251 247.449587 
L 490.73917 247.67102 
L 491.340089 247.773645 
L 491.941008 247.247495 
L 492.541927 247.046587 
L 493.142846 247.0083 
L 494.344684 247.475638 
L 494.945603 247.075796 
L 495.546522 247.176052 
L 496.147442 247.42472 
L 497.34928 247.446429 
L 497.950199 247.602735 
L 498.551118 247.635891 
L 499.752956 248.649904 
L 500.954794 248.420576 
L 502.156633 248.635694 
L 502.757552 249.105005 
L 503.358471 248.781342 
L 505.161228 248.918702 
L 505.762147 248.080335 
L 506.363066 248.002183 
L 506.963985 248.398078 
L 507.564904 248.467152 
L 508.165824 248.193617 
L 508.766743 247.515109 
L 509.367662 247.538397 
L 510.5695 247.064349 
L 511.170419 246.764763 
L 511.771338 246.732002 
L 512.372257 246.398471 
L 512.973176 246.791604 
L 513.574095 246.628983 
L 514.175015 246.593064 
L 514.775934 246.374394 
L 515.376853 246.581617 
L 515.977772 246.496754 
L 517.17961 246.897781 
L 518.381448 247.780355 
L 518.982367 247.537213 
L 519.583286 247.079743 
L 520.184206 247.032377 
L 520.785125 247.3367 
L 521.386044 247.511162 
L 521.986963 247.258152 
L 523.78972 247.681677 
L 524.991558 247.383276 
L 526.193397 247.717991 
L 526.794316 247.805222 
L 527.395235 247.629575 
L 527.996154 248.479388 
L 529.197992 248.438338 
L 529.798911 249.1875 
L 531.000749 248.420182 
L 532.202588 248.46281 
L 532.803507 248.336108 
L 533.404426 248.015208 
L 534.005345 248.057837 
L 535.207183 247.37104 
L 536.409021 247.272362 
L 537.00994 246.823575 
L 537.610859 246.613589 
L 538.211779 246.102438 
L 538.812698 246.22993 
L 539.413617 246.145856 
L 540.014536 246.421759 
L 540.615455 246.558724 
L 541.216374 247.095136 
L 541.817293 247.015405 
L 542.418212 247.131845 
L 543.019131 247.549844 
L 544.22097 247.292887 
L 546.023727 247.530503 
L 546.624646 247.106188 
L 547.225565 246.898176 
L 547.826484 246.902912 
L 548.427403 247.289334 
L 549.028322 247.184341 
L 549.629242 247.324069 
L 550.230161 247.626418 
L 552.032918 249.085665 
L 553.234756 249.232102 
L 553.835675 249.253417 
L 554.436594 248.962515 
L 555.037513 248.520833 
L 555.638433 248.509781 
L 556.239352 248.335319 
L 556.840271 248.644772 
L 557.44119 248.439128 
L 558.042109 248.681086 
L 558.643028 248.509386 
L 559.243947 248.782921 
L 559.844866 248.598986 
L 560.445785 248.81884 
L 563.450381 247.994288 
L 564.652219 247.440509 
L 565.253138 247.803248 
L 565.854057 247.499715 
L 566.454976 247.688387 
L 567.055895 247.60905 
L 567.656815 248.076783 
L 568.257734 248.010077 
L 568.858653 247.704176 
L 569.459572 247.891663 
L 570.060491 247.450771 
L 570.66141 247.660757 
L 571.262329 248.051127 
L 571.863248 247.939029 
L 572.464167 248.079151 
L 573.065086 248.002972 
L 574.867844 248.257955 
L 575.468763 247.883375 
L 576.069682 247.96429 
L 576.670601 247.873112 
L 577.27152 248.097308 
L 577.872439 248.068889 
L 578.473358 248.423734 
L 579.074277 247.952844 
L 580.276116 248.209011 
L 581.477954 247.776803 
L 582.078873 247.779566 
L 582.679792 248.185723 
L 583.88163 248.463995 
L 584.482549 248.209406 
L 585.684388 248.611222 
L 586.285307 248.632536 
L 587.487145 248.96212 
L 588.088064 248.948305 
L 588.688983 248.786868 
L 589.890821 249.17329 
L 591.092659 249.362357 
L 591.693579 249.135793 
L 592.294498 248.602143 
L 593.496336 247.95758 
L 594.097255 248.06731 
L 594.698174 247.838377 
L 595.900012 248.318346 
L 596.500931 248.239404 
L 597.10185 247.970606 
L 597.70277 247.57471 
L 598.303689 247.635496 
L 598.904608 247.188683 
L 599.505527 247.131055 
L 600.106446 247.389591 
L 600.707365 247.225391 
L 601.308284 247.474454 
L 601.909203 247.331963 
L 602.510122 247.320516 
L 603.111041 247.541555 
L 604.31288 247.256179 
L 604.913799 247.68523 
L 605.514718 247.227759 
L 606.716556 248.186907 
L 607.317475 248.352686 
L 607.918394 248.758844 
L 608.519313 248.860285 
L 609.120233 249.14645 
L 609.721152 248.8666 
L 610.322071 249.061982 
L 610.92299 249.100664 
L 611.523909 248.79121 
L 612.124828 248.92778 
L 612.725747 248.466758 
L 613.326666 248.374395 
L 613.927585 247.666678 
L 614.528504 247.54787 
L 615.129424 247.790223 
L 616.331262 247.348936 
L 616.932181 247.734174 
L 617.5331 247.380118 
L 618.134019 248.052706 
L 619.335857 247.938634 
L 619.936776 247.847456 
L 620.537695 248.090598 
L 621.138615 247.843509 
L 621.739534 248.120991 
L 622.941372 248.866205 
L 623.542291 249.106979 
L 624.744129 248.514518 
L 625.345048 248.849627 
L 626.546886 249.025668 
L 627.147806 248.751739 
L 627.748725 248.74345 
L 628.349644 248.910808 
L 628.950563 248.732398 
L 630.152401 247.994683 
L 631.955158 247.717201 
L 632.556077 248.022313 
L 633.156997 247.784302 
L 633.757916 247.983236 
L 634.358835 248.046785 
L 634.959754 248.300584 
L 635.560673 248.885546 
L 636.161592 249.164607 
L 637.36343 248.914755 
L 637.964349 248.986987 
L 639.166188 248.908045 
L 639.767107 248.536227 
L 640.968945 249.073429 
L 641.569864 249.11211 
L 642.170783 248.741476 
L 642.771702 249.088822 
L 643.372621 248.419392 
L 645.175379 248.229536 
L 646.377217 248.440312 
L 646.978136 248.554778 
L 647.579055 248.478599 
L 648.179974 248.239799 
L 649.381812 248.579645 
L 649.982731 248.349134 
L 650.58365 248.351107 
L 651.18457 247.803643 
L 651.785489 248.104807 
L 652.386408 247.831273 
L 653.588246 248.533464 
L 654.189165 248.469915 
L 654.790084 248.220458 
L 655.391003 248.093361 
L 655.991922 247.745226 
L 657.79468 247.843114 
L 658.996518 247.729437 
L 659.597437 248.124543 
L 660.198356 248.296242 
L 661.400194 248.122175 
L 662.001113 247.78667 
L 662.602032 247.647337 
L 663.202952 247.700623 
L 663.803871 247.51432 
L 664.40479 246.89265 
L 665.005709 246.48965 
L 665.606628 246.754106 
L 666.808466 246.612799 
L 669.813062 246.654244 
L 670.413981 247.009484 
L 671.615819 246.930937 
L 672.216738 247.202498 
L 672.817657 247.22026 
L 673.418576 246.971197 
L 674.019495 247.150791 
L 675.221334 246.85752 
L 675.822253 246.727266 
L 677.024091 247.092768 
L 677.024091 247.092768 
" clip-path="url(#p7e39110968)" style="fill: none; stroke: #1f77b4; stroke-width: 1.5; stroke-linecap: square"/>
   </g>
   <g id="line2d_34">
    <path d="M 76.705909 33.399725 
L 77.306828 63.843793 
L 78.508666 107.466476 
L 79.710505 137.954357 
L 80.912343 160.818787 
L 82.114181 178.672755 
L 83.316019 192.928536 
L 84.517857 204.43397 
L 85.719696 213.747179 
L 86.921534 221.267215 
L 88.123372 227.302742 
L 89.32521 232.104008 
L 90.527048 235.884157 
L 91.728887 238.82436 
L 92.930725 241.082107 
L 94.132563 242.792391 
L 95.334401 244.068886 
L 96.536239 245.007509 
L 97.738078 245.686807 
L 99.540835 246.355053 
L 101.343592 246.742659 
L 103.747269 247.0083 
L 107.953702 247.176052 
L 119.972084 247.308675 
L 144.609767 247.345383 
L 677.024091 247.345778 
L 677.024091 247.345778 
" clip-path="url(#p7e39110968)" style="fill: none; stroke: #ff7f0e; stroke-width: 1.5; stroke-linecap: square"/>
   </g>
   <g id="line2d_35">
    <path d="M 76.705909 249.944556 
L 79.109585 257.263684 
L 82.7151 267.06515 
L 84.517857 271.332767 
L 86.320615 275.054103 
L 87.522453 277.2112 
L 88.724291 278.938061 
L 90.527048 281.000426 
L 93.531644 283.947734 
L 94.733482 284.904119 
L 95.93532 285.502896 
L 97.738078 286.143512 
L 100.742673 286.715448 
L 102.54543 286.994509 
L 106.751864 286.773471 
L 108.554621 286.858334 
L 110.357379 286.853203 
L 111.559217 286.985825 
L 112.761055 287.050163 
L 115.164732 287.471715 
L 118.169327 288.212588 
L 121.173923 288.219298 
L 126.582194 287.746039 
L 131.389547 286.335736 
L 132.591385 285.908264 
L 134.394143 285.527763 
L 135.595981 285.466977 
L 142.206091 286.11154 
L 144.609767 286.262715 
L 148.816201 286.934118 
L 151.219878 287.156735 
L 157.229069 288.302187 
L 159.632745 288.3385 
L 160.834583 288.295872 
L 162.637341 287.959183 
L 164.440098 287.62802 
L 166.242855 287.51908 
L 169.247451 287.442901 
L 172.852965 287.698674 
L 177.059399 288.183774 
L 178.862156 288.006548 
L 180.063994 287.702621 
L 183.06859 286.885569 
L 186.073185 286.80268 
L 187.275024 286.94596 
L 189.077781 287.399483 
L 190.279619 287.750381 
L 191.481457 287.942605 
L 193.885134 287.934316 
L 196.889729 287.70341 
L 198.091567 287.673018 
L 200.495244 287.82735 
L 203.499839 288.356657 
L 204.701678 288.334553 
L 210.710869 287.856558 
L 217.320979 286.820442 
L 220.926493 286.728474 
L 223.33017 286.817679 
L 225.132927 286.418231 
L 227.536603 285.792614 
L 229.94028 285.73696 
L 231.142118 285.87945 
L 232.944875 286.259557 
L 235.348552 286.872543 
L 240.756824 288.461256 
L 244.362338 288.726896 
L 246.766015 288.756105 
L 250.371529 288.405207 
L 252.174287 288.064571 
L 253.977044 287.648151 
L 258.183478 286.861886 
L 259.986235 286.567037 
L 261.788992 286.666899 
L 265.995426 286.938855 
L 269.60094 286.96609 
L 271.403698 287.11608 
L 273.206455 287.299226 
L 274.408293 287.330408 
L 277.412889 287.695911 
L 278.614727 287.624073 
L 282.821161 287.179234 
L 285.224837 287.207258 
L 290.03219 287.193838 
L 291.234028 287.391983 
L 293.637705 287.892477 
L 297.844138 288.314818 
L 300.247815 288.419416 
L 302.050572 288.378366 
L 312.867116 287.746434 
L 320.679064 287.879846 
L 324.885498 287.668676 
L 327.289174 287.953262 
L 328.491012 288.245743 
L 335.101122 289.006352 
L 341.711233 288.527962 
L 342.913071 288.300608 
L 344.715828 288.211798 
L 345.917666 287.915765 
L 348.321343 287.228968 
L 350.1241 286.884385 
L 355.532372 286.325474 
L 357.335129 286.729263 
L 362.142482 288.143513 
L 363.945239 288.341658 
L 366.949835 288.409154 
L 369.95443 288.043257 
L 372.959026 287.59447 
L 374.761783 287.494608 
L 377.16546 287.4579 
L 385.578327 287.766959 
L 386.780165 287.752749 
L 387.982003 287.808009 
L 396.99579 287.465399 
L 399.399466 287.08174 
L 401.803143 286.489279 
L 403.6059 286.287976 
L 405.408657 286.284424 
L 407.211415 286.299818 
L 409.615091 286.10483 
L 412.619687 286.083121 
L 414.422444 286.23469 
L 417.427039 286.447834 
L 419.229797 286.837809 
L 421.633473 287.4504 
L 422.835311 287.742487 
L 424.037149 287.934316 
L 425.839907 287.803272 
L 428.243583 287.48474 
L 434.252774 286.742289 
L 436.055531 286.835046 
L 437.858289 286.943591 
L 446.271156 286.561116 
L 449.876671 286.679924 
L 454.083104 286.531513 
L 456.486781 286.756893 
L 463.69781 286.934908 
L 465.500567 287.037927 
L 466.702406 287.048585 
L 471.509758 287.572761 
L 476.317111 287.943395 
L 478.119869 288.131277 
L 479.922626 288.33258 
L 481.124464 288.445862 
L 482.927221 288.331396 
L 487.734574 287.748802 
L 489.537331 287.604732 
L 491.340089 287.410535 
L 494.945603 287.397509 
L 496.748361 287.699463 
L 498.551118 287.960762 
L 499.752956 288.170354 
L 500.954794 288.45494 
L 504.560309 288.757684 
L 506.963985 288.581248 
L 508.165824 288.475465 
L 512.973176 287.469741 
L 514.175015 287.440138 
L 515.977772 287.296463 
L 518.381448 287.637099 
L 519.583286 287.755907 
L 521.986963 287.822218 
L 523.78972 287.71762 
L 525.592477 287.445269 
L 527.996154 287.30041 
L 532.803507 287.315804 
L 536.409021 287.611048 
L 537.610859 287.517501 
L 540.615455 287.024507 
L 550.83108 288.390208 
L 552.032918 288.413496 
L 553.835675 288.196404 
L 556.239352 287.860111 
L 559.844866 287.902345 
L 563.450381 287.618153 
L 564.652219 287.686832 
L 569.459572 288.377577 
L 573.666006 288.130488 
L 577.27152 288.197983 
L 580.276116 287.951684 
L 582.679792 287.682096 
L 583.88163 287.49895 
L 585.684388 287.565261 
L 587.487145 287.657229 
L 589.289902 287.6221 
L 592.895417 287.162261 
L 594.698174 286.984641 
L 598.303689 287.243177 
L 603.711961 287.825376 
L 607.317475 288.6669 
L 608.519313 288.861493 
L 612.124828 289.063979 
L 613.927585 289.206075 
L 615.129424 289.279886 
L 621.739534 289.041086 
L 624.744129 289.090425 
L 625.945967 288.975959 
L 627.147806 288.958986 
L 630.75332 288.417443 
L 631.955158 288.368893 
L 634.358835 288.137987 
L 637.36343 288.115489 
L 639.767107 288.244559 
L 646.377217 289.241994 
L 648.780893 289.226995 
L 650.58365 288.975959 
L 654.189165 288.142329 
L 657.79468 286.577299 
L 659.597437 285.414481 
L 660.799275 284.412309 
L 662.001113 283.200151 
L 663.202952 281.563284 
L 664.40479 279.681696 
L 666.808466 275.463024 
L 668.611223 271.632747 
L 670.413981 267.218693 
L 673.418576 258.853975 
L 675.822253 251.256181 
L 677.024091 247.092768 
L 677.024091 247.092768 
" clip-path="url(#p7e39110968)" style="fill: none; stroke: #2ca02c; stroke-width: 1.5; stroke-linecap: square"/>
   </g>
   <g id="line2d_36">
    <path d="M 76.705909 249.914163 
L 78.508666 255.648921 
L 80.912343 262.596231 
L 83.316019 268.913583 
L 85.118777 273.110151 
L 86.921534 276.725705 
L 88.724291 279.705774 
L 89.926129 281.339483 
L 91.127968 282.705183 
L 92.329806 283.825768 
L 93.531644 284.727288 
L 95.334401 285.733012 
L 97.137159 286.409942 
L 98.939916 286.846887 
L 101.343592 287.181207 
L 104.949107 287.390799 
L 111.559217 287.476846 
L 141.605172 287.524606 
L 646.978136 287.416455 
L 651.18457 287.224626 
L 653.588246 286.942802 
L 655.391003 286.572168 
L 657.193761 285.993127 
L 658.996518 285.124368 
L 660.198356 284.338498 
L 661.400194 283.353299 
L 662.602032 282.140747 
L 663.803871 280.675974 
L 665.005709 278.939245 
L 666.207547 276.919508 
L 668.010304 273.35724 
L 669.813062 269.192249 
L 671.615819 264.501502 
L 674.019495 257.543534 
L 675.822253 251.716809 
L 677.024091 247.345778 
L 677.024091 247.345778 
" clip-path="url(#p7e39110968)" style="fill: none; stroke: #d62728; stroke-width: 1.5; stroke-linecap: square"/>
   </g>
   <g id="patch_3">
    <path d="M 46.69 386.44 
L 46.69 31.2 
" style="fill: none; stroke: #000000; stroke-width: 0.8; stroke-linejoin: miter; stroke-linecap: square"/>
   </g>
   <g id="patch_4">
    <path d="M 707.04 386.44 
L 707.04 31.2 
" style="fill: none; stroke: #000000; stroke-width: 0.8; stroke-linejoin: miter; stroke-linecap: square"/>
   </g>
   <g id="patch_5">
    <path d="M 46.69 386.44 
L 707.04 386.44 
" style="fill: none; stroke: #000000; stroke-width: 0.8; stroke-linejoin: miter; stroke-linecap: square"/>
   </g>
   <g id="patch_6">
    <path d="M 46.69 31.2 
L 707.04 31.2 
" style="fill: none; stroke: #000000; stroke-width: 0.8; stroke-linejoin: miter; stroke-linecap: square"/>
   </g>
   <g id="text_18">
    <!-- Comparison of sample RMS and estimated SD for $x_1$ -->
    <g transform="translate(189.017 25.2)scale(0.144 -0.144)">
     <defs>
      <path id="DejaVuSans-43" d="M 4122 4306 
L 4122 3641 
Q 3803 3938 3442 4084 
Q 3081 4231 2675 4231 
Q 1875 4231 1450 3742 
Q 1025 3253 1025 2328 
Q 1025 1406 1450 917 
Q 1875 428 2675 428 
Q 3081 428 3442 575 
Q 3803 722 4122 1019 
L 4122 359 
Q 3791 134 3420 21 
Q 3050 -91 2638 -91 
Q 1578 -91 968 557 
Q 359 1206 359 2328 
Q 359 3453 968 4101 
Q 1578 4750 2638 4750 
Q 3056 4750 3426 4639 
Q 3797 4528 4122 4306 
z
" transform="scale(0.015625)"/>
      <path id="DejaVuSans-6d" d="M 3328 2828 
Q 3544 3216 3844 3400 
Q 4144 3584 4550 3584 
Q 5097 3584 5394 3201 
Q 5691 2819 5691 2113 
L 5691 0 
L 5113 0 
L 5113 2094 
Q 5113 2597 4934 2840 
Q 4756 3084 4391 3084 
Q 3944 3084 3684 2787 
Q 3425 2491 3425 1978 
L 3425 0 
L 2847 0 
L 2847 2094 
Q 2847 2600 2669 2842 
Q 2491 3084 2119 3084 
Q 1678 3084 1418 2786 
Q 1159 2488 1159 1978 
L 1159 0 
L 581 0 
L 581 3500 
L 1159 3500 
L 1159 2956 
Q 1356 3278 1631 3431 
Q 1906 3584 2284 3584 
Q 2666 3584 2933 3390 
Q 3200 3197 3328 2828 
z
" transform="scale(0.015625)"/>
      <path id="DejaVuSans-61" d="M 2194 1759 
Q 1497 1759 1228 1600 
Q 959 1441 959 1056 
Q 959 750 1161 570 
Q 1363 391 1709 391 
Q 2188 391 2477 730 
Q 2766 1069 2766 1631 
L 2766 1759 
L 2194 1759 
z
M 3341 1997 
L 3341 0 
L 2766 0 
L 2766 531 
Q 2569 213 2275 61 
Q 1981 -91 1556 -91 
Q 1019 -91 701 211 
Q 384 513 384 1019 
Q 384 1609 779 1909 
Q 1175 2209 1959 2209 
L 2766 2209 
L 2766 2266 
Q 2766 2663 2505 2880 
Q 2244 3097 1772 3097 
Q 1472 3097 1187 3025 
Q 903 2953 641 2809 
L 641 3341 
Q 956 3463 1253 3523 
Q 1550 3584 1831 3584 
Q 2591 3584 2966 3190 
Q 3341 2797 3341 1997 
z
" transform="scale(0.015625)"/>
      <path id="DejaVuSans-72" d="M 2631 2963 
Q 2534 3019 2420 3045 
Q 2306 3072 2169 3072 
Q 1681 3072 1420 2755 
Q 1159 2438 1159 1844 
L 1159 0 
L 581 0 
L 581 3500 
L 1159 3500 
L 1159 2956 
Q 1341 3275 1631 3429 
Q 1922 3584 2338 3584 
Q 2397 3584 2469 3576 
Q 2541 3569 2628 3553 
L 2631 2963 
z
" transform="scale(0.015625)"/>
      <path id="DejaVuSans-69" d="M 603 3500 
L 1178 3500 
L 1178 0 
L 603 0 
L 603 3500 
z
M 603 4863 
L 1178 4863 
L 1178 4134 
L 603 4134 
L 603 4863 
z
" transform="scale(0.015625)"/>
      <path id="DejaVuSans-73" d="M 2834 3397 
L 2834 2853 
Q 2591 2978 2328 3040 
Q 2066 3103 1784 3103 
Q 1356 3103 1142 2972 
Q 928 2841 928 2578 
Q 928 2378 1081 2264 
Q 1234 2150 1697 2047 
L 1894 2003 
Q 2506 1872 2764 1633 
Q 3022 1394 3022 966 
Q 3022 478 2636 193 
Q 2250 -91 1575 -91 
Q 1294 -91 989 -36 
Q 684 19 347 128 
L 347 722 
Q 666 556 975 473 
Q 1284 391 1588 391 
Q 1994 391 2212 530 
Q 2431 669 2431 922 
Q 2431 1156 2273 1281 
Q 2116 1406 1581 1522 
L 1381 1569 
Q 847 1681 609 1914 
Q 372 2147 372 2553 
Q 372 3047 722 3315 
Q 1072 3584 1716 3584 
Q 2034 3584 2315 3537 
Q 2597 3491 2834 3397 
z
" transform="scale(0.015625)"/>
      <path id="DejaVuSans-6e" d="M 3513 2113 
L 3513 0 
L 2938 0 
L 2938 2094 
Q 2938 2591 2744 2837 
Q 2550 3084 2163 3084 
Q 1697 3084 1428 2787 
Q 1159 2491 1159 1978 
L 1159 0 
L 581 0 
L 581 3500 
L 1159 3500 
L 1159 2956 
Q 1366 3272 1645 3428 
Q 1925 3584 2291 3584 
Q 2894 3584 3203 3211 
Q 3513 2838 3513 2113 
z
" transform="scale(0.015625)"/>
      <path id="DejaVuSans-20" transform="scale(0.015625)"/>
      <path id="DejaVuSans-66" d="M 2375 4863 
L 2375 4384 
L 1825 4384 
Q 1516 4384 1395 4259 
Q 1275 4134 1275 3809 
L 1275 3500 
L 2222 3500 
L 2222 3053 
L 1275 3053 
L 1275 0 
L 697 0 
L 697 3053 
L 147 3053 
L 147 3500 
L 697 3500 
L 697 3744 
Q 697 4328 969 4595 
Q 1241 4863 1831 4863 
L 2375 4863 
z
" transform="scale(0.015625)"/>
      <path id="DejaVuSans-6c" d="M 603 4863 
L 1178 4863 
L 1178 0 
L 603 0 
L 603 4863 
z
" transform="scale(0.015625)"/>
      <path id="DejaVuSans-65" d="M 3597 1894 
L 3597 1613 
L 953 1613 
Q 991 1019 1311 708 
Q 1631 397 2203 397 
Q 2534 397 2845 478 
Q 3156 559 3463 722 
L 3463 178 
Q 3153 47 2828 -22 
Q 2503 -91 2169 -91 
Q 1331 -91 842 396 
Q 353 884 353 1716 
Q 353 2575 817 3079 
Q 1281 3584 2069 3584 
Q 2775 3584 3186 3129 
Q 3597 2675 3597 1894 
z
M 3022 2063 
Q 3016 2534 2758 2815 
Q 2500 3097 2075 3097 
Q 1594 3097 1305 2825 
Q 1016 2553 972 2059 
L 3022 2063 
z
" transform="scale(0.015625)"/>
      <path id="DejaVuSans-52" d="M 2841 2188 
Q 3044 2119 3236 1894 
Q 3428 1669 3622 1275 
L 4263 0 
L 3584 0 
L 2988 1197 
Q 2756 1666 2539 1819 
Q 2322 1972 1947 1972 
L 1259 1972 
L 1259 0 
L 628 0 
L 628 4666 
L 2053 4666 
Q 2853 4666 3247 4331 
Q 3641 3997 3641 3322 
Q 3641 2881 3436 2590 
Q 3231 2300 2841 2188 
z
M 1259 4147 
L 1259 2491 
L 2053 2491 
Q 2509 2491 2742 2702 
Q 2975 2913 2975 3322 
Q 2975 3731 2742 3939 
Q 2509 4147 2053 4147 
L 1259 4147 
z
" transform="scale(0.015625)"/>
      <path id="DejaVuSans-4d" d="M 628 4666 
L 1569 4666 
L 2759 1491 
L 3956 4666 
L 4897 4666 
L 4897 0 
L 4281 0 
L 4281 4097 
L 3078 897 
L 2444 897 
L 1241 4097 
L 1241 0 
L 628 0 
L 628 4666 
z
" transform="scale(0.015625)"/>
      <path id="DejaVuSans-53" d="M 3425 4513 
L 3425 3897 
Q 3066 4069 2747 4153 
Q 2428 4238 2131 4238 
Q 1616 4238 1336 4038 
Q 1056 3838 1056 3469 
Q 1056 3159 1242 3001 
Q 1428 2844 1947 2747 
L 2328 2669 
Q 3034 2534 3370 2195 
Q 3706 1856 3706 1288 
Q 3706 609 3251 259 
Q 2797 -91 1919 -91 
Q 1588 -91 1214 -16 
Q 841 59 441 206 
L 441 856 
Q 825 641 1194 531 
Q 1563 422 1919 422 
Q 2459 422 2753 634 
Q 3047 847 3047 1241 
Q 3047 1584 2836 1778 
Q 2625 1972 2144 2069 
L 1759 2144 
Q 1053 2284 737 2584 
Q 422 2884 422 3419 
Q 422 4038 858 4394 
Q 1294 4750 2059 4750 
Q 2388 4750 2728 4690 
Q 3069 4631 3425 4513 
z
" transform="scale(0.015625)"/>
      <path id="DejaVuSans-64" d="M 2906 2969 
L 2906 4863 
L 3481 4863 
L 3481 0 
L 2906 0 
L 2906 525 
Q 2725 213 2448 61 
Q 2172 -91 1784 -91 
Q 1150 -91 751 415 
Q 353 922 353 1747 
Q 353 2572 751 3078 
Q 1150 3584 1784 3584 
Q 2172 3584 2448 3432 
Q 2725 3281 2906 2969 
z
M 947 1747 
Q 947 1113 1208 752 
Q 1469 391 1925 391 
Q 2381 391 2643 752 
Q 2906 1113 2906 1747 
Q 2906 2381 2643 2742 
Q 2381 3103 1925 3103 
Q 1469 3103 1208 2742 
Q 947 2381 947 1747 
z
" transform="scale(0.015625)"/>
      <path id="DejaVuSans-74" d="M 1172 4494 
L 1172 3500 
L 2356 3500 
L 2356 3053 
L 1172 3053 
L 1172 1153 
Q 1172 725 1289 603 
Q 1406 481 1766 481 
L 2356 481 
L 2356 0 
L 1766 0 
Q 1100 0 847 248 
Q 594 497 594 1153 
L 594 3053 
L 172 3053 
L 172 3500 
L 594 3500 
L 594 4494 
L 1172 4494 
z
" transform="scale(0.015625)"/>
      <path id="DejaVuSans-44" d="M 1259 4147 
L 1259 519 
L 2022 519 
Q 2988 519 3436 956 
Q 3884 1394 3884 2338 
Q 3884 3275 3436 3711 
Q 2988 4147 2022 4147 
L 1259 4147 
z
M 628 4666 
L 1925 4666 
Q 3281 4666 3915 4102 
Q 4550 3538 4550 2338 
Q 4550 1131 3912 565 
Q 3275 0 1925 0 
L 628 0 
L 628 4666 
z
" transform="scale(0.015625)"/>
      <path id="DejaVuSans-Oblique-78" d="M 3841 3500 
L 2234 1784 
L 3219 0 
L 2559 0 
L 1819 1388 
L 531 0 
L -166 0 
L 1556 1844 
L 641 3500 
L 1300 3500 
L 1972 2234 
L 3144 3500 
L 3841 3500 
z
" transform="scale(0.015625)"/>
     </defs>
     <use xlink:href="#DejaVuSans-43" transform="translate(0 0.015625)"/>
     <use xlink:href="#DejaVuSans-6f" transform="translate(69.824219 0.015625)"/>
     <use xlink:href="#DejaVuSans-6d" transform="translate(131.005859 0.015625)"/>
     <use xlink:href="#DejaVuSans-70" transform="translate(228.417969 0.015625)"/>
     <use xlink:href="#DejaVuSans-61" transform="translate(291.894531 0.015625)"/>
     <use xlink:href="#DejaVuSans-72" transform="translate(353.173828 0.015625)"/>
     <use xlink:href="#DejaVuSans-69" transform="translate(394.287109 0.015625)"/>
     <use xlink:href="#DejaVuSans-73" transform="translate(422.070312 0.015625)"/>
     <use xlink:href="#DejaVuSans-6f" transform="translate(474.169922 0.015625)"/>
     <use xlink:href="#DejaVuSans-6e" transform="translate(535.351562 0.015625)"/>
     <use xlink:href="#DejaVuSans-20" transform="translate(598.730469 0.015625)"/>
     <use xlink:href="#DejaVuSans-6f" transform="translate(630.517578 0.015625)"/>
     <use xlink:href="#DejaVuSans-66" transform="translate(691.699219 0.015625)"/>
     <use xlink:href="#DejaVuSans-20" transform="translate(726.904297 0.015625)"/>
     <use xlink:href="#DejaVuSans-73" transform="translate(758.691406 0.015625)"/>
     <use xlink:href="#DejaVuSans-61" transform="translate(810.791016 0.015625)"/>
     <use xlink:href="#DejaVuSans-6d" transform="translate(872.070312 0.015625)"/>
     <use xlink:href="#DejaVuSans-70" transform="translate(969.482422 0.015625)"/>
     <use xlink:href="#DejaVuSans-6c" transform="translate(1032.958984 0.015625)"/>
     <use xlink:href="#DejaVuSans-65" transform="translate(1060.742188 0.015625)"/>
     <use xlink:href="#DejaVuSans-20" transform="translate(1122.265625 0.015625)"/>
     <use xlink:href="#DejaVuSans-52" transform="translate(1154.052734 0.015625)"/>
     <use xlink:href="#DejaVuSans-4d" transform="translate(1223.535156 0.015625)"/>
     <use xlink:href="#DejaVuSans-53" transform="translate(1309.814453 0.015625)"/>
     <use xlink:href="#DejaVuSans-20" transform="translate(1373.291016 0.015625)"/>
     <use xlink:href="#DejaVuSans-61" transform="translate(1405.078125 0.015625)"/>
     <use xlink:href="#DejaVuSans-6e" transform="translate(1466.357422 0.015625)"/>
     <use xlink:href="#DejaVuSans-64" transform="translate(1529.736328 0.015625)"/>
     <use xlink:href="#DejaVuSans-20" transform="translate(1593.212891 0.015625)"/>
     <use xlink:href="#DejaVuSans-65" transform="translate(1625 0.015625)"/>
     <use xlink:href="#DejaVuSans-73" transform="translate(1686.523438 0.015625)"/>
     <use xlink:href="#DejaVuSans-74" transform="translate(1738.623047 0.015625)"/>
     <use xlink:href="#DejaVuSans-69" transform="translate(1777.832031 0.015625)"/>
     <use xlink:href="#DejaVuSans-6d" transform="translate(1805.615234 0.015625)"/>
     <use xlink:href="#DejaVuSans-61" transform="translate(1903.027344 0.015625)"/>
     <use xlink:href="#DejaVuSans-74" transform="translate(1964.306641 0.015625)"/>
     <use xlink:href="#DejaVuSans-65" transform="translate(2003.515625 0.015625)"/>
     <use xlink:href="#DejaVuSans-64" transform="translate(2065.039062 0.015625)"/>
     <use xlink:href="#DejaVuSans-20" transform="translate(2128.515625 0.015625)"/>
     <use xlink:href="#DejaVuSans-53" transform="translate(2160.302734 0.015625)"/>
     <use xlink:href="#DejaVuSans-44" transform="translate(2223.779297 0.015625)"/>
     <use xlink:href="#DejaVuSans-20" transform="translate(2300.78125 0.015625)"/>
     <use xlink:href="#DejaVuSans-66" transform="translate(2332.568359 0.015625)"/>
     <use xlink:href="#DejaVuSans-6f" transform="translate(2367.773438 0.015625)"/>
     <use xlink:href="#DejaVuSans-72" transform="translate(2428.955078 0.015625)"/>
     <use xlink:href="#DejaVuSans-20" transform="translate(2470.068359 0.015625)"/>
     <use xlink:href="#DejaVuSans-Oblique-78" transform="translate(2501.855469 0.015625)"/>
     <use xlink:href="#DejaVuSans-31" transform="translate(2561.035156 -16.390625)scale(0.7)"/>
    </g>
   </g>
   <g id="legend_1">
    <g id="patch_7">
     <path d="M 521.41875 111.255 
L 698.64 111.255 
Q 701.04 111.255 701.04 108.855 
L 701.04 39.6 
Q 701.04 37.2 698.64 37.2 
L 521.41875 37.2 
Q 519.01875 37.2 519.01875 39.6 
L 519.01875 108.855 
Q 519.01875 111.255 521.41875 111.255 
z
" style="fill: #ffffff; opacity: 0.8; stroke: #cccccc; stroke-linejoin: miter"/>
    </g>
    <g id="line2d_37">
     <path d="M 523.81875 46.918125 
L 535.81875 46.918125 
L 547.81875 46.918125 
" style="fill: none; stroke: #1f77b4; stroke-width: 1.5; stroke-linecap: square"/>
    </g>
    <g id="text_19">
     <!-- Filter sample RMS -->
     <g transform="translate(557.41875 51.118125)scale(0.12 -0.12)">
      <defs>
       <path id="DejaVuSans-46" d="M 628 4666 
L 3309 4666 
L 3309 4134 
L 1259 4134 
L 1259 2759 
L 3109 2759 
L 3109 2228 
L 1259 2228 
L 1259 0 
L 628 0 
L 628 4666 
z
" transform="scale(0.015625)"/>
      </defs>
      <use xlink:href="#DejaVuSans-46"/>
      <use xlink:href="#DejaVuSans-69" x="50.269531"/>
      <use xlink:href="#DejaVuSans-6c" x="78.052734"/>
      <use xlink:href="#DejaVuSans-74" x="105.835938"/>
      <use xlink:href="#DejaVuSans-65" x="145.044922"/>
      <use xlink:href="#DejaVuSans-72" x="206.568359"/>
      <use xlink:href="#DejaVuSans-20" x="247.681641"/>
      <use xlink:href="#DejaVuSans-73" x="279.46875"/>
      <use xlink:href="#DejaVuSans-61" x="331.568359"/>
      <use xlink:href="#DejaVuSans-6d" x="392.847656"/>
      <use xlink:href="#DejaVuSans-70" x="490.259766"/>
      <use xlink:href="#DejaVuSans-6c" x="553.736328"/>
      <use xlink:href="#DejaVuSans-65" x="581.519531"/>
      <use xlink:href="#DejaVuSans-20" x="643.042969"/>
      <use xlink:href="#DejaVuSans-52" x="674.830078"/>
      <use xlink:href="#DejaVuSans-4d" x="744.3125"/>
      <use xlink:href="#DejaVuSans-53" x="830.591797"/>
     </g>
    </g>
    <g id="line2d_38">
     <path d="M 523.81875 64.531875 
L 535.81875 64.531875 
L 547.81875 64.531875 
" style="fill: none; stroke: #ff7f0e; stroke-width: 1.5; stroke-linecap: square"/>
    </g>
    <g id="text_20">
     <!-- Filter estimated SD -->
     <g transform="translate(557.41875 68.731875)scale(0.12 -0.12)">
      <use xlink:href="#DejaVuSans-46"/>
      <use xlink:href="#DejaVuSans-69" x="50.269531"/>
      <use xlink:href="#DejaVuSans-6c" x="78.052734"/>
      <use xlink:href="#DejaVuSans-74" x="105.835938"/>
      <use xlink:href="#DejaVuSans-65" x="145.044922"/>
      <use xlink:href="#DejaVuSans-72" x="206.568359"/>
      <use xlink:href="#DejaVuSans-20" x="247.681641"/>
      <use xlink:href="#DejaVuSans-65" x="279.46875"/>
      <use xlink:href="#DejaVuSans-73" x="340.992188"/>
      <use xlink:href="#DejaVuSans-74" x="393.091797"/>
      <use xlink:href="#DejaVuSans-69" x="432.300781"/>
      <use xlink:href="#DejaVuSans-6d" x="460.083984"/>
      <use xlink:href="#DejaVuSans-61" x="557.496094"/>
      <use xlink:href="#DejaVuSans-74" x="618.775391"/>
      <use xlink:href="#DejaVuSans-65" x="657.984375"/>
      <use xlink:href="#DejaVuSans-64" x="719.507812"/>
      <use xlink:href="#DejaVuSans-20" x="782.984375"/>
      <use xlink:href="#DejaVuSans-53" x="814.771484"/>
      <use xlink:href="#DejaVuSans-44" x="878.248047"/>
     </g>
    </g>
    <g id="line2d_39">
     <path d="M 523.81875 82.145625 
L 535.81875 82.145625 
L 547.81875 82.145625 
" style="fill: none; stroke: #2ca02c; stroke-width: 1.5; stroke-linecap: square"/>
    </g>
    <g id="text_21">
     <!-- Smoother sample RMS -->
     <g transform="translate(557.41875 86.345625)scale(0.12 -0.12)">
      <use xlink:href="#DejaVuSans-53"/>
      <use xlink:href="#DejaVuSans-6d" x="63.476562"/>
      <use xlink:href="#DejaVuSans-6f" x="160.888672"/>
      <use xlink:href="#DejaVuSans-6f" x="222.070312"/>
      <use xlink:href="#DejaVuSans-74" x="283.251953"/>
      <use xlink:href="#DejaVuSans-68" x="322.460938"/>
      <use xlink:href="#DejaVuSans-65" x="385.839844"/>
      <use xlink:href="#DejaVuSans-72" x="447.363281"/>
      <use xlink:href="#DejaVuSans-20" x="488.476562"/>
      <use xlink:href="#DejaVuSans-73" x="520.263672"/>
      <use xlink:href="#DejaVuSans-61" x="572.363281"/>
      <use xlink:href="#DejaVuSans-6d" x="633.642578"/>
      <use xlink:href="#DejaVuSans-70" x="731.054688"/>
      <use xlink:href="#DejaVuSans-6c" x="794.53125"/>
      <use xlink:href="#DejaVuSans-65" x="822.314453"/>
      <use xlink:href="#DejaVuSans-20" x="883.837891"/>
      <use xlink:href="#DejaVuSans-52" x="915.625"/>
      <use xlink:href="#DejaVuSans-4d" x="985.107422"/>
      <use xlink:href="#DejaVuSans-53" x="1071.386719"/>
     </g>
    </g>
    <g id="line2d_40">
     <path d="M 523.81875 99.759375 
L 535.81875 99.759375 
L 547.81875 99.759375 
" style="fill: none; stroke: #d62728; stroke-width: 1.5; stroke-linecap: square"/>
    </g>
    <g id="text_22">
     <!-- Smoother esimated SD -->
     <g transform="translate(557.41875 103.959375)scale(0.12 -0.12)">
      <use xlink:href="#DejaVuSans-53"/>
      <use xlink:href="#DejaVuSans-6d" x="63.476562"/>
      <use xlink:href="#DejaVuSans-6f" x="160.888672"/>
      <use xlink:href="#DejaVuSans-6f" x="222.070312"/>
      <use xlink:href="#DejaVuSans-74" x="283.251953"/>
      <use xlink:href="#DejaVuSans-68" x="322.460938"/>
      <use xlink:href="#DejaVuSans-65" x="385.839844"/>
      <use xlink:href="#DejaVuSans-72" x="447.363281"/>
      <use xlink:href="#DejaVuSans-20" x="488.476562"/>
      <use xlink:href="#DejaVuSans-65" x="520.263672"/>
      <use xlink:href="#DejaVuSans-73" x="581.787109"/>
      <use xlink:href="#DejaVuSans-69" x="633.886719"/>
      <use xlink:href="#DejaVuSans-6d" x="661.669922"/>
      <use xlink:href="#DejaVuSans-61" x="759.082031"/>
      <use xlink:href="#DejaVuSans-74" x="820.361328"/>
      <use xlink:href="#DejaVuSans-65" x="859.570312"/>
      <use xlink:href="#DejaVuSans-64" x="921.09375"/>
      <use xlink:href="#DejaVuSans-20" x="984.570312"/>
      <use xlink:href="#DejaVuSans-53" x="1016.357422"/>
      <use xlink:href="#DejaVuSans-44" x="1079.833984"/>
     </g>
    </g>
   </g>
  </g>
 </g>
 <defs>
  <clipPath id="p7e39110968">
   <rect x="46.69" y="31.2" width="660.35" height="355.24"/>
  </clipPath>
 </defs>
</svg>
