<?xml version="1.0" encoding="utf-8" standalone="no"?>
<!DOCTYPE svg PUBLIC "-//W3C//DTD SVG 1.1//EN"
  "http://www.w3.org/Graphics/SVG/1.1/DTD/svg11.dtd">
<svg xmlns:xlink="http://www.w3.org/1999/xlink" width="1080pt" height="576pt" viewBox="0 0 1080 576" xmlns="http://www.w3.org/2000/svg" version="1.1">
 <metadata>
  <rdf:RDF xmlns:dc="http://purl.org/dc/elements/1.1/" xmlns:cc="http://creativecommons.org/ns#" xmlns:rdf="http://www.w3.org/1999/02/22-rdf-syntax-ns#">
   <cc:Work>
    <dc:type rdf:resource="http://purl.org/dc/dcmitype/StillImage"/>
    <dc:date>2022-12-06T02:26:25.332399</dc:date>
    <dc:format>image/svg+xml</dc:format>
    <dc:creator>
     <cc:Agent>
      <dc:title>Matplotlib v3.5.1, https://matplotlib.org/</dc:title>
     </cc:Agent>
    </dc:creator>
   </cc:Work>
  </rdf:RDF>
 </metadata>
 <defs>
  <style type="text/css">*{stroke-linejoin: round; stroke-linecap: butt}</style>
 </defs>
 <g id="figure_1">
  <g id="patch_1">
   <path d="M 0 576 
L 1080 576 
L 1080 0 
L 0 0 
z
" style="fill: #ffffff"/>
  </g>
  <g id="axes_1">
   <g id="patch_2">
    <path d="M 46.69 530.44 
L 533.52 530.44 
L 533.52 55.464 
L 46.69 55.464 
z
" style="fill: #ffffff"/>
   </g>
   <g id="matplotlib.axis_1">
    <g id="xtick_1">
     <g id="line2d_1">
      <path d="M 68.818636 530.44 
L 68.818636 55.464 
" clip-path="url(#p2f0f298f5f)" style="fill: none; stroke: #b0b0b0; stroke-width: 0.8; stroke-linecap: square"/>
     </g>
     <g id="line2d_2">
      <defs>
       <path id="m4e016369e2" d="M 0 0 
L 0 3.5 
" style="stroke: #000000; stroke-width: 0.8"/>
      </defs>
      <g>
       <use xlink:href="#m4e016369e2" x="68.818636" y="530.44" style="stroke: #000000; stroke-width: 0.8"/>
      </g>
     </g>
     <g id="text_1">
      <!-- 0 -->
      <g transform="translate(65.001136 546.558125)scale(0.12 -0.12)">
       <defs>
        <path id="DejaVuSans-30" d="M 2034 4250 
Q 1547 4250 1301 3770 
Q 1056 3291 1056 2328 
Q 1056 1369 1301 889 
Q 1547 409 2034 409 
Q 2525 409 2770 889 
Q 3016 1369 3016 2328 
Q 3016 3291 2770 3770 
Q 2525 4250 2034 4250 
z
M 2034 4750 
Q 2819 4750 3233 4129 
Q 3647 3509 3647 2328 
Q 3647 1150 3233 529 
Q 2819 -91 2034 -91 
Q 1250 -91 836 529 
Q 422 1150 422 2328 
Q 422 3509 836 4129 
Q 1250 4750 2034 4750 
z
" transform="scale(0.015625)"/>
       </defs>
       <use xlink:href="#DejaVuSans-30"/>
      </g>
     </g>
    </g>
    <g id="xtick_2">
     <g id="line2d_3">
      <path d="M 157.421785 530.44 
L 157.421785 55.464 
" clip-path="url(#p2f0f298f5f)" style="fill: none; stroke: #b0b0b0; stroke-width: 0.8; stroke-linecap: square"/>
     </g>
     <g id="line2d_4">
      <g>
       <use xlink:href="#m4e016369e2" x="157.421785" y="530.44" style="stroke: #000000; stroke-width: 0.8"/>
      </g>
     </g>
     <g id="text_2">
      <!-- 200 -->
      <g transform="translate(145.969285 546.558125)scale(0.12 -0.12)">
       <defs>
        <path id="DejaVuSans-32" d="M 1228 531 
L 3431 531 
L 3431 0 
L 469 0 
L 469 531 
Q 828 903 1448 1529 
Q 2069 2156 2228 2338 
Q 2531 2678 2651 2914 
Q 2772 3150 2772 3378 
Q 2772 3750 2511 3984 
Q 2250 4219 1831 4219 
Q 1534 4219 1204 4116 
Q 875 4013 500 3803 
L 500 4441 
Q 881 4594 1212 4672 
Q 1544 4750 1819 4750 
Q 2544 4750 2975 4387 
Q 3406 4025 3406 3419 
Q 3406 3131 3298 2873 
Q 3191 2616 2906 2266 
Q 2828 2175 2409 1742 
Q 1991 1309 1228 531 
z
" transform="scale(0.015625)"/>
       </defs>
       <use xlink:href="#DejaVuSans-32"/>
       <use xlink:href="#DejaVuSans-30" x="63.623047"/>
       <use xlink:href="#DejaVuSans-30" x="127.246094"/>
      </g>
     </g>
    </g>
    <g id="xtick_3">
     <g id="line2d_5">
      <path d="M 246.024934 530.44 
L 246.024934 55.464 
" clip-path="url(#p2f0f298f5f)" style="fill: none; stroke: #b0b0b0; stroke-width: 0.8; stroke-linecap: square"/>
     </g>
     <g id="line2d_6">
      <g>
       <use xlink:href="#m4e016369e2" x="246.024934" y="530.44" style="stroke: #000000; stroke-width: 0.8"/>
      </g>
     </g>
     <g id="text_3">
      <!-- 400 -->
      <g transform="translate(234.572434 546.558125)scale(0.12 -0.12)">
       <defs>
        <path id="DejaVuSans-34" d="M 2419 4116 
L 825 1625 
L 2419 1625 
L 2419 4116 
z
M 2253 4666 
L 3047 4666 
L 3047 1625 
L 3713 1625 
L 3713 1100 
L 3047 1100 
L 3047 0 
L 2419 0 
L 2419 1100 
L 313 1100 
L 313 1709 
L 2253 4666 
z
" transform="scale(0.015625)"/>
       </defs>
       <use xlink:href="#DejaVuSans-34"/>
       <use xlink:href="#DejaVuSans-30" x="63.623047"/>
       <use xlink:href="#DejaVuSans-30" x="127.246094"/>
      </g>
     </g>
    </g>
    <g id="xtick_4">
     <g id="line2d_7">
      <path d="M 334.628082 530.44 
L 334.628082 55.464 
" clip-path="url(#p2f0f298f5f)" style="fill: none; stroke: #b0b0b0; stroke-width: 0.8; stroke-linecap: square"/>
     </g>
     <g id="line2d_8">
      <g>
       <use xlink:href="#m4e016369e2" x="334.628082" y="530.44" style="stroke: #000000; stroke-width: 0.8"/>
      </g>
     </g>
     <g id="text_4">
      <!-- 600 -->
      <g transform="translate(323.175582 546.558125)scale(0.12 -0.12)">
       <defs>
        <path id="DejaVuSans-36" d="M 2113 2584 
Q 1688 2584 1439 2293 
Q 1191 2003 1191 1497 
Q 1191 994 1439 701 
Q 1688 409 2113 409 
Q 2538 409 2786 701 
Q 3034 994 3034 1497 
Q 3034 2003 2786 2293 
Q 2538 2584 2113 2584 
z
M 3366 4563 
L 3366 3988 
Q 3128 4100 2886 4159 
Q 2644 4219 2406 4219 
Q 1781 4219 1451 3797 
Q 1122 3375 1075 2522 
Q 1259 2794 1537 2939 
Q 1816 3084 2150 3084 
Q 2853 3084 3261 2657 
Q 3669 2231 3669 1497 
Q 3669 778 3244 343 
Q 2819 -91 2113 -91 
Q 1303 -91 875 529 
Q 447 1150 447 2328 
Q 447 3434 972 4092 
Q 1497 4750 2381 4750 
Q 2619 4750 2861 4703 
Q 3103 4656 3366 4563 
z
" transform="scale(0.015625)"/>
       </defs>
       <use xlink:href="#DejaVuSans-36"/>
       <use xlink:href="#DejaVuSans-30" x="63.623047"/>
       <use xlink:href="#DejaVuSans-30" x="127.246094"/>
      </g>
     </g>
    </g>
    <g id="xtick_5">
     <g id="line2d_9">
      <path d="M 423.231231 530.44 
L 423.231231 55.464 
" clip-path="url(#p2f0f298f5f)" style="fill: none; stroke: #b0b0b0; stroke-width: 0.8; stroke-linecap: square"/>
     </g>
     <g id="line2d_10">
      <g>
       <use xlink:href="#m4e016369e2" x="423.231231" y="530.44" style="stroke: #000000; stroke-width: 0.8"/>
      </g>
     </g>
     <g id="text_5">
      <!-- 800 -->
      <g transform="translate(411.778731 546.558125)scale(0.12 -0.12)">
       <defs>
        <path id="DejaVuSans-38" d="M 2034 2216 
Q 1584 2216 1326 1975 
Q 1069 1734 1069 1313 
Q 1069 891 1326 650 
Q 1584 409 2034 409 
Q 2484 409 2743 651 
Q 3003 894 3003 1313 
Q 3003 1734 2745 1975 
Q 2488 2216 2034 2216 
z
M 1403 2484 
Q 997 2584 770 2862 
Q 544 3141 544 3541 
Q 544 4100 942 4425 
Q 1341 4750 2034 4750 
Q 2731 4750 3128 4425 
Q 3525 4100 3525 3541 
Q 3525 3141 3298 2862 
Q 3072 2584 2669 2484 
Q 3125 2378 3379 2068 
Q 3634 1759 3634 1313 
Q 3634 634 3220 271 
Q 2806 -91 2034 -91 
Q 1263 -91 848 271 
Q 434 634 434 1313 
Q 434 1759 690 2068 
Q 947 2378 1403 2484 
z
M 1172 3481 
Q 1172 3119 1398 2916 
Q 1625 2713 2034 2713 
Q 2441 2713 2670 2916 
Q 2900 3119 2900 3481 
Q 2900 3844 2670 4047 
Q 2441 4250 2034 4250 
Q 1625 4250 1398 4047 
Q 1172 3844 1172 3481 
z
" transform="scale(0.015625)"/>
       </defs>
       <use xlink:href="#DejaVuSans-38"/>
       <use xlink:href="#DejaVuSans-30" x="63.623047"/>
       <use xlink:href="#DejaVuSans-30" x="127.246094"/>
      </g>
     </g>
    </g>
    <g id="xtick_6">
     <g id="line2d_11">
      <path d="M 511.834379 530.44 
L 511.834379 55.464 
" clip-path="url(#p2f0f298f5f)" style="fill: none; stroke: #b0b0b0; stroke-width: 0.8; stroke-linecap: square"/>
     </g>
     <g id="line2d_12">
      <g>
       <use xlink:href="#m4e016369e2" x="511.834379" y="530.44" style="stroke: #000000; stroke-width: 0.8"/>
      </g>
     </g>
     <g id="text_6">
      <!-- 1000 -->
      <g transform="translate(496.564379 546.558125)scale(0.12 -0.12)">
       <defs>
        <path id="DejaVuSans-31" d="M 794 531 
L 1825 531 
L 1825 4091 
L 703 3866 
L 703 4441 
L 1819 4666 
L 2450 4666 
L 2450 531 
L 3481 531 
L 3481 0 
L 794 0 
L 794 531 
z
" transform="scale(0.015625)"/>
       </defs>
       <use xlink:href="#DejaVuSans-31"/>
       <use xlink:href="#DejaVuSans-30" x="63.623047"/>
       <use xlink:href="#DejaVuSans-30" x="127.246094"/>
       <use xlink:href="#DejaVuSans-30" x="190.869141"/>
      </g>
     </g>
    </g>
    <g id="text_7">
     <!-- Epoch -->
     <g transform="translate(271.731875 562.171875)scale(0.12 -0.12)">
      <defs>
       <path id="DejaVuSans-45" d="M 628 4666 
L 3578 4666 
L 3578 4134 
L 1259 4134 
L 1259 2753 
L 3481 2753 
L 3481 2222 
L 1259 2222 
L 1259 531 
L 3634 531 
L 3634 0 
L 628 0 
L 628 4666 
z
" transform="scale(0.015625)"/>
       <path id="DejaVuSans-70" d="M 1159 525 
L 1159 -1331 
L 581 -1331 
L 581 3500 
L 1159 3500 
L 1159 2969 
Q 1341 3281 1617 3432 
Q 1894 3584 2278 3584 
Q 2916 3584 3314 3078 
Q 3713 2572 3713 1747 
Q 3713 922 3314 415 
Q 2916 -91 2278 -91 
Q 1894 -91 1617 61 
Q 1341 213 1159 525 
z
M 3116 1747 
Q 3116 2381 2855 2742 
Q 2594 3103 2138 3103 
Q 1681 3103 1420 2742 
Q 1159 2381 1159 1747 
Q 1159 1113 1420 752 
Q 1681 391 2138 391 
Q 2594 391 2855 752 
Q 3116 1113 3116 1747 
z
" transform="scale(0.015625)"/>
       <path id="DejaVuSans-6f" d="M 1959 3097 
Q 1497 3097 1228 2736 
Q 959 2375 959 1747 
Q 959 1119 1226 758 
Q 1494 397 1959 397 
Q 2419 397 2687 759 
Q 2956 1122 2956 1747 
Q 2956 2369 2687 2733 
Q 2419 3097 1959 3097 
z
M 1959 3584 
Q 2709 3584 3137 3096 
Q 3566 2609 3566 1747 
Q 3566 888 3137 398 
Q 2709 -91 1959 -91 
Q 1206 -91 779 398 
Q 353 888 353 1747 
Q 353 2609 779 3096 
Q 1206 3584 1959 3584 
z
" transform="scale(0.015625)"/>
       <path id="DejaVuSans-63" d="M 3122 3366 
L 3122 2828 
Q 2878 2963 2633 3030 
Q 2388 3097 2138 3097 
Q 1578 3097 1268 2742 
Q 959 2388 959 1747 
Q 959 1106 1268 751 
Q 1578 397 2138 397 
Q 2388 397 2633 464 
Q 2878 531 3122 666 
L 3122 134 
Q 2881 22 2623 -34 
Q 2366 -91 2075 -91 
Q 1284 -91 818 406 
Q 353 903 353 1747 
Q 353 2603 823 3093 
Q 1294 3584 2113 3584 
Q 2378 3584 2631 3529 
Q 2884 3475 3122 3366 
z
" transform="scale(0.015625)"/>
       <path id="DejaVuSans-68" d="M 3513 2113 
L 3513 0 
L 2938 0 
L 2938 2094 
Q 2938 2591 2744 2837 
Q 2550 3084 2163 3084 
Q 1697 3084 1428 2787 
Q 1159 2491 1159 1978 
L 1159 0 
L 581 0 
L 581 4863 
L 1159 4863 
L 1159 2956 
Q 1366 3272 1645 3428 
Q 1925 3584 2291 3584 
Q 2894 3584 3203 3211 
Q 3513 2838 3513 2113 
z
" transform="scale(0.015625)"/>
      </defs>
      <use xlink:href="#DejaVuSans-45"/>
      <use xlink:href="#DejaVuSans-70" x="63.183594"/>
      <use xlink:href="#DejaVuSans-6f" x="126.660156"/>
      <use xlink:href="#DejaVuSans-63" x="187.841797"/>
      <use xlink:href="#DejaVuSans-68" x="242.822266"/>
     </g>
    </g>
   </g>
   <g id="matplotlib.axis_2">
    <g id="ytick_1">
     <g id="line2d_13">
      <path d="M 46.69 459.54107 
L 533.52 459.54107 
" clip-path="url(#p2f0f298f5f)" style="fill: none; stroke: #b0b0b0; stroke-width: 0.8; stroke-linecap: square"/>
     </g>
     <g id="line2d_14">
      <defs>
       <path id="mfe06eaf81d" d="M 0 0 
L -3.5 0 
" style="stroke: #000000; stroke-width: 0.8"/>
      </defs>
      <g>
       <use xlink:href="#mfe06eaf81d" x="46.69" y="459.54107" style="stroke: #000000; stroke-width: 0.8"/>
      </g>
     </g>
     <g id="text_8">
      <!-- 0.04 -->
      <g transform="translate(12.97125 464.100132)scale(0.12 -0.12)">
       <defs>
        <path id="DejaVuSans-2e" d="M 684 794 
L 1344 794 
L 1344 0 
L 684 0 
L 684 794 
z
" transform="scale(0.015625)"/>
       </defs>
       <use xlink:href="#DejaVuSans-30"/>
       <use xlink:href="#DejaVuSans-2e" x="63.623047"/>
       <use xlink:href="#DejaVuSans-30" x="95.410156"/>
       <use xlink:href="#DejaVuSans-34" x="159.033203"/>
      </g>
     </g>
    </g>
    <g id="ytick_2">
     <g id="line2d_15">
      <path d="M 46.69 373.269966 
L 533.52 373.269966 
" clip-path="url(#p2f0f298f5f)" style="fill: none; stroke: #b0b0b0; stroke-width: 0.8; stroke-linecap: square"/>
     </g>
     <g id="line2d_16">
      <g>
       <use xlink:href="#mfe06eaf81d" x="46.69" y="373.269966" style="stroke: #000000; stroke-width: 0.8"/>
      </g>
     </g>
     <g id="text_9">
      <!-- 0.06 -->
      <g transform="translate(12.97125 377.829029)scale(0.12 -0.12)">
       <use xlink:href="#DejaVuSans-30"/>
       <use xlink:href="#DejaVuSans-2e" x="63.623047"/>
       <use xlink:href="#DejaVuSans-30" x="95.410156"/>
       <use xlink:href="#DejaVuSans-36" x="159.033203"/>
      </g>
     </g>
    </g>
    <g id="ytick_3">
     <g id="line2d_17">
      <path d="M 46.69 286.998862 
L 533.52 286.998862 
" clip-path="url(#p2f0f298f5f)" style="fill: none; stroke: #b0b0b0; stroke-width: 0.8; stroke-linecap: square"/>
     </g>
     <g id="line2d_18">
      <g>
       <use xlink:href="#mfe06eaf81d" x="46.69" y="286.998862" style="stroke: #000000; stroke-width: 0.8"/>
      </g>
     </g>
     <g id="text_10">
      <!-- 0.08 -->
      <g transform="translate(12.97125 291.557925)scale(0.12 -0.12)">
       <use xlink:href="#DejaVuSans-30"/>
       <use xlink:href="#DejaVuSans-2e" x="63.623047"/>
       <use xlink:href="#DejaVuSans-30" x="95.410156"/>
       <use xlink:href="#DejaVuSans-38" x="159.033203"/>
      </g>
     </g>
    </g>
    <g id="ytick_4">
     <g id="line2d_19">
      <path d="M 46.69 200.727759 
L 533.52 200.727759 
" clip-path="url(#p2f0f298f5f)" style="fill: none; stroke: #b0b0b0; stroke-width: 0.8; stroke-linecap: square"/>
     </g>
     <g id="line2d_20">
      <g>
       <use xlink:href="#mfe06eaf81d" x="46.69" y="200.727759" style="stroke: #000000; stroke-width: 0.8"/>
      </g>
     </g>
     <g id="text_11">
      <!-- 0.10 -->
      <g transform="translate(12.97125 205.286821)scale(0.12 -0.12)">
       <use xlink:href="#DejaVuSans-30"/>
       <use xlink:href="#DejaVuSans-2e" x="63.623047"/>
       <use xlink:href="#DejaVuSans-31" x="95.410156"/>
       <use xlink:href="#DejaVuSans-30" x="159.033203"/>
      </g>
     </g>
    </g>
    <g id="ytick_5">
     <g id="line2d_21">
      <path d="M 46.69 114.456655 
L 533.52 114.456655 
" clip-path="url(#p2f0f298f5f)" style="fill: none; stroke: #b0b0b0; stroke-width: 0.8; stroke-linecap: square"/>
     </g>
     <g id="line2d_22">
      <g>
       <use xlink:href="#mfe06eaf81d" x="46.69" y="114.456655" style="stroke: #000000; stroke-width: 0.8"/>
      </g>
     </g>
     <g id="text_12">
      <!-- 0.12 -->
      <g transform="translate(12.97125 119.015718)scale(0.12 -0.12)">
       <use xlink:href="#DejaVuSans-30"/>
       <use xlink:href="#DejaVuSans-2e" x="63.623047"/>
       <use xlink:href="#DejaVuSans-31" x="95.410156"/>
       <use xlink:href="#DejaVuSans-32" x="159.033203"/>
      </g>
     </g>
    </g>
   </g>
   <g id="line2d_23">
    <path d="M 68.818636 200.727759 
L 69.261652 200.188564 
L 69.704668 198.143939 
L 70.147684 193.826071 
L 70.590699 186.730272 
L 71.033715 176.748706 
L 71.919747 149.499977 
L 73.69181 85.831903 
L 74.134825 77.053818 
L 74.577841 89.705476 
L 75.020857 95.615046 
L 75.906888 140.777969 
L 76.349904 160.991288 
L 76.79292 192.484555 
L 78.121967 257.484655 
L 79.451014 313.664829 
L 80.337046 352.991512 
L 81.223077 378.440193 
L 82.109109 398.426189 
L 82.99514 410.849228 
L 83.881172 419.338736 
L 84.324187 422.70374 
L 85.210219 426.869771 
L 85.653235 428.537823 
L 86.09625 429.710248 
L 86.982282 431.401593 
L 87.425298 431.971845 
L 87.868313 432.297949 
L 88.311329 432.382064 
L 88.754345 432.254814 
L 89.640376 431.609075 
L 90.526408 430.658798 
L 91.412439 429.743462 
L 91.855455 429.104193 
L 92.298471 428.679308 
L 93.184502 428.314812 
L 94.513549 428.079724 
L 97.171644 427.403358 
L 97.61466 427.043176 
L 98.057675 426.900398 
L 98.500691 426.567823 
L 98.943707 426.065725 
L 99.829738 424.169917 
L 101.158786 423.34344 
L 102.044817 421.749581 
L 102.487833 420.446888 
L 103.373864 419.859382 
L 103.81688 420.052629 
L 104.702912 421.062001 
L 106.031959 422.856008 
L 106.91799 424.54951 
L 107.804022 426.001884 
L 108.690053 427.235561 
L 110.462116 428.863928 
L 110.905132 428.906632 
L 111.348148 428.805264 
L 111.791163 428.491668 
L 113.563226 425.816833 
L 114.449258 423.066941 
L 115.778305 420.569824 
L 116.221321 419.325363 
L 116.664337 418.750367 
L 117.107352 417.05212 
L 117.993384 412.911107 
L 118.4364 411.363403 
L 118.879415 410.256545 
L 119.322431 408.702802 
L 119.765447 407.72837 
L 120.208463 407.79178 
L 121.53751 412.168744 
L 121.980526 412.123452 
L 122.423541 412.331796 
L 122.866557 411.585551 
L 123.309573 411.673548 
L 123.752588 410.872521 
L 124.195604 410.380775 
L 124.63862 410.676254 
L 125.081636 412.471987 
L 126.853699 421.357048 
L 129.068777 427.199758 
L 129.511793 427.838165 
L 130.397825 428.570175 
L 130.84084 428.724169 
L 131.726872 428.216895 
L 132.169888 427.506021 
L 133.498935 424.093567 
L 133.941951 423.355518 
L 134.384966 423.261051 
L 135.270998 423.836911 
L 135.714014 424.024119 
L 137.929092 426.384928 
L 138.372108 426.652368 
L 139.25814 426.695504 
L 140.144171 426.938788 
L 141.473218 427.723855 
L 141.916234 427.814871 
L 142.802265 427.595311 
L 144.131313 427.719542 
L 145.017344 427.766128 
L 146.789407 427.164387 
L 147.232423 426.800323 
L 148.118454 425.489865 
L 148.56147 425.111135 
L 149.004486 425.081372 
L 149.447502 425.302226 
L 150.776549 426.325832 
L 151.66258 426.855537 
L 152.548612 426.922397 
L 152.991628 426.851655 
L 153.877659 426.8344 
L 154.763691 426.981493 
L 156.092738 427.592723 
L 156.978769 427.79201 
L 157.864801 427.827812 
L 161.408927 427.305872 
L 162.294958 427.306735 
L 163.18099 426.98063 
L 163.624005 426.594135 
L 164.510037 425.498492 
L 164.953053 424.955847 
L 165.396068 424.849734 
L 165.839084 424.596528 
L 167.168131 424.334264 
L 168.054163 424.150938 
L 168.940194 423.017767 
L 169.826226 420.648762 
L 170.269242 419.726093 
L 170.712257 419.201564 
L 171.155273 419.784757 
L 171.598289 420.573706 
L 173.370352 425.016237 
L 174.256383 426.256384 
L 174.699399 426.53504 
L 175.142415 426.626056 
L 175.58543 426.256815 
L 176.471462 425.293167 
L 176.914478 424.210033 
L 177.357493 422.828833 
L 177.800509 420.948986 
L 178.686541 418.670134 
L 179.129556 418.103333 
L 179.572572 417.248818 
L 180.901619 413.086237 
L 181.344635 411.187842 
L 181.787651 408.611786 
L 182.230667 406.81821 
L 184.888761 389.840488 
L 185.331777 388.603361 
L 186.217808 381.850059 
L 187.546855 377.598187 
L 187.989871 376.854099 
L 188.432887 377.454546 
L 188.875903 379.458624 
L 189.318918 382.034679 
L 189.761934 382.870646 
L 190.20495 386.478503 
L 190.647966 389.162398 
L 191.090981 392.952287 
L 192.420029 406.905775 
L 192.863044 410.769427 
L 193.30606 413.617236 
L 194.635107 418.919027 
L 195.521139 421.651232 
L 196.40717 424.597822 
L 197.293202 427.141525 
L 198.179233 429.209875 
L 198.622249 429.864242 
L 199.065265 430.245128 
L 199.508281 430.381437 
L 199.951296 430.351242 
L 200.837328 429.971218 
L 201.723359 429.127055 
L 202.166375 428.73409 
L 202.609391 428.746168 
L 203.495422 428.273834 
L 204.381454 427.929612 
L 204.824469 427.697974 
L 205.267485 427.307166 
L 206.596532 425.647741 
L 207.039548 425.378144 
L 207.482564 424.946357 
L 208.368595 424.926084 
L 208.811611 425.044706 
L 209.254627 424.887262 
L 209.697643 424.243679 
L 210.140658 424.168623 
L 210.583674 424.332107 
L 211.02669 424.254463 
L 211.469706 424.562451 
L 211.912721 424.704367 
L 212.355737 425.211641 
L 213.241769 426.531157 
L 214.1278 427.5759 
L 215.013832 428.189288 
L 215.456847 428.184543 
L 216.785895 428.405397 
L 217.22891 428.358811 
L 219.000973 427.603939 
L 220.773036 426.874948 
L 221.216052 426.618291 
L 221.659068 426.584214 
L 222.102083 426.356458 
L 222.545099 425.874203 
L 223.431131 425.261678 
L 223.874146 425.254345 
L 224.317162 425.391516 
L 224.760178 425.296618 
L 225.203194 425.084391 
L 225.646209 425.231483 
L 226.089225 425.253051 
L 226.532241 425.504963 
L 227.861288 425.762051 
L 228.304304 425.566215 
L 229.633351 425.724954 
L 230.962398 426.620448 
L 232.291446 427.553901 
L 232.734461 427.751462 
L 234.506524 427.617742 
L 234.94954 427.463748 
L 236.721603 425.150388 
L 237.164619 424.260071 
L 237.607634 423.073412 
L 238.493666 421.904438 
L 239.379697 421.44375 
L 240.265729 419.469436 
L 240.708745 418.546335 
L 242.037792 414.9773 
L 242.480808 413.034475 
L 242.923823 411.75378 
L 243.366839 411.860325 
L 244.252871 411.092081 
L 244.695886 410.06718 
L 245.138902 409.706998 
L 245.581918 409.803622 
L 246.467949 410.298387 
L 246.910965 410.839738 
L 247.796997 410.756055 
L 248.240012 409.908441 
L 248.683028 410.005065 
L 249.126044 410.580062 
L 249.56906 411.902166 
L 250.455091 415.507436 
L 250.898107 416.997338 
L 251.341122 417.83805 
L 252.67017 421.273796 
L 253.113185 421.549864 
L 253.556201 421.561942 
L 253.999217 421.158193 
L 254.442233 421.193564 
L 254.885248 421.486886 
L 255.328264 422.193015 
L 256.214296 425.027452 
L 257.100327 427.644055 
L 257.543343 428.577508 
L 257.986359 429.230149 
L 258.429374 429.574802 
L 259.315406 429.79997 
L 260.201437 429.27501 
L 260.644453 428.75307 
L 262.859532 427.465042 
L 263.745563 427.414574 
L 265.074611 427.080273 
L 265.517626 426.760639 
L 265.960642 426.278383 
L 266.846673 424.752679 
L 267.289689 424.771658 
L 268.618736 425.482101 
L 269.061752 425.928554 
L 270.390799 426.30599 
L 271.276831 425.833224 
L 273.048894 426.489747 
L 273.934925 426.997884 
L 275.263973 427.647074 
L 276.59302 427.937376 
L 277.036036 428.024942 
L 277.479051 427.757501 
L 278.808099 427.524138 
L 279.251114 427.430534 
L 280.137146 427.514648 
L 281.023177 427.490492 
L 283.238256 427.653544 
L 284.124287 427.560372 
L 287.668413 427.389555 
L 288.554445 427.078116 
L 288.997461 426.804205 
L 289.883492 426.525981 
L 290.769524 425.099057 
L 291.212539 423.639781 
L 291.655555 422.746875 
L 292.984602 423.228268 
L 293.427618 423.553942 
L 293.870634 424.158702 
L 294.31365 424.250581 
L 294.756665 424.122468 
L 295.642697 423.005257 
L 296.085713 422.088627 
L 296.971744 421.0331 
L 297.857776 421.461436 
L 298.300791 421.617587 
L 298.743807 421.423908 
L 299.186823 421.402772 
L 299.629838 420.445594 
L 300.072854 418.803423 
L 300.51587 417.921733 
L 300.958886 416.621627 
L 301.401901 415.85554 
L 301.844917 415.643744 
L 302.287933 414.832364 
L 302.730949 413.315287 
L 303.61698 412.949066 
L 304.059996 413.115138 
L 304.503012 412.763152 
L 304.946027 412.995221 
L 305.832059 416.741544 
L 307.161106 421.014552 
L 308.047138 423.404261 
L 308.933169 424.729817 
L 309.819201 426.425475 
L 310.262216 427.043608 
L 311.148248 427.561666 
L 311.591264 427.590998 
L 312.034279 427.40379 
L 313.363327 427.576763 
L 315.135389 428.252266 
L 315.578405 428.259168 
L 316.021421 428.143133 
L 316.464437 428.144858 
L 317.350468 427.99906 
L 318.679515 426.863733 
L 319.565547 426.351282 
L 320.008563 425.869889 
L 320.894594 424.380419 
L 321.33761 424.391634 
L 321.780626 424.255757 
L 322.223641 423.689387 
L 323.995704 417.076276 
L 324.43872 415.714486 
L 324.881736 415.554454 
L 325.324752 415.513043 
L 326.210783 416.396028 
L 326.653799 416.050944 
L 327.096815 414.825894 
L 328.425862 412.857187 
L 328.868878 412.379677 
L 329.311893 412.610021 
L 329.754909 413.85707 
L 330.197925 414.382892 
L 330.64094 414.513593 
L 331.083956 415.660567 
L 331.526972 416.199761 
L 331.969988 417.759543 
L 332.856019 419.560021 
L 333.299035 420.031061 
L 333.742051 421.066314 
L 334.185066 421.709897 
L 335.514114 426.102821 
L 335.957129 427.154897 
L 336.843161 428.538686 
L 337.286177 428.970473 
L 338.172208 429.413475 
L 338.615224 429.442376 
L 339.501255 429.1827 
L 340.830303 428.507628 
L 341.273318 428.404103 
L 341.716334 428.163838 
L 347.032523 427.100547 
L 347.918554 426.809382 
L 348.804586 426.335322 
L 349.247602 426.136898 
L 350.133633 426.281834 
L 350.576649 426.488453 
L 351.46268 426.415123 
L 351.905696 426.483708 
L 353.234743 425.937612 
L 353.677759 425.900084 
L 354.563791 426.397437 
L 355.449822 426.898241 
L 357.664901 427.480571 
L 358.550932 427.706601 
L 358.993948 427.784245 
L 360.322995 427.421907 
L 361.209027 426.796441 
L 361.652042 426.771422 
L 362.98109 425.37987 
L 363.424105 425.593391 
L 364.310137 425.318617 
L 365.639184 425.073607 
L 366.968231 424.157408 
L 367.411247 424.351518 
L 367.854263 424.364459 
L 368.740294 425.168074 
L 370.512357 427.585822 
L 371.398389 428.157368 
L 371.841405 428.27599 
L 372.727436 428.145721 
L 373.170452 427.943847 
L 374.942515 427.6777 
L 375.828546 427.176034 
L 376.714578 426.921966 
L 377.157594 426.720091 
L 378.486641 425.490728 
L 378.929656 425.036079 
L 379.372672 425.102077 
L 380.701719 426.821028 
L 381.587751 427.582371 
L 382.473782 427.936082 
L 383.359814 428.048235 
L 384.688861 427.773461 
L 385.131877 427.430102 
L 385.574893 427.355909 
L 386.90394 426.686014 
L 387.346956 425.991963 
L 388.232987 425.126232 
L 388.676003 425.21466 
L 389.562034 425.004159 
L 390.448066 424.219092 
L 390.891082 423.989611 
L 391.334097 423.585431 
L 391.777113 422.889223 
L 392.220129 421.811265 
L 393.992192 419.509121 
L 394.435207 419.678212 
L 394.878223 420.583628 
L 395.321239 421.077098 
L 395.764255 421.224622 
L 396.20727 420.249758 
L 397.093302 419.594529 
L 397.536318 420.239406 
L 397.979333 421.375596 
L 398.422349 422.058432 
L 398.865365 422.409555 
L 399.308381 423.250267 
L 401.080444 424.920476 
L 401.523459 425.153839 
L 402.852507 427.034981 
L 403.738538 427.875693 
L 405.067585 428.598213 
L 405.510601 428.586566 
L 405.953617 428.055136 
L 406.839648 426.501394 
L 408.168696 423.559549 
L 410.383774 414.912165 
L 410.82679 412.589316 
L 412.155837 409.034084 
L 412.598853 406.099572 
L 413.041869 404.590259 
L 413.9279 402.672021 
L 414.370916 400.568731 
L 414.813932 399.688335 
L 415.256947 399.18408 
L 415.699963 399.368269 
L 417.472026 405.69798 
L 418.358058 409.266153 
L 418.801073 409.593983 
L 419.687105 410.734056 
L 420.573136 412.456458 
L 421.016152 412.126471 
L 421.459168 412.142431 
L 421.902184 411.7857 
L 422.345199 412.669979 
L 423.231231 415.204193 
L 423.674247 416.419321 
L 425.446309 424.455043 
L 425.889325 425.83193 
L 426.332341 426.837851 
L 426.775357 427.556058 
L 427.661388 428.373477 
L 428.54742 428.587429 
L 431.205514 428.678877 
L 432.534561 428.392025 
L 433.863609 426.749423 
L 434.306624 426.602331 
L 435.635672 425.558019 
L 436.078687 425.776285 
L 436.521703 425.479513 
L 436.964719 424.916162 
L 437.407735 423.94475 
L 437.85075 423.493552 
L 439.179798 423.473278 
L 440.95186 424.67978 
L 441.394876 424.876909 
L 441.837892 424.940318 
L 442.723923 425.847028 
L 443.609955 426.909025 
L 444.939002 427.621624 
L 445.825034 427.710052 
L 446.711065 427.666916 
L 448.483128 427.792872 
L 449.812175 427.74758 
L 450.255191 427.76354 
L 450.698207 427.601782 
L 451.141223 427.608252 
L 452.027254 427.324852 
L 452.913286 427.192425 
L 453.799317 426.939651 
L 455.128364 426.668328 
L 455.57138 426.367242 
L 458.229474 425.692171 
L 459.115506 424.729817 
L 460.001537 423.308069 
L 460.444553 422.373753 
L 461.330585 421.546844 
L 461.7736 421.387674 
L 462.659632 421.52312 
L 463.102648 421.907889 
L 463.545663 422.060157 
L 463.988679 422.056275 
L 464.874711 419.977573 
L 465.317726 419.557864 
L 465.760742 419.32105 
L 466.203758 419.262386 
L 466.646774 418.553668 
L 467.089789 418.397518 
L 467.532805 417.993338 
L 467.975821 417.250112 
L 468.418837 415.677821 
L 469.304868 414.407479 
L 469.747884 413.257917 
L 470.1909 412.451282 
L 470.633915 412.441792 
L 471.076931 412.305484 
L 471.962963 414.742642 
L 472.848994 418.371205 
L 473.29201 419.186467 
L 473.735025 419.638096 
L 474.621057 419.784326 
L 475.950104 418.663233 
L 476.39312 418.71974 
L 476.836136 419.290424 
L 477.279151 420.607352 
L 478.608199 425.537314 
L 479.051214 426.500531 
L 479.49423 427.150584 
L 479.937246 427.60135 
L 480.380262 427.826087 
L 481.709309 427.468062 
L 483.038356 427.50904 
L 485.253435 428.086194 
L 486.582482 428.130624 
L 488.354545 427.798911 
L 490.126608 427.405515 
L 491.455655 427.000041 
L 491.898671 426.698523 
L 492.341687 426.686445 
L 492.784702 426.438847 
L 493.227718 426.398731 
L 494.556765 426.746835 
L 495.885813 427.521118 
L 496.328828 427.701425 
L 497.657876 427.718248 
L 498.100891 427.33391 
L 498.543907 426.384928 
L 499.872954 424.875184 
L 500.31597 423.772639 
L 501.202002 420.930869 
L 501.645017 420.298502 
L 502.531049 420.147527 
L 502.974065 419.877067 
L 503.41708 419.418968 
L 503.860096 419.868009 
L 504.746127 420.967965 
L 505.189143 421.446339 
L 506.075175 421.950162 
L 506.51819 421.332892 
L 506.961206 420.925261 
L 507.404222 420.957181 
L 507.847238 421.23368 
L 508.733269 422.27411 
L 509.619301 422.119685 
L 510.062316 422.294384 
L 510.505332 422.270228 
L 510.948348 422.487199 
L 511.391364 422.3634 
L 511.391364 422.3634 
" clip-path="url(#p2f0f298f5f)" style="fill: none; stroke: #1f77b4; stroke-width: 1.5; stroke-linecap: square"/>
   </g>
   <g id="line2d_24">
    <path d="M 68.818636 269.645861 
L 69.261652 272.6399 
L 70.147684 283.681307 
L 72.362762 318.466248 
L 73.69181 341.76721 
L 75.020857 368.806299 
L 78.564983 446.477468 
L 79.451014 461.863488 
L 80.337046 474.508244 
L 81.223077 484.465223 
L 82.109109 492.03163 
L 82.99514 497.613371 
L 83.881172 501.630585 
L 84.767203 504.446042 
L 85.653235 506.353927 
L 86.539266 507.594506 
L 87.425298 508.348084 
L 88.311329 508.729402 
L 89.197361 508.850182 
L 90.526408 508.772106 
L 94.070534 508.200992 
L 95.399581 507.817517 
L 96.728628 507.164876 
L 99.829738 505.354908 
L 100.71577 505.051665 
L 101.601801 504.945552 
L 102.487833 505.063743 
L 103.373864 505.385966 
L 104.702912 506.154641 
L 106.91799 507.519019 
L 107.804022 507.843398 
L 108.690053 507.983157 
L 109.576085 507.924493 
L 110.462116 507.582859 
L 111.348148 506.92116 
L 112.234179 505.986413 
L 113.563226 504.206208 
L 117.107352 499.035118 
L 117.993384 498.213386 
L 118.879415 497.72466 
L 119.765447 497.587058 
L 120.651478 497.81697 
L 121.53751 498.423888 
L 122.423541 499.364243 
L 124.195604 501.738423 
L 125.967667 504.045744 
L 127.296714 505.366555 
L 128.182746 505.94414 
L 129.068777 506.267225 
L 129.954809 506.361692 
L 133.055919 506.349614 
L 134.827982 506.755519 
L 138.815124 507.833477 
L 141.030202 508.083232 
L 142.802265 508.078487 
L 144.574328 507.851162 
L 146.789407 507.56388 
L 149.004486 507.60529 
L 151.66258 507.889553 
L 155.206706 508.299772 
L 156.978769 508.331261 
L 159.193848 508.15915 
L 160.965911 507.801988 
L 162.737974 507.152366 
L 166.2821 505.794891 
L 167.611147 505.483883 
L 168.940194 505.45412 
L 172.48432 505.679287 
L 173.370352 505.473099 
L 174.256383 504.974021 
L 175.142415 504.132447 
L 176.028446 502.963473 
L 176.914478 501.499021 
L 177.800509 499.746424 
L 178.686541 497.630193 
L 180.015588 493.722112 
L 183.116698 483.688352 
L 184.00273 481.576866 
L 184.888761 480.213783 
L 185.331777 479.865248 
L 185.774793 479.756978 
L 186.217808 479.892423 
L 186.660824 480.265546 
L 187.10384 480.866424 
L 187.989871 482.679843 
L 188.875903 485.145039 
L 190.647966 491.143901 
L 192.863044 498.700386 
L 194.192092 502.349654 
L 195.078123 504.260559 
L 195.964155 505.782381 
L 196.850186 506.951355 
L 197.736218 507.795949 
L 198.622249 508.322634 
L 199.508281 508.553841 
L 200.837328 508.5409 
L 202.166375 508.320909 
L 203.495422 507.900337 
L 205.710501 507.09931 
L 207.039548 506.882769 
L 208.368595 506.942728 
L 210.140658 507.368476 
L 213.241769 508.164327 
L 215.013832 508.408905 
L 216.342879 508.386475 
L 218.114942 508.090565 
L 223.431131 507.005274 
L 225.203194 506.94661 
L 226.532241 507.118289 
L 228.74732 507.746343 
L 230.076367 508.024567 
L 231.405414 508.029312 
L 232.734461 507.769205 
L 233.620493 507.424552 
L 234.506524 506.889671 
L 235.835571 505.758225 
L 237.607634 503.818851 
L 239.822713 500.924887 
L 241.15176 499.295657 
L 242.480808 498.033079 
L 243.366839 497.444711 
L 244.252871 497.087117 
L 245.138902 496.986611 
L 246.024934 497.147075 
L 246.910965 497.556432 
L 247.796997 498.184054 
L 249.126044 499.447063 
L 250.455091 501.028412 
L 252.67017 504.157034 
L 253.999217 505.882887 
L 255.328264 507.151072 
L 256.657311 508.049586 
L 257.543343 508.422708 
L 258.429374 508.607329 
L 259.758422 508.584467 
L 261.530485 508.21954 
L 265.517626 507.293851 
L 267.289689 507.251578 
L 269.061752 507.42412 
L 274.820957 508.365338 
L 277.479051 508.437375 
L 285.010319 508.209188 
L 286.782382 507.830026 
L 288.554445 507.20758 
L 293.870634 504.981354 
L 296.085713 503.58937 
L 297.857776 502.202562 
L 299.186823 501.140133 
L 300.072854 500.648819 
L 300.958886 500.434436 
L 301.844917 500.523726 
L 302.730949 500.904613 
L 303.61698 501.518432 
L 304.946027 502.716738 
L 308.047138 505.703012 
L 309.819201 506.994922 
L 311.148248 507.692855 
L 312.477295 508.083232 
L 313.806342 508.215658 
L 315.135389 508.14319 
L 316.464437 507.808458 
L 317.793484 507.135975 
L 319.122531 506.120995 
L 320.451578 504.786381 
L 323.552689 501.408005 
L 324.881736 500.376634 
L 325.767767 499.888771 
L 326.653799 499.652819 
L 327.53983 499.735208 
L 328.425862 500.138957 
L 329.311893 500.835596 
L 330.64094 502.303068 
L 333.742051 506.09382 
L 335.071098 507.285224 
L 335.957129 507.867985 
L 336.843161 508.261813 
L 338.172208 508.548664 
L 339.944271 508.566781 
L 343.045381 508.297615 
L 350.133633 507.550076 
L 351.905696 507.610897 
L 354.120775 507.941747 
L 356.335854 508.25146 
L 357.664901 508.192365 
L 359.436964 507.855907 
L 363.424105 506.925042 
L 364.753153 506.934963 
L 366.0822 507.229579 
L 369.626326 508.188914 
L 370.955373 508.342045 
L 372.727436 508.271734 
L 376.714578 507.802419 
L 379.372672 508.044841 
L 382.030767 508.278204 
L 383.359814 508.135426 
L 385.131877 507.652739 
L 386.90394 506.926336 
L 388.676003 505.998059 
L 391.334097 504.484864 
L 392.663145 504.015981 
L 393.992192 503.833948 
L 395.321239 503.950414 
L 396.650286 504.384789 
L 397.979333 505.106447 
L 401.966475 507.676895 
L 402.852507 507.85677 
L 403.738538 507.693286 
L 404.62457 507.145033 
L 405.510601 506.216325 
L 406.396633 504.978766 
L 407.72568 502.600703 
L 411.269806 495.424241 
L 412.155837 494.136214 
L 413.041869 493.254092 
L 413.9279 492.786071 
L 414.813932 492.703682 
L 415.699963 492.946104 
L 416.585995 493.461142 
L 417.472026 494.217309 
L 418.358058 495.196917 
L 419.687105 497.06253 
L 421.902184 500.7985 
L 423.674247 503.667445 
L 425.003294 505.508039 
L 426.332341 506.93065 
L 427.218372 507.598819 
L 428.104404 508.043547 
L 428.990435 508.276048 
L 429.876467 508.32781 
L 431.205514 508.153111 
L 432.977577 507.622544 
L 436.078687 506.633446 
L 437.407735 506.501882 
L 438.736782 506.626113 
L 440.508845 507.054017 
L 444.939002 508.241108 
L 446.711065 508.364476 
L 449.36916 508.306674 
L 451.584238 508.033626 
L 454.242333 507.461648 
L 456.014396 506.873711 
L 457.786459 506.047234 
L 462.216616 503.682111 
L 464.431695 502.075743 
L 466.203758 500.858889 
L 467.532805 500.237306 
L 468.418837 500.06994 
L 469.304868 500.108331 
L 470.1909 500.325734 
L 471.519947 500.927044 
L 472.848994 501.821675 
L 474.621057 503.352124 
L 477.279151 505.630976 
L 479.051214 506.882338 
L 480.380262 507.516862 
L 482.152325 508.024136 
L 484.367403 508.36577 
L 486.139466 508.399415 
L 488.354545 508.158288 
L 490.126608 508.002137 
L 491.898671 508.103937 
L 493.670734 508.181581 
L 494.999781 508.009039 
L 495.885813 507.744186 
L 497.21486 507.057037 
L 500.31597 505.139662 
L 505.189143 502.829321 
L 506.075175 502.575684 
L 507.404222 502.518746 
L 507.847238 502.235776 
L 508.290253 501.36832 
L 508.733269 499.380634 
L 509.176285 495.528198 
L 509.619301 488.909479 
L 510.062316 478.613023 
L 510.505332 463.92623 
L 511.391364 420.546531 
L 511.391364 420.546531 
" clip-path="url(#p2f0f298f5f)" style="fill: none; stroke: #ff7f0e; stroke-width: 1.5; stroke-linecap: square"/>
   </g>
   <g id="patch_3">
    <path d="M 46.69 530.44 
L 46.69 55.464 
" style="fill: none; stroke: #000000; stroke-width: 0.8; stroke-linejoin: miter; stroke-linecap: square"/>
   </g>
   <g id="patch_4">
    <path d="M 533.52 530.44 
L 533.52 55.464 
" style="fill: none; stroke: #000000; stroke-width: 0.8; stroke-linejoin: miter; stroke-linecap: square"/>
   </g>
   <g id="patch_5">
    <path d="M 46.69 530.44 
L 533.52 530.44 
" style="fill: none; stroke: #000000; stroke-width: 0.8; stroke-linejoin: miter; stroke-linecap: square"/>
   </g>
   <g id="patch_6">
    <path d="M 46.69 55.464 
L 533.52 55.464 
" style="fill: none; stroke: #000000; stroke-width: 0.8; stroke-linejoin: miter; stroke-linecap: square"/>
   </g>
   <g id="text_13">
    <!-- $x_1$ -->
    <g transform="translate(282.401 49.464)scale(0.144 -0.144)">
     <defs>
      <path id="DejaVuSans-Oblique-78" d="M 3841 3500 
L 2234 1784 
L 3219 0 
L 2559 0 
L 1819 1388 
L 531 0 
L -166 0 
L 1556 1844 
L 641 3500 
L 1300 3500 
L 1972 2234 
L 3144 3500 
L 3841 3500 
z
" transform="scale(0.015625)"/>
     </defs>
     <use xlink:href="#DejaVuSans-Oblique-78" transform="translate(0 0.3125)"/>
     <use xlink:href="#DejaVuSans-31" transform="translate(59.179688 -16.09375)scale(0.7)"/>
    </g>
   </g>
   <g id="legend_1">
    <g id="patch_7">
     <path d="M 425.295 100.2915 
L 525.12 100.2915 
Q 527.52 100.2915 527.52 97.8915 
L 527.52 63.864 
Q 527.52 61.464 525.12 61.464 
L 425.295 61.464 
Q 422.895 61.464 422.895 63.864 
L 422.895 97.8915 
Q 422.895 100.2915 425.295 100.2915 
z
" style="fill: #ffffff; opacity: 0.8; stroke: #cccccc; stroke-linejoin: miter"/>
    </g>
    <g id="line2d_25">
     <path d="M 427.695 71.182125 
L 439.695 71.182125 
L 451.695 71.182125 
" style="fill: none; stroke: #1f77b4; stroke-width: 1.5; stroke-linecap: square"/>
    </g>
    <g id="text_14">
     <!-- EKF -->
     <g transform="translate(461.295 75.382125)scale(0.12 -0.12)">
      <defs>
       <path id="DejaVuSans-4b" d="M 628 4666 
L 1259 4666 
L 1259 2694 
L 3353 4666 
L 4166 4666 
L 1850 2491 
L 4331 0 
L 3500 0 
L 1259 2247 
L 1259 0 
L 628 0 
L 628 4666 
z
" transform="scale(0.015625)"/>
       <path id="DejaVuSans-46" d="M 628 4666 
L 3309 4666 
L 3309 4134 
L 1259 4134 
L 1259 2759 
L 3109 2759 
L 3109 2228 
L 1259 2228 
L 1259 0 
L 628 0 
L 628 4666 
z
" transform="scale(0.015625)"/>
      </defs>
      <use xlink:href="#DejaVuSans-45"/>
      <use xlink:href="#DejaVuSans-4b" x="63.183594"/>
      <use xlink:href="#DejaVuSans-46" x="128.759766"/>
     </g>
    </g>
    <g id="line2d_26">
     <path d="M 427.695 88.795875 
L 439.695 88.795875 
L 451.695 88.795875 
" style="fill: none; stroke: #ff7f0e; stroke-width: 1.5; stroke-linecap: square"/>
    </g>
    <g id="text_15">
     <!-- Optimized -->
     <g transform="translate(461.295 92.995875)scale(0.12 -0.12)">
      <defs>
       <path id="DejaVuSans-4f" d="M 2522 4238 
Q 1834 4238 1429 3725 
Q 1025 3213 1025 2328 
Q 1025 1447 1429 934 
Q 1834 422 2522 422 
Q 3209 422 3611 934 
Q 4013 1447 4013 2328 
Q 4013 3213 3611 3725 
Q 3209 4238 2522 4238 
z
M 2522 4750 
Q 3503 4750 4090 4092 
Q 4678 3434 4678 2328 
Q 4678 1225 4090 567 
Q 3503 -91 2522 -91 
Q 1538 -91 948 565 
Q 359 1222 359 2328 
Q 359 3434 948 4092 
Q 1538 4750 2522 4750 
z
" transform="scale(0.015625)"/>
       <path id="DejaVuSans-74" d="M 1172 4494 
L 1172 3500 
L 2356 3500 
L 2356 3053 
L 1172 3053 
L 1172 1153 
Q 1172 725 1289 603 
Q 1406 481 1766 481 
L 2356 481 
L 2356 0 
L 1766 0 
Q 1100 0 847 248 
Q 594 497 594 1153 
L 594 3053 
L 172 3053 
L 172 3500 
L 594 3500 
L 594 4494 
L 1172 4494 
z
" transform="scale(0.015625)"/>
       <path id="DejaVuSans-69" d="M 603 3500 
L 1178 3500 
L 1178 0 
L 603 0 
L 603 3500 
z
M 603 4863 
L 1178 4863 
L 1178 4134 
L 603 4134 
L 603 4863 
z
" transform="scale(0.015625)"/>
       <path id="DejaVuSans-6d" d="M 3328 2828 
Q 3544 3216 3844 3400 
Q 4144 3584 4550 3584 
Q 5097 3584 5394 3201 
Q 5691 2819 5691 2113 
L 5691 0 
L 5113 0 
L 5113 2094 
Q 5113 2597 4934 2840 
Q 4756 3084 4391 3084 
Q 3944 3084 3684 2787 
Q 3425 2491 3425 1978 
L 3425 0 
L 2847 0 
L 2847 2094 
Q 2847 2600 2669 2842 
Q 2491 3084 2119 3084 
Q 1678 3084 1418 2786 
Q 1159 2488 1159 1978 
L 1159 0 
L 581 0 
L 581 3500 
L 1159 3500 
L 1159 2956 
Q 1356 3278 1631 3431 
Q 1906 3584 2284 3584 
Q 2666 3584 2933 3390 
Q 3200 3197 3328 2828 
z
" transform="scale(0.015625)"/>
       <path id="DejaVuSans-7a" d="M 353 3500 
L 3084 3500 
L 3084 2975 
L 922 459 
L 3084 459 
L 3084 0 
L 275 0 
L 275 525 
L 2438 3041 
L 353 3041 
L 353 3500 
z
" transform="scale(0.015625)"/>
       <path id="DejaVuSans-65" d="M 3597 1894 
L 3597 1613 
L 953 1613 
Q 991 1019 1311 708 
Q 1631 397 2203 397 
Q 2534 397 2845 478 
Q 3156 559 3463 722 
L 3463 178 
Q 3153 47 2828 -22 
Q 2503 -91 2169 -91 
Q 1331 -91 842 396 
Q 353 884 353 1716 
Q 353 2575 817 3079 
Q 1281 3584 2069 3584 
Q 2775 3584 3186 3129 
Q 3597 2675 3597 1894 
z
M 3022 2063 
Q 3016 2534 2758 2815 
Q 2500 3097 2075 3097 
Q 1594 3097 1305 2825 
Q 1016 2553 972 2059 
L 3022 2063 
z
" transform="scale(0.015625)"/>
       <path id="DejaVuSans-64" d="M 2906 2969 
L 2906 4863 
L 3481 4863 
L 3481 0 
L 2906 0 
L 2906 525 
Q 2725 213 2448 61 
Q 2172 -91 1784 -91 
Q 1150 -91 751 415 
Q 353 922 353 1747 
Q 353 2572 751 3078 
Q 1150 3584 1784 3584 
Q 2172 3584 2448 3432 
Q 2725 3281 2906 2969 
z
M 947 1747 
Q 947 1113 1208 752 
Q 1469 391 1925 391 
Q 2381 391 2643 752 
Q 2906 1113 2906 1747 
Q 2906 2381 2643 2742 
Q 2381 3103 1925 3103 
Q 1469 3103 1208 2742 
Q 947 2381 947 1747 
z
" transform="scale(0.015625)"/>
      </defs>
      <use xlink:href="#DejaVuSans-4f"/>
      <use xlink:href="#DejaVuSans-70" x="78.710938"/>
      <use xlink:href="#DejaVuSans-74" x="142.1875"/>
      <use xlink:href="#DejaVuSans-69" x="181.396484"/>
      <use xlink:href="#DejaVuSans-6d" x="209.179688"/>
      <use xlink:href="#DejaVuSans-69" x="306.591797"/>
      <use xlink:href="#DejaVuSans-7a" x="334.375"/>
      <use xlink:href="#DejaVuSans-65" x="386.865234"/>
      <use xlink:href="#DejaVuSans-64" x="448.388672"/>
     </g>
    </g>
   </g>
  </g>
  <g id="axes_2">
   <g id="patch_8">
    <path d="M 580.21 530.44 
L 1067.04 530.44 
L 1067.04 55.464 
L 580.21 55.464 
z
" style="fill: #ffffff"/>
   </g>
   <g id="matplotlib.axis_3">
    <g id="xtick_7">
     <g id="line2d_27">
      <path d="M 602.338636 530.44 
L 602.338636 55.464 
" clip-path="url(#p040da98126)" style="fill: none; stroke: #b0b0b0; stroke-width: 0.8; stroke-linecap: square"/>
     </g>
     <g id="line2d_28">
      <g>
       <use xlink:href="#m4e016369e2" x="602.338636" y="530.44" style="stroke: #000000; stroke-width: 0.8"/>
      </g>
     </g>
     <g id="text_16">
      <!-- 0 -->
      <g transform="translate(598.521136 546.558125)scale(0.12 -0.12)">
       <use xlink:href="#DejaVuSans-30"/>
      </g>
     </g>
    </g>
    <g id="xtick_8">
     <g id="line2d_29">
      <path d="M 690.941785 530.44 
L 690.941785 55.464 
" clip-path="url(#p040da98126)" style="fill: none; stroke: #b0b0b0; stroke-width: 0.8; stroke-linecap: square"/>
     </g>
     <g id="line2d_30">
      <g>
       <use xlink:href="#m4e016369e2" x="690.941785" y="530.44" style="stroke: #000000; stroke-width: 0.8"/>
      </g>
     </g>
     <g id="text_17">
      <!-- 200 -->
      <g transform="translate(679.489285 546.558125)scale(0.12 -0.12)">
       <use xlink:href="#DejaVuSans-32"/>
       <use xlink:href="#DejaVuSans-30" x="63.623047"/>
       <use xlink:href="#DejaVuSans-30" x="127.246094"/>
      </g>
     </g>
    </g>
    <g id="xtick_9">
     <g id="line2d_31">
      <path d="M 779.544934 530.44 
L 779.544934 55.464 
" clip-path="url(#p040da98126)" style="fill: none; stroke: #b0b0b0; stroke-width: 0.8; stroke-linecap: square"/>
     </g>
     <g id="line2d_32">
      <g>
       <use xlink:href="#m4e016369e2" x="779.544934" y="530.44" style="stroke: #000000; stroke-width: 0.8"/>
      </g>
     </g>
     <g id="text_18">
      <!-- 400 -->
      <g transform="translate(768.092434 546.558125)scale(0.12 -0.12)">
       <use xlink:href="#DejaVuSans-34"/>
       <use xlink:href="#DejaVuSans-30" x="63.623047"/>
       <use xlink:href="#DejaVuSans-30" x="127.246094"/>
      </g>
     </g>
    </g>
    <g id="xtick_10">
     <g id="line2d_33">
      <path d="M 868.148082 530.44 
L 868.148082 55.464 
" clip-path="url(#p040da98126)" style="fill: none; stroke: #b0b0b0; stroke-width: 0.8; stroke-linecap: square"/>
     </g>
     <g id="line2d_34">
      <g>
       <use xlink:href="#m4e016369e2" x="868.148082" y="530.44" style="stroke: #000000; stroke-width: 0.8"/>
      </g>
     </g>
     <g id="text_19">
      <!-- 600 -->
      <g transform="translate(856.695582 546.558125)scale(0.12 -0.12)">
       <use xlink:href="#DejaVuSans-36"/>
       <use xlink:href="#DejaVuSans-30" x="63.623047"/>
       <use xlink:href="#DejaVuSans-30" x="127.246094"/>
      </g>
     </g>
    </g>
    <g id="xtick_11">
     <g id="line2d_35">
      <path d="M 956.751231 530.44 
L 956.751231 55.464 
" clip-path="url(#p040da98126)" style="fill: none; stroke: #b0b0b0; stroke-width: 0.8; stroke-linecap: square"/>
     </g>
     <g id="line2d_36">
      <g>
       <use xlink:href="#m4e016369e2" x="956.751231" y="530.44" style="stroke: #000000; stroke-width: 0.8"/>
      </g>
     </g>
     <g id="text_20">
      <!-- 800 -->
      <g transform="translate(945.298731 546.558125)scale(0.12 -0.12)">
       <use xlink:href="#DejaVuSans-38"/>
       <use xlink:href="#DejaVuSans-30" x="63.623047"/>
       <use xlink:href="#DejaVuSans-30" x="127.246094"/>
      </g>
     </g>
    </g>
    <g id="xtick_12">
     <g id="line2d_37">
      <path d="M 1045.354379 530.44 
L 1045.354379 55.464 
" clip-path="url(#p040da98126)" style="fill: none; stroke: #b0b0b0; stroke-width: 0.8; stroke-linecap: square"/>
     </g>
     <g id="line2d_38">
      <g>
       <use xlink:href="#m4e016369e2" x="1045.354379" y="530.44" style="stroke: #000000; stroke-width: 0.8"/>
      </g>
     </g>
     <g id="text_21">
      <!-- 1000 -->
      <g transform="translate(1030.084379 546.558125)scale(0.12 -0.12)">
       <use xlink:href="#DejaVuSans-31"/>
       <use xlink:href="#DejaVuSans-30" x="63.623047"/>
       <use xlink:href="#DejaVuSans-30" x="127.246094"/>
       <use xlink:href="#DejaVuSans-30" x="190.869141"/>
      </g>
     </g>
    </g>
    <g id="text_22">
     <!-- Epoch -->
     <g transform="translate(805.251875 562.171875)scale(0.12 -0.12)">
      <use xlink:href="#DejaVuSans-45"/>
      <use xlink:href="#DejaVuSans-70" x="63.183594"/>
      <use xlink:href="#DejaVuSans-6f" x="126.660156"/>
      <use xlink:href="#DejaVuSans-63" x="187.841797"/>
      <use xlink:href="#DejaVuSans-68" x="242.822266"/>
     </g>
    </g>
   </g>
   <g id="matplotlib.axis_4">
    <g id="ytick_6">
     <g id="line2d_39">
      <path d="M 580.21 498.118985 
L 1067.04 498.118985 
" clip-path="url(#p040da98126)" style="fill: none; stroke: #b0b0b0; stroke-width: 0.8; stroke-linecap: square"/>
     </g>
     <g id="line2d_40">
      <g>
       <use xlink:href="#mfe06eaf81d" x="580.21" y="498.118985" style="stroke: #000000; stroke-width: 0.8"/>
      </g>
     </g>
     <g id="text_23">
      <!-- 0.05 -->
      <g transform="translate(546.49125 502.678048)scale(0.12 -0.12)">
       <defs>
        <path id="DejaVuSans-35" d="M 691 4666 
L 3169 4666 
L 3169 4134 
L 1269 4134 
L 1269 2991 
Q 1406 3038 1543 3061 
Q 1681 3084 1819 3084 
Q 2600 3084 3056 2656 
Q 3513 2228 3513 1497 
Q 3513 744 3044 326 
Q 2575 -91 1722 -91 
Q 1428 -91 1123 -41 
Q 819 9 494 109 
L 494 744 
Q 775 591 1075 516 
Q 1375 441 1709 441 
Q 2250 441 2565 725 
Q 2881 1009 2881 1497 
Q 2881 1984 2565 2268 
Q 2250 2553 1709 2553 
Q 1456 2553 1204 2497 
Q 953 2441 691 2322 
L 691 4666 
z
" transform="scale(0.015625)"/>
       </defs>
       <use xlink:href="#DejaVuSans-30"/>
       <use xlink:href="#DejaVuSans-2e" x="63.623047"/>
       <use xlink:href="#DejaVuSans-30" x="95.410156"/>
       <use xlink:href="#DejaVuSans-35" x="159.033203"/>
      </g>
     </g>
    </g>
    <g id="ytick_7">
     <g id="line2d_41">
      <path d="M 580.21 440.29069 
L 1067.04 440.29069 
" clip-path="url(#p040da98126)" style="fill: none; stroke: #b0b0b0; stroke-width: 0.8; stroke-linecap: square"/>
     </g>
     <g id="line2d_42">
      <g>
       <use xlink:href="#mfe06eaf81d" x="580.21" y="440.29069" style="stroke: #000000; stroke-width: 0.8"/>
      </g>
     </g>
     <g id="text_24">
      <!-- 0.06 -->
      <g transform="translate(546.49125 444.849752)scale(0.12 -0.12)">
       <use xlink:href="#DejaVuSans-30"/>
       <use xlink:href="#DejaVuSans-2e" x="63.623047"/>
       <use xlink:href="#DejaVuSans-30" x="95.410156"/>
       <use xlink:href="#DejaVuSans-36" x="159.033203"/>
      </g>
     </g>
    </g>
    <g id="ytick_8">
     <g id="line2d_43">
      <path d="M 580.21 382.462394 
L 1067.04 382.462394 
" clip-path="url(#p040da98126)" style="fill: none; stroke: #b0b0b0; stroke-width: 0.8; stroke-linecap: square"/>
     </g>
     <g id="line2d_44">
      <g>
       <use xlink:href="#mfe06eaf81d" x="580.21" y="382.462394" style="stroke: #000000; stroke-width: 0.8"/>
      </g>
     </g>
     <g id="text_25">
      <!-- 0.07 -->
      <g transform="translate(546.49125 387.021457)scale(0.12 -0.12)">
       <defs>
        <path id="DejaVuSans-37" d="M 525 4666 
L 3525 4666 
L 3525 4397 
L 1831 0 
L 1172 0 
L 2766 4134 
L 525 4134 
L 525 4666 
z
" transform="scale(0.015625)"/>
       </defs>
       <use xlink:href="#DejaVuSans-30"/>
       <use xlink:href="#DejaVuSans-2e" x="63.623047"/>
       <use xlink:href="#DejaVuSans-30" x="95.410156"/>
       <use xlink:href="#DejaVuSans-37" x="159.033203"/>
      </g>
     </g>
    </g>
    <g id="ytick_9">
     <g id="line2d_45">
      <path d="M 580.21 324.634099 
L 1067.04 324.634099 
" clip-path="url(#p040da98126)" style="fill: none; stroke: #b0b0b0; stroke-width: 0.8; stroke-linecap: square"/>
     </g>
     <g id="line2d_46">
      <g>
       <use xlink:href="#mfe06eaf81d" x="580.21" y="324.634099" style="stroke: #000000; stroke-width: 0.8"/>
      </g>
     </g>
     <g id="text_26">
      <!-- 0.08 -->
      <g transform="translate(546.49125 329.193162)scale(0.12 -0.12)">
       <use xlink:href="#DejaVuSans-30"/>
       <use xlink:href="#DejaVuSans-2e" x="63.623047"/>
       <use xlink:href="#DejaVuSans-30" x="95.410156"/>
       <use xlink:href="#DejaVuSans-38" x="159.033203"/>
      </g>
     </g>
    </g>
    <g id="ytick_10">
     <g id="line2d_47">
      <path d="M 580.21 266.805804 
L 1067.04 266.805804 
" clip-path="url(#p040da98126)" style="fill: none; stroke: #b0b0b0; stroke-width: 0.8; stroke-linecap: square"/>
     </g>
     <g id="line2d_48">
      <g>
       <use xlink:href="#mfe06eaf81d" x="580.21" y="266.805804" style="stroke: #000000; stroke-width: 0.8"/>
      </g>
     </g>
     <g id="text_27">
      <!-- 0.09 -->
      <g transform="translate(546.49125 271.364866)scale(0.12 -0.12)">
       <defs>
        <path id="DejaVuSans-39" d="M 703 97 
L 703 672 
Q 941 559 1184 500 
Q 1428 441 1663 441 
Q 2288 441 2617 861 
Q 2947 1281 2994 2138 
Q 2813 1869 2534 1725 
Q 2256 1581 1919 1581 
Q 1219 1581 811 2004 
Q 403 2428 403 3163 
Q 403 3881 828 4315 
Q 1253 4750 1959 4750 
Q 2769 4750 3195 4129 
Q 3622 3509 3622 2328 
Q 3622 1225 3098 567 
Q 2575 -91 1691 -91 
Q 1453 -91 1209 -44 
Q 966 3 703 97 
z
M 1959 2075 
Q 2384 2075 2632 2365 
Q 2881 2656 2881 3163 
Q 2881 3666 2632 3958 
Q 2384 4250 1959 4250 
Q 1534 4250 1286 3958 
Q 1038 3666 1038 3163 
Q 1038 2656 1286 2365 
Q 1534 2075 1959 2075 
z
" transform="scale(0.015625)"/>
       </defs>
       <use xlink:href="#DejaVuSans-30"/>
       <use xlink:href="#DejaVuSans-2e" x="63.623047"/>
       <use xlink:href="#DejaVuSans-30" x="95.410156"/>
       <use xlink:href="#DejaVuSans-39" x="159.033203"/>
      </g>
     </g>
    </g>
    <g id="ytick_11">
     <g id="line2d_49">
      <path d="M 580.21 208.977508 
L 1067.04 208.977508 
" clip-path="url(#p040da98126)" style="fill: none; stroke: #b0b0b0; stroke-width: 0.8; stroke-linecap: square"/>
     </g>
     <g id="line2d_50">
      <g>
       <use xlink:href="#mfe06eaf81d" x="580.21" y="208.977508" style="stroke: #000000; stroke-width: 0.8"/>
      </g>
     </g>
     <g id="text_28">
      <!-- 0.10 -->
      <g transform="translate(546.49125 213.536571)scale(0.12 -0.12)">
       <use xlink:href="#DejaVuSans-30"/>
       <use xlink:href="#DejaVuSans-2e" x="63.623047"/>
       <use xlink:href="#DejaVuSans-31" x="95.410156"/>
       <use xlink:href="#DejaVuSans-30" x="159.033203"/>
      </g>
     </g>
    </g>
    <g id="ytick_12">
     <g id="line2d_51">
      <path d="M 580.21 151.149213 
L 1067.04 151.149213 
" clip-path="url(#p040da98126)" style="fill: none; stroke: #b0b0b0; stroke-width: 0.8; stroke-linecap: square"/>
     </g>
     <g id="line2d_52">
      <g>
       <use xlink:href="#mfe06eaf81d" x="580.21" y="151.149213" style="stroke: #000000; stroke-width: 0.8"/>
      </g>
     </g>
     <g id="text_29">
      <!-- 0.11 -->
      <g transform="translate(546.49125 155.708276)scale(0.12 -0.12)">
       <use xlink:href="#DejaVuSans-30"/>
       <use xlink:href="#DejaVuSans-2e" x="63.623047"/>
       <use xlink:href="#DejaVuSans-31" x="95.410156"/>
       <use xlink:href="#DejaVuSans-31" x="159.033203"/>
      </g>
     </g>
    </g>
    <g id="ytick_13">
     <g id="line2d_53">
      <path d="M 580.21 93.320918 
L 1067.04 93.320918 
" clip-path="url(#p040da98126)" style="fill: none; stroke: #b0b0b0; stroke-width: 0.8; stroke-linecap: square"/>
     </g>
     <g id="line2d_54">
      <g>
       <use xlink:href="#mfe06eaf81d" x="580.21" y="93.320918" style="stroke: #000000; stroke-width: 0.8"/>
      </g>
     </g>
     <g id="text_30">
      <!-- 0.12 -->
      <g transform="translate(546.49125 97.87998)scale(0.12 -0.12)">
       <use xlink:href="#DejaVuSans-30"/>
       <use xlink:href="#DejaVuSans-2e" x="63.623047"/>
       <use xlink:href="#DejaVuSans-31" x="95.410156"/>
       <use xlink:href="#DejaVuSans-32" x="159.033203"/>
      </g>
     </g>
    </g>
   </g>
   <g id="line2d_55">
    <path d="M 602.338636 498.118985 
L 602.781652 384.382294 
L 603.667684 248.119168 
L 604.553715 166.444797 
L 605.439747 116.388625 
L 605.882762 100.156222 
L 606.325778 88.723568 
L 606.768794 81.171193 
L 607.21181 77.053818 
L 607.654825 78.216167 
L 608.097841 90.302281 
L 608.540857 96.426297 
L 608.983873 110.096906 
L 610.755935 141.532367 
L 611.198951 148.494894 
L 611.641967 148.963303 
L 612.084983 152.213254 
L 612.527998 154.295072 
L 613.41403 175.70889 
L 613.857046 183.463664 
L 614.743077 190.235358 
L 615.186093 196.133844 
L 615.629109 199.736547 
L 616.51514 202.448694 
L 616.958156 203.33925 
L 617.844187 206.566068 
L 618.287203 204.646169 
L 618.730219 203.934881 
L 619.173235 204.200891 
L 620.059266 200.933592 
L 620.502282 202.385083 
L 620.945298 200.858416 
L 621.388313 198.718769 
L 622.717361 190.437757 
L 623.160376 188.460029 
L 623.603392 185.771013 
L 624.046408 185.244776 
L 624.489424 183.608235 
L 624.932439 182.648285 
L 625.375455 182.451669 
L 625.818471 181.289321 
L 626.704502 177.987325 
L 627.147518 176.819193 
L 628.033549 175.570102 
L 629.362597 174.939774 
L 630.691644 174.928208 
L 631.13466 175.205784 
L 632.020691 175.113259 
L 632.463707 175.124824 
L 632.906723 175.338789 
L 633.349738 175.252047 
L 634.23577 173.783208 
L 635.564817 171.227197 
L 636.007833 170.284596 
L 636.893864 169.498131 
L 637.33688 169.717879 
L 638.222912 171.076844 
L 638.665927 171.938485 
L 639.108943 173.100834 
L 639.551959 173.187576 
L 639.994975 175.494925 
L 640.43799 176.356567 
L 640.881006 177.623007 
L 641.324022 178.38634 
L 642.210053 180.288891 
L 642.653069 185.256342 
L 643.096085 186.470736 
L 643.5391 186.239423 
L 645.311163 180.826694 
L 646.197195 179.889876 
L 647.083226 177.391693 
L 647.526242 176.842325 
L 647.969258 175.940203 
L 651.9564 163.73265 
L 652.399415 162.81318 
L 652.842431 161.436867 
L 653.285447 160.679316 
L 653.728463 161.170857 
L 654.614494 166.363838 
L 655.05751 167.335353 
L 655.500526 165.91856 
L 655.943541 165.617852 
L 656.386557 163.975529 
L 656.829573 164.38611 
L 657.272588 163.217978 
L 657.715604 162.923054 
L 658.15862 164.149014 
L 659.044651 173.424672 
L 659.487667 175.558536 
L 659.930683 181.728816 
L 660.373699 182.868033 
L 660.816714 181.595811 
L 661.25973 181.474371 
L 661.702746 183.157174 
L 662.145762 185.551266 
L 662.588777 185.759448 
L 663.474809 183.585104 
L 663.917825 183.093563 
L 664.36084 182.06422 
L 664.803856 179.363638 
L 665.246872 177.912148 
L 666.132903 173.974041 
L 667.018935 171.984748 
L 667.461951 171.551036 
L 667.904966 171.880657 
L 668.347982 172.823258 
L 668.790998 173.204925 
L 669.234014 173.291667 
L 670.120045 175.223132 
L 670.563061 175.182653 
L 671.006077 176.026946 
L 671.449092 177.304951 
L 671.892108 176.836542 
L 672.335124 175.760936 
L 672.77814 175.413966 
L 673.221155 175.32144 
L 673.664171 175.830329 
L 674.107187 177.177729 
L 674.550202 178.155027 
L 674.993218 178.484648 
L 676.322265 175.460228 
L 676.765281 175.471794 
L 677.208297 176.40283 
L 677.651313 176.350784 
L 678.094328 176.177299 
L 679.866391 174.760506 
L 680.752423 174.511844 
L 681.195439 174.656415 
L 681.638454 174.615935 
L 682.524486 173.997172 
L 682.967502 173.962476 
L 683.410517 174.303662 
L 683.853533 174.962905 
L 684.296549 174.8299 
L 684.739565 175.009168 
L 685.18258 175.546971 
L 685.625596 175.101693 
L 686.511628 174.488713 
L 686.954643 174.598587 
L 687.397659 174.419319 
L 687.840675 174.511844 
L 688.283691 175.009168 
L 688.726706 176.425961 
L 689.169722 177.171946 
L 690.498769 176.229345 
L 690.941785 176.269824 
L 691.384801 176.466441 
L 691.827816 176.865456 
L 692.270832 176.905936 
L 692.713848 177.073638 
L 694.485911 175.408183 
L 694.928927 175.084344 
L 696.70099 174.448233 
L 697.144005 174.425102 
L 697.587021 174.517627 
L 698.473053 174.112829 
L 701.131147 172.279672 
L 701.574163 172.19293 
L 703.789242 169.162727 
L 704.232257 168.838889 
L 705.118289 171.27346 
L 706.890352 178.825835 
L 707.333367 178.34586 
L 707.776383 178.195507 
L 708.662415 176.414395 
L 709.548446 173.540329 
L 709.991462 172.933132 
L 710.877493 170.909142 
L 711.320509 170.059066 
L 713.092572 167.618712 
L 714.864635 162.749569 
L 715.307651 160.939543 
L 715.750667 159.811892 
L 716.636698 155.411158 
L 717.079714 154.202547 
L 718.408761 148.54694 
L 718.851777 148.419717 
L 719.737808 143.284565 
L 720.62384 143.533227 
L 721.066855 142.451837 
L 721.509871 142.793024 
L 721.952887 144.730272 
L 722.838918 151.750627 
L 723.281934 151.71593 
L 723.72495 156.8453 
L 724.167966 159.250957 
L 724.610981 163.836741 
L 725.053997 170.596869 
L 725.497013 175.038082 
L 725.940029 180.826694 
L 726.383044 183.689195 
L 726.82606 183.972553 
L 727.269076 182.226139 
L 727.712092 182.116265 
L 728.155107 183.365356 
L 728.598123 183.122477 
L 729.041139 184.643362 
L 729.484155 187.494297 
L 729.92717 187.829701 
L 730.370186 189.720686 
L 730.813202 190.345232 
L 731.256218 192.669929 
L 731.699233 192.560055 
L 732.142249 191.559626 
L 733.471296 185.325736 
L 733.914312 183.908942 
L 734.357328 183.348008 
L 734.800344 184.92672 
L 735.243359 184.932503 
L 735.686375 184.406266 
L 736.129391 181.936997 
L 737.458438 177.125683 
L 737.901454 176.061643 
L 738.344469 175.333006 
L 738.787485 174.905077 
L 739.673517 174.56389 
L 740.559548 174.020304 
L 741.002564 173.632854 
L 741.888595 173.262753 
L 742.331611 173.280102 
L 742.774627 172.910001 
L 743.217643 172.285455 
L 743.660658 172.268106 
L 744.103674 172.626642 
L 744.54669 172.453157 
L 744.989706 173.118182 
L 745.432721 173.216491 
L 745.875737 174.494496 
L 746.318753 176.89437 
L 747.6478 180.207931 
L 748.533832 180.017098 
L 748.976847 181.086922 
L 749.419863 180.369851 
L 750.74891 176.686188 
L 752.077958 175.656845 
L 753.407005 175.147956 
L 755.179068 174.494496 
L 757.394146 173.453587 
L 757.837162 173.546112 
L 758.723194 172.944698 
L 759.166209 173.233839 
L 759.609225 173.204925 
L 760.052241 173.742728 
L 760.938272 173.794773 
L 761.381288 173.846819 
L 761.824304 173.407324 
L 763.153351 173.794773 
L 763.596367 174.87038 
L 764.039383 175.159521 
L 764.925414 176.535835 
L 765.36843 177.877451 
L 765.811446 179.65278 
L 766.697477 182.226139 
L 767.140493 182.411189 
L 767.583509 181.578462 
L 768.46954 178.906795 
L 769.355571 177.258688 
L 770.241603 175.286743 
L 772.456682 171.348637 
L 772.899697 170.747222 
L 773.342713 169.625353 
L 775.114776 166.300226 
L 775.557792 165.363408 
L 776.000808 163.963963 
L 776.443823 163.154367 
L 776.886839 163.894569 
L 777.329855 163.634342 
L 777.772871 163.171716 
L 778.215886 162.003584 
L 778.658902 161.945756 
L 779.987949 163.680605 
L 780.430965 164.628989 
L 780.873981 164.293585 
L 781.316997 164.154797 
L 781.760012 162.778483 
L 782.203028 163.42616 
L 782.646044 164.837171 
L 783.08906 167.589797 
L 783.532075 171.204066 
L 783.975091 173.540329 
L 784.418107 174.87038 
L 784.861122 174.349925 
L 785.304138 175.234698 
L 785.747154 177.397476 
L 786.19017 177.553613 
L 787.519217 172.776995 
L 787.962233 172.736516 
L 788.405248 173.488283 
L 788.848264 175.385052 
L 789.29128 179.438815 
L 789.734296 184.961417 
L 790.177311 187.760307 
L 790.620327 188.847479 
L 791.506359 188.778085 
L 791.949374 189.113489 
L 792.39239 188.887959 
L 792.835406 186.569044 
L 793.278422 185.389347 
L 793.721437 183.348008 
L 794.164453 181.965912 
L 795.050485 178.149244 
L 795.4935 176.703537 
L 795.936516 175.70889 
L 796.379532 175.061213 
L 799.480642 174.112829 
L 800.366673 173.985607 
L 800.809689 173.823688 
L 802.138736 173.904647 
L 802.581752 174.777854 
L 803.024768 174.430885 
L 803.467784 174.506061 
L 803.910799 174.378839 
L 804.796831 173.384193 
L 805.239847 173.962476 
L 805.682862 174.777854 
L 806.125878 174.667981 
L 806.568894 174.8299 
L 807.01191 175.812981 
L 807.454925 175.957552 
L 807.897941 176.425961 
L 808.340957 177.090986 
L 809.226988 178.906795 
L 809.670004 178.577173 
L 810.11302 178.663916 
L 810.556036 177.808057 
L 810.999051 178.172375 
L 812.771114 175.662627 
L 813.657146 175.038082 
L 814.100162 174.806769 
L 814.543177 174.806769 
L 815.429209 175.795632 
L 815.872224 176.136819 
L 816.758256 175.460228 
L 818.087303 174.933991 
L 818.530319 174.864597 
L 819.859366 175.408183 
L 820.302382 175.853461 
L 820.745398 175.824547 
L 821.188413 175.969117 
L 822.517461 175.859244 
L 823.403492 175.119041 
L 823.846508 175.153738 
L 824.289524 174.916642 
L 824.732539 175.09591 
L 826.504602 172.586162 
L 826.947618 172.539899 
L 827.390634 173.37841 
L 828.276665 172.354849 
L 828.719681 171.481642 
L 829.605713 170.134242 
L 830.048728 169.937626 
L 830.491744 169.579091 
L 830.93476 170.475429 
L 831.377776 170.851313 
L 831.820791 171.076844 
L 832.263807 170.62 
L 832.706823 170.591086 
L 833.592854 167.821111 
L 834.03587 167.24861 
L 834.478886 166.282878 
L 834.921901 165.924342 
L 835.364917 166.18457 
L 835.807933 165.427019 
L 836.250949 163.99866 
L 836.693964 164.368761 
L 837.13698 164.524898 
L 837.579996 165.085832 
L 838.023012 164.600074 
L 838.466027 165.201489 
L 838.909043 169.735227 
L 839.352059 172.776995 
L 840.23809 176.379698 
L 840.681106 176.761365 
L 841.567138 179.259547 
L 842.010153 178.409471 
L 842.453169 178.872098 
L 842.896185 180.7573 
L 843.339201 181.965912 
L 843.782216 182.046871 
L 844.225232 180.728386 
L 844.668248 179.808916 
L 845.554279 177.137249 
L 845.997295 177.235557 
L 846.440311 177.20086 
L 847.326342 178.606088 
L 847.769358 180.219497 
L 848.212374 180.71682 
L 848.655389 180.832477 
L 849.098405 181.115836 
L 849.541421 181.266189 
L 851.313484 177.432173 
L 851.7565 176.900153 
L 853.085547 174.887728 
L 853.528563 174.407753 
L 853.971578 174.112829 
L 854.414594 173.650203 
L 854.85761 173.384193 
L 855.300626 172.956263 
L 856.629673 171.036364 
L 857.515704 169.099116 
L 857.95872 167.873156 
L 858.844752 167.075126 
L 859.730783 167.647626 
L 860.173799 166.693459 
L 860.616815 165.004873 
L 861.05983 164.397675 
L 861.945862 163.622776 
L 862.388878 163.524468 
L 862.831893 164.530681 
L 863.274909 167.352701 
L 863.717925 167.786414 
L 864.16094 167.404747 
L 864.603956 169.550177 
L 865.046972 169.746793 
L 865.489988 172.95048 
L 865.933003 173.609723 
L 866.376019 174.037652 
L 866.819035 173.609723 
L 867.262051 175.4024 
L 867.705066 175.581668 
L 868.591098 184.886241 
L 869.034114 185.105988 
L 869.477129 185.62066 
L 869.920145 184.920937 
L 870.363161 185.279473 
L 870.806177 184.776367 
L 871.249192 185.227427 
L 872.57824 180.803563 
L 873.021255 180.017098 
L 873.464271 179.670128 
L 874.350303 178.403689 
L 874.793318 177.293385 
L 875.236334 176.871239 
L 875.67935 176.171516 
L 876.122366 175.679976 
L 877.451413 175.101693 
L 877.894429 175.142173 
L 879.666491 174.818334 
L 881.438554 174.506061 
L 882.324586 174.286314 
L 882.767602 174.107046 
L 883.210617 174.055001 
L 883.653633 174.147526 
L 884.096649 174.459799 
L 884.539665 174.182223 
L 884.98268 174.037652 
L 885.425696 174.130178 
L 886.311728 173.557677 
L 887.197759 173.534546 
L 887.640775 174.52341 
L 888.083791 174.731592 
L 888.526806 175.257829 
L 888.969822 175.587451 
L 889.412838 175.315658 
L 890.741885 175.535405 
L 891.184901 176.593663 
L 891.627917 176.703537 
L 892.070932 177.368562 
L 892.513948 177.542047 
L 892.956964 178.322729 
L 893.39998 178.617653 
L 894.286011 178.328512 
L 894.729027 177.912148 
L 895.172042 176.89437 
L 897.387121 173.823688 
L 898.273153 173.129748 
L 898.716168 172.875304 
L 899.159184 172.823258 
L 900.045216 172.094622 
L 900.488231 172.059925 
L 900.931247 172.620859 
L 901.374263 172.638208 
L 902.260294 174.367274 
L 902.70331 176.188865 
L 903.146326 178.721744 
L 903.589342 179.866744 
L 904.475373 179.554472 
L 904.918389 179.797351 
L 905.361405 179.849396 
L 905.80442 180.017098 
L 906.247436 180.051795 
L 906.690452 179.855179 
L 908.462515 175.824547 
L 909.348546 174.974471 
L 910.234578 174.454016 
L 912.449656 173.505632 
L 912.892672 173.511415 
L 913.335688 175.101693 
L 913.778704 176.188865 
L 914.221719 177.808057 
L 915.107751 177.744446 
L 915.550767 177.420608 
L 915.993782 177.576744 
L 916.879814 176.5474 
L 917.765845 176.859673 
L 918.208861 176.986895 
L 918.651877 177.599875 
L 920.42394 175.888158 
L 920.866956 175.78985 
L 923.968066 172.262324 
L 924.411082 172.036793 
L 924.854097 171.666692 
L 926.183145 170.157374 
L 926.62616 169.850884 
L 927.512192 168.775277 
L 927.955207 169.284166 
L 928.398223 171.175152 
L 928.841239 171.568384 
L 929.284255 171.23298 
L 929.72727 169.509697 
L 930.170286 169.023939 
L 930.613302 168.798409 
L 931.056318 170.53904 
L 931.499333 173.361061 
L 931.942349 173.939344 
L 932.385365 173.60394 
L 932.828381 175.153738 
L 933.271396 175.038082 
L 933.714412 175.523839 
L 934.157428 175.74937 
L 935.043459 175.489143 
L 935.486475 177.611441 
L 935.929491 178.785355 
L 936.372507 181.034876 
L 936.815522 180.497073 
L 937.258538 180.392982 
L 937.701554 182.619371 
L 938.14457 182.827553 
L 939.030601 182.549977 
L 939.473617 183.984119 
L 939.916633 184.868892 
L 940.359648 184.626013 
L 940.802664 183.602452 
L 942.131711 177.871668 
L 944.34679 166.774418 
L 945.675837 162.171286 
L 946.118853 159.569013 
L 946.561869 158.383533 
L 947.4479 157.134442 
L 947.890916 155.197194 
L 948.333932 154.942749 
L 948.776947 155.069971 
L 949.219963 156.018355 
L 950.105995 161.801185 
L 950.54901 162.229114 
L 951.435042 167.659191 
L 951.878058 168.809974 
L 952.321073 167.358484 
L 952.764089 167.080908 
L 953.207105 167.531969 
L 953.650121 168.763712 
L 954.093136 169.608005 
L 954.536152 167.838459 
L 954.979168 167.456792 
L 955.422184 166.502625 
L 955.865199 168.676969 
L 956.308215 171.551036 
L 957.194247 174.344142 
L 958.523294 186.250988 
L 958.966309 187.03167 
L 959.409325 187.037453 
L 960.295357 185.134902 
L 960.738372 183.984119 
L 961.181388 183.400053 
L 962.06742 181.306669 
L 962.510435 180.809346 
L 962.953451 180.005532 
L 963.396467 180.190583 
L 963.839483 181.688336 
L 964.282498 181.584245 
L 965.16853 181.549548 
L 966.054561 180.271543 
L 966.497577 180.791997 
L 966.940593 180.965482 
L 967.383609 179.901441 
L 968.26964 177.027375 
L 969.155672 174.772072 
L 969.598687 174.401971 
L 970.484719 172.95048 
L 970.927735 172.366415 
L 971.37075 171.984748 
L 971.813766 172.036793 
L 972.256782 171.892223 
L 972.699798 171.973182 
L 973.142813 172.557248 
L 973.585829 173.37841 
L 974.028845 173.586592 
L 974.47186 173.465152 
L 974.914876 173.627071 
L 975.357892 173.494066 
L 976.243923 175.865026 
L 976.686939 177.58831 
L 977.129955 178.253335 
L 977.572971 177.594092 
L 978.015986 177.513133 
L 978.459002 177.276037 
L 979.788049 175.737804 
L 980.231065 175.853461 
L 980.674081 176.512703 
L 981.117097 176.755582 
L 981.560112 177.77336 
L 982.446144 178.4673 
L 982.88916 178.183941 
L 984.218207 176.275607 
L 984.661223 175.691542 
L 985.547254 175.020733 
L 986.876301 174.477147 
L 990.863443 173.638637 
L 991.749474 173.355278 
L 993.521537 171.961616 
L 994.407569 171.088409 
L 995.2936 170.550606 
L 996.179632 170.625783 
L 996.622648 171.250328 
L 997.065663 171.279243 
L 997.508679 171.076844 
L 998.394711 168.63649 
L 998.837726 168.509267 
L 999.280742 168.578661 
L 999.723758 168.827323 
L 1000.166774 168.011944 
L 1000.609789 168.121818 
L 1001.052805 167.757499 
L 1001.495821 166.971035 
L 1001.938837 165.455933 
L 1002.381852 165.14366 
L 1002.824868 164.987524 
L 1003.267884 163.981312 
L 1003.7109 163.50712 
L 1004.153915 164.166362 
L 1004.596931 164.316716 
L 1005.039947 167.051994 
L 1005.482963 168.960328 
L 1006.368994 175.038082 
L 1006.81201 174.349925 
L 1007.255025 173.343713 
L 1007.698041 171.996313 
L 1008.141057 171.53947 
L 1008.584073 170.226768 
L 1009.027088 169.463434 
L 1009.470104 169.174293 
L 1009.91312 169.717879 
L 1010.356136 171.348637 
L 1011.242167 179.340507 
L 1011.685183 183.313311 
L 1012.128199 185.429826 
L 1013.457246 181.318235 
L 1013.900262 180.092275 
L 1014.343277 178.16081 
L 1014.786293 176.986895 
L 1015.229309 176.772931 
L 1015.672325 177.050506 
L 1016.11534 176.703537 
L 1017.001372 177.935279 
L 1017.444388 178.334295 
L 1017.887403 178.449951 
L 1018.330419 177.969976 
L 1019.216451 178.091416 
L 1019.659466 177.385911 
L 1020.102482 176.963764 
L 1020.545498 176.738234 
L 1020.988514 176.194648 
L 1021.431529 176.483789 
L 1023.646608 175.44288 
L 1026.747718 174.280531 
L 1027.63375 174.361491 
L 1028.076765 174.529193 
L 1028.962797 177.409042 
L 1029.405813 177.860103 
L 1029.848828 177.889017 
L 1030.291844 178.403689 
L 1030.73486 178.224421 
L 1031.177876 177.715532 
L 1031.620891 178.027805 
L 1032.063907 179.213285 
L 1032.506923 178.796921 
L 1032.949939 177.952628 
L 1033.83597 175.940203 
L 1034.278986 175.113259 
L 1035.608033 171.446945 
L 1036.93708 168.775277 
L 1037.380096 169.492348 
L 1037.823112 170.492778 
L 1038.709143 171.568384 
L 1039.595175 171.770783 
L 1040.03819 170.417601 
L 1040.481206 169.827752 
L 1040.924222 170.23255 
L 1041.367238 171.053712 
L 1041.810253 172.539899 
L 1042.253269 173.083485 
L 1043.139301 171.834394 
L 1043.582316 172.129319 
L 1044.025332 171.915354 
L 1044.468348 172.366415 
L 1044.911364 171.92692 
L 1044.911364 171.92692 
" clip-path="url(#p040da98126)" style="fill: none; stroke: #1f77b4; stroke-width: 1.5; stroke-linecap: square"/>
   </g>
   <g id="line2d_56">
    <path d="M 602.338636 508.850182 
L 602.781652 414.684321 
L 603.224668 360.204283 
L 603.667684 326.618188 
L 604.110699 306.097239 
L 604.553715 294.273087 
L 604.996731 288.323134 
L 605.439747 286.277747 
L 605.882762 286.716664 
L 606.325778 288.613432 
L 607.654825 297.066772 
L 608.983873 305.858986 
L 609.869904 313.243081 
L 610.755935 323.105119 
L 611.641967 335.741758 
L 613.857046 369.556854 
L 614.743077 380.832793 
L 615.629109 389.932075 
L 616.51514 397.122446 
L 617.401172 402.464623 
L 618.287203 406.372081 
L 619.173235 409.170393 
L 620.059266 411.038247 
L 620.945298 412.002822 
L 621.831329 412.629681 
L 622.717361 413.013083 
L 623.603392 413.126426 
L 624.932439 412.86909 
L 626.261486 412.330131 
L 627.590534 411.36382 
L 628.919581 410.331006 
L 629.805612 409.94587 
L 631.13466 409.756771 
L 632.463707 409.753302 
L 635.564817 409.243835 
L 636.893864 409.183693 
L 638.665927 409.373948 
L 639.994975 409.735953 
L 642.210053 410.484251 
L 643.096085 409.820383 
L 644.868148 408.365423 
L 645.754179 407.522286 
L 648.855289 404.036975 
L 650.184337 403.171285 
L 651.9564 402.14252 
L 652.842431 402.010671 
L 653.728463 402.129219 
L 655.500526 402.653722 
L 656.386557 403.227379 
L 656.829573 403.71198 
L 657.715604 405.191806 
L 658.601636 406.767049 
L 659.487667 407.980286 
L 660.816714 409.189476 
L 661.25973 409.434668 
L 662.145762 409.583287 
L 663.474809 409.741736 
L 665.689888 410.40387 
L 667.018935 410.494661 
L 668.790998 410.950926 
L 670.563061 411.460971 
L 672.335124 411.913767 
L 673.221155 412.143924 
L 674.107187 412.161272 
L 675.87925 411.93979 
L 677.208297 411.651226 
L 678.094328 411.699802 
L 679.866391 411.877913 
L 682.967502 411.832807 
L 684.739565 411.911454 
L 686.511628 411.951934 
L 689.169722 412.187295 
L 691.827816 412.139297 
L 693.156864 411.658166 
L 695.371942 410.783224 
L 697.144005 410.46806 
L 698.916068 409.820961 
L 700.245116 409.668294 
L 701.574163 409.506375 
L 702.90321 409.255978 
L 703.789242 409.413271 
L 704.675273 409.514471 
L 705.118289 409.367587 
L 705.561304 409.048953 
L 706.447336 407.971612 
L 709.10543 403.873321 
L 709.991462 402.276103 
L 710.877493 400.1353 
L 713.092572 393.726768 
L 713.978604 391.644949 
L 715.307651 389.210378 
L 716.636698 387.576151 
L 717.52273 386.941774 
L 718.408761 386.593648 
L 719.294793 386.515001 
L 720.180824 386.711618 
L 720.62384 386.992663 
L 721.509871 388.006971 
L 722.395903 389.628477 
L 723.281934 391.929465 
L 725.940029 399.614845 
L 727.269076 403.188055 
L 728.598123 406.785554 
L 729.484155 408.701405 
L 730.370186 410.124559 
L 730.813202 410.617257 
L 732.142249 411.453454 
L 733.914312 412.45504 
L 734.357328 412.497833 
L 735.243359 412.152019 
L 736.129391 411.755317 
L 737.015422 411.507812 
L 738.344469 411.508969 
L 739.673517 411.399095 
L 743.217643 410.899459 
L 744.103674 411.018585 
L 744.989706 411.436683 
L 745.875737 411.961186 
L 746.761769 412.235871 
L 748.090816 412.334757 
L 748.976847 412.197126 
L 750.305895 412.001666 
L 751.634942 411.848999 
L 756.951131 411.153903 
L 758.723194 411.202479 
L 760.052241 411.174143 
L 761.381288 410.846835 
L 762.710335 410.587764 
L 764.039383 410.683181 
L 765.36843 410.940517 
L 766.254461 410.624196 
L 768.46954 408.893973 
L 769.798587 407.572597 
L 770.684619 406.478485 
L 772.013666 404.710096 
L 773.342713 403.504376 
L 775.114776 402.117075 
L 776.443823 401.264108 
L 777.329855 401.002146 
L 778.658902 400.946052 
L 779.544934 401.114911 
L 780.430965 401.463037 
L 781.316997 402.088161 
L 782.646044 403.507846 
L 784.418107 405.31498 
L 785.304138 406.001402 
L 786.633185 406.758953 
L 787.076201 407.25165 
L 787.962233 408.792774 
L 788.848264 410.531092 
L 789.29128 411.179926 
L 790.177311 411.959451 
L 791.063343 412.494941 
L 791.949374 412.682883 
L 793.278422 412.557974 
L 795.050485 412.107492 
L 796.822548 411.64313 
L 801.695721 411.525739 
L 803.467784 411.496825 
L 804.353815 411.506656 
L 806.125878 411.850734 
L 808.340957 412.65686 
L 809.670004 412.705436 
L 812.771114 412.553926 
L 814.986193 412.496098 
L 815.872224 412.252641 
L 817.644287 411.655853 
L 823.846508 410.339681 
L 824.732539 409.767181 
L 826.947618 408.157819 
L 828.276665 407.341862 
L 829.605713 406.178935 
L 830.491744 405.347942 
L 831.377776 404.864498 
L 832.263807 404.747106 
L 833.592854 404.731493 
L 835.364917 404.679447 
L 836.250949 404.85698 
L 837.13698 405.316137 
L 838.023012 406.147129 
L 839.352059 407.450579 
L 842.010153 409.829635 
L 842.896185 410.336211 
L 845.997295 411.324497 
L 846.883327 411.658744 
L 847.769358 411.689393 
L 848.655389 411.440731 
L 849.541421 410.899459 
L 851.313484 409.526615 
L 853.971578 406.852634 
L 854.414594 406.457667 
L 855.300626 406.092771 
L 855.743641 405.918129 
L 856.629673 405.210889 
L 857.515704 404.459121 
L 858.401736 403.972207 
L 859.287767 403.835154 
L 861.05983 404.036397 
L 861.945862 404.359078 
L 863.274909 405.118364 
L 864.603956 406.209584 
L 865.933003 407.556405 
L 866.819035 408.87836 
L 867.705066 410.255251 
L 868.591098 411.081618 
L 869.920145 412.018436 
L 870.806177 412.379285 
L 872.57824 412.714689 
L 873.907287 412.651656 
L 879.666491 411.933429 
L 883.653633 411.746065 
L 886.754743 411.718307 
L 887.640775 411.659322 
L 889.855854 411.34011 
L 893.39998 411.658744 
L 896.944105 411.278234 
L 898.273153 411.137711 
L 900.045216 410.805198 
L 900.931247 410.992562 
L 902.70331 411.851891 
L 905.361405 412.32377 
L 910.234578 411.977378 
L 911.563625 411.603807 
L 912.449656 411.794062 
L 913.335688 411.983739 
L 914.221719 411.857673 
L 916.436798 411.485838 
L 917.765845 411.360928 
L 919.094893 410.88905 
L 920.42394 410.272022 
L 922.196003 409.125287 
L 923.52505 408.638951 
L 925.740129 408.080907 
L 927.069176 407.891809 
L 928.398223 407.929976 
L 929.284255 408.098834 
L 932.385365 409.125287 
L 934.157428 409.14437 
L 935.043459 409.138009 
L 935.929491 408.767329 
L 936.815522 408.252658 
L 937.258538 408.059511 
L 938.587585 407.197291 
L 939.030601 406.907571 
L 939.916633 405.747536 
L 942.131711 402.325836 
L 944.34679 399.333221 
L 945.232821 398.4444 
L 946.561869 397.382673 
L 947.4479 396.980188 
L 948.333932 396.898072 
L 949.219963 397.135746 
L 950.105995 397.626708 
L 951.435042 398.707519 
L 953.207105 400.617009 
L 954.093136 401.66428 
L 954.979168 403.070086 
L 957.637262 407.966407 
L 958.523294 408.912478 
L 959.852341 409.908282 
L 961.181388 410.573307 
L 963.839483 411.568532 
L 965.611546 411.741439 
L 966.497577 411.590507 
L 967.826624 411.144651 
L 969.155672 410.925481 
L 972.699798 410.824282 
L 974.028845 411.041138 
L 976.686939 411.770931 
L 978.459002 411.89584 
L 979.345034 412.1046 
L 980.674081 412.489737 
L 981.560112 412.512868 
L 984.218207 412.061807 
L 985.99027 411.626939 
L 987.762333 410.941673 
L 993.078522 408.496693 
L 994.407569 407.45694 
L 996.179632 405.986367 
L 998.394711 404.702 
L 999.280742 404.308189 
L 1000.609789 404.049697 
L 1002.381852 403.931727 
L 1003.267884 404.105212 
L 1004.596931 404.752311 
L 1008.141057 406.706329 
L 1009.027088 407.666279 
L 1010.356136 409.424837 
L 1011.242167 410.085814 
L 1016.558356 412.149128 
L 1017.887403 412.239918 
L 1023.646608 412.359623 
L 1024.532639 412.014966 
L 1026.747718 410.818499 
L 1030.291844 409.918691 
L 1031.620891 410.014686 
L 1033.392954 409.286627 
L 1036.494065 407.303695 
L 1037.380096 406.99894 
L 1038.709143 406.705172 
L 1039.152159 406.320614 
L 1039.595175 405.410975 
L 1040.03819 403.514785 
L 1040.481206 400.012704 
L 1040.924222 394.115374 
L 1041.367238 384.917784 
L 1041.810253 371.526485 
L 1042.253269 353.226143 
L 1043.139301 301.228096 
L 1044.911364 169.330429 
L 1044.911364 169.330429 
" clip-path="url(#p040da98126)" style="fill: none; stroke: #ff7f0e; stroke-width: 1.5; stroke-linecap: square"/>
   </g>
   <g id="patch_9">
    <path d="M 580.21 530.44 
L 580.21 55.464 
" style="fill: none; stroke: #000000; stroke-width: 0.8; stroke-linejoin: miter; stroke-linecap: square"/>
   </g>
   <g id="patch_10">
    <path d="M 1067.04 530.44 
L 1067.04 55.464 
" style="fill: none; stroke: #000000; stroke-width: 0.8; stroke-linejoin: miter; stroke-linecap: square"/>
   </g>
   <g id="patch_11">
    <path d="M 580.21 530.44 
L 1067.04 530.44 
" style="fill: none; stroke: #000000; stroke-width: 0.8; stroke-linejoin: miter; stroke-linecap: square"/>
   </g>
   <g id="patch_12">
    <path d="M 580.21 55.464 
L 1067.04 55.464 
" style="fill: none; stroke: #000000; stroke-width: 0.8; stroke-linejoin: miter; stroke-linecap: square"/>
   </g>
   <g id="text_31">
    <!-- $x_2$ -->
    <g transform="translate(815.921 49.464)scale(0.144 -0.144)">
     <use xlink:href="#DejaVuSans-Oblique-78" transform="translate(0 0.3125)"/>
     <use xlink:href="#DejaVuSans-32" transform="translate(59.179688 -16.09375)scale(0.7)"/>
    </g>
   </g>
   <g id="legend_2">
    <g id="patch_13">
     <path d="M 958.815 100.2915 
L 1058.64 100.2915 
Q 1061.04 100.2915 1061.04 97.8915 
L 1061.04 63.864 
Q 1061.04 61.464 1058.64 61.464 
L 958.815 61.464 
Q 956.415 61.464 956.415 63.864 
L 956.415 97.8915 
Q 956.415 100.2915 958.815 100.2915 
z
" style="fill: #ffffff; opacity: 0.8; stroke: #cccccc; stroke-linejoin: miter"/>
    </g>
    <g id="line2d_57">
     <path d="M 961.215 71.182125 
L 973.215 71.182125 
L 985.215 71.182125 
" style="fill: none; stroke: #1f77b4; stroke-width: 1.5; stroke-linecap: square"/>
    </g>
    <g id="text_32">
     <!-- EKF -->
     <g transform="translate(994.815 75.382125)scale(0.12 -0.12)">
      <use xlink:href="#DejaVuSans-45"/>
      <use xlink:href="#DejaVuSans-4b" x="63.183594"/>
      <use xlink:href="#DejaVuSans-46" x="128.759766"/>
     </g>
    </g>
    <g id="line2d_58">
     <path d="M 961.215 88.795875 
L 973.215 88.795875 
L 985.215 88.795875 
" style="fill: none; stroke: #ff7f0e; stroke-width: 1.5; stroke-linecap: square"/>
    </g>
    <g id="text_33">
     <!-- Optimized -->
     <g transform="translate(994.815 92.995875)scale(0.12 -0.12)">
      <use xlink:href="#DejaVuSans-4f"/>
      <use xlink:href="#DejaVuSans-70" x="78.710938"/>
      <use xlink:href="#DejaVuSans-74" x="142.1875"/>
      <use xlink:href="#DejaVuSans-69" x="181.396484"/>
      <use xlink:href="#DejaVuSans-6d" x="209.179688"/>
      <use xlink:href="#DejaVuSans-69" x="306.591797"/>
      <use xlink:href="#DejaVuSans-7a" x="334.375"/>
      <use xlink:href="#DejaVuSans-65" x="386.865234"/>
      <use xlink:href="#DejaVuSans-64" x="448.388672"/>
     </g>
    </g>
   </g>
  </g>
  <g id="text_34">
   <!-- Standard deviation estimates -->
   <g transform="translate(433.767375 22.46175)scale(0.144 -0.144)">
    <defs>
     <path id="DejaVuSans-53" d="M 3425 4513 
L 3425 3897 
Q 3066 4069 2747 4153 
Q 2428 4238 2131 4238 
Q 1616 4238 1336 4038 
Q 1056 3838 1056 3469 
Q 1056 3159 1242 3001 
Q 1428 2844 1947 2747 
L 2328 2669 
Q 3034 2534 3370 2195 
Q 3706 1856 3706 1288 
Q 3706 609 3251 259 
Q 2797 -91 1919 -91 
Q 1588 -91 1214 -16 
Q 841 59 441 206 
L 441 856 
Q 825 641 1194 531 
Q 1563 422 1919 422 
Q 2459 422 2753 634 
Q 3047 847 3047 1241 
Q 3047 1584 2836 1778 
Q 2625 1972 2144 2069 
L 1759 2144 
Q 1053 2284 737 2584 
Q 422 2884 422 3419 
Q 422 4038 858 4394 
Q 1294 4750 2059 4750 
Q 2388 4750 2728 4690 
Q 3069 4631 3425 4513 
z
" transform="scale(0.015625)"/>
     <path id="DejaVuSans-61" d="M 2194 1759 
Q 1497 1759 1228 1600 
Q 959 1441 959 1056 
Q 959 750 1161 570 
Q 1363 391 1709 391 
Q 2188 391 2477 730 
Q 2766 1069 2766 1631 
L 2766 1759 
L 2194 1759 
z
M 3341 1997 
L 3341 0 
L 2766 0 
L 2766 531 
Q 2569 213 2275 61 
Q 1981 -91 1556 -91 
Q 1019 -91 701 211 
Q 384 513 384 1019 
Q 384 1609 779 1909 
Q 1175 2209 1959 2209 
L 2766 2209 
L 2766 2266 
Q 2766 2663 2505 2880 
Q 2244 3097 1772 3097 
Q 1472 3097 1187 3025 
Q 903 2953 641 2809 
L 641 3341 
Q 956 3463 1253 3523 
Q 1550 3584 1831 3584 
Q 2591 3584 2966 3190 
Q 3341 2797 3341 1997 
z
" transform="scale(0.015625)"/>
     <path id="DejaVuSans-6e" d="M 3513 2113 
L 3513 0 
L 2938 0 
L 2938 2094 
Q 2938 2591 2744 2837 
Q 2550 3084 2163 3084 
Q 1697 3084 1428 2787 
Q 1159 2491 1159 1978 
L 1159 0 
L 581 0 
L 581 3500 
L 1159 3500 
L 1159 2956 
Q 1366 3272 1645 3428 
Q 1925 3584 2291 3584 
Q 2894 3584 3203 3211 
Q 3513 2838 3513 2113 
z
" transform="scale(0.015625)"/>
     <path id="DejaVuSans-72" d="M 2631 2963 
Q 2534 3019 2420 3045 
Q 2306 3072 2169 3072 
Q 1681 3072 1420 2755 
Q 1159 2438 1159 1844 
L 1159 0 
L 581 0 
L 581 3500 
L 1159 3500 
L 1159 2956 
Q 1341 3275 1631 3429 
Q 1922 3584 2338 3584 
Q 2397 3584 2469 3576 
Q 2541 3569 2628 3553 
L 2631 2963 
z
" transform="scale(0.015625)"/>
     <path id="DejaVuSans-20" transform="scale(0.015625)"/>
     <path id="DejaVuSans-76" d="M 191 3500 
L 800 3500 
L 1894 563 
L 2988 3500 
L 3597 3500 
L 2284 0 
L 1503 0 
L 191 3500 
z
" transform="scale(0.015625)"/>
     <path id="DejaVuSans-73" d="M 2834 3397 
L 2834 2853 
Q 2591 2978 2328 3040 
Q 2066 3103 1784 3103 
Q 1356 3103 1142 2972 
Q 928 2841 928 2578 
Q 928 2378 1081 2264 
Q 1234 2150 1697 2047 
L 1894 2003 
Q 2506 1872 2764 1633 
Q 3022 1394 3022 966 
Q 3022 478 2636 193 
Q 2250 -91 1575 -91 
Q 1294 -91 989 -36 
Q 684 19 347 128 
L 347 722 
Q 666 556 975 473 
Q 1284 391 1588 391 
Q 1994 391 2212 530 
Q 2431 669 2431 922 
Q 2431 1156 2273 1281 
Q 2116 1406 1581 1522 
L 1381 1569 
Q 847 1681 609 1914 
Q 372 2147 372 2553 
Q 372 3047 722 3315 
Q 1072 3584 1716 3584 
Q 2034 3584 2315 3537 
Q 2597 3491 2834 3397 
z
" transform="scale(0.015625)"/>
    </defs>
    <use xlink:href="#DejaVuSans-53"/>
    <use xlink:href="#DejaVuSans-74" x="63.476562"/>
    <use xlink:href="#DejaVuSans-61" x="102.685547"/>
    <use xlink:href="#DejaVuSans-6e" x="163.964844"/>
    <use xlink:href="#DejaVuSans-64" x="227.34375"/>
    <use xlink:href="#DejaVuSans-61" x="290.820312"/>
    <use xlink:href="#DejaVuSans-72" x="352.099609"/>
    <use xlink:href="#DejaVuSans-64" x="391.462891"/>
    <use xlink:href="#DejaVuSans-20" x="454.939453"/>
    <use xlink:href="#DejaVuSans-64" x="486.726562"/>
    <use xlink:href="#DejaVuSans-65" x="550.203125"/>
    <use xlink:href="#DejaVuSans-76" x="611.726562"/>
    <use xlink:href="#DejaVuSans-69" x="670.90625"/>
    <use xlink:href="#DejaVuSans-61" x="698.689453"/>
    <use xlink:href="#DejaVuSans-74" x="759.96875"/>
    <use xlink:href="#DejaVuSans-69" x="799.177734"/>
    <use xlink:href="#DejaVuSans-6f" x="826.960938"/>
    <use xlink:href="#DejaVuSans-6e" x="888.142578"/>
    <use xlink:href="#DejaVuSans-20" x="951.521484"/>
    <use xlink:href="#DejaVuSans-65" x="983.308594"/>
    <use xlink:href="#DejaVuSans-73" x="1044.832031"/>
    <use xlink:href="#DejaVuSans-74" x="1096.931641"/>
    <use xlink:href="#DejaVuSans-69" x="1136.140625"/>
    <use xlink:href="#DejaVuSans-6d" x="1163.923828"/>
    <use xlink:href="#DejaVuSans-61" x="1261.335938"/>
    <use xlink:href="#DejaVuSans-74" x="1322.615234"/>
    <use xlink:href="#DejaVuSans-65" x="1361.824219"/>
    <use xlink:href="#DejaVuSans-73" x="1423.347656"/>
   </g>
  </g>
 </g>
 <defs>
  <clipPath id="p2f0f298f5f">
   <rect x="46.69" y="55.464" width="486.83" height="474.976"/>
  </clipPath>
  <clipPath id="p040da98126">
   <rect x="580.21" y="55.464" width="486.83" height="474.976"/>
  </clipPath>
 </defs>
</svg>
