<?xml version="1.0" encoding="utf-8" standalone="no"?>
<!DOCTYPE svg PUBLIC "-//W3C//DTD SVG 1.1//EN"
  "http://www.w3.org/Graphics/SVG/1.1/DTD/svg11.dtd">
<svg xmlns:xlink="http://www.w3.org/1999/xlink" width="720pt" height="432pt" viewBox="0 0 720 432" xmlns="http://www.w3.org/2000/svg" version="1.1">
 <metadata>
  <rdf:RDF xmlns:dc="http://purl.org/dc/elements/1.1/" xmlns:cc="http://creativecommons.org/ns#" xmlns:rdf="http://www.w3.org/1999/02/22-rdf-syntax-ns#">
   <cc:Work>
    <dc:type rdf:resource="http://purl.org/dc/dcmitype/StillImage"/>
    <dc:date>2022-11-29T17:06:42.194717</dc:date>
    <dc:format>image/svg+xml</dc:format>
    <dc:creator>
     <cc:Agent>
      <dc:title>Matplotlib v3.5.1, https://matplotlib.org/</dc:title>
     </cc:Agent>
    </dc:creator>
   </cc:Work>
  </rdf:RDF>
 </metadata>
 <defs>
  <style type="text/css">*{stroke-linejoin: round; stroke-linecap: butt}</style>
 </defs>
 <g id="figure_1">
  <g id="patch_1">
   <path d="M 0 432 
L 720 432 
L 720 0 
L 0 0 
z
" style="fill: #ffffff"/>
  </g>
  <g id="axes_1">
   <g id="patch_2">
    <path d="M 54.34 386.44 
L 707.04 386.44 
L 707.04 31.2 
L 54.34 31.2 
z
" style="fill: #ffffff"/>
   </g>
   <g id="matplotlib.axis_1">
    <g id="xtick_1">
     <g id="line2d_1">
      <path d="M 84.008182 386.44 
L 84.008182 31.2 
" clip-path="url(#p1126e8ba90)" style="fill: none; stroke: #b0b0b0; stroke-width: 0.8; stroke-linecap: square"/>
     </g>
     <g id="line2d_2">
      <defs>
       <path id="mdc99e83f60" d="M 0 0 
L 0 3.5 
" style="stroke: #000000; stroke-width: 0.8"/>
      </defs>
      <g>
       <use xlink:href="#mdc99e83f60" x="84.008182" y="386.44" style="stroke: #000000; stroke-width: 0.8"/>
      </g>
     </g>
     <g id="text_1">
      <!-- 0 -->
      <g transform="translate(80.190682 402.558125)scale(0.12 -0.12)">
       <defs>
        <path id="DejaVuSans-30" d="M 2034 4250 
Q 1547 4250 1301 3770 
Q 1056 3291 1056 2328 
Q 1056 1369 1301 889 
Q 1547 409 2034 409 
Q 2525 409 2770 889 
Q 3016 1369 3016 2328 
Q 3016 3291 2770 3770 
Q 2525 4250 2034 4250 
z
M 2034 4750 
Q 2819 4750 3233 4129 
Q 3647 3509 3647 2328 
Q 3647 1150 3233 529 
Q 2819 -91 2034 -91 
Q 1250 -91 836 529 
Q 422 1150 422 2328 
Q 422 3509 836 4129 
Q 1250 4750 2034 4750 
z
" transform="scale(0.015625)"/>
       </defs>
       <use xlink:href="#DejaVuSans-30"/>
      </g>
     </g>
    </g>
    <g id="xtick_2">
     <g id="line2d_3">
      <path d="M 202.799701 386.44 
L 202.799701 31.2 
" clip-path="url(#p1126e8ba90)" style="fill: none; stroke: #b0b0b0; stroke-width: 0.8; stroke-linecap: square"/>
     </g>
     <g id="line2d_4">
      <g>
       <use xlink:href="#mdc99e83f60" x="202.799701" y="386.44" style="stroke: #000000; stroke-width: 0.8"/>
      </g>
     </g>
     <g id="text_2">
      <!-- 200 -->
      <g transform="translate(191.347201 402.558125)scale(0.12 -0.12)">
       <defs>
        <path id="DejaVuSans-32" d="M 1228 531 
L 3431 531 
L 3431 0 
L 469 0 
L 469 531 
Q 828 903 1448 1529 
Q 2069 2156 2228 2338 
Q 2531 2678 2651 2914 
Q 2772 3150 2772 3378 
Q 2772 3750 2511 3984 
Q 2250 4219 1831 4219 
Q 1534 4219 1204 4116 
Q 875 4013 500 3803 
L 500 4441 
Q 881 4594 1212 4672 
Q 1544 4750 1819 4750 
Q 2544 4750 2975 4387 
Q 3406 4025 3406 3419 
Q 3406 3131 3298 2873 
Q 3191 2616 2906 2266 
Q 2828 2175 2409 1742 
Q 1991 1309 1228 531 
z
" transform="scale(0.015625)"/>
       </defs>
       <use xlink:href="#DejaVuSans-32"/>
       <use xlink:href="#DejaVuSans-30" x="63.623047"/>
       <use xlink:href="#DejaVuSans-30" x="127.246094"/>
      </g>
     </g>
    </g>
    <g id="xtick_3">
     <g id="line2d_5">
      <path d="M 321.591219 386.44 
L 321.591219 31.2 
" clip-path="url(#p1126e8ba90)" style="fill: none; stroke: #b0b0b0; stroke-width: 0.8; stroke-linecap: square"/>
     </g>
     <g id="line2d_6">
      <g>
       <use xlink:href="#mdc99e83f60" x="321.591219" y="386.44" style="stroke: #000000; stroke-width: 0.8"/>
      </g>
     </g>
     <g id="text_3">
      <!-- 400 -->
      <g transform="translate(310.138719 402.558125)scale(0.12 -0.12)">
       <defs>
        <path id="DejaVuSans-34" d="M 2419 4116 
L 825 1625 
L 2419 1625 
L 2419 4116 
z
M 2253 4666 
L 3047 4666 
L 3047 1625 
L 3713 1625 
L 3713 1100 
L 3047 1100 
L 3047 0 
L 2419 0 
L 2419 1100 
L 313 1100 
L 313 1709 
L 2253 4666 
z
" transform="scale(0.015625)"/>
       </defs>
       <use xlink:href="#DejaVuSans-34"/>
       <use xlink:href="#DejaVuSans-30" x="63.623047"/>
       <use xlink:href="#DejaVuSans-30" x="127.246094"/>
      </g>
     </g>
    </g>
    <g id="xtick_4">
     <g id="line2d_7">
      <path d="M 440.382738 386.44 
L 440.382738 31.2 
" clip-path="url(#p1126e8ba90)" style="fill: none; stroke: #b0b0b0; stroke-width: 0.8; stroke-linecap: square"/>
     </g>
     <g id="line2d_8">
      <g>
       <use xlink:href="#mdc99e83f60" x="440.382738" y="386.44" style="stroke: #000000; stroke-width: 0.8"/>
      </g>
     </g>
     <g id="text_4">
      <!-- 600 -->
      <g transform="translate(428.930238 402.558125)scale(0.12 -0.12)">
       <defs>
        <path id="DejaVuSans-36" d="M 2113 2584 
Q 1688 2584 1439 2293 
Q 1191 2003 1191 1497 
Q 1191 994 1439 701 
Q 1688 409 2113 409 
Q 2538 409 2786 701 
Q 3034 994 3034 1497 
Q 3034 2003 2786 2293 
Q 2538 2584 2113 2584 
z
M 3366 4563 
L 3366 3988 
Q 3128 4100 2886 4159 
Q 2644 4219 2406 4219 
Q 1781 4219 1451 3797 
Q 1122 3375 1075 2522 
Q 1259 2794 1537 2939 
Q 1816 3084 2150 3084 
Q 2853 3084 3261 2657 
Q 3669 2231 3669 1497 
Q 3669 778 3244 343 
Q 2819 -91 2113 -91 
Q 1303 -91 875 529 
Q 447 1150 447 2328 
Q 447 3434 972 4092 
Q 1497 4750 2381 4750 
Q 2619 4750 2861 4703 
Q 3103 4656 3366 4563 
z
" transform="scale(0.015625)"/>
       </defs>
       <use xlink:href="#DejaVuSans-36"/>
       <use xlink:href="#DejaVuSans-30" x="63.623047"/>
       <use xlink:href="#DejaVuSans-30" x="127.246094"/>
      </g>
     </g>
    </g>
    <g id="xtick_5">
     <g id="line2d_9">
      <path d="M 559.174257 386.44 
L 559.174257 31.2 
" clip-path="url(#p1126e8ba90)" style="fill: none; stroke: #b0b0b0; stroke-width: 0.8; stroke-linecap: square"/>
     </g>
     <g id="line2d_10">
      <g>
       <use xlink:href="#mdc99e83f60" x="559.174257" y="386.44" style="stroke: #000000; stroke-width: 0.8"/>
      </g>
     </g>
     <g id="text_5">
      <!-- 800 -->
      <g transform="translate(547.721757 402.558125)scale(0.12 -0.12)">
       <defs>
        <path id="DejaVuSans-38" d="M 2034 2216 
Q 1584 2216 1326 1975 
Q 1069 1734 1069 1313 
Q 1069 891 1326 650 
Q 1584 409 2034 409 
Q 2484 409 2743 651 
Q 3003 894 3003 1313 
Q 3003 1734 2745 1975 
Q 2488 2216 2034 2216 
z
M 1403 2484 
Q 997 2584 770 2862 
Q 544 3141 544 3541 
Q 544 4100 942 4425 
Q 1341 4750 2034 4750 
Q 2731 4750 3128 4425 
Q 3525 4100 3525 3541 
Q 3525 3141 3298 2862 
Q 3072 2584 2669 2484 
Q 3125 2378 3379 2068 
Q 3634 1759 3634 1313 
Q 3634 634 3220 271 
Q 2806 -91 2034 -91 
Q 1263 -91 848 271 
Q 434 634 434 1313 
Q 434 1759 690 2068 
Q 947 2378 1403 2484 
z
M 1172 3481 
Q 1172 3119 1398 2916 
Q 1625 2713 2034 2713 
Q 2441 2713 2670 2916 
Q 2900 3119 2900 3481 
Q 2900 3844 2670 4047 
Q 2441 4250 2034 4250 
Q 1625 4250 1398 4047 
Q 1172 3844 1172 3481 
z
" transform="scale(0.015625)"/>
       </defs>
       <use xlink:href="#DejaVuSans-38"/>
       <use xlink:href="#DejaVuSans-30" x="63.623047"/>
       <use xlink:href="#DejaVuSans-30" x="127.246094"/>
      </g>
     </g>
    </g>
    <g id="xtick_6">
     <g id="line2d_11">
      <path d="M 677.965776 386.44 
L 677.965776 31.2 
" clip-path="url(#p1126e8ba90)" style="fill: none; stroke: #b0b0b0; stroke-width: 0.8; stroke-linecap: square"/>
     </g>
     <g id="line2d_12">
      <g>
       <use xlink:href="#mdc99e83f60" x="677.965776" y="386.44" style="stroke: #000000; stroke-width: 0.8"/>
      </g>
     </g>
     <g id="text_6">
      <!-- 1000 -->
      <g transform="translate(662.695776 402.558125)scale(0.12 -0.12)">
       <defs>
        <path id="DejaVuSans-31" d="M 794 531 
L 1825 531 
L 1825 4091 
L 703 3866 
L 703 4441 
L 1819 4666 
L 2450 4666 
L 2450 531 
L 3481 531 
L 3481 0 
L 794 0 
L 794 531 
z
" transform="scale(0.015625)"/>
       </defs>
       <use xlink:href="#DejaVuSans-31"/>
       <use xlink:href="#DejaVuSans-30" x="63.623047"/>
       <use xlink:href="#DejaVuSans-30" x="127.246094"/>
       <use xlink:href="#DejaVuSans-30" x="190.869141"/>
      </g>
     </g>
    </g>
    <g id="text_7">
     <!-- Epoch -->
     <g transform="translate(362.316875 418.171875)scale(0.12 -0.12)">
      <defs>
       <path id="DejaVuSans-45" d="M 628 4666 
L 3578 4666 
L 3578 4134 
L 1259 4134 
L 1259 2753 
L 3481 2753 
L 3481 2222 
L 1259 2222 
L 1259 531 
L 3634 531 
L 3634 0 
L 628 0 
L 628 4666 
z
" transform="scale(0.015625)"/>
       <path id="DejaVuSans-70" d="M 1159 525 
L 1159 -1331 
L 581 -1331 
L 581 3500 
L 1159 3500 
L 1159 2969 
Q 1341 3281 1617 3432 
Q 1894 3584 2278 3584 
Q 2916 3584 3314 3078 
Q 3713 2572 3713 1747 
Q 3713 922 3314 415 
Q 2916 -91 2278 -91 
Q 1894 -91 1617 61 
Q 1341 213 1159 525 
z
M 3116 1747 
Q 3116 2381 2855 2742 
Q 2594 3103 2138 3103 
Q 1681 3103 1420 2742 
Q 1159 2381 1159 1747 
Q 1159 1113 1420 752 
Q 1681 391 2138 391 
Q 2594 391 2855 752 
Q 3116 1113 3116 1747 
z
" transform="scale(0.015625)"/>
       <path id="DejaVuSans-6f" d="M 1959 3097 
Q 1497 3097 1228 2736 
Q 959 2375 959 1747 
Q 959 1119 1226 758 
Q 1494 397 1959 397 
Q 2419 397 2687 759 
Q 2956 1122 2956 1747 
Q 2956 2369 2687 2733 
Q 2419 3097 1959 3097 
z
M 1959 3584 
Q 2709 3584 3137 3096 
Q 3566 2609 3566 1747 
Q 3566 888 3137 398 
Q 2709 -91 1959 -91 
Q 1206 -91 779 398 
Q 353 888 353 1747 
Q 353 2609 779 3096 
Q 1206 3584 1959 3584 
z
" transform="scale(0.015625)"/>
       <path id="DejaVuSans-63" d="M 3122 3366 
L 3122 2828 
Q 2878 2963 2633 3030 
Q 2388 3097 2138 3097 
Q 1578 3097 1268 2742 
Q 959 2388 959 1747 
Q 959 1106 1268 751 
Q 1578 397 2138 397 
Q 2388 397 2633 464 
Q 2878 531 3122 666 
L 3122 134 
Q 2881 22 2623 -34 
Q 2366 -91 2075 -91 
Q 1284 -91 818 406 
Q 353 903 353 1747 
Q 353 2603 823 3093 
Q 1294 3584 2113 3584 
Q 2378 3584 2631 3529 
Q 2884 3475 3122 3366 
z
" transform="scale(0.015625)"/>
       <path id="DejaVuSans-68" d="M 3513 2113 
L 3513 0 
L 2938 0 
L 2938 2094 
Q 2938 2591 2744 2837 
Q 2550 3084 2163 3084 
Q 1697 3084 1428 2787 
Q 1159 2491 1159 1978 
L 1159 0 
L 581 0 
L 581 4863 
L 1159 4863 
L 1159 2956 
Q 1366 3272 1645 3428 
Q 1925 3584 2291 3584 
Q 2894 3584 3203 3211 
Q 3513 2838 3513 2113 
z
" transform="scale(0.015625)"/>
      </defs>
      <use xlink:href="#DejaVuSans-45"/>
      <use xlink:href="#DejaVuSans-70" x="63.183594"/>
      <use xlink:href="#DejaVuSans-6f" x="126.660156"/>
      <use xlink:href="#DejaVuSans-63" x="187.841797"/>
      <use xlink:href="#DejaVuSans-68" x="242.822266"/>
     </g>
    </g>
   </g>
   <g id="matplotlib.axis_2">
    <g id="ytick_1">
     <g id="line2d_13">
      <path d="M 54.34 386.44 
L 707.04 386.44 
" clip-path="url(#p1126e8ba90)" style="fill: none; stroke: #b0b0b0; stroke-width: 0.8; stroke-linecap: square"/>
     </g>
     <g id="line2d_14">
      <defs>
       <path id="m834adea2fd" d="M 0 0 
L -3.5 0 
" style="stroke: #000000; stroke-width: 0.8"/>
      </defs>
      <g>
       <use xlink:href="#m834adea2fd" x="54.34" y="386.44" style="stroke: #000000; stroke-width: 0.8"/>
      </g>
     </g>
     <g id="text_8">
      <!-- 0.000 -->
      <g transform="translate(12.98625 390.999062)scale(0.12 -0.12)">
       <defs>
        <path id="DejaVuSans-2e" d="M 684 794 
L 1344 794 
L 1344 0 
L 684 0 
L 684 794 
z
" transform="scale(0.015625)"/>
       </defs>
       <use xlink:href="#DejaVuSans-30"/>
       <use xlink:href="#DejaVuSans-2e" x="63.623047"/>
       <use xlink:href="#DejaVuSans-30" x="95.410156"/>
       <use xlink:href="#DejaVuSans-30" x="159.033203"/>
       <use xlink:href="#DejaVuSans-30" x="222.65625"/>
      </g>
     </g>
    </g>
    <g id="ytick_2">
     <g id="line2d_15">
      <path d="M 54.34 346.968889 
L 707.04 346.968889 
" clip-path="url(#p1126e8ba90)" style="fill: none; stroke: #b0b0b0; stroke-width: 0.8; stroke-linecap: square"/>
     </g>
     <g id="line2d_16">
      <g>
       <use xlink:href="#m834adea2fd" x="54.34" y="346.968889" style="stroke: #000000; stroke-width: 0.8"/>
      </g>
     </g>
     <g id="text_9">
      <!-- 0.005 -->
      <g transform="translate(12.98625 351.527951)scale(0.12 -0.12)">
       <defs>
        <path id="DejaVuSans-35" d="M 691 4666 
L 3169 4666 
L 3169 4134 
L 1269 4134 
L 1269 2991 
Q 1406 3038 1543 3061 
Q 1681 3084 1819 3084 
Q 2600 3084 3056 2656 
Q 3513 2228 3513 1497 
Q 3513 744 3044 326 
Q 2575 -91 1722 -91 
Q 1428 -91 1123 -41 
Q 819 9 494 109 
L 494 744 
Q 775 591 1075 516 
Q 1375 441 1709 441 
Q 2250 441 2565 725 
Q 2881 1009 2881 1497 
Q 2881 1984 2565 2268 
Q 2250 2553 1709 2553 
Q 1456 2553 1204 2497 
Q 953 2441 691 2322 
L 691 4666 
z
" transform="scale(0.015625)"/>
       </defs>
       <use xlink:href="#DejaVuSans-30"/>
       <use xlink:href="#DejaVuSans-2e" x="63.623047"/>
       <use xlink:href="#DejaVuSans-30" x="95.410156"/>
       <use xlink:href="#DejaVuSans-30" x="159.033203"/>
       <use xlink:href="#DejaVuSans-35" x="222.65625"/>
      </g>
     </g>
    </g>
    <g id="ytick_3">
     <g id="line2d_17">
      <path d="M 54.34 307.497778 
L 707.04 307.497778 
" clip-path="url(#p1126e8ba90)" style="fill: none; stroke: #b0b0b0; stroke-width: 0.8; stroke-linecap: square"/>
     </g>
     <g id="line2d_18">
      <g>
       <use xlink:href="#m834adea2fd" x="54.34" y="307.497778" style="stroke: #000000; stroke-width: 0.8"/>
      </g>
     </g>
     <g id="text_10">
      <!-- 0.010 -->
      <g transform="translate(12.98625 312.05684)scale(0.12 -0.12)">
       <use xlink:href="#DejaVuSans-30"/>
       <use xlink:href="#DejaVuSans-2e" x="63.623047"/>
       <use xlink:href="#DejaVuSans-30" x="95.410156"/>
       <use xlink:href="#DejaVuSans-31" x="159.033203"/>
       <use xlink:href="#DejaVuSans-30" x="222.65625"/>
      </g>
     </g>
    </g>
    <g id="ytick_4">
     <g id="line2d_19">
      <path d="M 54.34 268.026667 
L 707.04 268.026667 
" clip-path="url(#p1126e8ba90)" style="fill: none; stroke: #b0b0b0; stroke-width: 0.8; stroke-linecap: square"/>
     </g>
     <g id="line2d_20">
      <g>
       <use xlink:href="#m834adea2fd" x="54.34" y="268.026667" style="stroke: #000000; stroke-width: 0.8"/>
      </g>
     </g>
     <g id="text_11">
      <!-- 0.015 -->
      <g transform="translate(12.98625 272.585729)scale(0.12 -0.12)">
       <use xlink:href="#DejaVuSans-30"/>
       <use xlink:href="#DejaVuSans-2e" x="63.623047"/>
       <use xlink:href="#DejaVuSans-30" x="95.410156"/>
       <use xlink:href="#DejaVuSans-31" x="159.033203"/>
       <use xlink:href="#DejaVuSans-35" x="222.65625"/>
      </g>
     </g>
    </g>
    <g id="ytick_5">
     <g id="line2d_21">
      <path d="M 54.34 228.555556 
L 707.04 228.555556 
" clip-path="url(#p1126e8ba90)" style="fill: none; stroke: #b0b0b0; stroke-width: 0.8; stroke-linecap: square"/>
     </g>
     <g id="line2d_22">
      <g>
       <use xlink:href="#m834adea2fd" x="54.34" y="228.555556" style="stroke: #000000; stroke-width: 0.8"/>
      </g>
     </g>
     <g id="text_12">
      <!-- 0.020 -->
      <g transform="translate(12.98625 233.114618)scale(0.12 -0.12)">
       <use xlink:href="#DejaVuSans-30"/>
       <use xlink:href="#DejaVuSans-2e" x="63.623047"/>
       <use xlink:href="#DejaVuSans-30" x="95.410156"/>
       <use xlink:href="#DejaVuSans-32" x="159.033203"/>
       <use xlink:href="#DejaVuSans-30" x="222.65625"/>
      </g>
     </g>
    </g>
    <g id="ytick_6">
     <g id="line2d_23">
      <path d="M 54.34 189.084444 
L 707.04 189.084444 
" clip-path="url(#p1126e8ba90)" style="fill: none; stroke: #b0b0b0; stroke-width: 0.8; stroke-linecap: square"/>
     </g>
     <g id="line2d_24">
      <g>
       <use xlink:href="#m834adea2fd" x="54.34" y="189.084444" style="stroke: #000000; stroke-width: 0.8"/>
      </g>
     </g>
     <g id="text_13">
      <!-- 0.025 -->
      <g transform="translate(12.98625 193.643507)scale(0.12 -0.12)">
       <use xlink:href="#DejaVuSans-30"/>
       <use xlink:href="#DejaVuSans-2e" x="63.623047"/>
       <use xlink:href="#DejaVuSans-30" x="95.410156"/>
       <use xlink:href="#DejaVuSans-32" x="159.033203"/>
       <use xlink:href="#DejaVuSans-35" x="222.65625"/>
      </g>
     </g>
    </g>
    <g id="ytick_7">
     <g id="line2d_25">
      <path d="M 54.34 149.613333 
L 707.04 149.613333 
" clip-path="url(#p1126e8ba90)" style="fill: none; stroke: #b0b0b0; stroke-width: 0.8; stroke-linecap: square"/>
     </g>
     <g id="line2d_26">
      <g>
       <use xlink:href="#m834adea2fd" x="54.34" y="149.613333" style="stroke: #000000; stroke-width: 0.8"/>
      </g>
     </g>
     <g id="text_14">
      <!-- 0.030 -->
      <g transform="translate(12.98625 154.172396)scale(0.12 -0.12)">
       <defs>
        <path id="DejaVuSans-33" d="M 2597 2516 
Q 3050 2419 3304 2112 
Q 3559 1806 3559 1356 
Q 3559 666 3084 287 
Q 2609 -91 1734 -91 
Q 1441 -91 1130 -33 
Q 819 25 488 141 
L 488 750 
Q 750 597 1062 519 
Q 1375 441 1716 441 
Q 2309 441 2620 675 
Q 2931 909 2931 1356 
Q 2931 1769 2642 2001 
Q 2353 2234 1838 2234 
L 1294 2234 
L 1294 2753 
L 1863 2753 
Q 2328 2753 2575 2939 
Q 2822 3125 2822 3475 
Q 2822 3834 2567 4026 
Q 2313 4219 1838 4219 
Q 1578 4219 1281 4162 
Q 984 4106 628 3988 
L 628 4550 
Q 988 4650 1302 4700 
Q 1616 4750 1894 4750 
Q 2613 4750 3031 4423 
Q 3450 4097 3450 3541 
Q 3450 3153 3228 2886 
Q 3006 2619 2597 2516 
z
" transform="scale(0.015625)"/>
       </defs>
       <use xlink:href="#DejaVuSans-30"/>
       <use xlink:href="#DejaVuSans-2e" x="63.623047"/>
       <use xlink:href="#DejaVuSans-30" x="95.410156"/>
       <use xlink:href="#DejaVuSans-33" x="159.033203"/>
       <use xlink:href="#DejaVuSans-30" x="222.65625"/>
      </g>
     </g>
    </g>
    <g id="ytick_8">
     <g id="line2d_27">
      <path d="M 54.34 110.142222 
L 707.04 110.142222 
" clip-path="url(#p1126e8ba90)" style="fill: none; stroke: #b0b0b0; stroke-width: 0.8; stroke-linecap: square"/>
     </g>
     <g id="line2d_28">
      <g>
       <use xlink:href="#m834adea2fd" x="54.34" y="110.142222" style="stroke: #000000; stroke-width: 0.8"/>
      </g>
     </g>
     <g id="text_15">
      <!-- 0.035 -->
      <g transform="translate(12.98625 114.701285)scale(0.12 -0.12)">
       <use xlink:href="#DejaVuSans-30"/>
       <use xlink:href="#DejaVuSans-2e" x="63.623047"/>
       <use xlink:href="#DejaVuSans-30" x="95.410156"/>
       <use xlink:href="#DejaVuSans-33" x="159.033203"/>
       <use xlink:href="#DejaVuSans-35" x="222.65625"/>
      </g>
     </g>
    </g>
    <g id="ytick_9">
     <g id="line2d_29">
      <path d="M 54.34 70.671111 
L 707.04 70.671111 
" clip-path="url(#p1126e8ba90)" style="fill: none; stroke: #b0b0b0; stroke-width: 0.8; stroke-linecap: square"/>
     </g>
     <g id="line2d_30">
      <g>
       <use xlink:href="#m834adea2fd" x="54.34" y="70.671111" style="stroke: #000000; stroke-width: 0.8"/>
      </g>
     </g>
     <g id="text_16">
      <!-- 0.040 -->
      <g transform="translate(12.98625 75.230174)scale(0.12 -0.12)">
       <use xlink:href="#DejaVuSans-30"/>
       <use xlink:href="#DejaVuSans-2e" x="63.623047"/>
       <use xlink:href="#DejaVuSans-30" x="95.410156"/>
       <use xlink:href="#DejaVuSans-34" x="159.033203"/>
       <use xlink:href="#DejaVuSans-30" x="222.65625"/>
      </g>
     </g>
    </g>
    <g id="ytick_10">
     <g id="line2d_31">
      <path d="M 54.34 31.2 
L 707.04 31.2 
" clip-path="url(#p1126e8ba90)" style="fill: none; stroke: #b0b0b0; stroke-width: 0.8; stroke-linecap: square"/>
     </g>
     <g id="line2d_32">
      <g>
       <use xlink:href="#m834adea2fd" x="54.34" y="31.2" style="stroke: #000000; stroke-width: 0.8"/>
      </g>
     </g>
     <g id="text_17">
      <!-- 0.045 -->
      <g transform="translate(12.98625 35.759063)scale(0.12 -0.12)">
       <use xlink:href="#DejaVuSans-30"/>
       <use xlink:href="#DejaVuSans-2e" x="63.623047"/>
       <use xlink:href="#DejaVuSans-30" x="95.410156"/>
       <use xlink:href="#DejaVuSans-34" x="159.033203"/>
       <use xlink:href="#DejaVuSans-35" x="222.65625"/>
      </g>
     </g>
    </g>
   </g>
   <g id="line2d_33">
    <path d="M 84.008182 36.129152 
L 84.602139 61.397768 
L 85.196097 80.557835 
L 85.790055 96.09919 
L 86.384012 105.942496 
L 87.571927 120.753636 
L 88.165885 126.385374 
L 88.759843 130.405112 
L 89.3538 135.245849 
L 90.541715 140.84601 
L 91.135673 142.424065 
L 92.323588 146.299339 
L 92.917546 147.707668 
L 93.511503 150.080671 
L 94.105461 150.281974 
L 94.699419 150.853516 
L 95.887334 155.346907 
L 96.481291 155.495318 
L 97.075249 156.697608 
L 97.669206 160.453679 
L 98.263164 160.782079 
L 98.857122 161.28652 
L 99.451079 162.439076 
L 100.045037 162.930886 
L 100.638994 163.256918 
L 101.232952 164.863392 
L 101.82691 165.349676 
L 102.420867 165.460195 
L 103.014825 166.608804 
L 103.608782 165.645709 
L 104.20274 168.573676 
L 104.796698 169.779124 
L 105.390655 169.503616 
L 105.984613 169.474407 
L 107.172528 170.388558 
L 107.766486 170.320668 
L 108.360443 169.327574 
L 108.954401 170.698011 
L 109.548358 170.445396 
L 111.330231 174.007269 
L 111.924189 174.37514 
L 112.518146 174.399612 
L 113.112104 176.141867 
L 113.706062 176.047136 
L 114.300019 175.144037 
L 114.893977 174.573285 
L 115.487934 173.396257 
L 116.081892 173.422308 
L 116.675849 171.890828 
L 117.269807 170.736693 
L 117.863765 171.076145 
L 118.457722 170.765902 
L 119.05168 172.029767 
L 119.645637 173.84307 
L 120.239595 174.499869 
L 120.833553 173.478357 
L 121.42751 174.015164 
L 122.021468 172.527892 
L 122.615425 172.882343 
L 123.209383 172.884711 
L 123.803341 173.019702 
L 124.397298 173.532827 
L 124.991256 173.03707 
L 125.585213 173.764127 
L 126.179171 172.062133 
L 126.773129 172.182915 
L 127.367086 171.713208 
L 127.961044 171.641371 
L 128.555001 171.336654 
L 129.148959 173.250214 
L 129.742917 174.450135 
L 130.336874 174.434347 
L 130.930832 174.618282 
L 131.524789 175.693475 
L 132.118747 175.244294 
L 132.712705 174.089369 
L 133.306662 174.128051 
L 133.90062 173.934643 
L 134.494577 173.229689 
L 135.088535 172.233438 
L 135.682492 172.376323 
L 136.27645 171.79294 
L 136.870408 171.763731 
L 137.464365 172.961285 
L 138.058323 172.268172 
L 138.65228 172.717354 
L 139.840196 174.149365 
L 140.434153 173.789389 
L 141.028111 173.038648 
L 141.622068 172.883922 
L 142.216026 173.100223 
L 142.809984 174.602494 
L 144.591856 169.991479 
L 145.779772 170.128049 
L 146.373729 171.674527 
L 146.967687 171.982401 
L 148.155602 170.443818 
L 148.74956 172.374744 
L 149.343517 173.868331 
L 149.937475 171.756627 
L 150.531432 170.487236 
L 151.12539 171.976086 
L 151.719348 172.880764 
L 152.313305 174.796692 
L 152.907263 175.437702 
L 153.50122 175.005099 
L 154.095178 174.815638 
L 154.689135 174.013585 
L 155.283093 174.492764 
L 155.877051 174.345142 
L 156.471008 173.038648 
L 157.064966 172.467107 
L 158.252881 173.88412 
L 158.846839 173.246266 
L 159.440796 173.276264 
L 160.628711 172.534997 
L 161.222669 170.962468 
L 161.816627 169.727022 
L 163.004542 167.754256 
L 164.192457 170.469079 
L 164.786415 171.334286 
L 165.380372 172.46237 
L 165.97433 172.251594 
L 167.162245 171.159034 
L 167.756203 172.091342 
L 168.35016 173.509933 
L 168.944118 173.085224 
L 169.538075 172.031346 
L 170.132033 170.594597 
L 170.725991 170.435923 
L 171.319948 169.002333 
L 171.913906 170.465132 
L 172.507863 170.639594 
L 173.101821 171.412439 
L 173.695779 171.00036 
L 174.289736 171.189822 
L 174.883694 172.673146 
L 176.071609 173.588086 
L 176.665566 173.367048 
L 177.259524 173.974903 
L 177.853482 173.762549 
L 178.447439 173.421518 
L 179.635354 170.761165 
L 180.229312 171.299551 
L 180.82327 171.603479 
L 181.417227 171.758206 
L 182.011185 171.508748 
L 182.605142 170.392505 
L 183.1991 169.916483 
L 183.793058 169.602293 
L 184.387015 170.104366 
L 185.57493 169.640186 
L 186.168888 171.730576 
L 186.762846 171.969771 
L 187.356803 171.98477 
L 187.950761 172.31159 
L 188.544718 173.652029 
L 189.138676 172.759982 
L 189.732634 171.537957 
L 190.326591 172.267383 
L 190.920549 172.276066 
L 191.514506 173.128642 
L 192.108464 172.375534 
L 192.702422 173.847806 
L 193.296379 173.745971 
L 193.890337 172.902868 
L 194.484294 174.19831 
L 195.672209 172.709459 
L 196.266167 171.491381 
L 196.860125 172.012399 
L 197.454082 172.703933 
L 198.04804 172.065291 
L 198.641997 171.016938 
L 199.235955 171.440858 
L 199.829913 169.75781 
L 200.42387 169.302313 
L 201.017828 170.827477 
L 201.611785 170.667224 
L 202.205743 170.319089 
L 202.799701 171.7661 
L 203.393658 172.147391 
L 203.987616 171.384809 
L 204.581573 171.61611 
L 205.769489 171.496117 
L 206.363446 172.291855 
L 206.957404 170.256724 
L 207.551361 171.76531 
L 208.145319 170.319089 
L 208.739277 170.41303 
L 209.333234 172.191598 
L 209.927192 171.639792 
L 210.521149 173.414413 
L 211.115107 174.045951 
L 211.709065 174.850372 
L 212.303022 175.084831 
L 212.89698 174.837742 
L 213.490937 175.335078 
L 214.084895 173.538353 
L 214.678852 173.136537 
L 215.27281 174.310408 
L 215.866768 174.300934 
L 216.460725 175.543485 
L 217.054683 175.287712 
L 217.64864 175.242715 
L 218.242598 174.947471 
L 218.836556 173.431781 
L 219.430513 172.534208 
L 220.024471 173.742024 
L 220.618428 173.914118 
L 221.212386 173.126274 
L 222.400301 175.091146 
L 222.994259 174.069634 
L 223.588216 172.799453 
L 224.182174 172.973126 
L 224.776132 170.094103 
L 225.964047 172.192388 
L 226.558004 172.843661 
L 227.151962 172.757614 
L 227.74592 172.291855 
L 228.339877 172.153706 
L 228.933835 170.140679 
L 229.527792 169.158638 
L 230.12175 170.596965 
L 230.715708 170.529075 
L 231.309665 171.643739 
L 231.903623 172.432372 
L 232.49758 171.746364 
L 233.091538 173.150746 
L 233.685495 173.134958 
L 234.279453 173.973324 
L 234.873411 174.321459 
L 235.467368 173.622031 
L 236.061326 172.378691 
L 236.655283 172.171073 
L 237.249241 172.793138 
L 237.843199 172.824715 
L 238.437156 172.670778 
L 239.031114 173.700974 
L 239.625071 172.892605 
L 240.219029 172.575258 
L 240.812987 173.876225 
L 241.406944 172.668409 
L 242.000902 170.858264 
L 242.594859 172.348693 
L 243.188817 172.250805 
L 243.782775 172.620255 
L 244.376732 173.942537 
L 244.97069 174.638018 
L 245.564647 174.336458 
L 246.158605 173.527301 
L 246.752563 173.983587 
L 247.34652 173.716762 
L 247.940478 173.921222 
L 248.534435 175.070621 
L 249.128393 175.078515 
L 249.722351 175.321657 
L 250.316308 173.603875 
L 251.504223 172.085026 
L 252.098181 173.326787 
L 252.692139 172.596572 
L 253.286096 171.294025 
L 253.880054 171.318497 
L 254.474011 171.605058 
L 255.067969 171.583743 
L 255.661926 171.796098 
L 256.255884 172.398427 
L 256.849842 172.719722 
L 257.443799 171.271921 
L 258.037757 171.808729 
L 258.631714 172.623412 
L 259.225672 171.815044 
L 259.81963 173.184691 
L 260.413587 171.980823 
L 261.601502 172.523156 
L 262.19546 172.950233 
L 263.383375 172.615518 
L 263.977333 171.066672 
L 264.57129 170.332509 
L 265.165248 170.175414 
L 265.759206 172.191598 
L 266.353163 172.684198 
L 266.947121 172.078711 
L 267.541078 172.733142 
L 268.135036 172.795506 
L 268.728994 173.194954 
L 269.916909 172.305275 
L 270.510866 172.88629 
L 271.104824 174.314355 
L 271.698782 173.972535 
L 272.886697 173.744392 
L 273.480654 173.468883 
L 274.074612 172.499473 
L 274.668569 170.750903 
L 275.262527 171.776362 
L 275.856485 171.084039 
L 276.450442 171.603479 
L 277.638357 171.842674 
L 278.232315 171.106932 
L 279.42023 171.561639 
L 280.014188 169.881749 
L 280.608145 169.167322 
L 281.202103 169.605451 
L 281.796061 169.236002 
L 282.390018 170.649857 
L 282.983976 171.42428 
L 283.577933 170.060158 
L 284.171891 169.536771 
L 284.765849 170.063316 
L 285.359806 171.182717 
L 285.953764 171.418754 
L 286.547721 170.040423 
L 287.141679 171.723471 
L 287.735637 172.342378 
L 288.923552 169.850961 
L 289.517509 170.599334 
L 290.111467 170.690117 
L 290.705425 171.391124 
L 291.299382 170.983782 
L 291.89334 171.244292 
L 292.487297 172.588678 
L 293.081255 172.513683 
L 293.675212 172.194756 
L 294.26917 172.576047 
L 294.863128 171.660317 
L 295.457085 169.816227 
L 296.051043 170.285144 
L 296.645 170.061737 
L 297.238958 170.281986 
L 297.832916 171.466909 
L 298.426873 171.357179 
L 299.020831 170.964047 
L 299.614788 169.867539 
L 300.208746 170.074368 
L 300.802704 170.025424 
L 301.396661 169.295998 
L 301.990619 170.3854 
L 303.178534 168.610779 
L 303.772492 169.562822 
L 304.366449 170.115418 
L 304.960407 171.234029 
L 305.554364 171.489802 
L 306.148322 172.077922 
L 306.74228 170.543285 
L 307.336237 170.65933 
L 307.930195 172.787612 
L 308.524152 172.020294 
L 309.11811 174.035689 
L 309.712068 173.455463 
L 310.306025 172.302907 
L 310.899983 173.11838 
L 311.49394 172.632096 
L 312.087898 173.243898 
L 312.681855 172.896552 
L 313.275813 172.828662 
L 313.869771 173.749918 
L 314.463728 172.160811 
L 315.057686 172.642358 
L 315.651643 172.377902 
L 316.245601 172.388954 
L 316.839559 172.996809 
L 318.027474 171.316129 
L 318.621431 171.955561 
L 319.215389 171.652423 
L 320.403304 169.562822 
L 320.997262 170.910366 
L 321.591219 171.044568 
L 322.185177 171.543483 
L 323.373092 174.967207 
L 324.561007 174.866161 
L 325.154965 174.391718 
L 325.748923 175.264819 
L 326.34288 174.442241 
L 326.936838 175.616112 
L 327.530795 175.624006 
L 328.124753 174.716171 
L 328.718711 175.118776 
L 329.312668 176.38422 
L 329.906626 176.859452 
L 330.500583 175.968984 
L 331.094541 174.407506 
L 331.688498 173.399414 
L 332.282456 173.790178 
L 332.876414 175.16772 
L 334.064329 173.20048 
L 334.658286 174.379087 
L 335.252244 173.990692 
L 335.846202 174.451714 
L 336.440159 174.149365 
L 337.628074 174.615125 
L 338.222032 174.44303 
L 338.81599 174.028584 
L 339.409947 173.1318 
L 340.003905 173.189428 
L 340.597862 173.525722 
L 341.19182 173.296789 
L 341.785778 172.576047 
L 342.379735 171.180348 
L 342.973693 172.076343 
L 343.56765 168.950231 
L 344.161608 169.050487 
L 344.755566 170.219622 
L 345.349523 168.465525 
L 345.943481 170.737483 
L 347.131396 171.647686 
L 348.319311 170.626963 
L 349.507226 170.619859 
L 351.289099 173.755444 
L 351.883057 173.565982 
L 352.477014 174.175416 
L 353.070972 173.908592 
L 353.664929 173.518617 
L 354.258887 172.763929 
L 354.852845 172.894974 
L 355.446802 171.039042 
L 356.04076 170.533022 
L 356.634717 171.384809 
L 357.228675 173.190217 
L 357.822633 172.10713 
L 358.41659 173.318893 
L 359.604505 173.942537 
L 360.198463 172.948654 
L 360.792421 173.335471 
L 361.386378 171.789782 
L 361.980336 169.036278 
L 362.574293 169.81228 
L 363.762209 172.293434 
L 364.356166 172.444213 
L 364.950124 171.98477 
L 365.544081 170.857475 
L 366.138039 172.781297 
L 366.731997 173.284159 
L 367.325954 173.974114 
L 367.919912 172.414215 
L 368.513869 171.604268 
L 369.107827 171.597163 
L 369.701785 170.010425 
L 370.295742 171.031937 
L 370.8897 171.195347 
L 371.483657 171.762153 
L 372.077615 171.475592 
L 372.671572 171.676106 
L 373.26553 170.621438 
L 373.859488 171.698999 
L 374.453445 172.351062 
L 375.047403 171.242713 
L 375.64136 171.653212 
L 376.235318 170.649067 
L 376.829276 170.176993 
L 378.017191 170.930891 
L 378.611148 171.176401 
L 379.205106 173.029965 
L 379.799064 173.871489 
L 380.393021 172.140286 
L 380.986979 172.811295 
L 381.580936 172.645516 
L 382.174894 174.487238 
L 382.768852 173.510723 
L 383.362809 174.454082 
L 383.956767 173.357575 
L 384.550724 174.386192 
L 385.144682 172.671567 
L 385.73864 171.608215 
L 386.332597 171.212715 
L 386.926555 171.99819 
L 387.520512 173.156272 
L 388.11447 171.470856 
L 388.708428 170.660119 
L 389.302385 170.688538 
L 389.896343 172.739457 
L 390.4903 170.266987 
L 391.084258 172.264225 
L 391.678215 172.475001 
L 392.272173 174.663279 
L 392.866131 173.793336 
L 393.460088 173.697026 
L 394.054046 173.484672 
L 395.241961 174.589863 
L 395.835919 173.80202 
L 396.429876 173.32284 
L 397.023834 173.749128 
L 397.617791 173.168903 
L 398.211749 171.489013 
L 398.805707 173.929906 
L 399.993622 172.46316 
L 401.181537 172.262646 
L 401.775495 173.168114 
L 402.369452 173.134168 
L 402.96341 174.285146 
L 403.557367 173.954378 
L 404.151325 173.987534 
L 404.745283 173.708868 
L 405.33924 174.186468 
L 405.933198 175.639005 
L 406.527155 175.522171 
L 407.121113 176.133973 
L 408.309028 172.943128 
L 408.902986 172.921024 
L 409.496943 171.768468 
L 410.090901 172.049502 
L 410.684858 171.9974 
L 412.466731 175.592429 
L 413.060689 173.421518 
L 414.248604 172.008452 
L 414.842562 169.797281 
L 415.436519 169.187057 
L 416.030477 169.758599 
L 416.624434 171.441647 
L 417.218392 173.914118 
L 417.81235 173.600717 
L 418.406307 172.941549 
L 419.000265 171.717156 
L 419.594222 172.734721 
L 420.18818 172.279224 
L 420.782138 172.058186 
L 421.376095 174.002533 
L 421.970053 174.679857 
L 423.157968 173.087593 
L 423.751926 173.303894 
L 424.345883 173.370995 
L 424.939841 173.288895 
L 425.533798 173.455463 
L 426.721714 171.605847 
L 427.315671 169.925957 
L 427.909629 170.704327 
L 429.097544 173.962272 
L 429.691502 174.952208 
L 430.285459 175.149563 
L 430.879417 173.811493 
L 431.473374 173.66545 
L 432.067332 173.653608 
L 432.661289 173.074172 
L 433.255247 172.227912 
L 433.849205 172.398427 
L 434.443162 171.36981 
L 435.03712 172.350272 
L 435.631077 172.063712 
L 436.225035 173.344155 
L 436.818993 172.218439 
L 437.41295 173.781495 
L 438.006908 173.903066 
L 438.600865 174.395665 
L 439.194823 173.224163 
L 439.788781 171.269553 
L 440.382738 171.60111 
L 440.976696 171.553745 
L 441.570653 173.120748 
L 442.164611 173.052858 
L 442.758569 172.732353 
L 443.352526 173.600717 
L 443.946484 173.816229 
L 445.134399 175.162194 
L 445.728357 175.145616 
L 446.322314 173.731761 
L 446.916272 174.119367 
L 447.510229 172.999967 
L 448.104187 174.59381 
L 448.698145 173.057594 
L 449.292102 173.03628 
L 449.88606 173.959904 
L 450.480017 173.290474 
L 451.073975 170.992466 
L 451.667932 171.781888 
L 452.26189 170.966415 
L 453.449805 173.783863 
L 454.043763 174.019111 
L 455.231678 173.113643 
L 455.825636 171.120352 
L 456.419593 170.879579 
L 457.013551 169.537561 
L 457.607508 171.50638 
L 458.201466 169.941745 
L 458.795424 170.314352 
L 459.389381 170.437502 
L 459.983339 169.530456 
L 460.577296 169.682814 
L 461.171254 170.611175 
L 461.765212 170.796689 
L 462.359169 170.598544 
L 462.953127 172.208966 
L 463.547084 172.856292 
L 464.141042 171.785046 
L 464.735 171.60111 
L 465.328957 173.495724 
L 465.922915 173.164956 
L 466.516872 172.579994 
L 467.11083 172.536576 
L 467.704788 173.749128 
L 468.298745 173.484672 
L 469.48666 170.555126 
L 470.080618 170.485657 
L 470.674575 170.975099 
L 471.268533 171.691105 
L 471.862491 171.514274 
L 472.456448 171.702946 
L 473.050406 172.644727 
L 473.644363 172.427636 
L 474.238321 171.658738 
L 474.832279 171.977665 
L 475.426236 171.904249 
L 476.020194 171.965034 
L 476.614151 172.413426 
L 477.802067 169.466513 
L 478.396024 170.675908 
L 478.989982 170.53618 
L 479.583939 171.114037 
L 480.177897 170.98694 
L 480.771855 171.57427 
L 481.365812 170.667224 
L 481.95977 172.29896 
L 482.553727 172.504999 
L 483.147685 173.247056 
L 483.741643 173.461779 
L 484.3356 172.66683 
L 484.929558 172.306854 
L 485.523515 172.478159 
L 486.117473 173.087593 
L 486.711431 174.488817 
L 487.305388 174.308039 
L 489.087261 171.121931 
L 489.681218 170.849581 
L 490.275176 170.132785 
L 490.869134 170.362507 
L 491.463091 171.024043 
L 492.057049 171.97135 
L 492.651006 174.435926 
L 493.244964 173.797283 
L 493.838922 172.348693 
L 494.432879 173.998586 
L 495.026837 173.769653 
L 495.620794 172.793927 
L 496.214752 173.633083 
L 496.80871 173.560456 
L 497.402667 174.113841 
L 497.996625 174.381456 
L 498.590582 174.059371 
L 499.18454 174.590652 
L 499.778498 174.529867 
L 500.372455 175.064306 
L 500.966413 175.863201 
L 501.56037 176.341591 
L 502.154328 173.669397 
L 502.748286 173.306262 
L 503.342243 172.399216 
L 503.936201 171.816623 
L 506.312031 173.937011 
L 506.905989 173.550194 
L 507.499946 173.478357 
L 508.093904 172.606045 
L 508.687861 172.362903 
L 509.875777 171.190611 
L 510.469734 172.06608 
L 511.063692 170.168309 
L 512.251607 172.459212 
L 512.845565 172.287118 
L 513.439522 172.534208 
L 514.03348 173.319683 
L 514.627437 175.101409 
L 515.221395 175.649268 
L 516.40931 171.411649 
L 517.003268 171.515853 
L 517.597225 173.448358 
L 518.785141 173.243898 
L 519.379098 173.92438 
L 519.973056 173.228899 
L 520.567013 173.511512 
L 521.160971 173.371785 
L 521.754929 173.877015 
L 522.348886 175.182719 
L 522.942844 175.076937 
L 523.536801 173.412045 
L 524.130759 173.974903 
L 524.724717 175.431387 
L 525.318674 175.452702 
L 525.912632 174.625387 
L 526.506589 173.18706 
L 527.100547 173.920433 
L 527.694505 173.393099 
L 528.288462 174.11542 
L 528.88242 174.514868 
L 529.476377 173.52809 
L 530.070335 173.955957 
L 530.664292 173.796494 
L 531.25825 172.458423 
L 531.852208 172.583941 
L 532.446165 173.13259 
L 533.040123 171.489013 
L 533.63408 173.363101 
L 534.228038 172.035293 
L 534.821996 172.501052 
L 535.415953 172.091342 
L 536.009911 172.03845 
L 536.603868 171.553745 
L 537.197826 172.977073 
L 537.791784 172.659726 
L 538.385741 171.143246 
L 538.979699 170.896156 
L 539.573656 170.33093 
L 540.167614 171.362705 
L 540.761572 173.607822 
L 541.355529 174.6617 
L 541.949487 174.260674 
L 542.543444 174.383824 
L 543.73136 171.75268 
L 544.325317 170.161204 
L 544.919275 170.971152 
L 545.513232 171.379283 
L 546.10719 171.318497 
L 546.701148 172.55868 
L 547.295105 172.862607 
L 547.889063 175.146406 
L 549.076978 175.056412 
L 549.670935 173.925959 
L 550.264893 174.883528 
L 550.858851 175.624796 
L 551.452808 175.808731 
L 552.046766 174.739853 
L 552.640723 173.962272 
L 553.234681 175.694265 
L 553.828639 173.80123 
L 554.422596 175.294817 
L 555.016554 175.558484 
L 555.610511 174.368035 
L 556.204469 175.178772 
L 556.798427 175.422703 
L 557.392384 174.324617 
L 557.986342 173.736498 
L 558.580299 173.808335 
L 559.174257 172.658147 
L 560.362172 171.931878 
L 560.95613 172.078711 
L 561.550087 171.741628 
L 562.144045 172.969179 
L 562.738003 172.87208 
L 563.33196 172.413426 
L 563.925918 171.339812 
L 564.519875 173.116012 
L 565.707791 173.861226 
L 566.301748 172.842082 
L 566.895706 173.238372 
L 567.489663 172.486053 
L 568.083621 171.969771 
L 568.677578 172.341589 
L 569.271536 172.851555 
L 569.865494 172.481316 
L 571.647366 170.817214 
L 572.241324 172.688145 
L 572.835282 174.004112 
L 573.429239 174.631702 
L 574.023197 173.098644 
L 574.617154 173.06312 
L 575.211112 173.401783 
L 575.80507 174.249622 
L 576.399027 173.704921 
L 576.992985 173.478357 
L 577.586942 174.002533 
L 578.1809 174.854319 
L 578.774858 174.283567 
L 579.368815 172.793138 
L 579.962773 172.921024 
L 580.55673 172.174231 
L 581.150688 173.503618 
L 581.744646 173.411256 
L 582.338603 173.02286 
L 582.932561 172.946286 
L 583.526518 174.152523 
L 584.120476 174.79827 
L 584.714434 176.281595 
L 585.308391 175.792942 
L 585.902349 175.872674 
L 586.496306 175.071411 
L 587.090264 176.075556 
L 587.684221 174.540919 
L 588.278179 175.994245 
L 589.466094 173.372574 
L 590.654009 171.039042 
L 591.247967 170.779322 
L 591.841925 171.324813 
L 592.435882 172.141075 
L 593.02984 172.127655 
L 593.623797 170.608017 
L 594.217755 171.653212 
L 594.811713 172.345536 
L 595.40567 172.44895 
L 595.999628 172.69446 
L 596.593585 172.730774 
L 597.187543 171.199295 
L 597.781501 170.353034 
L 598.375458 171.556113 
L 598.969416 169.766493 
L 599.563373 172.231069 
L 600.157331 171.373757 
L 600.751289 171.955561 
L 601.345246 172.111077 
L 601.939204 172.778928 
L 602.533161 173.05049 
L 603.127119 173.817808 
L 603.721077 173.007861 
L 604.315034 172.482895 
L 604.908992 172.204229 
L 605.502949 171.61611 
L 606.096907 171.840305 
L 606.690865 171.602689 
L 607.284822 170.296196 
L 607.87878 168.716562 
L 608.472737 171.035095 
L 609.066695 170.310405 
L 609.660652 170.377506 
L 610.25461 169.700971 
L 610.848568 169.783861 
L 611.442525 171.4377 
L 612.036483 171.651634 
L 612.63044 171.680842 
L 613.224398 171.457436 
L 613.818356 171.108511 
L 615.006271 172.401585 
L 615.600228 171.462962 
L 616.788144 171.762153 
L 617.382101 172.370797 
L 617.976059 172.554733 
L 618.570016 175.150353 
L 619.163974 174.800639 
L 619.757932 175.575062 
L 620.351889 172.581573 
L 620.945847 173.809124 
L 621.539804 173.607032 
L 622.133762 172.866554 
L 622.72772 171.812676 
L 623.321677 173.266002 
L 623.915635 174.390929 
L 624.509592 175.190613 
L 625.10355 174.926946 
L 626.291465 173.17285 
L 626.885423 171.193769 
L 627.47938 172.478159 
L 628.073338 172.054239 
L 628.667295 172.288697 
L 629.261253 171.965824 
L 630.449168 174.083843 
L 631.043126 172.497105 
L 632.231041 175.251399 
L 632.824999 176.184496 
L 633.418956 174.753273 
L 634.012914 174.33488 
L 634.606871 174.439083 
L 635.794787 171.866356 
L 636.388744 172.677882 
L 636.982702 172.021083 
L 638.170617 171.885302 
L 638.764575 172.864975 
L 639.358532 170.750113 
L 639.95249 170.840897 
L 640.546447 171.708472 
L 641.140405 170.882736 
L 641.734363 171.722682 
L 642.32832 173.147589 
L 642.922278 172.734721 
L 643.516235 173.494934 
L 644.110193 172.401585 
L 644.704151 172.17502 
L 645.892066 172.381849 
L 646.486023 172.280803 
L 647.079981 171.822149 
L 647.673938 172.338431 
L 648.267896 173.296 
L 648.861854 172.73551 
L 649.455811 172.015557 
L 650.049769 172.171073 
L 650.643726 172.771034 
L 651.237684 172.331326 
L 651.831642 172.096078 
L 652.425599 172.795506 
L 653.019557 173.750707 
L 653.613514 173.576245 
L 654.207472 172.944707 
L 655.395387 173.768864 
L 655.989345 173.753865 
L 656.583302 174.076739 
L 657.17726 172.316327 
L 657.771218 172.186072 
L 658.365175 172.20265 
L 658.959133 172.832609 
L 659.55309 173.142063 
L 660.147048 171.986349 
L 660.741006 172.460002 
L 661.334963 171.002728 
L 662.522878 173.512302 
L 663.116836 173.779916 
L 663.710794 174.668805 
L 664.304751 172.946286 
L 664.898709 173.563614 
L 665.492666 171.570323 
L 666.086624 172.660515 
L 666.680581 173.209164 
L 667.274539 173.462568 
L 667.868497 171.689526 
L 668.462454 173.22732 
L 669.056412 173.862016 
L 669.650369 171.995032 
L 670.244327 171.368231 
L 670.838285 171.794519 
L 671.432242 173.136537 
L 672.0262 173.244688 
L 672.620157 175.251399 
L 673.214115 174.542498 
L 673.808073 173.604664 
L 674.40203 172.16239 
L 675.589945 173.724656 
L 676.183903 173.522564 
L 676.777861 173.903855 
L 677.371818 173.851753 
L 677.371818 173.851753 
" clip-path="url(#p1126e8ba90)" style="fill: none; stroke: #1f77b4; stroke-width: 1.5; stroke-linecap: square"/>
   </g>
   <g id="line2d_34">
    <path d="M 84.008182 33.39933 
L 84.602139 60.687288 
L 85.196097 80.575202 
L 85.790055 95.503966 
L 86.384012 106.951378 
L 86.97797 115.877375 
L 87.571927 122.939546 
L 88.759843 133.203614 
L 89.947758 140.164739 
L 91.135673 145.174412 
L 92.323588 149.011794 
L 93.511503 152.128433 
L 95.293376 155.98476 
L 97.075249 159.214286 
L 98.857122 161.984369 
L 100.638994 164.347899 
L 102.420867 166.323823 
L 104.20274 167.929508 
L 105.984613 169.193373 
L 107.766486 170.1541 
L 109.548358 170.860632 
L 111.330231 171.360337 
L 113.706062 171.788204 
L 116.675849 172.069238 
L 120.833553 172.217649 
L 130.930832 172.27133 
L 224.776132 172.28554 
L 677.371818 172.28554 
L 677.371818 172.28554 
" clip-path="url(#p1126e8ba90)" style="fill: none; stroke: #ff7f0e; stroke-width: 1.5; stroke-linecap: square"/>
   </g>
   <g id="line2d_35">
    <path d="M 84.008182 189.634672 
L 85.196097 198.398837 
L 85.790055 202.273322 
L 86.384012 204.086624 
L 86.97797 206.778554 
L 87.571927 208.745005 
L 88.759843 210.934862 
L 89.3538 213.323654 
L 89.947758 213.617319 
L 90.541715 214.349113 
L 91.135673 215.429043 
L 91.729631 216.759219 
L 92.323588 217.655214 
L 92.917546 217.328393 
L 93.511503 218.922236 
L 94.105461 219.20406 
L 94.699419 219.863227 
L 95.293376 220.928158 
L 95.887334 221.519435 
L 96.481291 221.646532 
L 97.669206 224.793959 
L 98.263164 224.500294 
L 100.045037 225.377342 
L 100.638994 225.181565 
L 101.232952 226.11782 
L 101.82691 226.207814 
L 102.420867 225.835996 
L 103.014825 227.181961 
L 103.608782 226.078349 
L 104.20274 227.64772 
L 104.796698 228.688968 
L 105.390655 227.14249 
L 106.57857 228.711861 
L 107.172528 228.976318 
L 107.766486 229.539176 
L 108.360443 228.659759 
L 108.954401 229.564437 
L 109.548358 228.614762 
L 110.142316 229.393133 
L 110.736274 230.466747 
L 111.330231 230.383857 
L 112.518146 231.280641 
L 113.112104 232.725284 
L 113.706062 232.207423 
L 114.300019 231.507205 
L 114.893977 232.230316 
L 115.487934 231.626408 
L 116.081892 231.728243 
L 116.675849 231.548255 
L 117.269807 230.781726 
L 117.863765 231.293272 
L 118.457722 231.388002 
L 119.05168 231.920073 
L 119.645637 233.038684 
L 120.239595 233.554177 
L 120.833553 232.340046 
L 121.42751 232.902904 
L 122.021468 233.198937 
L 122.615425 232.688181 
L 123.209383 233.09868 
L 123.803341 232.818436 
L 124.991256 232.737125 
L 125.585213 231.743242 
L 126.179171 231.571148 
L 126.773129 232.062169 
L 127.961044 231.039078 
L 128.555001 230.313599 
L 129.742917 232.572136 
L 130.930832 231.163807 
L 131.524789 231.991121 
L 132.118747 231.342216 
L 132.712705 231.044604 
L 133.306662 231.561675 
L 133.90062 231.611409 
L 134.494577 231.14486 
L 135.088535 230.000198 
L 136.870408 230.637262 
L 137.464365 231.372214 
L 138.058323 230.486482 
L 139.246238 230.716204 
L 139.840196 231.365109 
L 140.434153 231.246696 
L 141.028111 231.953229 
L 141.622068 231.807186 
L 142.216026 231.535624 
L 142.809984 231.80087 
L 143.403941 231.387213 
L 143.997899 230.777779 
L 144.591856 229.559701 
L 145.185814 229.390764 
L 145.779772 229.828894 
L 146.373729 229.31498 
L 147.561644 230.198343 
L 148.155602 229.843893 
L 148.74956 231.205646 
L 149.343517 231.805607 
L 149.937475 229.953622 
L 150.531432 229.413658 
L 151.12539 229.125518 
L 151.719348 229.802053 
L 152.313305 230.854353 
L 152.907263 232.382674 
L 153.50122 232.680287 
L 154.095178 232.190055 
L 154.689135 231.44642 
L 155.283093 231.872708 
L 155.877051 231.795344 
L 156.471008 232.377938 
L 157.064966 231.061182 
L 158.252881 230.35307 
L 158.846839 230.884351 
L 159.440796 231.142492 
L 160.034754 232.5524 
L 160.628711 231.593252 
L 161.222669 231.288535 
L 161.816627 229.769687 
L 162.410584 229.685219 
L 163.004542 229.402606 
L 163.598499 230.030196 
L 164.192457 230.457274 
L 164.786415 230.587528 
L 165.380372 231.425105 
L 165.97433 230.678312 
L 166.568287 231.032762 
L 167.162245 230.894614 
L 167.756203 230.609632 
L 168.35016 231.428263 
L 168.944118 231.026447 
L 169.538075 230.851985 
L 170.132033 229.674956 
L 170.725991 229.818631 
L 171.319948 229.341031 
L 171.913906 230.669628 
L 172.507863 230.1344 
L 173.101821 230.733571 
L 173.695779 229.932308 
L 174.883694 230.477799 
L 175.477651 231.376951 
L 176.071609 231.783503 
L 176.665566 232.551611 
L 177.259524 233.616541 
L 177.853482 231.730612 
L 178.447439 231.232486 
L 179.041397 230.881193 
L 179.635354 230.233867 
L 180.229312 231.26801 
L 180.82327 231.626408 
L 181.417227 231.423526 
L 182.011185 230.36728 
L 182.605142 229.837577 
L 183.1991 228.995264 
L 183.793058 228.697652 
L 184.387015 228.919479 
L 184.980973 229.440498 
L 185.57493 229.443656 
L 186.168888 230.616737 
L 186.762846 230.206237 
L 187.356803 230.398067 
L 187.950761 230.349912 
L 188.544718 232.12927 
L 189.138676 231.306692 
L 189.732634 230.924612 
L 190.920549 231.912179 
L 191.514506 232.599766 
L 192.108464 232.638447 
L 193.296379 231.411685 
L 193.890337 230.59858 
L 194.484294 230.825934 
L 195.078252 231.22775 
L 195.672209 230.269391 
L 196.860125 229.5747 
L 198.04804 230.278864 
L 198.641997 230.136768 
L 199.829913 230.206237 
L 200.42387 230.046774 
L 201.017828 231.538782 
L 201.611785 231.704561 
L 202.799701 233.262091 
L 203.393658 234.402806 
L 203.987616 234.375176 
L 204.581573 233.467341 
L 205.175531 233.123942 
L 205.769489 232.4703 
L 206.363446 232.005331 
L 206.957404 231.010659 
L 207.551361 230.833039 
L 208.145319 230.012829 
L 208.739277 230.836986 
L 209.333234 231.117231 
L 209.927192 231.17249 
L 210.521149 232.322678 
L 211.115107 232.367675 
L 211.709065 233.274722 
L 212.303022 232.983425 
L 212.89698 232.942375 
L 213.490937 233.6047 
L 214.084895 231.874287 
L 215.27281 231.286167 
L 215.866768 231.89639 
L 216.460725 232.906851 
L 217.054683 232.677918 
L 218.242598 232.53898 
L 219.430513 230.706731 
L 220.024471 230.360964 
L 220.618428 230.833828 
L 221.212386 230.001777 
L 221.806344 230.36728 
L 222.400301 230.400435 
L 222.994259 229.931518 
L 223.588216 229.737321 
L 224.182174 228.944741 
L 224.776132 227.903493 
L 225.964047 230.118612 
L 226.558004 230.578055 
L 227.151962 230.40754 
L 227.74592 230.460431 
L 228.339877 230.753307 
L 228.933835 230.094929 
L 229.527792 229.025262 
L 230.12175 229.641801 
L 230.715708 229.999409 
L 231.309665 230.139926 
L 231.903623 229.947307 
L 232.49758 230.301758 
L 233.091538 231.288535 
L 234.279453 231.040657 
L 234.873411 231.199331 
L 235.467368 231.097495 
L 236.061326 231.462998 
L 236.655283 230.902508 
L 237.249241 231.589305 
L 237.843199 231.258537 
L 238.437156 230.560688 
L 239.031114 230.204659 
L 239.625071 230.706731 
L 240.219029 230.548057 
L 240.812987 230.638051 
L 241.406944 230.464378 
L 242.000902 229.284192 
L 242.594859 229.383659 
L 243.188817 229.236038 
L 243.782775 229.586541 
L 244.376732 230.174661 
L 244.97069 231.166964 
L 245.564647 231.733769 
L 246.158605 230.942768 
L 246.752563 231.822974 
L 247.34652 231.378529 
L 247.940478 231.20012 
L 249.128393 231.769293 
L 249.722351 232.027434 
L 250.910266 231.972964 
L 251.504223 231.023289 
L 252.098181 232.10243 
L 252.692139 231.451946 
L 253.880054 231.799291 
L 254.474011 231.493785 
L 255.067969 230.938821 
L 255.661926 231.58299 
L 256.255884 232.572925 
L 256.849842 232.475826 
L 257.443799 232.52477 
L 258.631714 233.142099 
L 259.225672 232.300575 
L 259.81963 233.213936 
L 260.413587 232.570557 
L 262.19546 232.03375 
L 262.789418 232.17032 
L 263.383375 231.335111 
L 263.977333 230.962504 
L 264.57129 229.858892 
L 265.165248 229.681272 
L 266.353163 231.045393 
L 267.541078 231.369846 
L 268.135036 230.915139 
L 268.728994 232.253209 
L 269.322951 231.004343 
L 269.916909 230.323861 
L 270.510866 230.993291 
L 271.104824 231.287746 
L 271.698782 230.777779 
L 272.886697 230.688574 
L 273.480654 231.482733 
L 274.074612 230.201501 
L 274.668569 229.350504 
L 275.262527 229.528124 
L 275.856485 229.516282 
L 276.450442 229.832051 
L 277.638357 229.358398 
L 278.232315 228.91869 
L 278.826273 228.977107 
L 279.42023 229.449971 
L 280.014188 227.93428 
L 280.608145 227.751924 
L 281.202103 227.928754 
L 281.796061 228.640024 
L 282.983976 230.263076 
L 283.577933 229.672588 
L 284.171891 230.618316 
L 284.765849 230.442275 
L 285.359806 230.834618 
L 285.953764 231.766136 
L 286.547721 230.675154 
L 287.141679 231.512731 
L 287.735637 231.71877 
L 288.923552 229.844682 
L 289.517509 229.495757 
L 290.111467 229.854945 
L 290.705425 230.002566 
L 291.299382 229.900731 
L 292.487297 231.275905 
L 293.081255 231.736927 
L 293.675212 231.389581 
L 294.26917 231.619303 
L 294.863128 230.766727 
L 295.457085 228.846063 
L 296.051043 228.677127 
L 296.645 228.705546 
L 297.832916 230.315178 
L 298.426873 230.409908 
L 299.020831 231.142492 
L 299.614788 230.219658 
L 300.208746 230.54411 
L 300.802704 230.515691 
L 301.396661 229.458655 
L 301.990619 230.672786 
L 302.584576 231.192226 
L 303.178534 231.027237 
L 303.772492 231.242749 
L 304.960407 230.856721 
L 305.554364 230.171503 
L 306.148322 230.338071 
L 306.74228 229.729426 
L 307.336237 229.809947 
L 307.930195 231.590095 
L 308.524152 230.368069 
L 309.11811 231.436947 
L 310.899983 232.411094 
L 311.49394 232.328204 
L 312.087898 232.404778 
L 312.681855 231.219066 
L 313.275813 231.137756 
L 313.869771 231.839552 
L 314.463728 229.982831 
L 315.057686 230.90014 
L 315.651643 230.358596 
L 316.245601 230.210974 
L 316.839559 230.615158 
L 317.433516 229.892047 
L 318.027474 229.79258 
L 318.621431 230.664102 
L 319.215389 231.946913 
L 320.403304 229.146043 
L 320.997262 230.199922 
L 321.591219 229.926782 
L 322.779135 232.077958 
L 323.96705 232.275313 
L 324.561007 232.603713 
L 325.154965 232.436355 
L 325.748923 232.897378 
L 326.34288 232.355834 
L 326.936838 232.579241 
L 327.530795 231.917705 
L 328.124753 232.040855 
L 328.718711 231.574306 
L 329.312668 232.41583 
L 329.906626 232.647131 
L 330.500583 232.467932 
L 331.094541 232.029013 
L 331.688498 230.184134 
L 332.876414 231.319323 
L 333.470371 231.286167 
L 334.064329 231.457472 
L 334.658286 232.646342 
L 335.252244 231.628776 
L 335.846202 232.017961 
L 336.440159 231.369056 
L 337.034117 230.510165 
L 337.628074 230.930138 
L 338.222032 230.788042 
L 338.81599 231.579832 
L 339.409947 231.848236 
L 340.003905 231.04934 
L 341.19182 231.200909 
L 341.785778 230.896192 
L 342.379735 230.293863 
L 342.973693 231.613777 
L 343.56765 230.086245 
L 344.161608 230.176239 
L 344.755566 230.675154 
L 345.349523 229.648905 
L 345.943481 230.511744 
L 346.537438 230.728046 
L 347.131396 231.290904 
L 347.725354 231.287746 
L 348.319311 229.798106 
L 348.913269 229.605487 
L 349.507226 229.786265 
L 350.695142 230.612 
L 351.289099 231.476418 
L 351.883057 231.669037 
L 352.477014 231.686404 
L 353.070972 232.011646 
L 353.664929 232.077168 
L 354.258887 231.898759 
L 354.852845 232.64871 
L 356.634717 230.74857 
L 357.228675 231.24117 
L 357.822633 231.579043 
L 358.41659 232.550821 
L 359.010548 231.889286 
L 359.604505 232.885536 
L 360.198463 232.323468 
L 361.386378 231.544308 
L 361.980336 230.124138 
L 362.574293 229.918888 
L 363.762209 229.932308 
L 364.356166 229.572331 
L 365.544081 227.796131 
L 366.138039 228.404776 
L 366.731997 229.210776 
L 367.325954 229.66943 
L 367.919912 229.917309 
L 368.513869 229.276298 
L 369.107827 229.652063 
L 369.701785 229.004737 
L 370.295742 229.420762 
L 370.8897 229.679693 
L 371.483657 230.224394 
L 372.077615 230.529901 
L 372.671572 230.424118 
L 373.26553 229.614171 
L 373.859488 230.888298 
L 374.453445 230.59858 
L 375.047403 230.105191 
L 375.64136 230.77699 
L 376.235318 230.656998 
L 376.829276 230.906455 
L 377.423233 230.522006 
L 378.017191 231.370635 
L 378.611148 231.018553 
L 379.205106 231.151176 
L 379.799064 230.94119 
L 380.393021 230.593844 
L 380.986979 231.215908 
L 381.580936 230.049932 
L 382.174894 231.080917 
L 382.768852 229.516282 
L 383.362809 230.229131 
L 383.956767 230.098087 
L 384.550724 230.482535 
L 385.144682 229.832051 
L 386.332597 229.511546 
L 386.926555 230.676733 
L 387.520512 231.127493 
L 388.11447 231.193805 
L 388.708428 230.091771 
L 389.302385 230.290706 
L 389.896343 232.149795 
L 390.4903 231.597199 
L 391.678215 231.565622 
L 392.272173 232.868959 
L 392.866131 231.182753 
L 393.460088 230.642788 
L 394.054046 230.395699 
L 394.648003 230.709889 
L 395.241961 232.257156 
L 395.835919 231.327217 
L 396.429876 231.952439 
L 397.617791 231.264063 
L 398.211749 230.714625 
L 398.805707 232.404778 
L 399.399664 232.53977 
L 399.993622 231.762978 
L 401.181537 231.691141 
L 401.775495 230.935664 
L 402.369452 231.812712 
L 402.96341 232.242157 
L 403.557367 232.346361 
L 404.151325 232.051907 
L 404.745283 231.398265 
L 405.33924 231.93744 
L 405.933198 232.049538 
L 406.527155 231.726665 
L 407.121113 232.478984 
L 407.715071 231.292482 
L 408.309028 230.918296 
L 408.902986 230.957767 
L 409.496943 231.535624 
L 410.090901 231.291693 
L 411.278816 231.975333 
L 411.872774 232.192424 
L 412.466731 233.270774 
L 413.060689 232.100061 
L 413.654646 231.360373 
L 414.248604 231.628776 
L 414.842562 229.920467 
L 415.436519 229.051313 
L 416.030477 229.317348 
L 416.624434 229.276298 
L 417.218392 231.099074 
L 417.81235 231.619303 
L 418.406307 231.406159 
L 419.000265 231.32327 
L 419.594222 232.099272 
L 420.18818 231.725875 
L 420.782138 232.037697 
L 421.376095 231.95165 
L 421.970053 232.287944 
L 422.56401 231.864814 
L 423.157968 230.707521 
L 423.751926 231.078549 
L 424.345883 230.458063 
L 424.939841 230.178608 
L 425.533798 230.952241 
L 426.127756 230.728046 
L 426.721714 230.144662 
L 427.315671 229.200514 
L 427.909629 230.484114 
L 428.503586 231.494574 
L 429.097544 232.239 
L 429.691502 232.300575 
L 430.285459 233.465762 
L 431.473374 231.81429 
L 432.067332 231.485101 
L 432.661289 230.63963 
L 433.255247 230.990923 
L 433.849205 230.742255 
L 434.443162 230.900929 
L 435.03712 230.514902 
L 435.631077 230.908034 
L 436.818993 229.828894 
L 437.41295 230.582792 
L 438.600865 230.746202 
L 439.194823 230.2986 
L 439.788781 229.395501 
L 440.382738 229.113677 
L 440.976696 229.461023 
L 441.570653 228.977107 
L 442.164611 229.633906 
L 442.758569 228.516084 
L 443.352526 229.398658 
L 443.946484 229.325242 
L 445.728357 230.758833 
L 446.322314 230.267812 
L 447.510229 229.7239 
L 448.104187 231.161438 
L 448.698145 230.945137 
L 449.292102 230.486482 
L 449.88606 230.73515 
L 451.073975 229.213144 
L 451.667932 229.043418 
L 452.26189 228.219262 
L 452.855848 230.031775 
L 453.449805 230.757254 
L 454.043763 231.040657 
L 454.63772 231.080917 
L 455.231678 231.682457 
L 455.825636 230.703573 
L 456.419593 229.475232 
L 457.013551 228.931321 
L 457.607508 229.936255 
L 458.201466 229.420762 
L 458.795424 229.672588 
L 459.389381 230.346755 
L 459.983339 230.515691 
L 460.577296 230.185712 
L 461.171254 230.795146 
L 461.765212 230.904876 
L 462.359169 230.397278 
L 462.953127 231.218277 
L 463.547084 230.506218 
L 464.141042 229.976516 
L 464.735 229.958359 
L 465.328957 230.422539 
L 465.922915 230.295442 
L 466.516872 229.906257 
L 467.11083 230.493587 
L 467.704788 231.26801 
L 468.298745 231.288535 
L 468.892703 230.122559 
L 469.48666 228.580028 
L 470.080618 229.748373 
L 470.674575 230.177029 
L 471.268533 231.286956 
L 471.862491 230.959346 
L 473.644363 231.837973 
L 474.238321 230.893035 
L 474.832279 231.00908 
L 475.426236 230.169135 
L 476.020194 230.603317 
L 476.614151 231.585358 
L 477.208109 230.296232 
L 477.802067 229.387607 
L 478.396024 229.250247 
L 478.989982 230.10677 
L 479.583939 230.329387 
L 480.177897 229.858102 
L 480.771855 230.431223 
L 481.365812 229.621276 
L 481.95977 230.956978 
L 482.553727 230.90014 
L 483.147685 230.68068 
L 483.741643 231.60983 
L 484.3356 231.778766 
L 484.929558 231.269589 
L 485.523515 229.840735 
L 486.117473 230.057826 
L 486.711431 231.299587 
L 487.305388 231.957176 
L 487.899346 231.36432 
L 488.493303 232.075589 
L 489.087261 231.165385 
L 489.681218 230.738308 
L 490.275176 229.947307 
L 490.869134 230.032565 
L 491.463091 229.759424 
L 492.057049 230.263865 
L 492.651006 231.767715 
L 493.244964 229.962306 
L 493.838922 228.928952 
L 495.026837 230.906455 
L 495.620794 230.521217 
L 496.214752 232.408725 
L 496.80871 232.326626 
L 497.402667 231.961123 
L 497.996625 230.918296 
L 498.590582 230.302547 
L 499.18454 230.265444 
L 499.778498 231.756663 
L 500.372455 231.046183 
L 501.56037 231.547466 
L 502.154328 230.718572 
L 502.748286 230.2165 
L 503.342243 230.060984 
L 503.936201 230.314388 
L 504.530158 231.021711 
L 505.124116 231.137756 
L 505.718074 231.63667 
L 506.312031 230.921454 
L 506.905989 230.495955 
L 508.093904 230.430433 
L 508.687861 229.877838 
L 509.281819 229.663904 
L 509.875777 229.638643 
L 510.469734 229.87547 
L 511.063692 228.310045 
L 511.657649 229.161832 
L 512.251607 231.165385 
L 512.845565 232.099272 
L 513.439522 232.559505 
L 514.03348 233.306298 
L 514.627437 233.787846 
L 515.221395 233.830475 
L 515.815353 233.407345 
L 516.40931 232.250052 
L 517.003268 231.504837 
L 517.597225 231.699824 
L 518.191183 231.429842 
L 518.785141 231.557728 
L 519.379098 231.402212 
L 519.973056 231.453525 
L 521.160971 231.973754 
L 521.754929 231.936651 
L 522.348886 231.479575 
L 522.942844 231.795344 
L 523.536801 230.83067 
L 524.130759 231.751926 
L 524.724717 232.437934 
L 525.318674 232.426093 
L 525.912632 231.530888 
L 526.506589 231.400633 
L 527.100547 231.771662 
L 527.694505 231.58299 
L 528.288462 232.487668 
L 528.88242 232.801858 
L 529.476377 231.494574 
L 530.070335 232.82554 
L 531.25825 232.370044 
L 531.852208 231.654038 
L 532.446165 232.054275 
L 533.040123 231.772451 
L 533.63408 231.703771 
L 534.228038 229.965464 
L 534.821996 230.094139 
L 535.415953 229.454707 
L 536.009911 229.692324 
L 536.603868 229.487863 
L 537.791784 231.121178 
L 538.385741 229.865996 
L 538.979699 230.259918 
L 539.573656 230.451748 
L 540.167614 230.902508 
L 540.761572 232.044012 
L 541.355529 233.695484 
L 541.949487 233.524179 
L 542.543444 233.666275 
L 543.137402 232.55319 
L 543.73136 230.846459 
L 544.325317 230.300968 
L 544.919275 230.368858 
L 545.513232 229.978094 
L 546.10719 230.274128 
L 546.701148 231.40458 
L 547.295105 231.660353 
L 547.889063 232.271366 
L 548.48302 232.209002 
L 549.076978 232.900535 
L 549.670935 231.942966 
L 550.264893 231.21354 
L 550.858851 232.127691 
L 551.452808 231.174858 
L 552.046766 230.719362 
L 552.640723 229.705744 
L 553.234681 230.603317 
L 553.828639 229.436551 
L 554.422596 231.232486 
L 555.016554 232.134006 
L 555.610511 231.586147 
L 556.798427 231.796134 
L 557.392384 231.332743 
L 558.580299 231.860077 
L 559.174257 231.507995 
L 559.768215 230.539374 
L 560.362172 230.205448 
L 560.95613 230.633315 
L 561.550087 230.527532 
L 562.144045 231.015395 
L 562.738003 231.25538 
L 563.33196 232.6345 
L 563.925918 232.291891 
L 564.519875 232.987372 
L 565.113833 234.030988 
L 565.707791 234.223607 
L 566.301748 233.132626 
L 566.895706 232.490036 
L 567.489663 232.086641 
L 568.083621 231.497732 
L 568.677578 231.10381 
L 569.271536 231.379319 
L 569.865494 229.580226 
L 570.459451 230.524375 
L 571.053409 230.911191 
L 571.647366 230.660155 
L 572.241324 231.54194 
L 572.835282 231.744821 
L 573.429239 232.372412 
L 574.023197 231.058813 
L 574.617154 231.033552 
L 575.211112 230.734361 
L 575.80507 231.40537 
L 576.399027 230.883562 
L 576.992985 231.013027 
L 577.586942 230.937242 
L 578.1809 231.655617 
L 578.774858 231.371425 
L 579.368815 231.587726 
L 579.962773 231.393528 
L 580.55673 231.546676 
L 581.150688 231.983227 
L 581.744646 231.496943 
L 582.338603 230.766727 
L 582.932561 230.89935 
L 583.526518 231.407738 
L 584.120476 232.166373 
L 584.714434 233.600753 
L 585.308391 232.479773 
L 585.902349 233.217883 
L 587.090264 232.805805 
L 587.684221 231.864024 
L 588.278179 232.467932 
L 588.872137 231.14565 
L 589.466094 231.1046 
L 590.060052 229.353661 
L 591.841925 229.755477 
L 592.435882 230.87251 
L 593.02984 231.266431 
L 593.623797 230.337282 
L 594.217755 230.739887 
L 594.811713 231.508784 
L 595.40567 231.695877 
L 595.999628 232.725284 
L 596.593585 232.997634 
L 597.187543 232.289523 
L 597.781501 230.992502 
L 598.375458 230.574898 
L 598.969416 229.973358 
L 599.563373 230.403593 
L 600.157331 229.92915 
L 600.751289 229.904678 
L 601.345246 230.770674 
L 601.939204 231.039867 
L 602.533161 230.613579 
L 603.127119 231.728243 
L 604.315034 231.891654 
L 604.908992 232.100061 
L 605.502949 231.526941 
L 606.690865 230.600949 
L 607.87878 227.658772 
L 608.472737 229.538386 
L 609.066695 229.201303 
L 609.660652 229.580226 
L 610.25461 229.728637 
L 610.848568 230.618316 
L 611.442525 230.633315 
L 612.036483 231.155912 
L 613.224398 229.854155 
L 613.818356 228.975528 
L 614.412313 229.803632 
L 615.006271 229.938623 
L 615.600228 229.933097 
L 616.788144 230.323861 
L 617.382101 231.286167 
L 617.976059 230.567793 
L 618.570016 231.903495 
L 619.163974 232.439513 
L 619.757932 231.904285 
L 620.351889 231.102232 
L 620.945847 232.174267 
L 621.539804 232.396095 
L 622.133762 232.816857 
L 622.72772 232.318731 
L 623.321677 232.182161 
L 623.915635 232.254788 
L 624.509592 232.804226 
L 625.10355 232.855538 
L 625.697508 232.464774 
L 626.291465 230.828302 
L 626.885423 230.050721 
L 627.47938 230.833828 
L 628.073338 231.958755 
L 628.667295 232.481352 
L 629.261253 232.313995 
L 629.855211 233.488655 
L 630.449168 234.318338 
L 631.043126 232.078747 
L 631.637083 231.849814 
L 632.824999 233.637856 
L 633.418956 232.556347 
L 634.012914 232.92185 
L 634.606871 233.801266 
L 635.200829 232.620291 
L 635.794787 230.994081 
L 636.388744 231.412475 
L 636.982702 231.482733 
L 637.576659 231.102232 
L 638.170617 231.624829 
L 638.764575 230.888298 
L 639.358532 229.671009 
L 639.95249 230.222815 
L 640.546447 230.289916 
L 641.140405 230.103613 
L 641.734363 231.581411 
L 642.32832 231.999805 
L 643.516235 231.586937 
L 644.110193 232.071642 
L 644.704151 231.150386 
L 645.298108 231.954808 
L 645.892066 231.780345 
L 646.486023 231.398265 
L 647.079981 230.591475 
L 647.673938 230.548847 
L 648.267896 231.762189 
L 649.455811 230.563846 
L 650.049769 231.043814 
L 650.643726 230.638051 
L 651.237684 230.813303 
L 652.425599 230.383857 
L 653.019557 230.33965 
L 653.613514 229.570753 
L 654.207472 228.499507 
L 654.80143 228.766331 
L 655.395387 228.540557 
L 655.989345 228.511348 
L 656.583302 229.468917 
L 657.17726 228.323465 
L 657.771218 227.515886 
L 658.365175 227.479573 
L 658.959133 227.605091 
L 659.55309 227.55141 
L 660.147048 226.229128 
L 660.741006 226.210972 
L 661.334963 224.726068 
L 661.928921 224.05427 
L 662.522878 224.999998 
L 663.710794 224.43714 
L 664.304751 223.416417 
L 664.898709 223.083281 
L 665.492666 221.925988 
L 666.086624 220.244518 
L 667.274539 219.05407 
L 667.868497 216.691329 
L 668.462454 216.986573 
L 669.056412 216.516867 
L 669.650369 214.959337 
L 670.244327 214.188861 
L 670.838285 213.730996 
L 671.432242 212.452132 
L 672.0262 210.100443 
L 672.620157 209.419171 
L 673.808073 204.812103 
L 674.40203 201.026824 
L 674.995988 198.060965 
L 675.589945 194.072803 
L 676.777861 181.593617 
L 677.371818 173.851753 
L 677.371818 173.851753 
" clip-path="url(#p1126e8ba90)" style="fill: none; stroke: #2ca02c; stroke-width: 1.5; stroke-linecap: square"/>
   </g>
   <g id="line2d_36">
    <path d="M 84.008182 187.597962 
L 85.196097 197.143656 
L 86.384012 203.842693 
L 87.571927 208.529493 
L 88.759843 211.868749 
L 89.947758 214.349903 
L 91.135673 216.310827 
L 92.917546 218.721723 
L 95.293376 221.45786 
L 97.669206 223.859283 
L 100.045037 225.905465 
L 101.82691 227.170909 
L 103.608782 228.196368 
L 105.390655 228.993685 
L 107.172528 229.589699 
L 109.548358 230.128085 
L 112.518146 230.507797 
L 116.081892 230.709099 
L 122.615425 230.799883 
L 156.471008 230.824355 
L 643.516235 230.724098 
L 647.673938 230.506218 
L 650.643726 230.133611 
L 653.019557 229.606277 
L 654.80143 229.024472 
L 656.583302 228.244523 
L 658.365175 227.239589 
L 660.147048 225.993091 
L 661.928921 224.50582 
L 664.304751 222.171498 
L 666.680581 219.437729 
L 668.462454 217.015782 
L 669.650369 215.080908 
L 670.838285 212.70001 
L 672.0262 209.599949 
L 673.214115 205.378119 
L 674.40203 199.47482 
L 675.589945 191.16773 
L 676.777861 179.593221 
L 677.371818 172.28554 
L 677.371818 172.28554 
" clip-path="url(#p1126e8ba90)" style="fill: none; stroke: #d62728; stroke-width: 1.5; stroke-linecap: square"/>
   </g>
   <g id="patch_3">
    <path d="M 54.34 386.44 
L 54.34 31.2 
" style="fill: none; stroke: #000000; stroke-width: 0.8; stroke-linejoin: miter; stroke-linecap: square"/>
   </g>
   <g id="patch_4">
    <path d="M 707.04 386.44 
L 707.04 31.2 
" style="fill: none; stroke: #000000; stroke-width: 0.8; stroke-linejoin: miter; stroke-linecap: square"/>
   </g>
   <g id="patch_5">
    <path d="M 54.34 386.44 
L 707.04 386.44 
" style="fill: none; stroke: #000000; stroke-width: 0.8; stroke-linejoin: miter; stroke-linecap: square"/>
   </g>
   <g id="patch_6">
    <path d="M 54.34 31.2 
L 707.04 31.2 
" style="fill: none; stroke: #000000; stroke-width: 0.8; stroke-linejoin: miter; stroke-linecap: square"/>
   </g>
   <g id="text_18">
    <!-- Comparison of sample RMS and estimated SD for $x_2$ -->
    <g transform="translate(192.842 25.2)scale(0.144 -0.144)">
     <defs>
      <path id="DejaVuSans-43" d="M 4122 4306 
L 4122 3641 
Q 3803 3938 3442 4084 
Q 3081 4231 2675 4231 
Q 1875 4231 1450 3742 
Q 1025 3253 1025 2328 
Q 1025 1406 1450 917 
Q 1875 428 2675 428 
Q 3081 428 3442 575 
Q 3803 722 4122 1019 
L 4122 359 
Q 3791 134 3420 21 
Q 3050 -91 2638 -91 
Q 1578 -91 968 557 
Q 359 1206 359 2328 
Q 359 3453 968 4101 
Q 1578 4750 2638 4750 
Q 3056 4750 3426 4639 
Q 3797 4528 4122 4306 
z
" transform="scale(0.015625)"/>
      <path id="DejaVuSans-6d" d="M 3328 2828 
Q 3544 3216 3844 3400 
Q 4144 3584 4550 3584 
Q 5097 3584 5394 3201 
Q 5691 2819 5691 2113 
L 5691 0 
L 5113 0 
L 5113 2094 
Q 5113 2597 4934 2840 
Q 4756 3084 4391 3084 
Q 3944 3084 3684 2787 
Q 3425 2491 3425 1978 
L 3425 0 
L 2847 0 
L 2847 2094 
Q 2847 2600 2669 2842 
Q 2491 3084 2119 3084 
Q 1678 3084 1418 2786 
Q 1159 2488 1159 1978 
L 1159 0 
L 581 0 
L 581 3500 
L 1159 3500 
L 1159 2956 
Q 1356 3278 1631 3431 
Q 1906 3584 2284 3584 
Q 2666 3584 2933 3390 
Q 3200 3197 3328 2828 
z
" transform="scale(0.015625)"/>
      <path id="DejaVuSans-61" d="M 2194 1759 
Q 1497 1759 1228 1600 
Q 959 1441 959 1056 
Q 959 750 1161 570 
Q 1363 391 1709 391 
Q 2188 391 2477 730 
Q 2766 1069 2766 1631 
L 2766 1759 
L 2194 1759 
z
M 3341 1997 
L 3341 0 
L 2766 0 
L 2766 531 
Q 2569 213 2275 61 
Q 1981 -91 1556 -91 
Q 1019 -91 701 211 
Q 384 513 384 1019 
Q 384 1609 779 1909 
Q 1175 2209 1959 2209 
L 2766 2209 
L 2766 2266 
Q 2766 2663 2505 2880 
Q 2244 3097 1772 3097 
Q 1472 3097 1187 3025 
Q 903 2953 641 2809 
L 641 3341 
Q 956 3463 1253 3523 
Q 1550 3584 1831 3584 
Q 2591 3584 2966 3190 
Q 3341 2797 3341 1997 
z
" transform="scale(0.015625)"/>
      <path id="DejaVuSans-72" d="M 2631 2963 
Q 2534 3019 2420 3045 
Q 2306 3072 2169 3072 
Q 1681 3072 1420 2755 
Q 1159 2438 1159 1844 
L 1159 0 
L 581 0 
L 581 3500 
L 1159 3500 
L 1159 2956 
Q 1341 3275 1631 3429 
Q 1922 3584 2338 3584 
Q 2397 3584 2469 3576 
Q 2541 3569 2628 3553 
L 2631 2963 
z
" transform="scale(0.015625)"/>
      <path id="DejaVuSans-69" d="M 603 3500 
L 1178 3500 
L 1178 0 
L 603 0 
L 603 3500 
z
M 603 4863 
L 1178 4863 
L 1178 4134 
L 603 4134 
L 603 4863 
z
" transform="scale(0.015625)"/>
      <path id="DejaVuSans-73" d="M 2834 3397 
L 2834 2853 
Q 2591 2978 2328 3040 
Q 2066 3103 1784 3103 
Q 1356 3103 1142 2972 
Q 928 2841 928 2578 
Q 928 2378 1081 2264 
Q 1234 2150 1697 2047 
L 1894 2003 
Q 2506 1872 2764 1633 
Q 3022 1394 3022 966 
Q 3022 478 2636 193 
Q 2250 -91 1575 -91 
Q 1294 -91 989 -36 
Q 684 19 347 128 
L 347 722 
Q 666 556 975 473 
Q 1284 391 1588 391 
Q 1994 391 2212 530 
Q 2431 669 2431 922 
Q 2431 1156 2273 1281 
Q 2116 1406 1581 1522 
L 1381 1569 
Q 847 1681 609 1914 
Q 372 2147 372 2553 
Q 372 3047 722 3315 
Q 1072 3584 1716 3584 
Q 2034 3584 2315 3537 
Q 2597 3491 2834 3397 
z
" transform="scale(0.015625)"/>
      <path id="DejaVuSans-6e" d="M 3513 2113 
L 3513 0 
L 2938 0 
L 2938 2094 
Q 2938 2591 2744 2837 
Q 2550 3084 2163 3084 
Q 1697 3084 1428 2787 
Q 1159 2491 1159 1978 
L 1159 0 
L 581 0 
L 581 3500 
L 1159 3500 
L 1159 2956 
Q 1366 3272 1645 3428 
Q 1925 3584 2291 3584 
Q 2894 3584 3203 3211 
Q 3513 2838 3513 2113 
z
" transform="scale(0.015625)"/>
      <path id="DejaVuSans-20" transform="scale(0.015625)"/>
      <path id="DejaVuSans-66" d="M 2375 4863 
L 2375 4384 
L 1825 4384 
Q 1516 4384 1395 4259 
Q 1275 4134 1275 3809 
L 1275 3500 
L 2222 3500 
L 2222 3053 
L 1275 3053 
L 1275 0 
L 697 0 
L 697 3053 
L 147 3053 
L 147 3500 
L 697 3500 
L 697 3744 
Q 697 4328 969 4595 
Q 1241 4863 1831 4863 
L 2375 4863 
z
" transform="scale(0.015625)"/>
      <path id="DejaVuSans-6c" d="M 603 4863 
L 1178 4863 
L 1178 0 
L 603 0 
L 603 4863 
z
" transform="scale(0.015625)"/>
      <path id="DejaVuSans-65" d="M 3597 1894 
L 3597 1613 
L 953 1613 
Q 991 1019 1311 708 
Q 1631 397 2203 397 
Q 2534 397 2845 478 
Q 3156 559 3463 722 
L 3463 178 
Q 3153 47 2828 -22 
Q 2503 -91 2169 -91 
Q 1331 -91 842 396 
Q 353 884 353 1716 
Q 353 2575 817 3079 
Q 1281 3584 2069 3584 
Q 2775 3584 3186 3129 
Q 3597 2675 3597 1894 
z
M 3022 2063 
Q 3016 2534 2758 2815 
Q 2500 3097 2075 3097 
Q 1594 3097 1305 2825 
Q 1016 2553 972 2059 
L 3022 2063 
z
" transform="scale(0.015625)"/>
      <path id="DejaVuSans-52" d="M 2841 2188 
Q 3044 2119 3236 1894 
Q 3428 1669 3622 1275 
L 4263 0 
L 3584 0 
L 2988 1197 
Q 2756 1666 2539 1819 
Q 2322 1972 1947 1972 
L 1259 1972 
L 1259 0 
L 628 0 
L 628 4666 
L 2053 4666 
Q 2853 4666 3247 4331 
Q 3641 3997 3641 3322 
Q 3641 2881 3436 2590 
Q 3231 2300 2841 2188 
z
M 1259 4147 
L 1259 2491 
L 2053 2491 
Q 2509 2491 2742 2702 
Q 2975 2913 2975 3322 
Q 2975 3731 2742 3939 
Q 2509 4147 2053 4147 
L 1259 4147 
z
" transform="scale(0.015625)"/>
      <path id="DejaVuSans-4d" d="M 628 4666 
L 1569 4666 
L 2759 1491 
L 3956 4666 
L 4897 4666 
L 4897 0 
L 4281 0 
L 4281 4097 
L 3078 897 
L 2444 897 
L 1241 4097 
L 1241 0 
L 628 0 
L 628 4666 
z
" transform="scale(0.015625)"/>
      <path id="DejaVuSans-53" d="M 3425 4513 
L 3425 3897 
Q 3066 4069 2747 4153 
Q 2428 4238 2131 4238 
Q 1616 4238 1336 4038 
Q 1056 3838 1056 3469 
Q 1056 3159 1242 3001 
Q 1428 2844 1947 2747 
L 2328 2669 
Q 3034 2534 3370 2195 
Q 3706 1856 3706 1288 
Q 3706 609 3251 259 
Q 2797 -91 1919 -91 
Q 1588 -91 1214 -16 
Q 841 59 441 206 
L 441 856 
Q 825 641 1194 531 
Q 1563 422 1919 422 
Q 2459 422 2753 634 
Q 3047 847 3047 1241 
Q 3047 1584 2836 1778 
Q 2625 1972 2144 2069 
L 1759 2144 
Q 1053 2284 737 2584 
Q 422 2884 422 3419 
Q 422 4038 858 4394 
Q 1294 4750 2059 4750 
Q 2388 4750 2728 4690 
Q 3069 4631 3425 4513 
z
" transform="scale(0.015625)"/>
      <path id="DejaVuSans-64" d="M 2906 2969 
L 2906 4863 
L 3481 4863 
L 3481 0 
L 2906 0 
L 2906 525 
Q 2725 213 2448 61 
Q 2172 -91 1784 -91 
Q 1150 -91 751 415 
Q 353 922 353 1747 
Q 353 2572 751 3078 
Q 1150 3584 1784 3584 
Q 2172 3584 2448 3432 
Q 2725 3281 2906 2969 
z
M 947 1747 
Q 947 1113 1208 752 
Q 1469 391 1925 391 
Q 2381 391 2643 752 
Q 2906 1113 2906 1747 
Q 2906 2381 2643 2742 
Q 2381 3103 1925 3103 
Q 1469 3103 1208 2742 
Q 947 2381 947 1747 
z
" transform="scale(0.015625)"/>
      <path id="DejaVuSans-74" d="M 1172 4494 
L 1172 3500 
L 2356 3500 
L 2356 3053 
L 1172 3053 
L 1172 1153 
Q 1172 725 1289 603 
Q 1406 481 1766 481 
L 2356 481 
L 2356 0 
L 1766 0 
Q 1100 0 847 248 
Q 594 497 594 1153 
L 594 3053 
L 172 3053 
L 172 3500 
L 594 3500 
L 594 4494 
L 1172 4494 
z
" transform="scale(0.015625)"/>
      <path id="DejaVuSans-44" d="M 1259 4147 
L 1259 519 
L 2022 519 
Q 2988 519 3436 956 
Q 3884 1394 3884 2338 
Q 3884 3275 3436 3711 
Q 2988 4147 2022 4147 
L 1259 4147 
z
M 628 4666 
L 1925 4666 
Q 3281 4666 3915 4102 
Q 4550 3538 4550 2338 
Q 4550 1131 3912 565 
Q 3275 0 1925 0 
L 628 0 
L 628 4666 
z
" transform="scale(0.015625)"/>
      <path id="DejaVuSans-Oblique-78" d="M 3841 3500 
L 2234 1784 
L 3219 0 
L 2559 0 
L 1819 1388 
L 531 0 
L -166 0 
L 1556 1844 
L 641 3500 
L 1300 3500 
L 1972 2234 
L 3144 3500 
L 3841 3500 
z
" transform="scale(0.015625)"/>
     </defs>
     <use xlink:href="#DejaVuSans-43" transform="translate(0 0.015625)"/>
     <use xlink:href="#DejaVuSans-6f" transform="translate(69.824219 0.015625)"/>
     <use xlink:href="#DejaVuSans-6d" transform="translate(131.005859 0.015625)"/>
     <use xlink:href="#DejaVuSans-70" transform="translate(228.417969 0.015625)"/>
     <use xlink:href="#DejaVuSans-61" transform="translate(291.894531 0.015625)"/>
     <use xlink:href="#DejaVuSans-72" transform="translate(353.173828 0.015625)"/>
     <use xlink:href="#DejaVuSans-69" transform="translate(394.287109 0.015625)"/>
     <use xlink:href="#DejaVuSans-73" transform="translate(422.070312 0.015625)"/>
     <use xlink:href="#DejaVuSans-6f" transform="translate(474.169922 0.015625)"/>
     <use xlink:href="#DejaVuSans-6e" transform="translate(535.351562 0.015625)"/>
     <use xlink:href="#DejaVuSans-20" transform="translate(598.730469 0.015625)"/>
     <use xlink:href="#DejaVuSans-6f" transform="translate(630.517578 0.015625)"/>
     <use xlink:href="#DejaVuSans-66" transform="translate(691.699219 0.015625)"/>
     <use xlink:href="#DejaVuSans-20" transform="translate(726.904297 0.015625)"/>
     <use xlink:href="#DejaVuSans-73" transform="translate(758.691406 0.015625)"/>
     <use xlink:href="#DejaVuSans-61" transform="translate(810.791016 0.015625)"/>
     <use xlink:href="#DejaVuSans-6d" transform="translate(872.070312 0.015625)"/>
     <use xlink:href="#DejaVuSans-70" transform="translate(969.482422 0.015625)"/>
     <use xlink:href="#DejaVuSans-6c" transform="translate(1032.958984 0.015625)"/>
     <use xlink:href="#DejaVuSans-65" transform="translate(1060.742188 0.015625)"/>
     <use xlink:href="#DejaVuSans-20" transform="translate(1122.265625 0.015625)"/>
     <use xlink:href="#DejaVuSans-52" transform="translate(1154.052734 0.015625)"/>
     <use xlink:href="#DejaVuSans-4d" transform="translate(1223.535156 0.015625)"/>
     <use xlink:href="#DejaVuSans-53" transform="translate(1309.814453 0.015625)"/>
     <use xlink:href="#DejaVuSans-20" transform="translate(1373.291016 0.015625)"/>
     <use xlink:href="#DejaVuSans-61" transform="translate(1405.078125 0.015625)"/>
     <use xlink:href="#DejaVuSans-6e" transform="translate(1466.357422 0.015625)"/>
     <use xlink:href="#DejaVuSans-64" transform="translate(1529.736328 0.015625)"/>
     <use xlink:href="#DejaVuSans-20" transform="translate(1593.212891 0.015625)"/>
     <use xlink:href="#DejaVuSans-65" transform="translate(1625 0.015625)"/>
     <use xlink:href="#DejaVuSans-73" transform="translate(1686.523438 0.015625)"/>
     <use xlink:href="#DejaVuSans-74" transform="translate(1738.623047 0.015625)"/>
     <use xlink:href="#DejaVuSans-69" transform="translate(1777.832031 0.015625)"/>
     <use xlink:href="#DejaVuSans-6d" transform="translate(1805.615234 0.015625)"/>
     <use xlink:href="#DejaVuSans-61" transform="translate(1903.027344 0.015625)"/>
     <use xlink:href="#DejaVuSans-74" transform="translate(1964.306641 0.015625)"/>
     <use xlink:href="#DejaVuSans-65" transform="translate(2003.515625 0.015625)"/>
     <use xlink:href="#DejaVuSans-64" transform="translate(2065.039062 0.015625)"/>
     <use xlink:href="#DejaVuSans-20" transform="translate(2128.515625 0.015625)"/>
     <use xlink:href="#DejaVuSans-53" transform="translate(2160.302734 0.015625)"/>
     <use xlink:href="#DejaVuSans-44" transform="translate(2223.779297 0.015625)"/>
     <use xlink:href="#DejaVuSans-20" transform="translate(2300.78125 0.015625)"/>
     <use xlink:href="#DejaVuSans-66" transform="translate(2332.568359 0.015625)"/>
     <use xlink:href="#DejaVuSans-6f" transform="translate(2367.773438 0.015625)"/>
     <use xlink:href="#DejaVuSans-72" transform="translate(2428.955078 0.015625)"/>
     <use xlink:href="#DejaVuSans-20" transform="translate(2470.068359 0.015625)"/>
     <use xlink:href="#DejaVuSans-Oblique-78" transform="translate(2501.855469 0.015625)"/>
     <use xlink:href="#DejaVuSans-32" transform="translate(2561.035156 -16.390625)scale(0.7)"/>
    </g>
   </g>
   <g id="legend_1">
    <g id="patch_7">
     <path d="M 521.41875 111.255 
L 698.64 111.255 
Q 701.04 111.255 701.04 108.855 
L 701.04 39.6 
Q 701.04 37.2 698.64 37.2 
L 521.41875 37.2 
Q 519.01875 37.2 519.01875 39.6 
L 519.01875 108.855 
Q 519.01875 111.255 521.41875 111.255 
z
" style="fill: #ffffff; opacity: 0.8; stroke: #cccccc; stroke-linejoin: miter"/>
    </g>
    <g id="line2d_37">
     <path d="M 523.81875 46.918125 
L 535.81875 46.918125 
L 547.81875 46.918125 
" style="fill: none; stroke: #1f77b4; stroke-width: 1.5; stroke-linecap: square"/>
    </g>
    <g id="text_19">
     <!-- Filter sample RMS -->
     <g transform="translate(557.41875 51.118125)scale(0.12 -0.12)">
      <defs>
       <path id="DejaVuSans-46" d="M 628 4666 
L 3309 4666 
L 3309 4134 
L 1259 4134 
L 1259 2759 
L 3109 2759 
L 3109 2228 
L 1259 2228 
L 1259 0 
L 628 0 
L 628 4666 
z
" transform="scale(0.015625)"/>
      </defs>
      <use xlink:href="#DejaVuSans-46"/>
      <use xlink:href="#DejaVuSans-69" x="50.269531"/>
      <use xlink:href="#DejaVuSans-6c" x="78.052734"/>
      <use xlink:href="#DejaVuSans-74" x="105.835938"/>
      <use xlink:href="#DejaVuSans-65" x="145.044922"/>
      <use xlink:href="#DejaVuSans-72" x="206.568359"/>
      <use xlink:href="#DejaVuSans-20" x="247.681641"/>
      <use xlink:href="#DejaVuSans-73" x="279.46875"/>
      <use xlink:href="#DejaVuSans-61" x="331.568359"/>
      <use xlink:href="#DejaVuSans-6d" x="392.847656"/>
      <use xlink:href="#DejaVuSans-70" x="490.259766"/>
      <use xlink:href="#DejaVuSans-6c" x="553.736328"/>
      <use xlink:href="#DejaVuSans-65" x="581.519531"/>
      <use xlink:href="#DejaVuSans-20" x="643.042969"/>
      <use xlink:href="#DejaVuSans-52" x="674.830078"/>
      <use xlink:href="#DejaVuSans-4d" x="744.3125"/>
      <use xlink:href="#DejaVuSans-53" x="830.591797"/>
     </g>
    </g>
    <g id="line2d_38">
     <path d="M 523.81875 64.531875 
L 535.81875 64.531875 
L 547.81875 64.531875 
" style="fill: none; stroke: #ff7f0e; stroke-width: 1.5; stroke-linecap: square"/>
    </g>
    <g id="text_20">
     <!-- Filter estimated SD -->
     <g transform="translate(557.41875 68.731875)scale(0.12 -0.12)">
      <use xlink:href="#DejaVuSans-46"/>
      <use xlink:href="#DejaVuSans-69" x="50.269531"/>
      <use xlink:href="#DejaVuSans-6c" x="78.052734"/>
      <use xlink:href="#DejaVuSans-74" x="105.835938"/>
      <use xlink:href="#DejaVuSans-65" x="145.044922"/>
      <use xlink:href="#DejaVuSans-72" x="206.568359"/>
      <use xlink:href="#DejaVuSans-20" x="247.681641"/>
      <use xlink:href="#DejaVuSans-65" x="279.46875"/>
      <use xlink:href="#DejaVuSans-73" x="340.992188"/>
      <use xlink:href="#DejaVuSans-74" x="393.091797"/>
      <use xlink:href="#DejaVuSans-69" x="432.300781"/>
      <use xlink:href="#DejaVuSans-6d" x="460.083984"/>
      <use xlink:href="#DejaVuSans-61" x="557.496094"/>
      <use xlink:href="#DejaVuSans-74" x="618.775391"/>
      <use xlink:href="#DejaVuSans-65" x="657.984375"/>
      <use xlink:href="#DejaVuSans-64" x="719.507812"/>
      <use xlink:href="#DejaVuSans-20" x="782.984375"/>
      <use xlink:href="#DejaVuSans-53" x="814.771484"/>
      <use xlink:href="#DejaVuSans-44" x="878.248047"/>
     </g>
    </g>
    <g id="line2d_39">
     <path d="M 523.81875 82.145625 
L 535.81875 82.145625 
L 547.81875 82.145625 
" style="fill: none; stroke: #2ca02c; stroke-width: 1.5; stroke-linecap: square"/>
    </g>
    <g id="text_21">
     <!-- Smoother sample RMS -->
     <g transform="translate(557.41875 86.345625)scale(0.12 -0.12)">
      <use xlink:href="#DejaVuSans-53"/>
      <use xlink:href="#DejaVuSans-6d" x="63.476562"/>
      <use xlink:href="#DejaVuSans-6f" x="160.888672"/>
      <use xlink:href="#DejaVuSans-6f" x="222.070312"/>
      <use xlink:href="#DejaVuSans-74" x="283.251953"/>
      <use xlink:href="#DejaVuSans-68" x="322.460938"/>
      <use xlink:href="#DejaVuSans-65" x="385.839844"/>
      <use xlink:href="#DejaVuSans-72" x="447.363281"/>
      <use xlink:href="#DejaVuSans-20" x="488.476562"/>
      <use xlink:href="#DejaVuSans-73" x="520.263672"/>
      <use xlink:href="#DejaVuSans-61" x="572.363281"/>
      <use xlink:href="#DejaVuSans-6d" x="633.642578"/>
      <use xlink:href="#DejaVuSans-70" x="731.054688"/>
      <use xlink:href="#DejaVuSans-6c" x="794.53125"/>
      <use xlink:href="#DejaVuSans-65" x="822.314453"/>
      <use xlink:href="#DejaVuSans-20" x="883.837891"/>
      <use xlink:href="#DejaVuSans-52" x="915.625"/>
      <use xlink:href="#DejaVuSans-4d" x="985.107422"/>
      <use xlink:href="#DejaVuSans-53" x="1071.386719"/>
     </g>
    </g>
    <g id="line2d_40">
     <path d="M 523.81875 99.759375 
L 535.81875 99.759375 
L 547.81875 99.759375 
" style="fill: none; stroke: #d62728; stroke-width: 1.5; stroke-linecap: square"/>
    </g>
    <g id="text_22">
     <!-- Smoother esimated SD -->
     <g transform="translate(557.41875 103.959375)scale(0.12 -0.12)">
      <use xlink:href="#DejaVuSans-53"/>
      <use xlink:href="#DejaVuSans-6d" x="63.476562"/>
      <use xlink:href="#DejaVuSans-6f" x="160.888672"/>
      <use xlink:href="#DejaVuSans-6f" x="222.070312"/>
      <use xlink:href="#DejaVuSans-74" x="283.251953"/>
      <use xlink:href="#DejaVuSans-68" x="322.460938"/>
      <use xlink:href="#DejaVuSans-65" x="385.839844"/>
      <use xlink:href="#DejaVuSans-72" x="447.363281"/>
      <use xlink:href="#DejaVuSans-20" x="488.476562"/>
      <use xlink:href="#DejaVuSans-65" x="520.263672"/>
      <use xlink:href="#DejaVuSans-73" x="581.787109"/>
      <use xlink:href="#DejaVuSans-69" x="633.886719"/>
      <use xlink:href="#DejaVuSans-6d" x="661.669922"/>
      <use xlink:href="#DejaVuSans-61" x="759.082031"/>
      <use xlink:href="#DejaVuSans-74" x="820.361328"/>
      <use xlink:href="#DejaVuSans-65" x="859.570312"/>
      <use xlink:href="#DejaVuSans-64" x="921.09375"/>
      <use xlink:href="#DejaVuSans-20" x="984.570312"/>
      <use xlink:href="#DejaVuSans-53" x="1016.357422"/>
      <use xlink:href="#DejaVuSans-44" x="1079.833984"/>
     </g>
    </g>
   </g>
  </g>
 </g>
 <defs>
  <clipPath id="p1126e8ba90">
   <rect x="54.34" y="31.2" width="652.7" height="355.24"/>
  </clipPath>
 </defs>
</svg>
