<?xml version="1.0" encoding="utf-8" standalone="no"?>
<!DOCTYPE svg PUBLIC "-//W3C//DTD SVG 1.1//EN"
  "http://www.w3.org/Graphics/SVG/1.1/DTD/svg11.dtd">
<svg xmlns:xlink="http://www.w3.org/1999/xlink" width="720pt" height="432pt" viewBox="0 0 720 432" xmlns="http://www.w3.org/2000/svg" version="1.1">
 <metadata>
  <rdf:RDF xmlns:dc="http://purl.org/dc/elements/1.1/" xmlns:cc="http://creativecommons.org/ns#" xmlns:rdf="http://www.w3.org/1999/02/22-rdf-syntax-ns#">
   <cc:Work>
    <dc:type rdf:resource="http://purl.org/dc/dcmitype/StillImage"/>
    <dc:date>2022-11-29T16:12:03.766072</dc:date>
    <dc:format>image/svg+xml</dc:format>
    <dc:creator>
     <cc:Agent>
      <dc:title>Matplotlib v3.5.1, https://matplotlib.org/</dc:title>
     </cc:Agent>
    </dc:creator>
   </cc:Work>
  </rdf:RDF>
 </metadata>
 <defs>
  <style type="text/css">*{stroke-linejoin: round; stroke-linecap: butt}</style>
 </defs>
 <g id="figure_1">
  <g id="patch_1">
   <path d="M 0 432 
L 720 432 
L 720 0 
L 0 0 
z
" style="fill: #ffffff"/>
  </g>
  <g id="axes_1">
   <g id="patch_2">
    <path d="M 56.77 386.44 
L 707.04 386.44 
L 707.04 29.76 
L 56.77 29.76 
z
" style="fill: #ffffff"/>
   </g>
   <g id="matplotlib.axis_1">
    <g id="xtick_1">
     <g id="line2d_1">
      <path d="M 86.327727 386.44 
L 86.327727 29.76 
" clip-path="url(#p4e563bbefb)" style="fill: none; stroke: #b0b0b0; stroke-width: 0.8; stroke-linecap: square"/>
     </g>
     <g id="line2d_2">
      <defs>
       <path id="m06c345a624" d="M 0 0 
L 0 3.5 
" style="stroke: #000000; stroke-width: 0.8"/>
      </defs>
      <g>
       <use xlink:href="#m06c345a624" x="86.327727" y="386.44" style="stroke: #000000; stroke-width: 0.8"/>
      </g>
     </g>
     <g id="text_1">
      <!-- 600 -->
      <g transform="translate(74.875227 402.558125)scale(0.12 -0.12)">
       <defs>
        <path id="DejaVuSans-36" d="M 2113 2584 
Q 1688 2584 1439 2293 
Q 1191 2003 1191 1497 
Q 1191 994 1439 701 
Q 1688 409 2113 409 
Q 2538 409 2786 701 
Q 3034 994 3034 1497 
Q 3034 2003 2786 2293 
Q 2538 2584 2113 2584 
z
M 3366 4563 
L 3366 3988 
Q 3128 4100 2886 4159 
Q 2644 4219 2406 4219 
Q 1781 4219 1451 3797 
Q 1122 3375 1075 2522 
Q 1259 2794 1537 2939 
Q 1816 3084 2150 3084 
Q 2853 3084 3261 2657 
Q 3669 2231 3669 1497 
Q 3669 778 3244 343 
Q 2819 -91 2113 -91 
Q 1303 -91 875 529 
Q 447 1150 447 2328 
Q 447 3434 972 4092 
Q 1497 4750 2381 4750 
Q 2619 4750 2861 4703 
Q 3103 4656 3366 4563 
z
" transform="scale(0.015625)"/>
        <path id="DejaVuSans-30" d="M 2034 4250 
Q 1547 4250 1301 3770 
Q 1056 3291 1056 2328 
Q 1056 1369 1301 889 
Q 1547 409 2034 409 
Q 2525 409 2770 889 
Q 3016 1369 3016 2328 
Q 3016 3291 2770 3770 
Q 2525 4250 2034 4250 
z
M 2034 4750 
Q 2819 4750 3233 4129 
Q 3647 3509 3647 2328 
Q 3647 1150 3233 529 
Q 2819 -91 2034 -91 
Q 1250 -91 836 529 
Q 422 1150 422 2328 
Q 422 3509 836 4129 
Q 1250 4750 2034 4750 
z
" transform="scale(0.015625)"/>
       </defs>
       <use xlink:href="#DejaVuSans-36"/>
       <use xlink:href="#DejaVuSans-30" x="63.623047"/>
       <use xlink:href="#DejaVuSans-30" x="127.246094"/>
      </g>
     </g>
    </g>
    <g id="xtick_2">
     <g id="line2d_3">
      <path d="M 160.222045 386.44 
L 160.222045 29.76 
" clip-path="url(#p4e563bbefb)" style="fill: none; stroke: #b0b0b0; stroke-width: 0.8; stroke-linecap: square"/>
     </g>
     <g id="line2d_4">
      <g>
       <use xlink:href="#m06c345a624" x="160.222045" y="386.44" style="stroke: #000000; stroke-width: 0.8"/>
      </g>
     </g>
     <g id="text_2">
      <!-- 625 -->
      <g transform="translate(148.769545 402.558125)scale(0.12 -0.12)">
       <defs>
        <path id="DejaVuSans-32" d="M 1228 531 
L 3431 531 
L 3431 0 
L 469 0 
L 469 531 
Q 828 903 1448 1529 
Q 2069 2156 2228 2338 
Q 2531 2678 2651 2914 
Q 2772 3150 2772 3378 
Q 2772 3750 2511 3984 
Q 2250 4219 1831 4219 
Q 1534 4219 1204 4116 
Q 875 4013 500 3803 
L 500 4441 
Q 881 4594 1212 4672 
Q 1544 4750 1819 4750 
Q 2544 4750 2975 4387 
Q 3406 4025 3406 3419 
Q 3406 3131 3298 2873 
Q 3191 2616 2906 2266 
Q 2828 2175 2409 1742 
Q 1991 1309 1228 531 
z
" transform="scale(0.015625)"/>
        <path id="DejaVuSans-35" d="M 691 4666 
L 3169 4666 
L 3169 4134 
L 1269 4134 
L 1269 2991 
Q 1406 3038 1543 3061 
Q 1681 3084 1819 3084 
Q 2600 3084 3056 2656 
Q 3513 2228 3513 1497 
Q 3513 744 3044 326 
Q 2575 -91 1722 -91 
Q 1428 -91 1123 -41 
Q 819 9 494 109 
L 494 744 
Q 775 591 1075 516 
Q 1375 441 1709 441 
Q 2250 441 2565 725 
Q 2881 1009 2881 1497 
Q 2881 1984 2565 2268 
Q 2250 2553 1709 2553 
Q 1456 2553 1204 2497 
Q 953 2441 691 2322 
L 691 4666 
z
" transform="scale(0.015625)"/>
       </defs>
       <use xlink:href="#DejaVuSans-36"/>
       <use xlink:href="#DejaVuSans-32" x="63.623047"/>
       <use xlink:href="#DejaVuSans-35" x="127.246094"/>
      </g>
     </g>
    </g>
    <g id="xtick_3">
     <g id="line2d_5">
      <path d="M 234.116364 386.44 
L 234.116364 29.76 
" clip-path="url(#p4e563bbefb)" style="fill: none; stroke: #b0b0b0; stroke-width: 0.8; stroke-linecap: square"/>
     </g>
     <g id="line2d_6">
      <g>
       <use xlink:href="#m06c345a624" x="234.116364" y="386.44" style="stroke: #000000; stroke-width: 0.8"/>
      </g>
     </g>
     <g id="text_3">
      <!-- 650 -->
      <g transform="translate(222.663864 402.558125)scale(0.12 -0.12)">
       <use xlink:href="#DejaVuSans-36"/>
       <use xlink:href="#DejaVuSans-35" x="63.623047"/>
       <use xlink:href="#DejaVuSans-30" x="127.246094"/>
      </g>
     </g>
    </g>
    <g id="xtick_4">
     <g id="line2d_7">
      <path d="M 308.010682 386.44 
L 308.010682 29.76 
" clip-path="url(#p4e563bbefb)" style="fill: none; stroke: #b0b0b0; stroke-width: 0.8; stroke-linecap: square"/>
     </g>
     <g id="line2d_8">
      <g>
       <use xlink:href="#m06c345a624" x="308.010682" y="386.44" style="stroke: #000000; stroke-width: 0.8"/>
      </g>
     </g>
     <g id="text_4">
      <!-- 675 -->
      <g transform="translate(296.558182 402.558125)scale(0.12 -0.12)">
       <defs>
        <path id="DejaVuSans-37" d="M 525 4666 
L 3525 4666 
L 3525 4397 
L 1831 0 
L 1172 0 
L 2766 4134 
L 525 4134 
L 525 4666 
z
" transform="scale(0.015625)"/>
       </defs>
       <use xlink:href="#DejaVuSans-36"/>
       <use xlink:href="#DejaVuSans-37" x="63.623047"/>
       <use xlink:href="#DejaVuSans-35" x="127.246094"/>
      </g>
     </g>
    </g>
    <g id="xtick_5">
     <g id="line2d_9">
      <path d="M 381.905 386.44 
L 381.905 29.76 
" clip-path="url(#p4e563bbefb)" style="fill: none; stroke: #b0b0b0; stroke-width: 0.8; stroke-linecap: square"/>
     </g>
     <g id="line2d_10">
      <g>
       <use xlink:href="#m06c345a624" x="381.905" y="386.44" style="stroke: #000000; stroke-width: 0.8"/>
      </g>
     </g>
     <g id="text_5">
      <!-- 700 -->
      <g transform="translate(370.4525 402.558125)scale(0.12 -0.12)">
       <use xlink:href="#DejaVuSans-37"/>
       <use xlink:href="#DejaVuSans-30" x="63.623047"/>
       <use xlink:href="#DejaVuSans-30" x="127.246094"/>
      </g>
     </g>
    </g>
    <g id="xtick_6">
     <g id="line2d_11">
      <path d="M 455.799318 386.44 
L 455.799318 29.76 
" clip-path="url(#p4e563bbefb)" style="fill: none; stroke: #b0b0b0; stroke-width: 0.8; stroke-linecap: square"/>
     </g>
     <g id="line2d_12">
      <g>
       <use xlink:href="#m06c345a624" x="455.799318" y="386.44" style="stroke: #000000; stroke-width: 0.8"/>
      </g>
     </g>
     <g id="text_6">
      <!-- 725 -->
      <g transform="translate(444.346818 402.558125)scale(0.12 -0.12)">
       <use xlink:href="#DejaVuSans-37"/>
       <use xlink:href="#DejaVuSans-32" x="63.623047"/>
       <use xlink:href="#DejaVuSans-35" x="127.246094"/>
      </g>
     </g>
    </g>
    <g id="xtick_7">
     <g id="line2d_13">
      <path d="M 529.693636 386.44 
L 529.693636 29.76 
" clip-path="url(#p4e563bbefb)" style="fill: none; stroke: #b0b0b0; stroke-width: 0.8; stroke-linecap: square"/>
     </g>
     <g id="line2d_14">
      <g>
       <use xlink:href="#m06c345a624" x="529.693636" y="386.44" style="stroke: #000000; stroke-width: 0.8"/>
      </g>
     </g>
     <g id="text_7">
      <!-- 750 -->
      <g transform="translate(518.241136 402.558125)scale(0.12 -0.12)">
       <use xlink:href="#DejaVuSans-37"/>
       <use xlink:href="#DejaVuSans-35" x="63.623047"/>
       <use xlink:href="#DejaVuSans-30" x="127.246094"/>
      </g>
     </g>
    </g>
    <g id="xtick_8">
     <g id="line2d_15">
      <path d="M 603.587955 386.44 
L 603.587955 29.76 
" clip-path="url(#p4e563bbefb)" style="fill: none; stroke: #b0b0b0; stroke-width: 0.8; stroke-linecap: square"/>
     </g>
     <g id="line2d_16">
      <g>
       <use xlink:href="#m06c345a624" x="603.587955" y="386.44" style="stroke: #000000; stroke-width: 0.8"/>
      </g>
     </g>
     <g id="text_8">
      <!-- 775 -->
      <g transform="translate(592.135455 402.558125)scale(0.12 -0.12)">
       <use xlink:href="#DejaVuSans-37"/>
       <use xlink:href="#DejaVuSans-37" x="63.623047"/>
       <use xlink:href="#DejaVuSans-35" x="127.246094"/>
      </g>
     </g>
    </g>
    <g id="xtick_9">
     <g id="line2d_17">
      <path d="M 677.482273 386.44 
L 677.482273 29.76 
" clip-path="url(#p4e563bbefb)" style="fill: none; stroke: #b0b0b0; stroke-width: 0.8; stroke-linecap: square"/>
     </g>
     <g id="line2d_18">
      <g>
       <use xlink:href="#m06c345a624" x="677.482273" y="386.44" style="stroke: #000000; stroke-width: 0.8"/>
      </g>
     </g>
     <g id="text_9">
      <!-- 800 -->
      <g transform="translate(666.029773 402.558125)scale(0.12 -0.12)">
       <defs>
        <path id="DejaVuSans-38" d="M 2034 2216 
Q 1584 2216 1326 1975 
Q 1069 1734 1069 1313 
Q 1069 891 1326 650 
Q 1584 409 2034 409 
Q 2484 409 2743 651 
Q 3003 894 3003 1313 
Q 3003 1734 2745 1975 
Q 2488 2216 2034 2216 
z
M 1403 2484 
Q 997 2584 770 2862 
Q 544 3141 544 3541 
Q 544 4100 942 4425 
Q 1341 4750 2034 4750 
Q 2731 4750 3128 4425 
Q 3525 4100 3525 3541 
Q 3525 3141 3298 2862 
Q 3072 2584 2669 2484 
Q 3125 2378 3379 2068 
Q 3634 1759 3634 1313 
Q 3634 634 3220 271 
Q 2806 -91 2034 -91 
Q 1263 -91 848 271 
Q 434 634 434 1313 
Q 434 1759 690 2068 
Q 947 2378 1403 2484 
z
M 1172 3481 
Q 1172 3119 1398 2916 
Q 1625 2713 2034 2713 
Q 2441 2713 2670 2916 
Q 2900 3119 2900 3481 
Q 2900 3844 2670 4047 
Q 2441 4250 2034 4250 
Q 1625 4250 1398 4047 
Q 1172 3844 1172 3481 
z
" transform="scale(0.015625)"/>
       </defs>
       <use xlink:href="#DejaVuSans-38"/>
       <use xlink:href="#DejaVuSans-30" x="63.623047"/>
       <use xlink:href="#DejaVuSans-30" x="127.246094"/>
      </g>
     </g>
    </g>
    <g id="text_10">
     <!-- Epoch -->
     <g transform="translate(363.531875 418.171875)scale(0.12 -0.12)">
      <defs>
       <path id="DejaVuSans-45" d="M 628 4666 
L 3578 4666 
L 3578 4134 
L 1259 4134 
L 1259 2753 
L 3481 2753 
L 3481 2222 
L 1259 2222 
L 1259 531 
L 3634 531 
L 3634 0 
L 628 0 
L 628 4666 
z
" transform="scale(0.015625)"/>
       <path id="DejaVuSans-70" d="M 1159 525 
L 1159 -1331 
L 581 -1331 
L 581 3500 
L 1159 3500 
L 1159 2969 
Q 1341 3281 1617 3432 
Q 1894 3584 2278 3584 
Q 2916 3584 3314 3078 
Q 3713 2572 3713 1747 
Q 3713 922 3314 415 
Q 2916 -91 2278 -91 
Q 1894 -91 1617 61 
Q 1341 213 1159 525 
z
M 3116 1747 
Q 3116 2381 2855 2742 
Q 2594 3103 2138 3103 
Q 1681 3103 1420 2742 
Q 1159 2381 1159 1747 
Q 1159 1113 1420 752 
Q 1681 391 2138 391 
Q 2594 391 2855 752 
Q 3116 1113 3116 1747 
z
" transform="scale(0.015625)"/>
       <path id="DejaVuSans-6f" d="M 1959 3097 
Q 1497 3097 1228 2736 
Q 959 2375 959 1747 
Q 959 1119 1226 758 
Q 1494 397 1959 397 
Q 2419 397 2687 759 
Q 2956 1122 2956 1747 
Q 2956 2369 2687 2733 
Q 2419 3097 1959 3097 
z
M 1959 3584 
Q 2709 3584 3137 3096 
Q 3566 2609 3566 1747 
Q 3566 888 3137 398 
Q 2709 -91 1959 -91 
Q 1206 -91 779 398 
Q 353 888 353 1747 
Q 353 2609 779 3096 
Q 1206 3584 1959 3584 
z
" transform="scale(0.015625)"/>
       <path id="DejaVuSans-63" d="M 3122 3366 
L 3122 2828 
Q 2878 2963 2633 3030 
Q 2388 3097 2138 3097 
Q 1578 3097 1268 2742 
Q 959 2388 959 1747 
Q 959 1106 1268 751 
Q 1578 397 2138 397 
Q 2388 397 2633 464 
Q 2878 531 3122 666 
L 3122 134 
Q 2881 22 2623 -34 
Q 2366 -91 2075 -91 
Q 1284 -91 818 406 
Q 353 903 353 1747 
Q 353 2603 823 3093 
Q 1294 3584 2113 3584 
Q 2378 3584 2631 3529 
Q 2884 3475 3122 3366 
z
" transform="scale(0.015625)"/>
       <path id="DejaVuSans-68" d="M 3513 2113 
L 3513 0 
L 2938 0 
L 2938 2094 
Q 2938 2591 2744 2837 
Q 2550 3084 2163 3084 
Q 1697 3084 1428 2787 
Q 1159 2491 1159 1978 
L 1159 0 
L 581 0 
L 581 4863 
L 1159 4863 
L 1159 2956 
Q 1366 3272 1645 3428 
Q 1925 3584 2291 3584 
Q 2894 3584 3203 3211 
Q 3513 2838 3513 2113 
z
" transform="scale(0.015625)"/>
      </defs>
      <use xlink:href="#DejaVuSans-45"/>
      <use xlink:href="#DejaVuSans-70" x="63.183594"/>
      <use xlink:href="#DejaVuSans-6f" x="126.660156"/>
      <use xlink:href="#DejaVuSans-63" x="187.841797"/>
      <use xlink:href="#DejaVuSans-68" x="242.822266"/>
     </g>
    </g>
   </g>
   <g id="matplotlib.axis_2">
    <g id="ytick_1">
     <g id="line2d_19">
      <path d="M 56.77 325.97877 
L 707.04 325.97877 
" clip-path="url(#p4e563bbefb)" style="fill: none; stroke: #b0b0b0; stroke-width: 0.8; stroke-linecap: square"/>
     </g>
     <g id="line2d_20">
      <defs>
       <path id="m7f13a80298" d="M 0 0 
L -3.5 0 
" style="stroke: #000000; stroke-width: 0.8"/>
      </defs>
      <g>
       <use xlink:href="#m7f13a80298" x="56.77" y="325.97877" style="stroke: #000000; stroke-width: 0.8"/>
      </g>
     </g>
     <g id="text_11">
      <!-- −0.02 -->
      <g transform="translate(12.995625 330.537833)scale(0.12 -0.12)">
       <defs>
        <path id="DejaVuSans-2212" d="M 678 2272 
L 4684 2272 
L 4684 1741 
L 678 1741 
L 678 2272 
z
" transform="scale(0.015625)"/>
        <path id="DejaVuSans-2e" d="M 684 794 
L 1344 794 
L 1344 0 
L 684 0 
L 684 794 
z
" transform="scale(0.015625)"/>
       </defs>
       <use xlink:href="#DejaVuSans-2212"/>
       <use xlink:href="#DejaVuSans-30" x="83.789062"/>
       <use xlink:href="#DejaVuSans-2e" x="147.412109"/>
       <use xlink:href="#DejaVuSans-30" x="179.199219"/>
       <use xlink:href="#DejaVuSans-32" x="242.822266"/>
      </g>
     </g>
    </g>
    <g id="ytick_2">
     <g id="line2d_21">
      <path d="M 56.77 261.444595 
L 707.04 261.444595 
" clip-path="url(#p4e563bbefb)" style="fill: none; stroke: #b0b0b0; stroke-width: 0.8; stroke-linecap: square"/>
     </g>
     <g id="line2d_22">
      <g>
       <use xlink:href="#m7f13a80298" x="56.77" y="261.444595" style="stroke: #000000; stroke-width: 0.8"/>
      </g>
     </g>
     <g id="text_12">
      <!-- −0.01 -->
      <g transform="translate(12.995625 266.003657)scale(0.12 -0.12)">
       <defs>
        <path id="DejaVuSans-31" d="M 794 531 
L 1825 531 
L 1825 4091 
L 703 3866 
L 703 4441 
L 1819 4666 
L 2450 4666 
L 2450 531 
L 3481 531 
L 3481 0 
L 794 0 
L 794 531 
z
" transform="scale(0.015625)"/>
       </defs>
       <use xlink:href="#DejaVuSans-2212"/>
       <use xlink:href="#DejaVuSans-30" x="83.789062"/>
       <use xlink:href="#DejaVuSans-2e" x="147.412109"/>
       <use xlink:href="#DejaVuSans-30" x="179.199219"/>
       <use xlink:href="#DejaVuSans-31" x="242.822266"/>
      </g>
     </g>
    </g>
    <g id="ytick_3">
     <g id="line2d_23">
      <path d="M 56.77 196.910419 
L 707.04 196.910419 
" clip-path="url(#p4e563bbefb)" style="fill: none; stroke: #b0b0b0; stroke-width: 0.8; stroke-linecap: square"/>
     </g>
     <g id="line2d_24">
      <g>
       <use xlink:href="#m7f13a80298" x="56.77" y="196.910419" style="stroke: #000000; stroke-width: 0.8"/>
      </g>
     </g>
     <g id="text_13">
      <!-- 0.00 -->
      <g transform="translate(23.05125 201.469482)scale(0.12 -0.12)">
       <use xlink:href="#DejaVuSans-30"/>
       <use xlink:href="#DejaVuSans-2e" x="63.623047"/>
       <use xlink:href="#DejaVuSans-30" x="95.410156"/>
       <use xlink:href="#DejaVuSans-30" x="159.033203"/>
      </g>
     </g>
    </g>
    <g id="ytick_4">
     <g id="line2d_25">
      <path d="M 56.77 132.376244 
L 707.04 132.376244 
" clip-path="url(#p4e563bbefb)" style="fill: none; stroke: #b0b0b0; stroke-width: 0.8; stroke-linecap: square"/>
     </g>
     <g id="line2d_26">
      <g>
       <use xlink:href="#m7f13a80298" x="56.77" y="132.376244" style="stroke: #000000; stroke-width: 0.8"/>
      </g>
     </g>
     <g id="text_14">
      <!-- 0.01 -->
      <g transform="translate(23.05125 136.935306)scale(0.12 -0.12)">
       <use xlink:href="#DejaVuSans-30"/>
       <use xlink:href="#DejaVuSans-2e" x="63.623047"/>
       <use xlink:href="#DejaVuSans-30" x="95.410156"/>
       <use xlink:href="#DejaVuSans-31" x="159.033203"/>
      </g>
     </g>
    </g>
    <g id="ytick_5">
     <g id="line2d_27">
      <path d="M 56.77 67.842069 
L 707.04 67.842069 
" clip-path="url(#p4e563bbefb)" style="fill: none; stroke: #b0b0b0; stroke-width: 0.8; stroke-linecap: square"/>
     </g>
     <g id="line2d_28">
      <g>
       <use xlink:href="#m7f13a80298" x="56.77" y="67.842069" style="stroke: #000000; stroke-width: 0.8"/>
      </g>
     </g>
     <g id="text_15">
      <!-- 0.02 -->
      <g transform="translate(23.05125 72.401131)scale(0.12 -0.12)">
       <use xlink:href="#DejaVuSans-30"/>
       <use xlink:href="#DejaVuSans-2e" x="63.623047"/>
       <use xlink:href="#DejaVuSans-30" x="95.410156"/>
       <use xlink:href="#DejaVuSans-32" x="159.033203"/>
      </g>
     </g>
    </g>
   </g>
   <g id="line2d_29">
    <path d="M 86.327727 208.638215 
L 89.2835 122.252768 
L 92.239273 227.325634 
L 95.195045 182.830482 
L 98.150818 154.765795 
L 101.106591 186.753902 
L 104.062364 224.620555 
L 107.018136 202.064641 
L 109.973909 250.132657 
L 112.929682 179.769562 
L 115.885455 70.524754 
L 118.841227 179.917409 
L 121.797 203.300374 
L 124.752773 289.960956 
L 127.708545 196.995763 
L 130.664318 251.31047 
L 133.620091 215.216893 
L 136.575864 262.719145 
L 139.531636 250.456683 
L 142.487409 151.884151 
L 145.443182 255.222597 
L 148.398955 203.502521 
L 151.354727 264.41962 
L 154.3105 314.674319 
L 157.266273 274.132659 
L 160.222045 189.596439 
L 163.177818 194.027826 
L 166.133591 229.531412 
L 169.089364 201.355075 
L 172.045136 135.024339 
L 175.000909 122.625775 
L 177.956682 247.868927 
L 180.912455 151.475327 
L 183.868227 197.521006 
L 186.824 188.920185 
L 189.779773 177.939114 
L 192.735545 256.675648 
L 195.691318 190.933432 
L 198.647091 214.584652 
L 201.602864 255.072426 
L 204.558636 112.075083 
L 207.514409 161.547111 
L 210.470182 224.541178 
L 213.425955 180.957958 
L 216.381727 192.123558 
L 219.3375 182.147904 
L 222.293273 234.715765 
L 225.249045 194.255735 
L 228.204818 157.179244 
L 231.160591 293.967883 
L 234.116364 247.195513 
L 237.072136 177.335784 
L 240.027909 82.162847 
L 242.983682 196.615103 
L 245.939455 272.992985 
L 248.895227 106.123096 
L 251.851 266.083957 
L 254.806773 225.845027 
L 257.762545 232.632086 
L 260.718318 191.06494 
L 263.674091 223.41112 
L 266.629864 88.287141 
L 269.585636 114.043375 
L 272.541409 195.013618 
L 275.497182 203.026852 
L 278.452955 207.661103 
L 281.408727 231.294938 
L 284.3645 218.12945 
L 287.320273 122.117246 
L 290.276045 191.634563 
L 293.231818 251.596744 
L 296.187591 183.764743 
L 299.143364 202.661292 
L 302.099136 229.727725 
L 305.054909 156.09436 
L 308.010682 165.581465 
L 310.966455 149.541883 
L 313.922227 160.919258 
L 316.878 118.358776 
L 319.833773 228.28842 
L 322.789545 164.847131 
L 325.745318 343.136471 
L 328.701091 113.144414 
L 331.656864 345.72171 
L 334.612636 155.309302 
L 337.568409 155.411782 
L 340.524182 209.858169 
L 343.479955 174.174965 
L 346.435727 102.965439 
L 349.3915 188.681538 
L 352.347273 168.200714 
L 355.303045 116.930634 
L 358.258818 126.414577 
L 364.170364 179.094276 
L 367.126136 157.253652 
L 370.081909 206.979235 
L 373.037682 45.972727 
L 375.993455 88.57819 
L 378.949227 165.090941 
L 381.905 204.164383 
L 384.860773 229.867119 
L 387.816545 227.536403 
L 390.772318 234.086041 
L 393.728091 318.516038 
L 396.683864 241.609177 
L 399.639636 119.393259 
L 402.595409 203.942321 
L 405.551182 243.105273 
L 408.506955 137.884171 
L 411.462727 168.59605 
L 414.4185 180.153992 
L 417.374273 175.684161 
L 420.330045 137.768591 
L 423.285818 157.611817 
L 426.241591 172.639503 
L 429.197364 99.558034 
L 432.153136 83.510966 
L 435.108909 72.933815 
L 438.064682 276.899884 
L 441.020455 207.433491 
L 443.976227 192.262804 
L 446.932 286.506442 
L 449.887773 186.990549 
L 452.843545 174.116884 
L 455.799318 105.906261 
L 458.755091 231.88478 
L 461.710864 266.50601 
L 464.666636 135.690461 
L 467.622409 242.103444 
L 470.578182 265.992963 
L 473.533955 238.786452 
L 476.489727 186.799011 
L 479.4455 172.732691 
L 482.401273 125.108405 
L 485.357045 91.983658 
L 488.312818 118.503332 
L 491.268591 221.560409 
L 494.224364 167.151711 
L 497.180136 126.790166 
L 500.135909 142.799675 
L 503.091682 144.487373 
L 506.047455 248.258327 
L 509.003227 197.111667 
L 511.959 71.008761 
L 514.914773 192.884952 
L 517.870545 80.78956 
L 520.826318 219.841606 
L 523.782091 75.494531 
L 526.737864 211.787418 
L 529.693636 115.608975 
L 532.649409 239.819322 
L 535.605182 136.327801 
L 538.560955 128.150546 
L 541.516727 155.634813 
L 544.4725 221.366226 
L 547.428273 209.609777 
L 550.384045 157.331674 
L 553.339818 216.333076 
L 556.295591 148.493073 
L 559.251364 159.66794 
L 562.207136 266.318861 
L 565.162909 242.078469 
L 568.118682 201.54698 
L 571.074455 253.101746 
L 574.030227 71.306908 
L 576.986 135.230591 
L 579.941773 345.331924 
L 582.897545 245.242774 
L 585.853318 222.194006 
L 588.809091 287.642243 
L 591.764864 223.131816 
L 594.720636 236.709549 
L 597.676409 76.441893 
L 600.632182 235.067799 
L 603.587955 230.004061 
L 606.543727 342.038745 
L 609.4995 135.422967 
L 612.455273 182.664242 
L 615.411045 237.999329 
L 618.366818 161.444824 
L 621.322591 300.334179 
L 624.278364 303.166584 
L 627.234136 126.539128 
L 630.189909 198.762679 
L 633.145682 186.873225 
L 636.101455 221.872948 
L 639.057227 208.808972 
L 642.013 182.921411 
L 644.968773 152.622035 
L 647.924545 115.354065 
L 650.880318 119.168034 
L 653.836091 299.774668 
L 656.791864 194.588254 
L 659.747636 198.399416 
L 662.703409 275.416889 
L 665.659182 229.506115 
L 668.614955 226.821687 
L 671.570727 118.704679 
L 674.5265 370.227273 
L 677.482273 359.916002 
L 677.482273 359.916002 
" clip-path="url(#p4e563bbefb)" style="fill: none; stroke: #1f77b4; stroke-width: 1.5; stroke-linecap: square"/>
   </g>
   <g id="line2d_30">
    <path d="M 86.327727 204.388317 
L 89.2835 206.43276 
L 92.239273 202.655716 
L 95.195045 202.992733 
L 98.150818 206.547759 
L 101.106591 203.987947 
L 104.062364 200.054169 
L 107.018136 189.842701 
L 109.973909 199.302708 
L 112.929682 193.983633 
L 115.885455 204.959638 
L 118.841227 205.801551 
L 121.797 211.604528 
L 124.752773 210.499445 
L 127.708545 215.764079 
L 130.664318 218.685541 
L 133.620091 212.114542 
L 136.575864 217.442677 
L 139.531636 214.533025 
L 142.487409 207.230273 
L 145.443182 206.306724 
L 148.398955 197.31563 
L 151.354727 203.168731 
L 154.3105 202.272093 
L 157.266273 202.409641 
L 160.222045 206.826805 
L 163.177818 202.083188 
L 166.133591 200.012751 
L 169.089364 196.862841 
L 172.045136 190.482138 
L 175.000909 181.283533 
L 177.956682 181.858146 
L 180.912455 186.41684 
L 183.868227 192.947931 
L 186.824 207.246729 
L 189.779773 212.134999 
L 192.735545 213.037058 
L 195.691318 208.358201 
L 198.647091 201.851324 
L 201.602864 194.301232 
L 204.558636 199.618996 
L 207.514409 192.309784 
L 210.470182 192.437698 
L 213.425955 186.918141 
L 216.381727 184.469586 
L 219.3375 192.199373 
L 222.293273 183.690271 
L 225.249045 191.446685 
L 228.204818 185.017093 
L 231.160591 194.85771 
L 234.116364 193.092784 
L 237.072136 193.237218 
L 240.027909 190.232552 
L 242.983682 186.165092 
L 248.895227 198.920265 
L 251.851 200.766214 
L 254.806773 192.272639 
L 257.762545 205.333162 
L 260.718318 205.387306 
L 263.674091 213.214785 
L 266.629864 200.613771 
L 269.585636 194.371019 
L 272.541409 193.459086 
L 275.497182 188.364352 
L 278.452955 197.341955 
L 281.408727 194.108384 
L 284.3645 185.715353 
L 290.276045 192.675003 
L 293.231818 203.104158 
L 296.187591 192.718679 
L 299.143364 192.042523 
L 302.099136 187.93662 
L 305.054909 196.03582 
L 308.010682 190.581882 
L 310.966455 195.759659 
L 313.922227 194.276631 
L 316.878 199.237625 
L 319.833773 198.348247 
L 322.789545 184.95727 
L 325.745318 193.084175 
L 328.701091 188.770724 
L 331.656864 182.592028 
L 334.612636 189.977255 
L 337.568409 171.82818 
L 340.524182 165.960022 
L 343.479955 167.760268 
L 346.435727 161.177137 
L 349.3915 155.608289 
L 352.347273 157.40008 
L 355.303045 153.232012 
L 358.258818 151.680739 
L 361.214591 155.437209 
L 364.170364 156.983706 
L 367.126136 162.432326 
L 370.081909 166.799935 
L 373.037682 165.2566 
L 375.993455 178.699198 
L 378.949227 179.247867 
L 381.905 184.078379 
L 384.860773 191.446169 
L 387.816545 193.40331 
L 390.772318 195.644156 
L 393.728091 198.065394 
L 396.683864 193.541684 
L 399.639636 194.433178 
L 402.595409 187.129168 
L 405.551182 197.486152 
L 408.506955 204.724282 
L 411.462727 198.843121 
L 414.4185 203.387844 
L 417.374273 194.838666 
L 420.330045 194.792795 
L 423.285818 196.76216 
L 426.241591 193.552777 
L 429.197364 192.601763 
L 432.153136 198.573497 
L 435.108909 195.787809 
L 438.064682 199.442611 
L 441.020455 193.502737 
L 443.976227 203.142207 
L 446.932 199.096166 
L 449.887773 189.753063 
L 452.843545 189.700274 
L 455.799318 197.497685 
L 458.755091 197.882381 
L 461.710864 199.361847 
L 464.666636 189.573206 
L 467.622409 184.44887 
L 470.578182 178.645247 
L 473.533955 179.124284 
L 476.489727 179.424239 
L 479.4455 164.842097 
L 482.401273 160.777347 
L 485.357045 165.384442 
L 488.312818 168.875031 
L 491.268591 157.670672 
L 494.224364 160.722945 
L 497.180136 164.362802 
L 500.135909 157.697196 
L 506.047455 171.558556 
L 509.003227 181.733207 
L 511.959 178.647506 
L 514.914773 179.251417 
L 517.870545 185.020127 
L 520.826318 191.242176 
L 523.782091 191.645057 
L 526.737864 178.98844 
L 529.693636 171.946277 
L 532.649409 175.390595 
L 535.605182 170.836418 
L 538.560955 168.426648 
L 541.516727 172.331094 
L 544.4725 191.622657 
L 547.428273 200.484141 
L 550.384045 194.877528 
L 553.339818 193.272525 
L 556.295591 190.765449 
L 559.251364 196.71788 
L 562.207136 206.859524 
L 565.162909 202.607838 
L 568.118682 213.082103 
L 571.074455 206.75614 
L 574.030227 206.030776 
L 576.986 209.078854 
L 579.941773 216.275189 
L 582.897545 214.835432 
L 585.853318 210.342756 
L 588.809091 208.482365 
L 591.764864 208.095354 
L 594.720636 223.192479 
L 597.676409 222.328495 
L 600.632182 226.013396 
L 603.587955 220.003845 
L 606.543727 232.226747 
L 609.4995 228.844704 
L 612.455273 224.022065 
L 615.411045 221.429663 
L 618.366818 217.983925 
L 621.322591 208.25314 
L 624.278364 204.313393 
L 627.234136 195.80058 
L 630.189909 196.127762 
L 633.145682 197.474416 
L 636.101455 204.374119 
L 639.057227 207.062807 
L 642.013 213.057709 
L 644.968773 205.217839 
L 647.924545 208.297281 
L 650.880318 203.857781 
L 653.836091 209.471416 
L 656.791864 209.40359 
L 659.747636 212.572864 
L 662.703409 216.049191 
L 665.659182 212.239609 
L 668.614955 209.410044 
L 671.570727 212.074273 
L 674.5265 216.506609 
L 677.482273 219.881553 
L 677.482273 219.881553 
" clip-path="url(#p4e563bbefb)" style="fill: none; stroke: #ff7f0e; stroke-width: 1.5; stroke-linecap: square"/>
   </g>
   <g id="patch_3">
    <path d="M 56.77 386.44 
L 56.77 29.76 
" style="fill: none; stroke: #000000; stroke-width: 0.8; stroke-linejoin: miter; stroke-linecap: square"/>
   </g>
   <g id="patch_4">
    <path d="M 707.04 386.44 
L 707.04 29.76 
" style="fill: none; stroke: #000000; stroke-width: 0.8; stroke-linejoin: miter; stroke-linecap: square"/>
   </g>
   <g id="patch_5">
    <path d="M 56.77 386.44 
L 707.04 386.44 
" style="fill: none; stroke: #000000; stroke-width: 0.8; stroke-linejoin: miter; stroke-linecap: square"/>
   </g>
   <g id="patch_6">
    <path d="M 56.77 29.76 
L 707.04 29.76 
" style="fill: none; stroke: #000000; stroke-width: 0.8; stroke-linejoin: miter; stroke-linecap: square"/>
   </g>
   <g id="text_16">
    <!-- Plot of the noise for one simulation run -->
    <g transform="translate(241.496 23.76)scale(0.144 -0.144)">
     <defs>
      <path id="DejaVuSans-50" d="M 1259 4147 
L 1259 2394 
L 2053 2394 
Q 2494 2394 2734 2622 
Q 2975 2850 2975 3272 
Q 2975 3691 2734 3919 
Q 2494 4147 2053 4147 
L 1259 4147 
z
M 628 4666 
L 2053 4666 
Q 2838 4666 3239 4311 
Q 3641 3956 3641 3272 
Q 3641 2581 3239 2228 
Q 2838 1875 2053 1875 
L 1259 1875 
L 1259 0 
L 628 0 
L 628 4666 
z
" transform="scale(0.015625)"/>
      <path id="DejaVuSans-6c" d="M 603 4863 
L 1178 4863 
L 1178 0 
L 603 0 
L 603 4863 
z
" transform="scale(0.015625)"/>
      <path id="DejaVuSans-74" d="M 1172 4494 
L 1172 3500 
L 2356 3500 
L 2356 3053 
L 1172 3053 
L 1172 1153 
Q 1172 725 1289 603 
Q 1406 481 1766 481 
L 2356 481 
L 2356 0 
L 1766 0 
Q 1100 0 847 248 
Q 594 497 594 1153 
L 594 3053 
L 172 3053 
L 172 3500 
L 594 3500 
L 594 4494 
L 1172 4494 
z
" transform="scale(0.015625)"/>
      <path id="DejaVuSans-20" transform="scale(0.015625)"/>
      <path id="DejaVuSans-66" d="M 2375 4863 
L 2375 4384 
L 1825 4384 
Q 1516 4384 1395 4259 
Q 1275 4134 1275 3809 
L 1275 3500 
L 2222 3500 
L 2222 3053 
L 1275 3053 
L 1275 0 
L 697 0 
L 697 3053 
L 147 3053 
L 147 3500 
L 697 3500 
L 697 3744 
Q 697 4328 969 4595 
Q 1241 4863 1831 4863 
L 2375 4863 
z
" transform="scale(0.015625)"/>
      <path id="DejaVuSans-65" d="M 3597 1894 
L 3597 1613 
L 953 1613 
Q 991 1019 1311 708 
Q 1631 397 2203 397 
Q 2534 397 2845 478 
Q 3156 559 3463 722 
L 3463 178 
Q 3153 47 2828 -22 
Q 2503 -91 2169 -91 
Q 1331 -91 842 396 
Q 353 884 353 1716 
Q 353 2575 817 3079 
Q 1281 3584 2069 3584 
Q 2775 3584 3186 3129 
Q 3597 2675 3597 1894 
z
M 3022 2063 
Q 3016 2534 2758 2815 
Q 2500 3097 2075 3097 
Q 1594 3097 1305 2825 
Q 1016 2553 972 2059 
L 3022 2063 
z
" transform="scale(0.015625)"/>
      <path id="DejaVuSans-6e" d="M 3513 2113 
L 3513 0 
L 2938 0 
L 2938 2094 
Q 2938 2591 2744 2837 
Q 2550 3084 2163 3084 
Q 1697 3084 1428 2787 
Q 1159 2491 1159 1978 
L 1159 0 
L 581 0 
L 581 3500 
L 1159 3500 
L 1159 2956 
Q 1366 3272 1645 3428 
Q 1925 3584 2291 3584 
Q 2894 3584 3203 3211 
Q 3513 2838 3513 2113 
z
" transform="scale(0.015625)"/>
      <path id="DejaVuSans-69" d="M 603 3500 
L 1178 3500 
L 1178 0 
L 603 0 
L 603 3500 
z
M 603 4863 
L 1178 4863 
L 1178 4134 
L 603 4134 
L 603 4863 
z
" transform="scale(0.015625)"/>
      <path id="DejaVuSans-73" d="M 2834 3397 
L 2834 2853 
Q 2591 2978 2328 3040 
Q 2066 3103 1784 3103 
Q 1356 3103 1142 2972 
Q 928 2841 928 2578 
Q 928 2378 1081 2264 
Q 1234 2150 1697 2047 
L 1894 2003 
Q 2506 1872 2764 1633 
Q 3022 1394 3022 966 
Q 3022 478 2636 193 
Q 2250 -91 1575 -91 
Q 1294 -91 989 -36 
Q 684 19 347 128 
L 347 722 
Q 666 556 975 473 
Q 1284 391 1588 391 
Q 1994 391 2212 530 
Q 2431 669 2431 922 
Q 2431 1156 2273 1281 
Q 2116 1406 1581 1522 
L 1381 1569 
Q 847 1681 609 1914 
Q 372 2147 372 2553 
Q 372 3047 722 3315 
Q 1072 3584 1716 3584 
Q 2034 3584 2315 3537 
Q 2597 3491 2834 3397 
z
" transform="scale(0.015625)"/>
      <path id="DejaVuSans-72" d="M 2631 2963 
Q 2534 3019 2420 3045 
Q 2306 3072 2169 3072 
Q 1681 3072 1420 2755 
Q 1159 2438 1159 1844 
L 1159 0 
L 581 0 
L 581 3500 
L 1159 3500 
L 1159 2956 
Q 1341 3275 1631 3429 
Q 1922 3584 2338 3584 
Q 2397 3584 2469 3576 
Q 2541 3569 2628 3553 
L 2631 2963 
z
" transform="scale(0.015625)"/>
      <path id="DejaVuSans-6d" d="M 3328 2828 
Q 3544 3216 3844 3400 
Q 4144 3584 4550 3584 
Q 5097 3584 5394 3201 
Q 5691 2819 5691 2113 
L 5691 0 
L 5113 0 
L 5113 2094 
Q 5113 2597 4934 2840 
Q 4756 3084 4391 3084 
Q 3944 3084 3684 2787 
Q 3425 2491 3425 1978 
L 3425 0 
L 2847 0 
L 2847 2094 
Q 2847 2600 2669 2842 
Q 2491 3084 2119 3084 
Q 1678 3084 1418 2786 
Q 1159 2488 1159 1978 
L 1159 0 
L 581 0 
L 581 3500 
L 1159 3500 
L 1159 2956 
Q 1356 3278 1631 3431 
Q 1906 3584 2284 3584 
Q 2666 3584 2933 3390 
Q 3200 3197 3328 2828 
z
" transform="scale(0.015625)"/>
      <path id="DejaVuSans-75" d="M 544 1381 
L 544 3500 
L 1119 3500 
L 1119 1403 
Q 1119 906 1312 657 
Q 1506 409 1894 409 
Q 2359 409 2629 706 
Q 2900 1003 2900 1516 
L 2900 3500 
L 3475 3500 
L 3475 0 
L 2900 0 
L 2900 538 
Q 2691 219 2414 64 
Q 2138 -91 1772 -91 
Q 1169 -91 856 284 
Q 544 659 544 1381 
z
M 1991 3584 
L 1991 3584 
z
" transform="scale(0.015625)"/>
      <path id="DejaVuSans-61" d="M 2194 1759 
Q 1497 1759 1228 1600 
Q 959 1441 959 1056 
Q 959 750 1161 570 
Q 1363 391 1709 391 
Q 2188 391 2477 730 
Q 2766 1069 2766 1631 
L 2766 1759 
L 2194 1759 
z
M 3341 1997 
L 3341 0 
L 2766 0 
L 2766 531 
Q 2569 213 2275 61 
Q 1981 -91 1556 -91 
Q 1019 -91 701 211 
Q 384 513 384 1019 
Q 384 1609 779 1909 
Q 1175 2209 1959 2209 
L 2766 2209 
L 2766 2266 
Q 2766 2663 2505 2880 
Q 2244 3097 1772 3097 
Q 1472 3097 1187 3025 
Q 903 2953 641 2809 
L 641 3341 
Q 956 3463 1253 3523 
Q 1550 3584 1831 3584 
Q 2591 3584 2966 3190 
Q 3341 2797 3341 1997 
z
" transform="scale(0.015625)"/>
     </defs>
     <use xlink:href="#DejaVuSans-50"/>
     <use xlink:href="#DejaVuSans-6c" x="60.302734"/>
     <use xlink:href="#DejaVuSans-6f" x="88.085938"/>
     <use xlink:href="#DejaVuSans-74" x="149.267578"/>
     <use xlink:href="#DejaVuSans-20" x="188.476562"/>
     <use xlink:href="#DejaVuSans-6f" x="220.263672"/>
     <use xlink:href="#DejaVuSans-66" x="281.445312"/>
     <use xlink:href="#DejaVuSans-20" x="316.650391"/>
     <use xlink:href="#DejaVuSans-74" x="348.4375"/>
     <use xlink:href="#DejaVuSans-68" x="387.646484"/>
     <use xlink:href="#DejaVuSans-65" x="451.025391"/>
     <use xlink:href="#DejaVuSans-20" x="512.548828"/>
     <use xlink:href="#DejaVuSans-6e" x="544.335938"/>
     <use xlink:href="#DejaVuSans-6f" x="607.714844"/>
     <use xlink:href="#DejaVuSans-69" x="668.896484"/>
     <use xlink:href="#DejaVuSans-73" x="696.679688"/>
     <use xlink:href="#DejaVuSans-65" x="748.779297"/>
     <use xlink:href="#DejaVuSans-20" x="810.302734"/>
     <use xlink:href="#DejaVuSans-66" x="842.089844"/>
     <use xlink:href="#DejaVuSans-6f" x="877.294922"/>
     <use xlink:href="#DejaVuSans-72" x="938.476562"/>
     <use xlink:href="#DejaVuSans-20" x="979.589844"/>
     <use xlink:href="#DejaVuSans-6f" x="1011.376953"/>
     <use xlink:href="#DejaVuSans-6e" x="1072.558594"/>
     <use xlink:href="#DejaVuSans-65" x="1135.9375"/>
     <use xlink:href="#DejaVuSans-20" x="1197.460938"/>
     <use xlink:href="#DejaVuSans-73" x="1229.248047"/>
     <use xlink:href="#DejaVuSans-69" x="1281.347656"/>
     <use xlink:href="#DejaVuSans-6d" x="1309.130859"/>
     <use xlink:href="#DejaVuSans-75" x="1406.542969"/>
     <use xlink:href="#DejaVuSans-6c" x="1469.921875"/>
     <use xlink:href="#DejaVuSans-61" x="1497.705078"/>
     <use xlink:href="#DejaVuSans-74" x="1558.984375"/>
     <use xlink:href="#DejaVuSans-69" x="1598.193359"/>
     <use xlink:href="#DejaVuSans-6f" x="1625.976562"/>
     <use xlink:href="#DejaVuSans-6e" x="1687.158203"/>
     <use xlink:href="#DejaVuSans-20" x="1750.537109"/>
     <use xlink:href="#DejaVuSans-72" x="1782.324219"/>
     <use xlink:href="#DejaVuSans-75" x="1823.4375"/>
     <use xlink:href="#DejaVuSans-6e" x="1886.816406"/>
    </g>
   </g>
   <g id="legend_1">
    <g id="patch_7">
     <path d="M 65.17 380.44 
L 218.805625 380.44 
Q 221.205625 380.44 221.205625 378.04 
L 221.205625 344.0125 
Q 221.205625 341.6125 218.805625 341.6125 
L 65.17 341.6125 
Q 62.77 341.6125 62.77 344.0125 
L 62.77 378.04 
Q 62.77 380.44 65.17 380.44 
z
" style="fill: #ffffff; opacity: 0.8; stroke: #cccccc; stroke-linejoin: miter"/>
    </g>
    <g id="line2d_31">
     <path d="M 67.57 351.330625 
L 79.57 351.330625 
L 91.57 351.330625 
" style="fill: none; stroke: #1f77b4; stroke-width: 1.5; stroke-linecap: square"/>
    </g>
    <g id="text_17">
     <!-- True -->
     <g transform="translate(101.17 355.530625)scale(0.12 -0.12)">
      <defs>
       <path id="DejaVuSans-54" d="M -19 4666 
L 3928 4666 
L 3928 4134 
L 2272 4134 
L 2272 0 
L 1638 0 
L 1638 4134 
L -19 4134 
L -19 4666 
z
" transform="scale(0.015625)"/>
      </defs>
      <use xlink:href="#DejaVuSans-54"/>
      <use xlink:href="#DejaVuSans-72" x="46.333984"/>
      <use xlink:href="#DejaVuSans-75" x="87.447266"/>
      <use xlink:href="#DejaVuSans-65" x="150.826172"/>
     </g>
    </g>
    <g id="line2d_32">
     <path d="M 67.57 368.944375 
L 79.57 368.944375 
L 91.57 368.944375 
" style="fill: none; stroke: #ff7f0e; stroke-width: 1.5; stroke-linecap: square"/>
    </g>
    <g id="text_18">
     <!-- Smoother estimate -->
     <g transform="translate(101.17 373.144375)scale(0.12 -0.12)">
      <defs>
       <path id="DejaVuSans-53" d="M 3425 4513 
L 3425 3897 
Q 3066 4069 2747 4153 
Q 2428 4238 2131 4238 
Q 1616 4238 1336 4038 
Q 1056 3838 1056 3469 
Q 1056 3159 1242 3001 
Q 1428 2844 1947 2747 
L 2328 2669 
Q 3034 2534 3370 2195 
Q 3706 1856 3706 1288 
Q 3706 609 3251 259 
Q 2797 -91 1919 -91 
Q 1588 -91 1214 -16 
Q 841 59 441 206 
L 441 856 
Q 825 641 1194 531 
Q 1563 422 1919 422 
Q 2459 422 2753 634 
Q 3047 847 3047 1241 
Q 3047 1584 2836 1778 
Q 2625 1972 2144 2069 
L 1759 2144 
Q 1053 2284 737 2584 
Q 422 2884 422 3419 
Q 422 4038 858 4394 
Q 1294 4750 2059 4750 
Q 2388 4750 2728 4690 
Q 3069 4631 3425 4513 
z
" transform="scale(0.015625)"/>
      </defs>
      <use xlink:href="#DejaVuSans-53"/>
      <use xlink:href="#DejaVuSans-6d" x="63.476562"/>
      <use xlink:href="#DejaVuSans-6f" x="160.888672"/>
      <use xlink:href="#DejaVuSans-6f" x="222.070312"/>
      <use xlink:href="#DejaVuSans-74" x="283.251953"/>
      <use xlink:href="#DejaVuSans-68" x="322.460938"/>
      <use xlink:href="#DejaVuSans-65" x="385.839844"/>
      <use xlink:href="#DejaVuSans-72" x="447.363281"/>
      <use xlink:href="#DejaVuSans-20" x="488.476562"/>
      <use xlink:href="#DejaVuSans-65" x="520.263672"/>
      <use xlink:href="#DejaVuSans-73" x="581.787109"/>
      <use xlink:href="#DejaVuSans-74" x="633.886719"/>
      <use xlink:href="#DejaVuSans-69" x="673.095703"/>
      <use xlink:href="#DejaVuSans-6d" x="700.878906"/>
      <use xlink:href="#DejaVuSans-61" x="798.291016"/>
      <use xlink:href="#DejaVuSans-74" x="859.570312"/>
      <use xlink:href="#DejaVuSans-65" x="898.779297"/>
     </g>
    </g>
   </g>
  </g>
 </g>
 <defs>
  <clipPath id="p4e563bbefb">
   <rect x="56.77" y="29.76" width="650.27" height="356.68"/>
  </clipPath>
 </defs>
</svg>
