<?xml version="1.0" encoding="utf-8" standalone="no"?>
<!DOCTYPE svg PUBLIC "-//W3C//DTD SVG 1.1//EN"
  "http://www.w3.org/Graphics/SVG/1.1/DTD/svg11.dtd">
<svg xmlns:xlink="http://www.w3.org/1999/xlink" width="720pt" height="432pt" viewBox="0 0 720 432" xmlns="http://www.w3.org/2000/svg" version="1.1">
 <metadata>
  <rdf:RDF xmlns:dc="http://purl.org/dc/elements/1.1/" xmlns:cc="http://creativecommons.org/ns#" xmlns:rdf="http://www.w3.org/1999/02/22-rdf-syntax-ns#">
   <cc:Work>
    <dc:type rdf:resource="http://purl.org/dc/dcmitype/StillImage"/>
    <dc:date>2025-11-05T11:59:20.598500</dc:date>
    <dc:format>image/svg+xml</dc:format>
    <dc:creator>
     <cc:Agent>
      <dc:title>Matplotlib v3.8.4, https://matplotlib.org/</dc:title>
     </cc:Agent>
    </dc:creator>
   </cc:Work>
  </rdf:RDF>
 </metadata>
 <defs>
  <style type="text/css">*{stroke-linejoin: round; stroke-linecap: butt}</style>
 </defs>
 <g id="figure_1">
  <g id="patch_1">
   <path d="M 0 432 
L 720 432 
L 720 0 
L 0 0 
z
" style="fill: #ffffff"/>
  </g>
  <g id="axes_1">
   <g id="patch_2">
    <path d="M 52.99 401.24 
L 707.04 401.24 
L 707.04 29.76 
L 52.99 29.76 
z
" style="fill: #ffffff"/>
   </g>
   <g id="PathCollection_1">
    <defs>
     <path id="mc372b85607" d="M 0 3 
C 0.795609 3 1.55874 2.683901 2.12132 2.12132 
C 2.683901 1.55874 3 0.795609 3 0 
C 3 -0.795609 2.683901 -1.55874 2.12132 -2.12132 
C 1.55874 -2.683901 0.795609 -3 0 -3 
C -0.795609 -3 -1.55874 -2.683901 -2.12132 -2.12132 
C -2.683901 -1.55874 -3 -0.795609 -3 0 
C -3 0.795609 -2.683901 1.55874 -2.12132 2.12132 
C -1.55874 2.683901 -0.795609 3 0 3 
z
" style="stroke: #1f77b4"/>
    </defs>
    <g clip-path="url(#pf45a6ff815)">
     <use xlink:href="#mc372b85607" x="389.816459" y="58.96536" style="fill: #1f77b4; stroke: #1f77b4"/>
     <use xlink:href="#mc372b85607" x="385.463077" y="63.393083" style="fill: #1f77b4; stroke: #1f77b4"/>
     <use xlink:href="#mc372b85607" x="380.221871" y="59.159717" style="fill: #1f77b4; stroke: #1f77b4"/>
     <use xlink:href="#mc372b85607" x="377.460016" y="55.959793" style="fill: #1f77b4; stroke: #1f77b4"/>
     <use xlink:href="#mc372b85607" x="375.35558" y="53.757303" style="fill: #1f77b4; stroke: #1f77b4"/>
     <use xlink:href="#mc372b85607" x="370.837837" y="55.340992" style="fill: #1f77b4; stroke: #1f77b4"/>
     <use xlink:href="#mc372b85607" x="361.486592" y="54.886943" style="fill: #1f77b4; stroke: #1f77b4"/>
     <use xlink:href="#mc372b85607" x="359.507339" y="52.702591" style="fill: #1f77b4; stroke: #1f77b4"/>
     <use xlink:href="#mc372b85607" x="361.177353" y="54.341112" style="fill: #1f77b4; stroke: #1f77b4"/>
     <use xlink:href="#mc372b85607" x="346.969148" y="56.005105" style="fill: #1f77b4; stroke: #1f77b4"/>
     <use xlink:href="#mc372b85607" x="343.189968" y="54.795238" style="fill: #1f77b4; stroke: #1f77b4"/>
     <use xlink:href="#mc372b85607" x="334.781029" y="57.498861" style="fill: #1f77b4; stroke: #1f77b4"/>
     <use xlink:href="#mc372b85607" x="334.177098" y="58.872542" style="fill: #1f77b4; stroke: #1f77b4"/>
     <use xlink:href="#mc372b85607" x="326.467695" y="62.412608" style="fill: #1f77b4; stroke: #1f77b4"/>
     <use xlink:href="#mc372b85607" x="318.471001" y="65.670655" style="fill: #1f77b4; stroke: #1f77b4"/>
     <use xlink:href="#mc372b85607" x="315.298596" y="65.921662" style="fill: #1f77b4; stroke: #1f77b4"/>
     <use xlink:href="#mc372b85607" x="307.822228" y="68.037658" style="fill: #1f77b4; stroke: #1f77b4"/>
     <use xlink:href="#mc372b85607" x="309.662564" y="79.641577" style="fill: #1f77b4; stroke: #1f77b4"/>
     <use xlink:href="#mc372b85607" x="300.888845" y="75.531993" style="fill: #1f77b4; stroke: #1f77b4"/>
     <use xlink:href="#mc372b85607" x="292.16393" y="82.609426" style="fill: #1f77b4; stroke: #1f77b4"/>
     <use xlink:href="#mc372b85607" x="287.97911" y="86.585096" style="fill: #1f77b4; stroke: #1f77b4"/>
     <use xlink:href="#mc372b85607" x="281.930605" y="95.018197" style="fill: #1f77b4; stroke: #1f77b4"/>
     <use xlink:href="#mc372b85607" x="280.664991" y="91.855469" style="fill: #1f77b4; stroke: #1f77b4"/>
     <use xlink:href="#mc372b85607" x="269.732127" y="104.040247" style="fill: #1f77b4; stroke: #1f77b4"/>
    </g>
   </g>
   <g id="matplotlib.axis_1">
    <g id="xtick_1">
     <g id="line2d_1">
      <path d="M 165.699615 401.24 
L 165.699615 29.76 
" clip-path="url(#pf45a6ff815)" style="fill: none; stroke: #b0b0b0; stroke-width: 0.8; stroke-linecap: square"/>
     </g>
     <g id="line2d_2">
      <defs>
       <path id="ma85836714b" d="M 0 0 
L 0 3.5 
" style="stroke: #000000; stroke-width: 0.8"/>
      </defs>
      <g>
       <use xlink:href="#ma85836714b" x="165.699615" y="401.24" style="stroke: #000000; stroke-width: 0.8"/>
      </g>
     </g>
     <g id="text_1">
      <!-- −10 -->
      <g transform="translate(153.036803 417.358125) scale(0.12 -0.12)">
       <defs>
        <path id="DejaVuSans-2212" d="M 678 2272 
L 4684 2272 
L 4684 1741 
L 678 1741 
L 678 2272 
z
" transform="scale(0.015625)"/>
        <path id="DejaVuSans-31" d="M 794 531 
L 1825 531 
L 1825 4091 
L 703 3866 
L 703 4441 
L 1819 4666 
L 2450 4666 
L 2450 531 
L 3481 531 
L 3481 0 
L 794 0 
L 794 531 
z
" transform="scale(0.015625)"/>
        <path id="DejaVuSans-30" d="M 2034 4250 
Q 1547 4250 1301 3770 
Q 1056 3291 1056 2328 
Q 1056 1369 1301 889 
Q 1547 409 2034 409 
Q 2525 409 2770 889 
Q 3016 1369 3016 2328 
Q 3016 3291 2770 3770 
Q 2525 4250 2034 4250 
z
M 2034 4750 
Q 2819 4750 3233 4129 
Q 3647 3509 3647 2328 
Q 3647 1150 3233 529 
Q 2819 -91 2034 -91 
Q 1250 -91 836 529 
Q 422 1150 422 2328 
Q 422 3509 836 4129 
Q 1250 4750 2034 4750 
z
" transform="scale(0.015625)"/>
       </defs>
       <use xlink:href="#DejaVuSans-2212"/>
       <use xlink:href="#DejaVuSans-31" x="83.789062"/>
       <use xlink:href="#DejaVuSans-30" x="147.412109"/>
      </g>
     </g>
    </g>
    <g id="xtick_2">
     <g id="line2d_3">
      <path d="M 308.576538 401.24 
L 308.576538 29.76 
" clip-path="url(#pf45a6ff815)" style="fill: none; stroke: #b0b0b0; stroke-width: 0.8; stroke-linecap: square"/>
     </g>
     <g id="line2d_4">
      <g>
       <use xlink:href="#ma85836714b" x="308.576538" y="401.24" style="stroke: #000000; stroke-width: 0.8"/>
      </g>
     </g>
     <g id="text_2">
      <!-- −5 -->
      <g transform="translate(299.731226 417.358125) scale(0.12 -0.12)">
       <defs>
        <path id="DejaVuSans-35" d="M 691 4666 
L 3169 4666 
L 3169 4134 
L 1269 4134 
L 1269 2991 
Q 1406 3038 1543 3061 
Q 1681 3084 1819 3084 
Q 2600 3084 3056 2656 
Q 3513 2228 3513 1497 
Q 3513 744 3044 326 
Q 2575 -91 1722 -91 
Q 1428 -91 1123 -41 
Q 819 9 494 109 
L 494 744 
Q 775 591 1075 516 
Q 1375 441 1709 441 
Q 2250 441 2565 725 
Q 2881 1009 2881 1497 
Q 2881 1984 2565 2268 
Q 2250 2553 1709 2553 
Q 1456 2553 1204 2497 
Q 953 2441 691 2322 
L 691 4666 
z
" transform="scale(0.015625)"/>
       </defs>
       <use xlink:href="#DejaVuSans-2212"/>
       <use xlink:href="#DejaVuSans-35" x="83.789062"/>
      </g>
     </g>
    </g>
    <g id="xtick_3">
     <g id="line2d_5">
      <path d="M 451.453462 401.24 
L 451.453462 29.76 
" clip-path="url(#pf45a6ff815)" style="fill: none; stroke: #b0b0b0; stroke-width: 0.8; stroke-linecap: square"/>
     </g>
     <g id="line2d_6">
      <g>
       <use xlink:href="#ma85836714b" x="451.453462" y="401.24" style="stroke: #000000; stroke-width: 0.8"/>
      </g>
     </g>
     <g id="text_3">
      <!-- 0 -->
      <g transform="translate(447.635962 417.358125) scale(0.12 -0.12)">
       <use xlink:href="#DejaVuSans-30"/>
      </g>
     </g>
    </g>
    <g id="xtick_4">
     <g id="line2d_7">
      <path d="M 594.330385 401.24 
L 594.330385 29.76 
" clip-path="url(#pf45a6ff815)" style="fill: none; stroke: #b0b0b0; stroke-width: 0.8; stroke-linecap: square"/>
     </g>
     <g id="line2d_8">
      <g>
       <use xlink:href="#ma85836714b" x="594.330385" y="401.24" style="stroke: #000000; stroke-width: 0.8"/>
      </g>
     </g>
     <g id="text_4">
      <!-- 5 -->
      <g transform="translate(590.512885 417.358125) scale(0.12 -0.12)">
       <use xlink:href="#DejaVuSans-35"/>
      </g>
     </g>
    </g>
   </g>
   <g id="matplotlib.axis_2">
    <g id="ytick_1">
     <g id="line2d_9">
      <path d="M 52.99 401.24 
L 707.04 401.24 
" clip-path="url(#pf45a6ff815)" style="fill: none; stroke: #b0b0b0; stroke-width: 0.8; stroke-linecap: square"/>
     </g>
     <g id="line2d_10">
      <defs>
       <path id="md84a95ccd9" d="M 0 0 
L -3.5 0 
" style="stroke: #000000; stroke-width: 0.8"/>
      </defs>
      <g>
       <use xlink:href="#md84a95ccd9" x="52.99" y="401.24" style="stroke: #000000; stroke-width: 0.8"/>
      </g>
     </g>
     <g id="text_5">
      <!-- −6 -->
      <g transform="translate(28.299375 405.799062) scale(0.12 -0.12)">
       <defs>
        <path id="DejaVuSans-36" d="M 2113 2584 
Q 1688 2584 1439 2293 
Q 1191 2003 1191 1497 
Q 1191 994 1439 701 
Q 1688 409 2113 409 
Q 2538 409 2786 701 
Q 3034 994 3034 1497 
Q 3034 2003 2786 2293 
Q 2538 2584 2113 2584 
z
M 3366 4563 
L 3366 3988 
Q 3128 4100 2886 4159 
Q 2644 4219 2406 4219 
Q 1781 4219 1451 3797 
Q 1122 3375 1075 2522 
Q 1259 2794 1537 2939 
Q 1816 3084 2150 3084 
Q 2853 3084 3261 2657 
Q 3669 2231 3669 1497 
Q 3669 778 3244 343 
Q 2819 -91 2113 -91 
Q 1303 -91 875 529 
Q 447 1150 447 2328 
Q 447 3434 972 4092 
Q 1497 4750 2381 4750 
Q 2619 4750 2861 4703 
Q 3103 4656 3366 4563 
z
" transform="scale(0.015625)"/>
       </defs>
       <use xlink:href="#DejaVuSans-2212"/>
       <use xlink:href="#DejaVuSans-36" x="83.789062"/>
      </g>
     </g>
    </g>
    <g id="ytick_2">
     <g id="line2d_11">
      <path d="M 52.99 344.089231 
L 707.04 344.089231 
" clip-path="url(#pf45a6ff815)" style="fill: none; stroke: #b0b0b0; stroke-width: 0.8; stroke-linecap: square"/>
     </g>
     <g id="line2d_12">
      <g>
       <use xlink:href="#md84a95ccd9" x="52.99" y="344.089231" style="stroke: #000000; stroke-width: 0.8"/>
      </g>
     </g>
     <g id="text_6">
      <!-- −4 -->
      <g transform="translate(28.299375 348.648293) scale(0.12 -0.12)">
       <defs>
        <path id="DejaVuSans-34" d="M 2419 4116 
L 825 1625 
L 2419 1625 
L 2419 4116 
z
M 2253 4666 
L 3047 4666 
L 3047 1625 
L 3713 1625 
L 3713 1100 
L 3047 1100 
L 3047 0 
L 2419 0 
L 2419 1100 
L 313 1100 
L 313 1709 
L 2253 4666 
z
" transform="scale(0.015625)"/>
       </defs>
       <use xlink:href="#DejaVuSans-2212"/>
       <use xlink:href="#DejaVuSans-34" x="83.789062"/>
      </g>
     </g>
    </g>
    <g id="ytick_3">
     <g id="line2d_13">
      <path d="M 52.99 286.938462 
L 707.04 286.938462 
" clip-path="url(#pf45a6ff815)" style="fill: none; stroke: #b0b0b0; stroke-width: 0.8; stroke-linecap: square"/>
     </g>
     <g id="line2d_14">
      <g>
       <use xlink:href="#md84a95ccd9" x="52.99" y="286.938462" style="stroke: #000000; stroke-width: 0.8"/>
      </g>
     </g>
     <g id="text_7">
      <!-- −2 -->
      <g transform="translate(28.299375 291.497524) scale(0.12 -0.12)">
       <defs>
        <path id="DejaVuSans-32" d="M 1228 531 
L 3431 531 
L 3431 0 
L 469 0 
L 469 531 
Q 828 903 1448 1529 
Q 2069 2156 2228 2338 
Q 2531 2678 2651 2914 
Q 2772 3150 2772 3378 
Q 2772 3750 2511 3984 
Q 2250 4219 1831 4219 
Q 1534 4219 1204 4116 
Q 875 4013 500 3803 
L 500 4441 
Q 881 4594 1212 4672 
Q 1544 4750 1819 4750 
Q 2544 4750 2975 4387 
Q 3406 4025 3406 3419 
Q 3406 3131 3298 2873 
Q 3191 2616 2906 2266 
Q 2828 2175 2409 1742 
Q 1991 1309 1228 531 
z
" transform="scale(0.015625)"/>
       </defs>
       <use xlink:href="#DejaVuSans-2212"/>
       <use xlink:href="#DejaVuSans-32" x="83.789062"/>
      </g>
     </g>
    </g>
    <g id="ytick_4">
     <g id="line2d_15">
      <path d="M 52.99 229.787692 
L 707.04 229.787692 
" clip-path="url(#pf45a6ff815)" style="fill: none; stroke: #b0b0b0; stroke-width: 0.8; stroke-linecap: square"/>
     </g>
     <g id="line2d_16">
      <g>
       <use xlink:href="#md84a95ccd9" x="52.99" y="229.787692" style="stroke: #000000; stroke-width: 0.8"/>
      </g>
     </g>
     <g id="text_8">
      <!-- 0 -->
      <g transform="translate(38.355 234.346755) scale(0.12 -0.12)">
       <use xlink:href="#DejaVuSans-30"/>
      </g>
     </g>
    </g>
    <g id="ytick_5">
     <g id="line2d_17">
      <path d="M 52.99 172.636923 
L 707.04 172.636923 
" clip-path="url(#pf45a6ff815)" style="fill: none; stroke: #b0b0b0; stroke-width: 0.8; stroke-linecap: square"/>
     </g>
     <g id="line2d_18">
      <g>
       <use xlink:href="#md84a95ccd9" x="52.99" y="172.636923" style="stroke: #000000; stroke-width: 0.8"/>
      </g>
     </g>
     <g id="text_9">
      <!-- 2 -->
      <g transform="translate(38.355 177.195986) scale(0.12 -0.12)">
       <use xlink:href="#DejaVuSans-32"/>
      </g>
     </g>
    </g>
    <g id="ytick_6">
     <g id="line2d_19">
      <path d="M 52.99 115.486154 
L 707.04 115.486154 
" clip-path="url(#pf45a6ff815)" style="fill: none; stroke: #b0b0b0; stroke-width: 0.8; stroke-linecap: square"/>
     </g>
     <g id="line2d_20">
      <g>
       <use xlink:href="#md84a95ccd9" x="52.99" y="115.486154" style="stroke: #000000; stroke-width: 0.8"/>
      </g>
     </g>
     <g id="text_10">
      <!-- 4 -->
      <g transform="translate(38.355 120.045216) scale(0.12 -0.12)">
       <use xlink:href="#DejaVuSans-34"/>
      </g>
     </g>
    </g>
    <g id="ytick_7">
     <g id="line2d_21">
      <path d="M 52.99 58.335385 
L 707.04 58.335385 
" clip-path="url(#pf45a6ff815)" style="fill: none; stroke: #b0b0b0; stroke-width: 0.8; stroke-linecap: square"/>
     </g>
     <g id="line2d_22">
      <g>
       <use xlink:href="#md84a95ccd9" x="52.99" y="58.335385" style="stroke: #000000; stroke-width: 0.8"/>
      </g>
     </g>
     <g id="text_11">
      <!-- 6 -->
      <g transform="translate(38.355 62.894447) scale(0.12 -0.12)">
       <use xlink:href="#DejaVuSans-36"/>
      </g>
     </g>
    </g>
   </g>
   <g id="line2d_23">
    <path d="M 389.399931 63.238146 
L 386.67414 60.837801 
L 383.633876 58.772569 
L 380.291384 57.050766 
L 376.66012 55.679324 
L 372.754709 54.663766 
L 368.590874 54.008182 
L 364.185383 53.715211 
L 359.555975 53.786032 
L 354.721291 54.220361 
L 349.700798 55.016449 
L 344.514712 56.17109 
L 339.183915 57.679634 
L 333.729874 59.536009 
L 328.174549 61.732737 
L 322.54031 64.260975 
L 316.849843 67.110541 
L 311.126063 70.269962 
L 305.392017 73.726516 
L 299.670794 77.466283 
L 293.985431 81.474207 
L 288.358821 85.734147 
L 282.813621 90.228952 
L 277.372159 94.940521 
L 272.056347 99.849883 
L 266.887588 104.93727 
L 261.886695 110.182196 
L 257.073807 115.563543 
L 252.468301 121.059641 
L 248.088724 126.648359 
L 243.95271 132.307195 
L 240.076913 138.013361 
L 236.47694 143.74388 
L 233.167286 149.475679 
L 230.161279 155.185677 
L 227.471023 160.850882 
L 225.10735 166.448482 
L 223.079777 171.955938 
L 221.396471 177.351073 
L 220.064207 182.612163 
L 219.088351 187.718023 
L 218.472833 192.648094 
L 218.220131 197.382524 
L 218.331262 201.902249 
L 218.805778 206.18907 
L 219.64177 210.225726 
L 220.835871 213.995961 
L 222.383273 217.484595 
L 224.277744 220.677581 
L 226.511657 223.562061 
L 229.076016 226.12642 
L 231.960496 228.360333 
L 235.153482 230.254804 
L 238.642116 231.802206 
L 242.412351 232.996307 
L 246.449007 233.832299 
L 250.735828 234.306815 
L 255.255553 234.417946 
L 259.989983 234.165244 
L 264.920054 233.549726 
L 270.025914 232.57387 
L 275.287003 231.241606 
L 280.682139 229.558299 
L 286.189594 227.530727 
L 291.787195 225.167054 
L 297.4524 222.476798 
L 303.162398 219.470791 
L 308.894197 216.161137 
L 314.624716 212.561164 
L 320.330882 208.685367 
L 325.989717 204.549353 
L 331.578436 200.169776 
L 337.074534 195.56427 
L 342.455881 190.751381 
L 347.700807 185.750489 
L 352.788194 180.58173 
L 357.697556 175.265917 
L 362.409125 169.824456 
L 366.90393 164.279256 
L 371.16387 158.652646 
L 375.171794 152.967283 
L 378.911561 147.24606 
L 382.368115 141.512014 
L 385.527536 135.788233 
L 388.377102 130.097767 
L 390.90534 124.463528 
L 393.102068 118.908203 
L 394.958443 113.454161 
L 396.466987 108.123365 
L 397.621628 102.937279 
L 398.417716 97.916786 
L 398.852045 93.082102 
L 398.922866 88.452694 
L 398.629895 84.047203 
L 397.974311 79.883368 
L 396.958753 75.977956 
L 395.587311 72.346693 
L 393.865508 69.004201 
L 391.800276 65.963937 
L 389.399931 63.238146 
" clip-path="url(#pf45a6ff815)" style="fill: none; stroke: #1f77b4; stroke-width: 1.5; stroke-linecap: square"/>
   </g>
   <g id="line2d_24">
    <path d="M 638.5945 433 
L 627.27843 404.834773 
L 615.01732 375.432774 
L 608.905519 361.206051 
L 602.806543 347.296268 
L 596.720633 333.703974 
L 590.648029 320.429707 
L 584.588973 307.473992 
L 578.543704 294.837343 
L 572.51246 282.520257 
L 566.495481 270.523224 
L 560.493005 258.846717 
L 554.505269 247.491198 
L 548.532509 236.457117 
L 542.574962 225.74491 
L 536.632865 215.355 
L 530.706451 205.287799 
L 524.795955 195.543705 
L 518.901612 186.123104 
L 513.023653 177.026367 
L 507.162313 168.253856 
L 501.317822 159.805916 
L 495.490411 151.682882 
L 489.680312 143.885076 
L 483.887755 136.412806 
L 478.112967 129.266367 
L 472.356178 122.446042 
L 466.617616 115.952101 
L 460.897507 109.784801 
L 455.196078 103.944386 
L 449.513554 98.431087 
L 443.85016 93.245121 
L 438.20612 88.386695 
L 432.581657 83.856 
L 426.976995 79.653215 
L 421.392353 75.778507 
L 415.827955 72.232029 
L 410.284018 69.013921 
L 404.760764 66.124311 
L 399.25841 63.563313 
L 393.777174 61.331028 
L 388.317273 59.427544 
L 382.878922 57.852937 
L 377.462338 56.60727 
L 372.067733 55.69059 
L 366.695322 55.102935 
L 361.345318 54.844328 
L 356.017931 54.91478 
L 350.713372 55.314286 
L 345.431852 56.042832 
L 340.173579 57.100388 
L 334.938761 58.486914 
L 329.727606 60.202353 
L 324.540319 62.246639 
L 319.377106 64.61969 
L 314.23817 67.321412 
L 309.123716 70.351699 
L 304.033945 73.71043 
L 298.969059 77.397473 
L 293.929258 81.412683 
L 288.914742 85.755899 
L 283.925709 90.42695 
L 278.962356 95.425653 
L 274.024879 100.751807 
L 269.113475 106.405204 
L 264.228336 112.38562 
L 259.369657 118.692817 
L 254.53763 125.326547 
L 249.732445 132.286547 
L 244.954293 139.572541 
L 240.203363 147.184242 
L 235.479843 155.121349 
L 230.78392 163.383546 
L 226.115779 171.970508 
L 221.475604 180.881896 
L 216.863581 190.117355 
L 212.279891 199.676522 
L 207.724715 209.559017 
L 203.198233 219.76445 
L 198.700625 230.292418 
L 194.232069 241.142504 
L 189.792741 252.314278 
L 185.382817 263.807299 
L 181.002471 275.621112 
L 176.651877 287.755249 
L 172.331206 300.209232 
L 168.040631 312.982566 
L 163.780319 326.074747 
L 159.550441 339.485258 
L 155.351162 353.213566 
L 151.18265 367.25913 
L 147.045069 381.621394 
L 142.938583 396.29979 
L 138.863355 411.293736 
L 133.176629 433 
L 133.176629 433 
" clip-path="url(#pf45a6ff815)" style="fill: none; stroke: #ff7f0e; stroke-width: 1.5; stroke-linecap: square"/>
   </g>
   <g id="line2d_25">
    <path d="M 457.388395 184.539947 
L 457.279994 178.074967 
L 456.955001 171.65884 
L 456.414047 165.304001 
L 455.658179 159.022764 
L 454.688863 152.827305 
L 453.507976 146.729628 
L 452.117808 140.741552 
L 450.521052 134.874682 
L 448.720804 129.140387 
L 446.720552 123.54978 
L 444.524172 118.113697 
L 442.135922 112.842672 
L 439.560429 107.746921 
L 436.802685 102.836319 
L 433.868034 98.120383 
L 430.762165 93.608252 
L 427.491095 89.308671 
L 424.560632 85.798817 
L 421.517623 82.456248 
L 418.3664 79.285724 
L 415.111451 76.29176 
L 411.757411 73.478619 
L 408.309054 70.850306 
L 404.771293 68.410565 
L 401.149162 66.162868 
L 397.447822 64.110416 
L 393.672541 62.256133 
L 389.828695 60.602657 
L 385.921757 59.152344 
L 381.957292 57.907259 
L 377.940943 56.869174 
L 373.878429 56.039568 
L 369.775536 55.419622 
L 365.638105 55.010219 
L 361.472028 54.811941 
L 357.283236 54.825072 
L 353.077694 55.049591 
L 348.86139 55.48518 
L 344.640329 56.131219 
L 340.42052 56.986787 
L 336.207971 58.050666 
L 332.008682 59.321341 
L 327.828631 60.797004 
L 323.673771 62.475552 
L 319.550017 64.354596 
L 315.463242 66.43146 
L 311.419264 68.703187 
L 306.76306 71.59549 
L 302.181967 74.743004 
L 297.684862 78.139628 
L 293.280462 81.778781 
L 288.977302 85.65341 
L 284.783721 89.756004 
L 280.707847 94.078615 
L 276.757579 98.612864 
L 272.940573 103.349964 
L 269.264225 108.280734 
L 265.735661 113.39562 
L 262.36172 118.684707 
L 259.148938 124.137746 
L 256.103544 129.744168 
L 253.231439 135.493109 
L 250.53819 141.373427 
L 248.029015 147.373726 
L 245.708777 153.482377 
L 243.581974 159.687542 
L 241.652727 165.977195 
L 239.924774 172.339147 
L 238.401466 178.761068 
L 237.085753 185.230512 
L 235.980185 191.734942 
L 235.086906 198.261752 
L 234.407647 204.798293 
L 233.943723 211.331898 
L 233.696034 217.849903 
L 233.66506 224.339678 
L 233.850861 230.788644 
L 234.253077 237.184305 
L 234.870928 243.514264 
L 235.703217 249.766255 
L 236.748331 255.928162 
L 238.004245 261.988041 
L 239.468525 267.93415 
L 241.138332 273.754964 
L 243.010431 279.439204 
L 245.081194 284.975852 
L 247.346607 290.354179 
L 249.80228 295.563762 
L 252.443454 300.594504 
L 255.265011 305.436655 
L 258.261481 310.080833 
L 261.427059 314.518036 
L 264.270365 318.150088 
L 267.229362 321.61858 
L 270.299837 324.918575 
L 273.477417 328.045372 
L 276.757579 330.99452 
L 280.135652 333.761819 
L 283.606825 336.34333 
L 287.166156 338.735375 
L 290.808577 340.93455 
L 294.528901 342.937723 
L 298.321831 344.74204 
L 302.181967 346.344935 
L 306.103811 347.744123 
L 310.08178 348.937613 
L 314.110209 349.923705 
L 318.183362 350.700995 
L 322.295439 351.268376 
L 326.440586 351.625041 
L 330.612899 351.770482 
L 334.806439 351.704491 
L 339.015233 351.427162 
L 343.23329 350.938891 
L 347.454602 350.240372 
L 351.673159 349.3326 
L 355.882954 348.216869 
L 360.077993 346.894765 
L 364.252303 345.368173 
L 368.39994 343.639265 
L 372.514998 341.710504 
L 376.591617 339.584636 
L 380.623993 337.264688 
L 385.264857 334.317208 
L 389.828695 331.115784 
L 394.306662 327.666618 
L 398.69008 323.976397 
L 402.970454 320.052271 
L 407.139488 315.901846 
L 411.189103 311.533165 
L 415.111451 306.954695 
L 418.89893 302.175308 
L 422.5442 297.204267 
L 426.040196 292.051207 
L 429.380144 286.726113 
L 432.557569 281.239306 
L 435.566316 275.60142 
L 438.400551 269.823379 
L 441.054784 263.916384 
L 443.523869 257.89188 
L 445.803022 251.761544 
L 447.887826 245.537256 
L 449.774241 239.231079 
L 451.458609 232.855235 
L 452.937668 226.422079 
L 454.208551 219.94408 
L 455.268794 213.433791 
L 456.116344 206.90383 
L 456.749556 200.366851 
L 457.167206 193.835524 
L 457.368482 187.322506 
L 457.388395 184.539947 
L 457.388395 184.539947 
" clip-path="url(#pf45a6ff815)" style="fill: none; stroke: #2ca02c; stroke-width: 1.5; stroke-linecap: square"/>
   </g>
   <g id="line2d_26">
    <path d="M 447.068745 141.599639 
L 446.950759 136.98 
L 446.597101 132.38647 
L 446.008666 127.830677 
L 445.186943 123.324151 
L 444.134011 118.8783 
L 442.852537 114.504376 
L 441.345764 110.21345 
L 439.617505 106.016384 
L 437.672135 101.9238 
L 435.514578 97.946058 
L 433.150295 94.093227 
L 430.585271 90.375057 
L 427.825998 86.80096 
L 424.87946 83.379983 
L 421.753115 80.120785 
L 418.454876 77.031616 
L 414.993093 74.120294 
L 411.376526 71.394188 
L 407.61433 68.860199 
L 403.716028 66.52474 
L 399.691487 64.393723 
L 395.550894 62.472542 
L 391.304728 60.76606 
L 386.963738 59.278595 
L 382.538912 58.013913 
L 378.041449 56.975216 
L 373.482733 56.165131 
L 368.874303 55.58571 
L 364.227823 55.238419 
L 359.555054 55.124138 
L 354.867824 55.243155 
L 350.177997 55.595169 
L 345.497444 56.179289 
L 340.838011 56.994037 
L 336.211492 58.03735 
L 331.629598 59.306589 
L 327.103926 60.798539 
L 322.645932 62.509425 
L 318.266899 64.434916 
L 313.97791 66.570138 
L 309.789823 68.909688 
L 305.713238 71.447643 
L 301.758473 74.177579 
L 297.935538 77.092587 
L 294.25411 80.185287 
L 290.723507 83.447853 
L 287.352665 86.872026 
L 284.150117 90.449138 
L 281.123968 94.170137 
L 278.281879 98.025602 
L 275.631042 102.005777 
L 273.178168 106.100585 
L 270.929466 110.299664 
L 268.890626 114.592383 
L 267.066811 118.967878 
L 265.462635 123.415074 
L 264.082159 127.922714 
L 262.928878 132.479388 
L 262.005711 137.073564 
L 261.314994 141.693612 
L 260.858475 146.327839 
L 260.637311 150.964514 
L 260.652061 155.591902 
L 260.902687 160.198289 
L 261.388556 164.772018 
L 262.108437 169.30151 
L 263.060508 173.775301 
L 264.24236 178.182066 
L 265.651001 182.510653 
L 267.282865 186.750105 
L 269.133823 190.88969 
L 271.199189 194.918932 
L 273.473734 198.827631 
L 275.951704 202.605894 
L 278.626824 206.244158 
L 281.492323 209.733214 
L 284.54095 213.06423 
L 287.764987 216.228775 
L 291.156274 219.218839 
L 294.706227 222.026854 
L 298.405861 224.645712 
L 302.245811 227.068785 
L 306.216358 229.28994 
L 310.307451 231.303554 
L 314.508736 233.104531 
L 318.809579 234.688312 
L 323.199093 236.050889 
L 327.666168 237.188812 
L 332.199497 238.099201 
L 336.787606 238.779752 
L 341.418881 239.228743 
L 346.081601 239.445037 
L 350.763962 239.428086 
L 355.454114 239.177933 
L 360.140184 238.695212 
L 364.810312 237.981144 
L 369.452678 237.037537 
L 374.055529 235.866779 
L 378.607217 234.471834 
L 383.096219 232.856232 
L 387.511174 231.024063 
L 391.840907 228.979963 
L 396.074459 226.729108 
L 400.201113 224.277195 
L 404.210425 221.630428 
L 408.092247 218.795509 
L 411.836752 215.779612 
L 415.434464 212.590371 
L 418.876275 209.235858 
L 422.153475 205.724565 
L 425.257768 202.065379 
L 428.181296 198.267561 
L 430.91666 194.340725 
L 433.456937 190.29481 
L 435.795695 186.140057 
L 437.927016 181.886982 
L 439.845505 177.54635 
L 441.546307 173.129149 
L 443.025115 168.646558 
L 444.278186 164.109923 
L 445.302351 159.530728 
L 446.095015 154.920564 
L 446.654172 150.291098 
L 446.978408 145.65405 
L 447.068745 141.599639 
L 447.068745 141.599639 
" clip-path="url(#pf45a6ff815)" style="fill: none; stroke: #d62728; stroke-width: 1.5; stroke-linecap: square"/>
   </g>
   <g id="line2d_27">
    <path d="M 443.107963 139.735861 
L 442.996688 135.407741 
L 442.663144 131.093986 
L 442.108175 126.805516 
L 441.333187 122.553183 
L 440.34014 118.347753 
L 439.131548 114.199869 
L 437.710471 110.12003 
L 436.080506 106.118563 
L 434.245777 102.205597 
L 432.210929 98.391034 
L 429.981113 94.684532 
L 427.561972 91.095471 
L 424.95963 87.632936 
L 422.180674 84.30569 
L 419.232137 81.122157 
L 416.121483 78.090393 
L 412.856585 75.218073 
L 409.445707 72.512467 
L 405.897482 69.980423 
L 402.220893 67.62835 
L 398.425244 65.462201 
L 394.520143 63.48746 
L 390.515474 61.709125 
L 386.421374 60.131697 
L 382.248206 58.759168 
L 378.006532 57.595013 
L 373.707089 56.642178 
L 369.360759 55.903076 
L 364.978543 55.379576 
L 360.571534 55.073005 
L 356.150886 54.984137 
L 351.727789 55.113198 
L 347.313438 55.459862 
L 342.919006 56.02325 
L 338.555616 56.801937 
L 334.234313 57.793952 
L 329.966035 58.996783 
L 325.761585 60.407387 
L 321.631605 62.022193 
L 317.586549 63.837113 
L 313.636656 65.847554 
L 309.791922 68.048427 
L 306.062081 70.434161 
L 302.456572 72.998718 
L 298.984522 75.735606 
L 295.654718 78.637898 
L 292.47559 81.698248 
L 289.455184 84.90891 
L 286.601145 88.261756 
L 283.920697 91.748301 
L 281.420624 95.359719 
L 279.107255 99.08687 
L 276.986446 102.920319 
L 275.063564 106.850363 
L 273.343476 110.867056 
L 271.830536 114.960229 
L 270.528573 119.119523 
L 269.440884 123.334411 
L 268.570221 127.594222 
L 267.918788 131.888176 
L 267.488234 136.205403 
L 267.279648 140.534976 
L 267.293559 144.865937 
L 267.529931 149.187322 
L 267.988166 153.488195 
L 268.667105 157.757668 
L 269.565028 161.984935 
L 270.679663 166.159297 
L 272.008189 170.270187 
L 273.547242 174.3072 
L 275.292928 178.260118 
L 277.240828 182.118936 
L 279.386011 185.873885 
L 281.723048 189.515463 
L 284.246023 193.034451 
L 286.94855 196.421943 
L 289.823789 199.669363 
L 292.864462 202.768494 
L 296.062873 205.711489 
L 299.410926 208.490901 
L 302.900146 211.099693 
L 306.521702 213.531263 
L 310.266428 215.779456 
L 314.124844 217.838582 
L 318.087185 219.703428 
L 322.143421 221.369275 
L 326.283285 222.831906 
L 330.496299 224.087618 
L 334.771799 225.133234 
L 339.098964 225.966106 
L 343.46684 226.584127 
L 347.864371 226.985733 
L 352.280427 227.169906 
L 356.703831 227.136181 
L 361.123385 226.884643 
L 365.527904 226.415929 
L 369.906239 225.731225 
L 374.247308 224.832263 
L 378.540122 223.721321 
L 382.773817 222.401209 
L 386.937675 220.875269 
L 391.021159 219.147363 
L 395.013931 217.221865 
L 398.905885 215.103649 
L 402.687171 212.798076 
L 406.348218 210.310981 
L 409.879758 207.648661 
L 413.272853 204.817853 
L 416.518915 201.825724 
L 419.609727 198.679846 
L 422.537466 195.388182 
L 425.294721 191.959064 
L 427.874514 188.401171 
L 430.270314 184.723509 
L 432.476058 180.935387 
L 434.486162 177.046393 
L 436.295539 173.06637 
L 437.899608 169.005393 
L 439.294311 164.87374 
L 440.476115 160.68187 
L 441.442031 156.440393 
L 442.189613 152.160043 
L 442.716969 147.851656 
L 443.022764 143.526137 
L 443.107963 139.735861 
L 443.107963 139.735861 
" clip-path="url(#pf45a6ff815)" style="fill: none; stroke: #9467bd; stroke-width: 1.5; stroke-linecap: square"/>
   </g>
   <g id="patch_3">
    <path d="M 52.99 401.24 
L 52.99 29.76 
" style="fill: none; stroke: #000000; stroke-width: 0.8; stroke-linejoin: miter; stroke-linecap: square"/>
   </g>
   <g id="patch_4">
    <path d="M 707.04 401.24 
L 707.04 29.76 
" style="fill: none; stroke: #000000; stroke-width: 0.8; stroke-linejoin: miter; stroke-linecap: square"/>
   </g>
   <g id="patch_5">
    <path d="M 52.99 401.24 
L 707.04 401.24 
" style="fill: none; stroke: #000000; stroke-width: 0.8; stroke-linejoin: miter; stroke-linecap: square"/>
   </g>
   <g id="patch_6">
    <path d="M 52.99 29.76 
L 707.04 29.76 
" style="fill: none; stroke: #000000; stroke-width: 0.8; stroke-linejoin: miter; stroke-linecap: square"/>
   </g>
   <g id="text_12">
    <!-- 1 sector of ellipse -->
    <g transform="translate(316.118375 23.76) scale(0.144 -0.144)">
     <defs>
      <path id="DejaVuSans-20" transform="scale(0.015625)"/>
      <path id="DejaVuSans-73" d="M 2834 3397 
L 2834 2853 
Q 2591 2978 2328 3040 
Q 2066 3103 1784 3103 
Q 1356 3103 1142 2972 
Q 928 2841 928 2578 
Q 928 2378 1081 2264 
Q 1234 2150 1697 2047 
L 1894 2003 
Q 2506 1872 2764 1633 
Q 3022 1394 3022 966 
Q 3022 478 2636 193 
Q 2250 -91 1575 -91 
Q 1294 -91 989 -36 
Q 684 19 347 128 
L 347 722 
Q 666 556 975 473 
Q 1284 391 1588 391 
Q 1994 391 2212 530 
Q 2431 669 2431 922 
Q 2431 1156 2273 1281 
Q 2116 1406 1581 1522 
L 1381 1569 
Q 847 1681 609 1914 
Q 372 2147 372 2553 
Q 372 3047 722 3315 
Q 1072 3584 1716 3584 
Q 2034 3584 2315 3537 
Q 2597 3491 2834 3397 
z
" transform="scale(0.015625)"/>
      <path id="DejaVuSans-65" d="M 3597 1894 
L 3597 1613 
L 953 1613 
Q 991 1019 1311 708 
Q 1631 397 2203 397 
Q 2534 397 2845 478 
Q 3156 559 3463 722 
L 3463 178 
Q 3153 47 2828 -22 
Q 2503 -91 2169 -91 
Q 1331 -91 842 396 
Q 353 884 353 1716 
Q 353 2575 817 3079 
Q 1281 3584 2069 3584 
Q 2775 3584 3186 3129 
Q 3597 2675 3597 1894 
z
M 3022 2063 
Q 3016 2534 2758 2815 
Q 2500 3097 2075 3097 
Q 1594 3097 1305 2825 
Q 1016 2553 972 2059 
L 3022 2063 
z
" transform="scale(0.015625)"/>
      <path id="DejaVuSans-63" d="M 3122 3366 
L 3122 2828 
Q 2878 2963 2633 3030 
Q 2388 3097 2138 3097 
Q 1578 3097 1268 2742 
Q 959 2388 959 1747 
Q 959 1106 1268 751 
Q 1578 397 2138 397 
Q 2388 397 2633 464 
Q 2878 531 3122 666 
L 3122 134 
Q 2881 22 2623 -34 
Q 2366 -91 2075 -91 
Q 1284 -91 818 406 
Q 353 903 353 1747 
Q 353 2603 823 3093 
Q 1294 3584 2113 3584 
Q 2378 3584 2631 3529 
Q 2884 3475 3122 3366 
z
" transform="scale(0.015625)"/>
      <path id="DejaVuSans-74" d="M 1172 4494 
L 1172 3500 
L 2356 3500 
L 2356 3053 
L 1172 3053 
L 1172 1153 
Q 1172 725 1289 603 
Q 1406 481 1766 481 
L 2356 481 
L 2356 0 
L 1766 0 
Q 1100 0 847 248 
Q 594 497 594 1153 
L 594 3053 
L 172 3053 
L 172 3500 
L 594 3500 
L 594 4494 
L 1172 4494 
z
" transform="scale(0.015625)"/>
      <path id="DejaVuSans-6f" d="M 1959 3097 
Q 1497 3097 1228 2736 
Q 959 2375 959 1747 
Q 959 1119 1226 758 
Q 1494 397 1959 397 
Q 2419 397 2687 759 
Q 2956 1122 2956 1747 
Q 2956 2369 2687 2733 
Q 2419 3097 1959 3097 
z
M 1959 3584 
Q 2709 3584 3137 3096 
Q 3566 2609 3566 1747 
Q 3566 888 3137 398 
Q 2709 -91 1959 -91 
Q 1206 -91 779 398 
Q 353 888 353 1747 
Q 353 2609 779 3096 
Q 1206 3584 1959 3584 
z
" transform="scale(0.015625)"/>
      <path id="DejaVuSans-72" d="M 2631 2963 
Q 2534 3019 2420 3045 
Q 2306 3072 2169 3072 
Q 1681 3072 1420 2755 
Q 1159 2438 1159 1844 
L 1159 0 
L 581 0 
L 581 3500 
L 1159 3500 
L 1159 2956 
Q 1341 3275 1631 3429 
Q 1922 3584 2338 3584 
Q 2397 3584 2469 3576 
Q 2541 3569 2628 3553 
L 2631 2963 
z
" transform="scale(0.015625)"/>
      <path id="DejaVuSans-66" d="M 2375 4863 
L 2375 4384 
L 1825 4384 
Q 1516 4384 1395 4259 
Q 1275 4134 1275 3809 
L 1275 3500 
L 2222 3500 
L 2222 3053 
L 1275 3053 
L 1275 0 
L 697 0 
L 697 3053 
L 147 3053 
L 147 3500 
L 697 3500 
L 697 3744 
Q 697 4328 969 4595 
Q 1241 4863 1831 4863 
L 2375 4863 
z
" transform="scale(0.015625)"/>
      <path id="DejaVuSans-6c" d="M 603 4863 
L 1178 4863 
L 1178 0 
L 603 0 
L 603 4863 
z
" transform="scale(0.015625)"/>
      <path id="DejaVuSans-69" d="M 603 3500 
L 1178 3500 
L 1178 0 
L 603 0 
L 603 3500 
z
M 603 4863 
L 1178 4863 
L 1178 4134 
L 603 4134 
L 603 4863 
z
" transform="scale(0.015625)"/>
      <path id="DejaVuSans-70" d="M 1159 525 
L 1159 -1331 
L 581 -1331 
L 581 3500 
L 1159 3500 
L 1159 2969 
Q 1341 3281 1617 3432 
Q 1894 3584 2278 3584 
Q 2916 3584 3314 3078 
Q 3713 2572 3713 1747 
Q 3713 922 3314 415 
Q 2916 -91 2278 -91 
Q 1894 -91 1617 61 
Q 1341 213 1159 525 
z
M 3116 1747 
Q 3116 2381 2855 2742 
Q 2594 3103 2138 3103 
Q 1681 3103 1420 2742 
Q 1159 2381 1159 1747 
Q 1159 1113 1420 752 
Q 1681 391 2138 391 
Q 2594 391 2855 752 
Q 3116 1113 3116 1747 
z
" transform="scale(0.015625)"/>
     </defs>
     <use xlink:href="#DejaVuSans-31"/>
     <use xlink:href="#DejaVuSans-20" x="63.623047"/>
     <use xlink:href="#DejaVuSans-73" x="95.410156"/>
     <use xlink:href="#DejaVuSans-65" x="147.509766"/>
     <use xlink:href="#DejaVuSans-63" x="209.033203"/>
     <use xlink:href="#DejaVuSans-74" x="264.013672"/>
     <use xlink:href="#DejaVuSans-6f" x="303.222656"/>
     <use xlink:href="#DejaVuSans-72" x="364.404297"/>
     <use xlink:href="#DejaVuSans-20" x="405.517578"/>
     <use xlink:href="#DejaVuSans-6f" x="437.304688"/>
     <use xlink:href="#DejaVuSans-66" x="498.486328"/>
     <use xlink:href="#DejaVuSans-20" x="533.691406"/>
     <use xlink:href="#DejaVuSans-65" x="565.478516"/>
     <use xlink:href="#DejaVuSans-6c" x="627.001953"/>
     <use xlink:href="#DejaVuSans-6c" x="654.785156"/>
     <use xlink:href="#DejaVuSans-69" x="682.568359"/>
     <use xlink:href="#DejaVuSans-70" x="710.351562"/>
     <use xlink:href="#DejaVuSans-73" x="773.828125"/>
     <use xlink:href="#DejaVuSans-65" x="825.927734"/>
    </g>
   </g>
   <g id="legend_1">
    <g id="patch_7">
     <path d="M 571.6125 145.0425 
L 698.64 145.0425 
Q 701.04 145.0425 701.04 142.6425 
L 701.04 38.16 
Q 701.04 35.76 698.64 35.76 
L 571.6125 35.76 
Q 569.2125 35.76 569.2125 38.16 
L 569.2125 142.6425 
Q 569.2125 145.0425 571.6125 145.0425 
z
" style="fill: #ffffff; opacity: 0.8; stroke: #cccccc; stroke-linejoin: miter"/>
    </g>
    <g id="PathCollection_2">
     <g>
      <use xlink:href="#mc372b85607" x="586.0125" y="46.528125" style="fill: #1f77b4; stroke: #1f77b4"/>
     </g>
    </g>
    <g id="text_13">
     <!-- Measurements -->
     <g transform="translate(607.6125 49.678125) scale(0.12 -0.12)">
      <defs>
       <path id="DejaVuSans-4d" d="M 628 4666 
L 1569 4666 
L 2759 1491 
L 3956 4666 
L 4897 4666 
L 4897 0 
L 4281 0 
L 4281 4097 
L 3078 897 
L 2444 897 
L 1241 4097 
L 1241 0 
L 628 0 
L 628 4666 
z
" transform="scale(0.015625)"/>
       <path id="DejaVuSans-61" d="M 2194 1759 
Q 1497 1759 1228 1600 
Q 959 1441 959 1056 
Q 959 750 1161 570 
Q 1363 391 1709 391 
Q 2188 391 2477 730 
Q 2766 1069 2766 1631 
L 2766 1759 
L 2194 1759 
z
M 3341 1997 
L 3341 0 
L 2766 0 
L 2766 531 
Q 2569 213 2275 61 
Q 1981 -91 1556 -91 
Q 1019 -91 701 211 
Q 384 513 384 1019 
Q 384 1609 779 1909 
Q 1175 2209 1959 2209 
L 2766 2209 
L 2766 2266 
Q 2766 2663 2505 2880 
Q 2244 3097 1772 3097 
Q 1472 3097 1187 3025 
Q 903 2953 641 2809 
L 641 3341 
Q 956 3463 1253 3523 
Q 1550 3584 1831 3584 
Q 2591 3584 2966 3190 
Q 3341 2797 3341 1997 
z
" transform="scale(0.015625)"/>
       <path id="DejaVuSans-75" d="M 544 1381 
L 544 3500 
L 1119 3500 
L 1119 1403 
Q 1119 906 1312 657 
Q 1506 409 1894 409 
Q 2359 409 2629 706 
Q 2900 1003 2900 1516 
L 2900 3500 
L 3475 3500 
L 3475 0 
L 2900 0 
L 2900 538 
Q 2691 219 2414 64 
Q 2138 -91 1772 -91 
Q 1169 -91 856 284 
Q 544 659 544 1381 
z
M 1991 3584 
L 1991 3584 
z
" transform="scale(0.015625)"/>
       <path id="DejaVuSans-6d" d="M 3328 2828 
Q 3544 3216 3844 3400 
Q 4144 3584 4550 3584 
Q 5097 3584 5394 3201 
Q 5691 2819 5691 2113 
L 5691 0 
L 5113 0 
L 5113 2094 
Q 5113 2597 4934 2840 
Q 4756 3084 4391 3084 
Q 3944 3084 3684 2787 
Q 3425 2491 3425 1978 
L 3425 0 
L 2847 0 
L 2847 2094 
Q 2847 2600 2669 2842 
Q 2491 3084 2119 3084 
Q 1678 3084 1418 2786 
Q 1159 2488 1159 1978 
L 1159 0 
L 581 0 
L 581 3500 
L 1159 3500 
L 1159 2956 
Q 1356 3278 1631 3431 
Q 1906 3584 2284 3584 
Q 2666 3584 2933 3390 
Q 3200 3197 3328 2828 
z
" transform="scale(0.015625)"/>
       <path id="DejaVuSans-6e" d="M 3513 2113 
L 3513 0 
L 2938 0 
L 2938 2094 
Q 2938 2591 2744 2837 
Q 2550 3084 2163 3084 
Q 1697 3084 1428 2787 
Q 1159 2491 1159 1978 
L 1159 0 
L 581 0 
L 581 3500 
L 1159 3500 
L 1159 2956 
Q 1366 3272 1645 3428 
Q 1925 3584 2291 3584 
Q 2894 3584 3203 3211 
Q 3513 2838 3513 2113 
z
" transform="scale(0.015625)"/>
      </defs>
      <use xlink:href="#DejaVuSans-4d"/>
      <use xlink:href="#DejaVuSans-65" x="86.279297"/>
      <use xlink:href="#DejaVuSans-61" x="147.802734"/>
      <use xlink:href="#DejaVuSans-73" x="209.082031"/>
      <use xlink:href="#DejaVuSans-75" x="261.181641"/>
      <use xlink:href="#DejaVuSans-72" x="324.560547"/>
      <use xlink:href="#DejaVuSans-65" x="363.423828"/>
      <use xlink:href="#DejaVuSans-6d" x="424.947266"/>
      <use xlink:href="#DejaVuSans-65" x="522.359375"/>
      <use xlink:href="#DejaVuSans-6e" x="583.882812"/>
      <use xlink:href="#DejaVuSans-74" x="647.261719"/>
      <use xlink:href="#DejaVuSans-73" x="686.470703"/>
     </g>
    </g>
    <g id="line2d_28">
     <path d="M 574.0125 63.091875 
L 586.0125 63.091875 
L 598.0125 63.091875 
" style="fill: none; stroke: #1f77b4; stroke-width: 1.5; stroke-linecap: square"/>
    </g>
    <g id="text_14">
     <!-- True -->
     <g transform="translate(607.6125 67.291875) scale(0.12 -0.12)">
      <defs>
       <path id="DejaVuSans-54" d="M -19 4666 
L 3928 4666 
L 3928 4134 
L 2272 4134 
L 2272 0 
L 1638 0 
L 1638 4134 
L -19 4134 
L -19 4666 
z
" transform="scale(0.015625)"/>
      </defs>
      <use xlink:href="#DejaVuSans-54"/>
      <use xlink:href="#DejaVuSans-72" x="46.333984"/>
      <use xlink:href="#DejaVuSans-75" x="87.447266"/>
      <use xlink:href="#DejaVuSans-65" x="150.826172"/>
     </g>
    </g>
    <g id="line2d_29">
     <path d="M 574.0125 80.705625 
L 586.0125 80.705625 
L 598.0125 80.705625 
" style="fill: none; stroke: #ff7f0e; stroke-width: 1.5; stroke-linecap: square"/>
    </g>
    <g id="text_15">
     <!-- Fit, $\alpha$=0.00 -->
     <g transform="translate(607.6125 84.905625) scale(0.12 -0.12)">
      <defs>
       <path id="DejaVuSans-46" d="M 628 4666 
L 3309 4666 
L 3309 4134 
L 1259 4134 
L 1259 2759 
L 3109 2759 
L 3109 2228 
L 1259 2228 
L 1259 0 
L 628 0 
L 628 4666 
z
" transform="scale(0.015625)"/>
       <path id="DejaVuSans-2c" d="M 750 794 
L 1409 794 
L 1409 256 
L 897 -744 
L 494 -744 
L 750 256 
L 750 794 
z
" transform="scale(0.015625)"/>
       <path id="DejaVuSans-Oblique-3b1" d="M 2619 1628 
L 2622 2350 
Q 2625 3088 2069 3091 
Q 1653 3094 1394 2747 
Q 1069 2319 959 1747 
Q 825 1059 994 731 
Q 1169 397 1547 397 
Q 1966 397 2319 1063 
L 2619 1628 
z
M 2166 3578 
Q 3141 3594 3128 2584 
Q 3128 2584 3616 3500 
L 4128 3500 
L 3119 1603 
L 3109 919 
Q 3109 766 3194 638 
Q 3291 488 3391 488 
L 3669 488 
L 3575 0 
L 3228 0 
Q 2934 0 2722 263 
Q 2622 394 2619 669 
Q 2416 334 2066 50 
Q 1900 -81 1453 -78 
Q 722 -72 456 397 
Q 184 884 353 1747 
Q 534 2675 1009 3097 
Q 1544 3569 2166 3578 
z
" transform="scale(0.015625)"/>
       <path id="DejaVuSans-3d" d="M 678 2906 
L 4684 2906 
L 4684 2381 
L 678 2381 
L 678 2906 
z
M 678 1631 
L 4684 1631 
L 4684 1100 
L 678 1100 
L 678 1631 
z
" transform="scale(0.015625)"/>
       <path id="DejaVuSans-2e" d="M 684 794 
L 1344 794 
L 1344 0 
L 684 0 
L 684 794 
z
" transform="scale(0.015625)"/>
      </defs>
      <use xlink:href="#DejaVuSans-46" transform="translate(0 0.015625)"/>
      <use xlink:href="#DejaVuSans-69" transform="translate(57.519531 0.015625)"/>
      <use xlink:href="#DejaVuSans-74" transform="translate(85.302734 0.015625)"/>
      <use xlink:href="#DejaVuSans-2c" transform="translate(124.511719 0.015625)"/>
      <use xlink:href="#DejaVuSans-20" transform="translate(156.298828 0.015625)"/>
      <use xlink:href="#DejaVuSans-Oblique-3b1" transform="translate(188.085938 0.015625)"/>
      <use xlink:href="#DejaVuSans-3d" transform="translate(254.003906 0.015625)"/>
      <use xlink:href="#DejaVuSans-30" transform="translate(337.792969 0.015625)"/>
      <use xlink:href="#DejaVuSans-2e" transform="translate(401.416016 0.015625)"/>
      <use xlink:href="#DejaVuSans-30" transform="translate(433.203125 0.015625)"/>
      <use xlink:href="#DejaVuSans-30" transform="translate(496.826172 0.015625)"/>
     </g>
    </g>
    <g id="line2d_30">
     <path d="M 574.0125 98.319375 
L 586.0125 98.319375 
L 598.0125 98.319375 
" style="fill: none; stroke: #2ca02c; stroke-width: 1.5; stroke-linecap: square"/>
    </g>
    <g id="text_16">
     <!-- Fit, $\alpha$=0.01 -->
     <g transform="translate(607.6125 102.519375) scale(0.12 -0.12)">
      <use xlink:href="#DejaVuSans-46" transform="translate(0 0.015625)"/>
      <use xlink:href="#DejaVuSans-69" transform="translate(57.519531 0.015625)"/>
      <use xlink:href="#DejaVuSans-74" transform="translate(85.302734 0.015625)"/>
      <use xlink:href="#DejaVuSans-2c" transform="translate(124.511719 0.015625)"/>
      <use xlink:href="#DejaVuSans-20" transform="translate(156.298828 0.015625)"/>
      <use xlink:href="#DejaVuSans-Oblique-3b1" transform="translate(188.085938 0.015625)"/>
      <use xlink:href="#DejaVuSans-3d" transform="translate(254.003906 0.015625)"/>
      <use xlink:href="#DejaVuSans-30" transform="translate(337.792969 0.015625)"/>
      <use xlink:href="#DejaVuSans-2e" transform="translate(401.416016 0.015625)"/>
      <use xlink:href="#DejaVuSans-30" transform="translate(433.203125 0.015625)"/>
      <use xlink:href="#DejaVuSans-31" transform="translate(496.826172 0.015625)"/>
     </g>
    </g>
    <g id="line2d_31">
     <path d="M 574.0125 115.933125 
L 586.0125 115.933125 
L 598.0125 115.933125 
" style="fill: none; stroke: #d62728; stroke-width: 1.5; stroke-linecap: square"/>
    </g>
    <g id="text_17">
     <!-- Fit, $\alpha$=0.10 -->
     <g transform="translate(607.6125 120.133125) scale(0.12 -0.12)">
      <use xlink:href="#DejaVuSans-46" transform="translate(0 0.015625)"/>
      <use xlink:href="#DejaVuSans-69" transform="translate(57.519531 0.015625)"/>
      <use xlink:href="#DejaVuSans-74" transform="translate(85.302734 0.015625)"/>
      <use xlink:href="#DejaVuSans-2c" transform="translate(124.511719 0.015625)"/>
      <use xlink:href="#DejaVuSans-20" transform="translate(156.298828 0.015625)"/>
      <use xlink:href="#DejaVuSans-Oblique-3b1" transform="translate(188.085938 0.015625)"/>
      <use xlink:href="#DejaVuSans-3d" transform="translate(254.003906 0.015625)"/>
      <use xlink:href="#DejaVuSans-30" transform="translate(337.792969 0.015625)"/>
      <use xlink:href="#DejaVuSans-2e" transform="translate(401.416016 0.015625)"/>
      <use xlink:href="#DejaVuSans-31" transform="translate(433.203125 0.015625)"/>
      <use xlink:href="#DejaVuSans-30" transform="translate(496.826172 0.015625)"/>
     </g>
    </g>
    <g id="line2d_32">
     <path d="M 574.0125 133.546875 
L 586.0125 133.546875 
L 598.0125 133.546875 
" style="fill: none; stroke: #9467bd; stroke-width: 1.5; stroke-linecap: square"/>
    </g>
    <g id="text_18">
     <!-- Fit, $\alpha$=1.00 -->
     <g transform="translate(607.6125 137.746875) scale(0.12 -0.12)">
      <use xlink:href="#DejaVuSans-46" transform="translate(0 0.015625)"/>
      <use xlink:href="#DejaVuSans-69" transform="translate(57.519531 0.015625)"/>
      <use xlink:href="#DejaVuSans-74" transform="translate(85.302734 0.015625)"/>
      <use xlink:href="#DejaVuSans-2c" transform="translate(124.511719 0.015625)"/>
      <use xlink:href="#DejaVuSans-20" transform="translate(156.298828 0.015625)"/>
      <use xlink:href="#DejaVuSans-Oblique-3b1" transform="translate(188.085938 0.015625)"/>
      <use xlink:href="#DejaVuSans-3d" transform="translate(254.003906 0.015625)"/>
      <use xlink:href="#DejaVuSans-31" transform="translate(337.792969 0.015625)"/>
      <use xlink:href="#DejaVuSans-2e" transform="translate(401.416016 0.015625)"/>
      <use xlink:href="#DejaVuSans-30" transform="translate(433.203125 0.015625)"/>
      <use xlink:href="#DejaVuSans-30" transform="translate(496.826172 0.015625)"/>
     </g>
    </g>
   </g>
  </g>
 </g>
 <defs>
  <clipPath id="pf45a6ff815">
   <rect x="52.99" y="29.76" width="654.05" height="371.48"/>
  </clipPath>
 </defs>
</svg>
