<?xml version="1.0" encoding="utf-8" standalone="no"?>
<!DOCTYPE svg PUBLIC "-//W3C//DTD SVG 1.1//EN"
  "http://www.w3.org/Graphics/SVG/1.1/DTD/svg11.dtd">
<svg xmlns:xlink="http://www.w3.org/1999/xlink" width="720pt" height="432pt" viewBox="0 0 720 432" xmlns="http://www.w3.org/2000/svg" version="1.1">
 <metadata>
  <rdf:RDF xmlns:dc="http://purl.org/dc/elements/1.1/" xmlns:cc="http://creativecommons.org/ns#" xmlns:rdf="http://www.w3.org/1999/02/22-rdf-syntax-ns#">
   <cc:Work>
    <dc:type rdf:resource="http://purl.org/dc/dcmitype/StillImage"/>
    <dc:date>2025-11-05T11:57:32.064739</dc:date>
    <dc:format>image/svg+xml</dc:format>
    <dc:creator>
     <cc:Agent>
      <dc:title>Matplotlib v3.8.4, https://matplotlib.org/</dc:title>
     </cc:Agent>
    </dc:creator>
   </cc:Work>
  </rdf:RDF>
 </metadata>
 <defs>
  <style type="text/css">*{stroke-linejoin: round; stroke-linecap: butt}</style>
 </defs>
 <g id="figure_1">
  <g id="patch_1">
   <path d="M 0 432 
L 720 432 
L 720 0 
L 0 0 
z
" style="fill: #ffffff"/>
  </g>
  <g id="axes_1">
   <g id="patch_2">
    <path d="M 27.61 401.24 
L 707.04 401.24 
L 707.04 29.76 
L 27.61 29.76 
z
" style="fill: #ffffff"/>
   </g>
   <g id="PathCollection_1">
    <defs>
     <path id="mbef9029d8f" d="M 0 3 
C 0.795609 3 1.55874 2.683901 2.12132 2.12132 
C 2.683901 1.55874 3 0.795609 3 0 
C 3 -0.795609 2.683901 -1.55874 2.12132 -2.12132 
C 1.55874 -2.683901 0.795609 -3 0 -3 
C -0.795609 -3 -1.55874 -2.683901 -2.12132 -2.12132 
C -2.683901 -1.55874 -3 -0.795609 -3 0 
C -3 0.795609 -2.683901 1.55874 -2.12132 2.12132 
C -1.55874 2.683901 -0.795609 3 0 3 
z
" style="stroke: #1f77b4"/>
    </defs>
    <g clip-path="url(#paec49dbc7e)">
     <use xlink:href="#mbef9029d8f" x="519.246497" y="58.159249" style="fill: #1f77b4; stroke: #1f77b4"/>
     <use xlink:href="#mbef9029d8f" x="511.243016" y="66.299403" style="fill: #1f77b4; stroke: #1f77b4"/>
     <use xlink:href="#mbef9029d8f" x="501.607314" y="58.516566" style="fill: #1f77b4; stroke: #1f77b4"/>
     <use xlink:href="#mbef9029d8f" x="496.529778" y="52.63366" style="fill: #1f77b4; stroke: #1f77b4"/>
     <use xlink:href="#mbef9029d8f" x="492.660876" y="48.584491" style="fill: #1f77b4; stroke: #1f77b4"/>
     <use xlink:href="#mbef9029d8f" x="484.355225" y="51.496026" style="fill: #1f77b4; stroke: #1f77b4"/>
     <use xlink:href="#mbef9029d8f" x="467.163417" y="50.661279" style="fill: #1f77b4; stroke: #1f77b4"/>
     <use xlink:href="#mbef9029d8f" x="463.524656" y="46.645455" style="fill: #1f77b4; stroke: #1f77b4"/>
     <use xlink:href="#mbef9029d8f" x="466.594896" y="49.657796" style="fill: #1f77b4; stroke: #1f77b4"/>
     <use xlink:href="#mbef9029d8f" x="440.473804" y="52.716965" style="fill: #1f77b4; stroke: #1f77b4"/>
     <use xlink:href="#mbef9029d8f" x="433.525966" y="50.492683" style="fill: #1f77b4; stroke: #1f77b4"/>
     <use xlink:href="#mbef9029d8f" x="418.06654" y="55.463162" style="fill: #1f77b4; stroke: #1f77b4"/>
     <use xlink:href="#mbef9029d8f" x="416.956242" y="57.988609" style="fill: #1f77b4; stroke: #1f77b4"/>
     <use xlink:href="#mbef9029d8f" x="402.782882" y="64.496846" style="fill: #1f77b4; stroke: #1f77b4"/>
     <use xlink:href="#mbef9029d8f" x="388.081349" y="70.486608" style="fill: #1f77b4; stroke: #1f77b4"/>
     <use xlink:href="#mbef9029d8f" x="382.249037" y="70.948072" style="fill: #1f77b4; stroke: #1f77b4"/>
     <use xlink:href="#mbef9029d8f" x="368.504098" y="74.838228" style="fill: #1f77b4; stroke: #1f77b4"/>
     <use xlink:href="#mbef9029d8f" x="371.887468" y="96.171468" style="fill: #1f77b4; stroke: #1f77b4"/>
     <use xlink:href="#mbef9029d8f" x="355.757412" y="88.616196" style="fill: #1f77b4; stroke: #1f77b4"/>
     <use xlink:href="#mbef9029d8f" x="339.717082" y="101.627713" style="fill: #1f77b4; stroke: #1f77b4"/>
     <use xlink:href="#mbef9029d8f" x="332.023494" y="108.936788" style="fill: #1f77b4; stroke: #1f77b4"/>
     <use xlink:href="#mbef9029d8f" x="320.903612" y="124.440633" style="fill: #1f77b4; stroke: #1f77b4"/>
     <use xlink:href="#mbef9029d8f" x="318.576843" y="118.626112" style="fill: #1f77b4; stroke: #1f77b4"/>
     <use xlink:href="#mbef9029d8f" x="298.477305" y="141.027232" style="fill: #1f77b4; stroke: #1f77b4"/>
     <use xlink:href="#mbef9029d8f" x="216.869259" y="356.765813" style="fill: #1f77b4; stroke: #1f77b4"/>
     <use xlink:href="#mbef9029d8f" x="228.415234" y="373.15693" style="fill: #1f77b4; stroke: #1f77b4"/>
     <use xlink:href="#mbef9029d8f" x="238.406957" y="375.486911" style="fill: #1f77b4; stroke: #1f77b4"/>
     <use xlink:href="#mbef9029d8f" x="234.310381" y="382.986274" style="fill: #1f77b4; stroke: #1f77b4"/>
     <use xlink:href="#mbef9029d8f" x="251.895928" y="378.944974" style="fill: #1f77b4; stroke: #1f77b4"/>
     <use xlink:href="#mbef9029d8f" x="254.970029" y="373.981726" style="fill: #1f77b4; stroke: #1f77b4"/>
     <use xlink:href="#mbef9029d8f" x="257.633817" y="384.354545" style="fill: #1f77b4; stroke: #1f77b4"/>
     <use xlink:href="#mbef9029d8f" x="269.840884" y="380.224608" style="fill: #1f77b4; stroke: #1f77b4"/>
     <use xlink:href="#mbef9029d8f" x="280.345302" y="381.762844" style="fill: #1f77b4; stroke: #1f77b4"/>
     <use xlink:href="#mbef9029d8f" x="289.306791" y="379.68782" style="fill: #1f77b4; stroke: #1f77b4"/>
     <use xlink:href="#mbef9029d8f" x="295.237015" y="381.601048" style="fill: #1f77b4; stroke: #1f77b4"/>
     <use xlink:href="#mbef9029d8f" x="310.131831" y="379.561106" style="fill: #1f77b4; stroke: #1f77b4"/>
     <use xlink:href="#mbef9029d8f" x="312.528265" y="373.426665" style="fill: #1f77b4; stroke: #1f77b4"/>
     <use xlink:href="#mbef9029d8f" x="327.905262" y="356.202889" style="fill: #1f77b4; stroke: #1f77b4"/>
     <use xlink:href="#mbef9029d8f" x="335.322368" y="358.757596" style="fill: #1f77b4; stroke: #1f77b4"/>
     <use xlink:href="#mbef9029d8f" x="353.364988" y="365.013116" style="fill: #1f77b4; stroke: #1f77b4"/>
     <use xlink:href="#mbef9029d8f" x="363.99947" y="359.460114" style="fill: #1f77b4; stroke: #1f77b4"/>
     <use xlink:href="#mbef9029d8f" x="356.505046" y="343.970759" style="fill: #1f77b4; stroke: #1f77b4"/>
     <use xlink:href="#mbef9029d8f" x="371.785667" y="338.16869" style="fill: #1f77b4; stroke: #1f77b4"/>
     <use xlink:href="#mbef9029d8f" x="387.907236" y="324.693827" style="fill: #1f77b4; stroke: #1f77b4"/>
     <use xlink:href="#mbef9029d8f" x="407.517499" y="328.190163" style="fill: #1f77b4; stroke: #1f77b4"/>
     <use xlink:href="#mbef9029d8f" x="408.565213" y="324.134775" style="fill: #1f77b4; stroke: #1f77b4"/>
     <use xlink:href="#mbef9029d8f" x="419.966675" y="310.762521" style="fill: #1f77b4; stroke: #1f77b4"/>
     <use xlink:href="#mbef9029d8f" x="430.260484" y="299.618192" style="fill: #1f77b4; stroke: #1f77b4"/>
     <use xlink:href="#mbef9029d8f" x="444.858154" y="289.41064" style="fill: #1f77b4; stroke: #1f77b4"/>
    </g>
   </g>
   <g id="matplotlib.axis_1">
    <g id="xtick_1">
     <g id="line2d_1">
      <path d="M 107.218602 401.24 
L 107.218602 29.76 
" clip-path="url(#paec49dbc7e)" style="fill: none; stroke: #b0b0b0; stroke-width: 0.8; stroke-linecap: square"/>
     </g>
     <g id="line2d_2">
      <defs>
       <path id="m40e9dc31eb" d="M 0 0 
L 0 3.5 
" style="stroke: #000000; stroke-width: 0.8"/>
      </defs>
      <g>
       <use xlink:href="#m40e9dc31eb" x="107.218602" y="401.24" style="stroke: #000000; stroke-width: 0.8"/>
      </g>
     </g>
     <g id="text_1">
      <!-- −10 -->
      <g transform="translate(94.55579 417.358125) scale(0.12 -0.12)">
       <defs>
        <path id="DejaVuSans-2212" d="M 678 2272 
L 4684 2272 
L 4684 1741 
L 678 1741 
L 678 2272 
z
" transform="scale(0.015625)"/>
        <path id="DejaVuSans-31" d="M 794 531 
L 1825 531 
L 1825 4091 
L 703 3866 
L 703 4441 
L 1819 4666 
L 2450 4666 
L 2450 531 
L 3481 531 
L 3481 0 
L 794 0 
L 794 531 
z
" transform="scale(0.015625)"/>
        <path id="DejaVuSans-30" d="M 2034 4250 
Q 1547 4250 1301 3770 
Q 1056 3291 1056 2328 
Q 1056 1369 1301 889 
Q 1547 409 2034 409 
Q 2525 409 2770 889 
Q 3016 1369 3016 2328 
Q 3016 3291 2770 3770 
Q 2525 4250 2034 4250 
z
M 2034 4750 
Q 2819 4750 3233 4129 
Q 3647 3509 3647 2328 
Q 3647 1150 3233 529 
Q 2819 -91 2034 -91 
Q 1250 -91 836 529 
Q 422 1150 422 2328 
Q 422 3509 836 4129 
Q 1250 4750 2034 4750 
z
" transform="scale(0.015625)"/>
       </defs>
       <use xlink:href="#DejaVuSans-2212"/>
       <use xlink:href="#DejaVuSans-31" x="83.789062"/>
       <use xlink:href="#DejaVuSans-30" x="147.412109"/>
      </g>
     </g>
    </g>
    <g id="xtick_2">
     <g id="line2d_3">
      <path d="M 212.287506 401.24 
L 212.287506 29.76 
" clip-path="url(#paec49dbc7e)" style="fill: none; stroke: #b0b0b0; stroke-width: 0.8; stroke-linecap: square"/>
     </g>
     <g id="line2d_4">
      <g>
       <use xlink:href="#m40e9dc31eb" x="212.287506" y="401.24" style="stroke: #000000; stroke-width: 0.8"/>
      </g>
     </g>
     <g id="text_2">
      <!-- −8 -->
      <g transform="translate(203.442194 417.358125) scale(0.12 -0.12)">
       <defs>
        <path id="DejaVuSans-38" d="M 2034 2216 
Q 1584 2216 1326 1975 
Q 1069 1734 1069 1313 
Q 1069 891 1326 650 
Q 1584 409 2034 409 
Q 2484 409 2743 651 
Q 3003 894 3003 1313 
Q 3003 1734 2745 1975 
Q 2488 2216 2034 2216 
z
M 1403 2484 
Q 997 2584 770 2862 
Q 544 3141 544 3541 
Q 544 4100 942 4425 
Q 1341 4750 2034 4750 
Q 2731 4750 3128 4425 
Q 3525 4100 3525 3541 
Q 3525 3141 3298 2862 
Q 3072 2584 2669 2484 
Q 3125 2378 3379 2068 
Q 3634 1759 3634 1313 
Q 3634 634 3220 271 
Q 2806 -91 2034 -91 
Q 1263 -91 848 271 
Q 434 634 434 1313 
Q 434 1759 690 2068 
Q 947 2378 1403 2484 
z
M 1172 3481 
Q 1172 3119 1398 2916 
Q 1625 2713 2034 2713 
Q 2441 2713 2670 2916 
Q 2900 3119 2900 3481 
Q 2900 3844 2670 4047 
Q 2441 4250 2034 4250 
Q 1625 4250 1398 4047 
Q 1172 3844 1172 3481 
z
" transform="scale(0.015625)"/>
       </defs>
       <use xlink:href="#DejaVuSans-2212"/>
       <use xlink:href="#DejaVuSans-38" x="83.789062"/>
      </g>
     </g>
    </g>
    <g id="xtick_3">
     <g id="line2d_5">
      <path d="M 317.35641 401.24 
L 317.35641 29.76 
" clip-path="url(#paec49dbc7e)" style="fill: none; stroke: #b0b0b0; stroke-width: 0.8; stroke-linecap: square"/>
     </g>
     <g id="line2d_6">
      <g>
       <use xlink:href="#m40e9dc31eb" x="317.35641" y="401.24" style="stroke: #000000; stroke-width: 0.8"/>
      </g>
     </g>
     <g id="text_3">
      <!-- −6 -->
      <g transform="translate(308.511098 417.358125) scale(0.12 -0.12)">
       <defs>
        <path id="DejaVuSans-36" d="M 2113 2584 
Q 1688 2584 1439 2293 
Q 1191 2003 1191 1497 
Q 1191 994 1439 701 
Q 1688 409 2113 409 
Q 2538 409 2786 701 
Q 3034 994 3034 1497 
Q 3034 2003 2786 2293 
Q 2538 2584 2113 2584 
z
M 3366 4563 
L 3366 3988 
Q 3128 4100 2886 4159 
Q 2644 4219 2406 4219 
Q 1781 4219 1451 3797 
Q 1122 3375 1075 2522 
Q 1259 2794 1537 2939 
Q 1816 3084 2150 3084 
Q 2853 3084 3261 2657 
Q 3669 2231 3669 1497 
Q 3669 778 3244 343 
Q 2819 -91 2113 -91 
Q 1303 -91 875 529 
Q 447 1150 447 2328 
Q 447 3434 972 4092 
Q 1497 4750 2381 4750 
Q 2619 4750 2861 4703 
Q 3103 4656 3366 4563 
z
" transform="scale(0.015625)"/>
       </defs>
       <use xlink:href="#DejaVuSans-2212"/>
       <use xlink:href="#DejaVuSans-36" x="83.789062"/>
      </g>
     </g>
    </g>
    <g id="xtick_4">
     <g id="line2d_7">
      <path d="M 422.425314 401.24 
L 422.425314 29.76 
" clip-path="url(#paec49dbc7e)" style="fill: none; stroke: #b0b0b0; stroke-width: 0.8; stroke-linecap: square"/>
     </g>
     <g id="line2d_8">
      <g>
       <use xlink:href="#m40e9dc31eb" x="422.425314" y="401.24" style="stroke: #000000; stroke-width: 0.8"/>
      </g>
     </g>
     <g id="text_4">
      <!-- −4 -->
      <g transform="translate(413.580002 417.358125) scale(0.12 -0.12)">
       <defs>
        <path id="DejaVuSans-34" d="M 2419 4116 
L 825 1625 
L 2419 1625 
L 2419 4116 
z
M 2253 4666 
L 3047 4666 
L 3047 1625 
L 3713 1625 
L 3713 1100 
L 3047 1100 
L 3047 0 
L 2419 0 
L 2419 1100 
L 313 1100 
L 313 1709 
L 2253 4666 
z
" transform="scale(0.015625)"/>
       </defs>
       <use xlink:href="#DejaVuSans-2212"/>
       <use xlink:href="#DejaVuSans-34" x="83.789062"/>
      </g>
     </g>
    </g>
    <g id="xtick_5">
     <g id="line2d_9">
      <path d="M 527.494218 401.24 
L 527.494218 29.76 
" clip-path="url(#paec49dbc7e)" style="fill: none; stroke: #b0b0b0; stroke-width: 0.8; stroke-linecap: square"/>
     </g>
     <g id="line2d_10">
      <g>
       <use xlink:href="#m40e9dc31eb" x="527.494218" y="401.24" style="stroke: #000000; stroke-width: 0.8"/>
      </g>
     </g>
     <g id="text_5">
      <!-- −2 -->
      <g transform="translate(518.648906 417.358125) scale(0.12 -0.12)">
       <defs>
        <path id="DejaVuSans-32" d="M 1228 531 
L 3431 531 
L 3431 0 
L 469 0 
L 469 531 
Q 828 903 1448 1529 
Q 2069 2156 2228 2338 
Q 2531 2678 2651 2914 
Q 2772 3150 2772 3378 
Q 2772 3750 2511 3984 
Q 2250 4219 1831 4219 
Q 1534 4219 1204 4116 
Q 875 4013 500 3803 
L 500 4441 
Q 881 4594 1212 4672 
Q 1544 4750 1819 4750 
Q 2544 4750 2975 4387 
Q 3406 4025 3406 3419 
Q 3406 3131 3298 2873 
Q 3191 2616 2906 2266 
Q 2828 2175 2409 1742 
Q 1991 1309 1228 531 
z
" transform="scale(0.015625)"/>
       </defs>
       <use xlink:href="#DejaVuSans-2212"/>
       <use xlink:href="#DejaVuSans-32" x="83.789062"/>
      </g>
     </g>
    </g>
    <g id="xtick_6">
     <g id="line2d_11">
      <path d="M 632.563122 401.24 
L 632.563122 29.76 
" clip-path="url(#paec49dbc7e)" style="fill: none; stroke: #b0b0b0; stroke-width: 0.8; stroke-linecap: square"/>
     </g>
     <g id="line2d_12">
      <g>
       <use xlink:href="#m40e9dc31eb" x="632.563122" y="401.24" style="stroke: #000000; stroke-width: 0.8"/>
      </g>
     </g>
     <g id="text_6">
      <!-- 0 -->
      <g transform="translate(628.745622 417.358125) scale(0.12 -0.12)">
       <use xlink:href="#DejaVuSans-30"/>
      </g>
     </g>
    </g>
   </g>
   <g id="matplotlib.axis_2">
    <g id="ytick_1">
     <g id="line2d_13">
      <path d="M 27.61 372.207782 
L 707.04 372.207782 
" clip-path="url(#paec49dbc7e)" style="fill: none; stroke: #b0b0b0; stroke-width: 0.8; stroke-linecap: square"/>
     </g>
     <g id="line2d_14">
      <defs>
       <path id="mc48d22759a" d="M 0 0 
L -3.5 0 
" style="stroke: #000000; stroke-width: 0.8"/>
      </defs>
      <g>
       <use xlink:href="#mc48d22759a" x="27.61" y="372.207782" style="stroke: #000000; stroke-width: 0.8"/>
      </g>
     </g>
     <g id="text_7">
      <!-- 0 -->
      <g transform="translate(12.975 376.766845) scale(0.12 -0.12)">
       <use xlink:href="#DejaVuSans-30"/>
      </g>
     </g>
    </g>
    <g id="ytick_2">
     <g id="line2d_15">
      <path d="M 27.61 319.67333 
L 707.04 319.67333 
" clip-path="url(#paec49dbc7e)" style="fill: none; stroke: #b0b0b0; stroke-width: 0.8; stroke-linecap: square"/>
     </g>
     <g id="line2d_16">
      <g>
       <use xlink:href="#mc48d22759a" x="27.61" y="319.67333" style="stroke: #000000; stroke-width: 0.8"/>
      </g>
     </g>
     <g id="text_8">
      <!-- 1 -->
      <g transform="translate(12.975 324.232393) scale(0.12 -0.12)">
       <use xlink:href="#DejaVuSans-31"/>
      </g>
     </g>
    </g>
    <g id="ytick_3">
     <g id="line2d_17">
      <path d="M 27.61 267.138878 
L 707.04 267.138878 
" clip-path="url(#paec49dbc7e)" style="fill: none; stroke: #b0b0b0; stroke-width: 0.8; stroke-linecap: square"/>
     </g>
     <g id="line2d_18">
      <g>
       <use xlink:href="#mc48d22759a" x="27.61" y="267.138878" style="stroke: #000000; stroke-width: 0.8"/>
      </g>
     </g>
     <g id="text_9">
      <!-- 2 -->
      <g transform="translate(12.975 271.697941) scale(0.12 -0.12)">
       <use xlink:href="#DejaVuSans-32"/>
      </g>
     </g>
    </g>
    <g id="ytick_4">
     <g id="line2d_19">
      <path d="M 27.61 214.604426 
L 707.04 214.604426 
" clip-path="url(#paec49dbc7e)" style="fill: none; stroke: #b0b0b0; stroke-width: 0.8; stroke-linecap: square"/>
     </g>
     <g id="line2d_20">
      <g>
       <use xlink:href="#mc48d22759a" x="27.61" y="214.604426" style="stroke: #000000; stroke-width: 0.8"/>
      </g>
     </g>
     <g id="text_10">
      <!-- 3 -->
      <g transform="translate(12.975 219.163489) scale(0.12 -0.12)">
       <defs>
        <path id="DejaVuSans-33" d="M 2597 2516 
Q 3050 2419 3304 2112 
Q 3559 1806 3559 1356 
Q 3559 666 3084 287 
Q 2609 -91 1734 -91 
Q 1441 -91 1130 -33 
Q 819 25 488 141 
L 488 750 
Q 750 597 1062 519 
Q 1375 441 1716 441 
Q 2309 441 2620 675 
Q 2931 909 2931 1356 
Q 2931 1769 2642 2001 
Q 2353 2234 1838 2234 
L 1294 2234 
L 1294 2753 
L 1863 2753 
Q 2328 2753 2575 2939 
Q 2822 3125 2822 3475 
Q 2822 3834 2567 4026 
Q 2313 4219 1838 4219 
Q 1578 4219 1281 4162 
Q 984 4106 628 3988 
L 628 4550 
Q 988 4650 1302 4700 
Q 1616 4750 1894 4750 
Q 2613 4750 3031 4423 
Q 3450 4097 3450 3541 
Q 3450 3153 3228 2886 
Q 3006 2619 2597 2516 
z
" transform="scale(0.015625)"/>
       </defs>
       <use xlink:href="#DejaVuSans-33"/>
      </g>
     </g>
    </g>
    <g id="ytick_5">
     <g id="line2d_21">
      <path d="M 27.61 162.069974 
L 707.04 162.069974 
" clip-path="url(#paec49dbc7e)" style="fill: none; stroke: #b0b0b0; stroke-width: 0.8; stroke-linecap: square"/>
     </g>
     <g id="line2d_22">
      <g>
       <use xlink:href="#mc48d22759a" x="27.61" y="162.069974" style="stroke: #000000; stroke-width: 0.8"/>
      </g>
     </g>
     <g id="text_11">
      <!-- 4 -->
      <g transform="translate(12.975 166.629037) scale(0.12 -0.12)">
       <use xlink:href="#DejaVuSans-34"/>
      </g>
     </g>
    </g>
    <g id="ytick_6">
     <g id="line2d_23">
      <path d="M 27.61 109.535523 
L 707.04 109.535523 
" clip-path="url(#paec49dbc7e)" style="fill: none; stroke: #b0b0b0; stroke-width: 0.8; stroke-linecap: square"/>
     </g>
     <g id="line2d_24">
      <g>
       <use xlink:href="#mc48d22759a" x="27.61" y="109.535523" style="stroke: #000000; stroke-width: 0.8"/>
      </g>
     </g>
     <g id="text_12">
      <!-- 5 -->
      <g transform="translate(12.975 114.094585) scale(0.12 -0.12)">
       <defs>
        <path id="DejaVuSans-35" d="M 691 4666 
L 3169 4666 
L 3169 4134 
L 1269 4134 
L 1269 2991 
Q 1406 3038 1543 3061 
Q 1681 3084 1819 3084 
Q 2600 3084 3056 2656 
Q 3513 2228 3513 1497 
Q 3513 744 3044 326 
Q 2575 -91 1722 -91 
Q 1428 -91 1123 -41 
Q 819 9 494 109 
L 494 744 
Q 775 591 1075 516 
Q 1375 441 1709 441 
Q 2250 441 2565 725 
Q 2881 1009 2881 1497 
Q 2881 1984 2565 2268 
Q 2250 2553 1709 2553 
Q 1456 2553 1204 2497 
Q 953 2441 691 2322 
L 691 4666 
z
" transform="scale(0.015625)"/>
       </defs>
       <use xlink:href="#DejaVuSans-35"/>
      </g>
     </g>
    </g>
    <g id="ytick_7">
     <g id="line2d_25">
      <path d="M 27.61 57.001071 
L 707.04 57.001071 
" clip-path="url(#paec49dbc7e)" style="fill: none; stroke: #b0b0b0; stroke-width: 0.8; stroke-linecap: square"/>
     </g>
     <g id="line2d_26">
      <g>
       <use xlink:href="#mc48d22759a" x="27.61" y="57.001071" style="stroke: #000000; stroke-width: 0.8"/>
      </g>
     </g>
     <g id="text_13">
      <!-- 6 -->
      <g transform="translate(12.975 61.560133) scale(0.12 -0.12)">
       <use xlink:href="#DejaVuSans-36"/>
      </g>
     </g>
    </g>
   </g>
   <g id="line2d_27">
    <path d="M 518.480731 66.014558 
L 513.469496 61.601641 
L 507.88012 57.804813 
L 501.73511 54.639361 
L 495.05921 52.118033 
L 487.879301 50.250979 
L 480.224294 49.045719 
L 472.125013 48.507106 
L 463.614072 48.637307 
L 454.72574 49.4358 
L 445.495808 50.899369 
L 435.961442 53.02212 
L 426.161033 55.795506 
L 416.134044 59.208359 
L 405.92085 63.246938 
L 395.562575 67.894979 
L 385.10093 73.133768 
L 374.578039 78.942209 
L 364.036275 85.296915 
L 353.518085 92.172296 
L 343.065822 99.540667 
L 332.721575 107.37236 
L 322.526995 115.635839 
L 312.523132 124.297829 
L 302.750269 133.323452 
L 293.247758 142.676365 
L 284.053861 152.318907 
L 275.2056 162.21225 
L 266.738603 172.316559 
L 258.686963 182.591146 
L 251.083102 192.994638 
L 243.957639 203.485146 
L 237.339264 214.020427 
L 231.254627 224.55806 
L 225.72823 235.055613 
L 220.782324 245.470817 
L 216.436826 255.761732 
L 212.709234 265.886921 
L 209.614556 275.805614 
L 207.165254 285.477871 
L 205.371191 294.864746 
L 204.239591 303.928441 
L 203.77501 312.63246 
L 203.979319 320.941754 
L 204.851695 328.822866 
L 206.388625 336.24406 
L 208.583921 343.175454 
L 211.428744 349.589138 
L 214.911637 355.459286 
L 219.018577 360.762262 
L 223.733027 365.476711 
L 229.036002 369.583651 
L 234.90615 373.066545 
L 241.319835 375.911367 
L 248.251229 378.106663 
L 255.672423 379.643594 
L 263.553534 380.51597 
L 271.862829 380.720279 
L 280.566847 380.255698 
L 289.630542 379.124097 
L 299.017417 377.330034 
L 308.689674 374.880733 
L 318.608367 371.786055 
L 328.733557 368.058462 
L 339.024472 363.712964 
L 349.439675 358.767059 
L 359.937228 353.240662 
L 370.474861 347.156025 
L 381.010142 340.53765 
L 391.50065 333.412186 
L 401.904143 325.808326 
L 412.17873 317.756686 
L 422.283038 309.289689 
L 432.176382 300.441427 
L 441.818923 291.247531 
L 451.171836 281.745019 
L 460.197459 271.972156 
L 468.85945 261.968294 
L 477.122928 251.773714 
L 484.954621 241.429466 
L 492.322993 230.977204 
L 499.198374 220.459014 
L 505.553079 209.917249 
L 511.36152 199.394358 
L 516.600309 188.932713 
L 521.248351 178.574439 
L 525.28693 168.361245 
L 528.699783 158.334256 
L 531.473169 148.533846 
L 533.59592 138.99948 
L 535.059488 129.769548 
L 535.857981 120.881217 
L 535.988183 112.370275 
L 535.449569 104.270995 
L 534.244309 96.615988 
L 532.377256 89.436079 
L 529.855927 82.760179 
L 526.690476 76.615169 
L 522.893648 71.025793 
L 518.480731 66.014558 
" clip-path="url(#paec49dbc7e)" style="fill: none; stroke: #1f77b4; stroke-width: 1.5; stroke-linecap: square"/>
   </g>
   <g id="line2d_28">
    <path d="M 535.467162 113.540208 
L 535.349201 108.602071 
L 534.995486 103.814933 
L 534.406522 99.18561 
L 533.583146 94.720693 
L 532.52653 90.426541 
L 531.468924 86.982945 
L 530.251432 83.665591 
L 528.875256 80.477759 
L 527.341759 77.422603 
L 525.652456 74.503142 
L 523.809017 71.722264 
L 521.813267 69.082719 
L 519.667178 66.587117 
L 517.372872 64.237926 
L 514.932618 62.037468 
L 512.34883 59.98792 
L 509.624062 58.091309 
L 506.761008 56.349509 
L 503.7625 54.764243 
L 500.631504 53.33708 
L 497.371114 52.069429 
L 493.984555 50.962545 
L 490.475176 50.017523 
L 486.846447 49.235296 
L 482.339491 48.512591 
L 477.672262 48.026447 
L 472.851405 47.777555 
L 467.883786 47.766269 
L 462.776476 47.992607 
L 457.536749 48.456245 
L 452.172066 49.156523 
L 446.690065 50.092445 
L 441.098552 51.262677 
L 435.405488 52.665553 
L 429.618981 54.299077 
L 423.74727 56.16092 
L 416.800411 58.618089 
L 409.762427 61.377644 
L 402.646958 64.434237 
L 395.467793 67.781945 
L 388.238845 71.414279 
L 380.974124 75.324201 
L 373.68771 79.504132 
L 366.393723 83.945973 
L 359.106299 88.641114 
L 351.839561 93.580457 
L 344.607592 98.754429 
L 337.424408 104.153003 
L 330.30393 109.765717 
L 323.259957 115.581692 
L 316.306141 121.589658 
L 309.455958 127.777972 
L 302.722683 134.134639 
L 296.119367 140.647341 
L 289.658805 147.303457 
L 283.353519 154.090086 
L 277.215729 160.994077 
L 271.257329 168.002048 
L 265.489867 175.10042 
L 259.92452 182.275435 
L 254.572074 189.513187 
L 249.442901 196.799651 
L 244.546944 204.120704 
L 239.893688 211.462159 
L 235.492154 218.809788 
L 231.35087 226.149351 
L 227.477863 233.466624 
L 223.880639 240.747427 
L 220.566169 247.977648 
L 217.540876 255.143276 
L 214.810624 262.230423 
L 212.380704 269.225356 
L 210.255824 276.114517 
L 208.680425 281.9252 
L 207.334415 287.640087 
L 206.219712 293.25104 
L 205.337903 298.75007 
L 204.690244 304.129347 
L 204.277657 309.381211 
L 204.100729 314.498184 
L 204.159712 319.47298 
L 204.454522 324.298516 
L 204.98474 328.96792 
L 205.74961 333.474543 
L 206.748043 337.811969 
L 207.757472 341.29278 
L 208.927118 344.648357 
L 210.255824 347.875382 
L 211.742277 350.970664 
L 213.385007 353.931143 
L 215.18239 356.753891 
L 217.132647 359.436116 
L 219.233851 361.975167 
L 221.483923 364.368532 
L 223.880639 366.613845 
L 226.421629 368.708885 
L 229.10438 370.651581 
L 231.926239 372.440013 
L 234.884415 374.07241 
L 237.975985 375.54716 
L 241.197889 376.862803 
L 244.546944 378.018039 
L 248.019835 379.011725 
L 251.613131 379.84288 
L 256.079007 380.624577 
L 260.706782 381.169939 
L 265.489867 381.478191 
L 270.421451 381.548892 
L 275.494512 381.381944 
L 280.701827 380.977582 
L 286.03598 380.336383 
L 291.489378 379.459261 
L 297.054253 378.347463 
L 302.722683 377.002573 
L 308.486597 375.426507 
L 314.337787 373.621507 
L 321.26336 371.229775 
L 328.28296 368.534587 
L 335.382982 365.541166 
L 342.549665 362.255312 
L 349.769122 358.683395 
L 357.02736 354.832337 
L 364.310314 350.7096 
L 371.603868 346.323175 
L 378.893888 341.681563 
L 386.166246 336.793759 
L 393.406848 331.669236 
L 400.601661 326.317925 
L 407.736742 320.750196 
L 414.798264 314.976841 
L 421.77254 309.009048 
L 428.646055 302.858383 
L 435.405488 296.536765 
L 442.037739 290.056446 
L 448.529955 283.429985 
L 454.869554 276.670224 
L 461.044249 269.790263 
L 467.042074 262.803436 
L 472.851405 255.723284 
L 478.460984 248.563527 
L 483.85994 241.338041 
L 489.037808 234.06083 
L 493.984555 226.745996 
L 498.690593 219.407716 
L 503.146803 212.060211 
L 507.344548 204.717721 
L 511.275692 197.394476 
L 514.932618 190.104667 
L 518.308238 182.862424 
L 521.39601 175.681781 
L 524.18995 168.576654 
L 526.684644 161.560814 
L 528.875256 154.647856 
L 530.507666 148.814512 
L 531.911215 143.074907 
L 533.083907 137.437216 
L 534.02407 131.909464 
L 534.730366 126.499524 
L 535.201789 121.215099 
L 535.437669 116.063712 
L 535.467162 113.540208 
L 535.467162 113.540208 
" clip-path="url(#paec49dbc7e)" style="fill: none; stroke: #ff7f0e; stroke-width: 1.5; stroke-linecap: square"/>
   </g>
   <g id="line2d_29">
    <path d="M 536.499763 114.313236 
L 536.381039 109.367983 
L 536.025035 104.572657 
L 535.432259 99.934086 
L 534.603554 95.458874 
L 533.540101 91.153394 
L 532.475651 87.69958 
L 531.25028 84.371313 
L 529.865198 81.171883 
L 528.321777 78.104455 
L 526.621542 75.172061 
L 524.766174 72.377602 
L 522.757508 69.72384 
L 520.59753 67.213399 
L 518.288377 64.848763 
L 515.832332 62.63227 
L 513.231822 60.566111 
L 510.489421 58.652329 
L 507.60784 56.892818 
L 504.589927 55.289316 
L 501.438668 53.843409 
L 498.157179 52.556528 
L 494.748705 51.429945 
L 491.216615 50.464773 
L 487.564403 49.661968 
L 483.028281 48.914031 
L 478.330848 48.402101 
L 473.478793 48.126908 
L 468.479026 48.088842 
L 463.338665 48.287957 
L 458.06503 48.723972 
L 452.665629 49.396264 
L 447.148152 50.303876 
L 441.520454 51.445517 
L 435.790548 52.819559 
L 429.966594 54.424048 
L 424.056884 56.256698 
L 417.06507 58.679661 
L 409.98154 61.404916 
L 402.820023 64.427181 
L 395.594399 67.7406 
L 388.318669 71.338751 
L 381.006936 75.214661 
L 373.673368 79.360818 
L 366.332178 83.769187 
L 358.997594 88.431224 
L 351.68383 93.337895 
L 344.405061 98.47969 
L 337.175391 103.846645 
L 330.008834 109.428358 
L 322.919276 115.214012 
L 315.920459 121.192394 
L 309.025945 127.351919 
L 302.249097 133.680648 
L 295.603047 140.166318 
L 289.100677 146.796358 
L 282.754587 153.55792 
L 276.577076 160.437899 
L 270.580117 167.422963 
L 264.775331 174.499573 
L 259.173968 181.654017 
L 253.786884 188.872428 
L 248.624519 196.140817 
L 243.696877 203.445097 
L 239.013509 210.771114 
L 234.58349 218.104669 
L 230.415406 225.43155 
L 226.517336 232.737557 
L 222.896832 240.008532 
L 219.560913 247.230382 
L 216.516042 254.389113 
L 213.768121 261.47085 
L 211.322476 268.461869 
L 209.470404 274.371691 
L 207.84654 280.196491 
L 206.453198 285.927975 
L 205.292361 291.557981 
L 204.365682 297.078493 
L 203.674481 302.481651 
L 203.219741 307.759761 
L 203.00211 312.905307 
L 203.021899 317.910963 
L 203.279078 322.769601 
L 203.773282 327.474302 
L 204.503808 332.018369 
L 205.469614 336.395329 
L 206.453198 339.910643 
L 207.598251 343.302103 
L 208.903639 346.566355 
L 210.368071 349.700171 
L 211.9901 352.700453 
L 213.768121 355.564234 
L 215.700377 358.288681 
L 217.784956 360.871102 
L 220.019798 363.308941 
L 222.402692 365.599789 
L 224.931282 367.74138 
L 227.603067 369.731596 
L 230.415406 371.56847 
L 233.365518 373.250185 
L 236.450485 374.775077 
L 239.667257 376.14164 
L 243.012652 377.348522 
L 246.483363 378.394528 
L 250.075958 379.278626 
L 254.542948 380.124604 
L 259.173968 380.734978 
L 263.962424 381.108879 
L 268.901498 381.245774 
L 273.984156 381.145469 
L 279.203163 380.808106 
L 284.551085 380.234166 
L 290.020309 379.424466 
L 295.603047 378.380158 
L 301.29135 377.102731 
L 307.077117 375.594003 
L 312.952111 373.856122 
L 318.907967 371.891562 
L 325.947344 369.316829 
L 333.071593 366.442373 
L 340.266907 363.273763 
L 347.519342 359.81714 
L 354.814841 356.079204 
L 362.139266 352.067199 
L 369.478423 347.7889 
L 376.818088 343.252597 
L 384.144037 338.467084 
L 391.442072 333.441633 
L 398.698049 328.185985 
L 405.897907 322.710324 
L 413.027692 317.025263 
L 420.073587 311.14182 
L 427.021936 305.071396 
L 433.859273 298.825755 
L 440.572349 292.417003 
L 447.148152 285.857559 
L 453.573939 279.160136 
L 459.837257 272.337712 
L 465.925967 265.403511 
L 471.82827 258.370969 
L 477.532726 251.253718 
L 483.028281 244.065549 
L 488.304284 236.820394 
L 493.35051 229.532293 
L 498.157179 222.215372 
L 502.714977 214.88381 
L 507.01507 207.551815 
L 511.049125 200.233598 
L 514.809323 192.943341 
L 518.288377 185.695173 
L 521.479545 178.50314 
L 524.376643 171.38118 
L 526.974055 164.343097 
L 529.266749 157.40253 
L 530.985999 151.541289 
L 532.475651 145.769924 
L 533.733585 140.096652 
L 534.75801 134.529553 
L 535.547466 129.076553 
L 536.100829 123.745416 
L 536.417313 118.543733 
L 536.499763 114.313236 
L 536.499763 114.313236 
" clip-path="url(#paec49dbc7e)" style="fill: none; stroke: #2ca02c; stroke-width: 1.5; stroke-linecap: square"/>
   </g>
   <g id="line2d_30">
    <path d="M 544.011337 120.691486 
L 543.887011 115.679518 
L 543.514212 110.808644 
L 542.893469 106.0858 
L 542.187409 102.268033 
L 541.310472 98.561513 
L 540.263525 94.969906 
L 539.047604 91.496764 
L 537.66391 88.145519 
L 536.113812 84.919488 
L 534.398844 81.821859 
L 532.5207 78.855696 
L 530.481237 76.023932 
L 528.282474 73.329367 
L 525.926583 70.774666 
L 523.415895 68.362355 
L 520.752892 66.094819 
L 517.940208 63.9743 
L 514.980624 62.002896 
L 511.877066 60.182556 
L 508.632604 58.51508 
L 505.250445 57.002116 
L 501.733935 55.645162 
L 498.08655 54.445558 
L 494.311898 53.404492 
L 489.619586 52.365919 
L 484.756072 51.558592 
L 479.728279 50.983662 
L 474.543369 50.641945 
L 469.208723 50.53393 
L 463.731937 50.659769 
L 458.12081 51.019285 
L 452.383331 51.611963 
L 446.52767 52.436962 
L 440.562166 53.493105 
L 434.495311 54.77889 
L 428.335745 56.292485 
L 422.092239 58.031736 
L 415.773682 59.994165 
L 408.319186 62.561993 
L 400.789234 65.424799 
L 393.198419 68.577036 
L 385.561454 72.012594 
L 377.893137 75.724814 
L 370.208331 79.706504 
L 362.521929 83.949945 
L 354.848826 88.446915 
L 347.203894 93.188698 
L 339.601949 98.166104 
L 332.057722 103.369488 
L 324.585834 108.788765 
L 317.200767 114.413433 
L 309.916833 120.232591 
L 302.748147 126.234961 
L 295.708603 132.408911 
L 288.811843 138.742476 
L 282.071234 145.22338 
L 275.499838 151.839065 
L 269.110392 158.576709 
L 262.915277 165.423254 
L 256.9265 172.365432 
L 251.155667 179.389789 
L 245.613963 186.482711 
L 240.312127 193.630453 
L 235.260433 200.819162 
L 230.468673 208.034906 
L 225.946132 215.263701 
L 221.701576 222.491538 
L 217.74323 229.704409 
L 214.078766 236.888336 
L 210.715285 244.029396 
L 207.659306 251.113749 
L 205.289147 257.130508 
L 203.152644 263.086948 
L 201.252839 268.974589 
L 199.592436 274.785047 
L 198.173801 280.510048 
L 196.998953 286.141441 
L 196.069565 291.671207 
L 195.386961 297.091473 
L 194.952112 302.394519 
L 194.765637 307.572796 
L 194.827803 312.61893 
L 195.13852 317.525735 
L 195.697346 322.286226 
L 196.351999 326.136636 
L 197.177756 329.87692 
L 198.173801 333.503379 
L 199.339149 337.012427 
L 200.672647 340.400594 
L 202.172977 343.66453 
L 203.838655 346.801007 
L 205.668034 349.806923 
L 207.659306 352.679307 
L 209.8105 355.415318 
L 212.11949 358.01225 
L 214.583993 360.467535 
L 217.201571 362.778746 
L 219.969636 364.943596 
L 222.885451 366.959946 
L 225.946132 368.825801 
L 229.148654 370.539317 
L 232.489849 372.098798 
L 235.966412 373.502703 
L 239.574908 374.749644 
L 243.311766 375.838387 
L 247.173292 376.767855 
L 251.9663 377.671693 
L 256.9265 378.343574 
L 262.046829 378.782541 
L 267.319997 378.98797 
L 272.738494 378.959567 
L 278.294606 378.697374 
L 283.980421 378.201763 
L 289.787843 377.473441 
L 295.708603 376.513444 
L 301.73427 375.323139 
L 307.856265 373.904221 
L 314.06587 372.258711 
L 320.354243 370.388952 
L 327.778282 367.927709 
L 335.282953 365.169645 
L 342.853714 362.120104 
L 350.475892 358.784996 
L 358.134716 355.170785 
L 365.815341 351.284476 
L 373.502884 347.133599 
L 381.182445 342.7262 
L 388.839143 338.07082 
L 396.458137 333.17648 
L 404.024662 328.052667 
L 411.524055 322.70931 
L 418.941782 317.156765 
L 426.263467 311.405793 
L 433.47492 305.467538 
L 440.562166 299.35351 
L 447.511469 293.075557 
L 454.309362 286.645846 
L 460.942671 280.076839 
L 467.39854 273.381264 
L 473.664457 266.5721 
L 479.728279 259.662541 
L 485.578256 252.665978 
L 491.203048 245.595972 
L 496.591755 238.466224 
L 501.733935 231.29055 
L 506.619621 224.082858 
L 511.239345 216.857117 
L 515.584154 209.627329 
L 519.645628 202.407506 
L 523.415895 195.21164 
L 526.887649 188.053677 
L 530.054161 180.947489 
L 532.5207 174.908122 
L 534.754948 168.925513 
L 536.753725 163.008181 
L 538.514186 157.164551 
L 540.033823 151.402945 
L 541.310472 145.731567 
L 542.342316 140.158491 
L 543.127885 134.691653 
L 543.666061 129.338838 
L 543.956077 124.107667 
L 544.011337 120.691486 
L 544.011337 120.691486 
" clip-path="url(#paec49dbc7e)" style="fill: none; stroke: #d62728; stroke-width: 1.5; stroke-linecap: square"/>
   </g>
   <g id="line2d_31">
    <path d="M 550.458505 158.43135 
L 550.328123 152.875387 
L 549.937162 147.407825 
L 549.412698 142.924672 
L 548.708175 138.512751 
L 547.82429 134.176424 
L 546.761917 129.919979 
L 545.522106 125.747625 
L 544.106083 121.663488 
L 542.515249 117.671606 
L 540.751176 113.775928 
L 538.81561 109.980305 
L 536.710464 106.288491 
L 534.437819 102.704136 
L 531.999923 99.230784 
L 529.399188 95.871871 
L 526.638184 92.630718 
L 523.719641 89.510529 
L 520.646447 86.514391 
L 517.421639 83.645266 
L 514.048406 80.905991 
L 510.530085 78.299275 
L 506.870155 75.827695 
L 503.072234 73.493696 
L 499.140078 71.299586 
L 495.077575 69.247534 
L 490.03618 66.975435 
L 484.820055 64.914051 
L 479.436629 63.066315 
L 473.893566 61.434858 
L 468.198759 60.022005 
L 462.360317 58.829766 
L 456.386554 57.85984 
L 450.285976 57.113607 
L 444.067268 56.59213 
L 437.739287 56.296151 
L 431.311042 56.226092 
L 424.791686 56.382053 
L 418.190503 56.763811 
L 411.516892 57.370823 
L 404.780356 58.202225 
L 397.990486 59.256833 
L 391.156951 60.533145 
L 384.289481 62.029344 
L 377.397854 63.743299 
L 370.491884 65.67257 
L 363.581405 67.81441 
L 356.676255 70.165769 
L 349.786267 72.723298 
L 342.921252 75.483357 
L 336.090984 78.442016 
L 329.305191 81.59506 
L 322.573533 84.938001 
L 315.905596 88.466079 
L 309.310874 92.174271 
L 302.798758 96.057295 
L 296.378521 100.109623 
L 290.059304 104.325485 
L 283.850104 108.698877 
L 277.759764 113.223574 
L 271.796956 117.893131 
L 265.970169 122.7009 
L 260.287701 127.640035 
L 254.757642 132.703504 
L 249.387868 137.884096 
L 244.186024 143.174434 
L 239.159517 148.566987 
L 234.315504 154.054075 
L 229.660883 159.627885 
L 225.202281 165.280481 
L 220.946047 171.003814 
L 216.898242 176.789734 
L 213.064629 182.630004 
L 209.450667 188.516306 
L 206.061501 194.44026 
L 202.901958 200.39343 
L 199.976536 206.36734 
L 197.289402 212.353483 
L 194.84438 218.343336 
L 192.644953 224.32837 
L 190.694253 230.300063 
L 188.995057 236.249911 
L 187.549784 242.169443 
L 186.360492 248.050229 
L 185.428876 253.883897 
L 184.75626 259.662139 
L 184.343604 265.376728 
L 184.191495 271.019526 
L 184.300149 276.5825 
L 184.669411 282.057728 
L 185.175838 286.547761 
L 185.862383 290.967003 
L 186.728368 295.311084 
L 187.772937 299.575708 
L 188.995057 303.756658 
L 190.393518 307.8498 
L 191.966939 311.851086 
L 193.713764 315.75656 
L 195.632264 319.562359 
L 197.720543 323.26472 
L 199.976536 326.859982 
L 202.398013 330.344591 
L 204.982577 333.715099 
L 207.727675 336.968174 
L 210.630591 340.1006 
L 213.688455 343.109279 
L 216.898242 345.991235 
L 220.25678 348.743619 
L 223.760746 351.363709 
L 227.406676 353.848915 
L 231.190965 356.196778 
L 235.10987 358.404977 
L 239.159517 360.471329 
L 244.186024 362.760845 
L 249.387868 364.839905 
L 254.757642 366.70555 
L 260.287701 368.355123 
L 265.970169 369.786274 
L 271.796956 370.996966 
L 277.759764 371.985476 
L 283.850104 372.750395 
L 290.059304 373.290635 
L 296.378521 373.605425 
L 302.798758 373.694319 
L 309.310874 373.557189 
L 315.905596 373.194231 
L 322.573533 372.605961 
L 329.305191 371.793218 
L 336.090984 370.757158 
L 342.921252 369.499256 
L 349.786267 368.021304 
L 356.676255 366.325406 
L 363.581405 364.413978 
L 370.491884 362.289739 
L 377.397854 359.955717 
L 384.289481 357.415233 
L 391.156951 354.671905 
L 397.990486 351.72964 
L 404.780356 348.592626 
L 411.516892 345.265332 
L 418.190503 341.752494 
L 424.791686 338.059114 
L 431.311042 334.190451 
L 437.739287 330.152015 
L 444.067268 325.949554 
L 450.285976 321.589054 
L 456.386554 317.076724 
L 462.360317 312.418987 
L 468.198759 307.622477 
L 473.893566 302.694022 
L 479.436629 297.640642 
L 484.820055 292.469531 
L 490.03618 287.188052 
L 495.077575 281.803726 
L 499.937063 276.32422 
L 504.607724 270.757335 
L 509.082907 265.110998 
L 513.35624 259.39325 
L 517.421639 253.612232 
L 521.273314 247.776175 
L 524.905781 241.893389 
L 528.313869 235.972252 
L 531.492724 230.021193 
L 534.437819 224.048687 
L 537.144962 218.063237 
L 539.610297 212.073368 
L 541.830315 206.087607 
L 543.801853 200.114477 
L 545.522106 194.162485 
L 546.988622 188.240104 
L 548.199315 182.355768 
L 549.152461 176.517856 
L 549.846701 170.734679 
L 550.281048 165.014474 
L 550.454883 159.365384 
L 550.458505 158.43135 
L 550.458505 158.43135 
" clip-path="url(#paec49dbc7e)" style="fill: none; stroke: #9467bd; stroke-width: 1.5; stroke-linecap: square"/>
   </g>
   <g id="patch_3">
    <path d="M 27.61 401.24 
L 27.61 29.76 
" style="fill: none; stroke: #000000; stroke-width: 0.8; stroke-linejoin: miter; stroke-linecap: square"/>
   </g>
   <g id="patch_4">
    <path d="M 707.04 401.24 
L 707.04 29.76 
" style="fill: none; stroke: #000000; stroke-width: 0.8; stroke-linejoin: miter; stroke-linecap: square"/>
   </g>
   <g id="patch_5">
    <path d="M 27.61 401.24 
L 707.04 401.24 
" style="fill: none; stroke: #000000; stroke-width: 0.8; stroke-linejoin: miter; stroke-linecap: square"/>
   </g>
   <g id="patch_6">
    <path d="M 27.61 29.76 
L 707.04 29.76 
" style="fill: none; stroke: #000000; stroke-width: 0.8; stroke-linejoin: miter; stroke-linecap: square"/>
   </g>
   <g id="text_14">
    <!-- 2 sectors of ellipse -->
    <g transform="translate(299.677625 23.76) scale(0.144 -0.144)">
     <defs>
      <path id="DejaVuSans-20" transform="scale(0.015625)"/>
      <path id="DejaVuSans-73" d="M 2834 3397 
L 2834 2853 
Q 2591 2978 2328 3040 
Q 2066 3103 1784 3103 
Q 1356 3103 1142 2972 
Q 928 2841 928 2578 
Q 928 2378 1081 2264 
Q 1234 2150 1697 2047 
L 1894 2003 
Q 2506 1872 2764 1633 
Q 3022 1394 3022 966 
Q 3022 478 2636 193 
Q 2250 -91 1575 -91 
Q 1294 -91 989 -36 
Q 684 19 347 128 
L 347 722 
Q 666 556 975 473 
Q 1284 391 1588 391 
Q 1994 391 2212 530 
Q 2431 669 2431 922 
Q 2431 1156 2273 1281 
Q 2116 1406 1581 1522 
L 1381 1569 
Q 847 1681 609 1914 
Q 372 2147 372 2553 
Q 372 3047 722 3315 
Q 1072 3584 1716 3584 
Q 2034 3584 2315 3537 
Q 2597 3491 2834 3397 
z
" transform="scale(0.015625)"/>
      <path id="DejaVuSans-65" d="M 3597 1894 
L 3597 1613 
L 953 1613 
Q 991 1019 1311 708 
Q 1631 397 2203 397 
Q 2534 397 2845 478 
Q 3156 559 3463 722 
L 3463 178 
Q 3153 47 2828 -22 
Q 2503 -91 2169 -91 
Q 1331 -91 842 396 
Q 353 884 353 1716 
Q 353 2575 817 3079 
Q 1281 3584 2069 3584 
Q 2775 3584 3186 3129 
Q 3597 2675 3597 1894 
z
M 3022 2063 
Q 3016 2534 2758 2815 
Q 2500 3097 2075 3097 
Q 1594 3097 1305 2825 
Q 1016 2553 972 2059 
L 3022 2063 
z
" transform="scale(0.015625)"/>
      <path id="DejaVuSans-63" d="M 3122 3366 
L 3122 2828 
Q 2878 2963 2633 3030 
Q 2388 3097 2138 3097 
Q 1578 3097 1268 2742 
Q 959 2388 959 1747 
Q 959 1106 1268 751 
Q 1578 397 2138 397 
Q 2388 397 2633 464 
Q 2878 531 3122 666 
L 3122 134 
Q 2881 22 2623 -34 
Q 2366 -91 2075 -91 
Q 1284 -91 818 406 
Q 353 903 353 1747 
Q 353 2603 823 3093 
Q 1294 3584 2113 3584 
Q 2378 3584 2631 3529 
Q 2884 3475 3122 3366 
z
" transform="scale(0.015625)"/>
      <path id="DejaVuSans-74" d="M 1172 4494 
L 1172 3500 
L 2356 3500 
L 2356 3053 
L 1172 3053 
L 1172 1153 
Q 1172 725 1289 603 
Q 1406 481 1766 481 
L 2356 481 
L 2356 0 
L 1766 0 
Q 1100 0 847 248 
Q 594 497 594 1153 
L 594 3053 
L 172 3053 
L 172 3500 
L 594 3500 
L 594 4494 
L 1172 4494 
z
" transform="scale(0.015625)"/>
      <path id="DejaVuSans-6f" d="M 1959 3097 
Q 1497 3097 1228 2736 
Q 959 2375 959 1747 
Q 959 1119 1226 758 
Q 1494 397 1959 397 
Q 2419 397 2687 759 
Q 2956 1122 2956 1747 
Q 2956 2369 2687 2733 
Q 2419 3097 1959 3097 
z
M 1959 3584 
Q 2709 3584 3137 3096 
Q 3566 2609 3566 1747 
Q 3566 888 3137 398 
Q 2709 -91 1959 -91 
Q 1206 -91 779 398 
Q 353 888 353 1747 
Q 353 2609 779 3096 
Q 1206 3584 1959 3584 
z
" transform="scale(0.015625)"/>
      <path id="DejaVuSans-72" d="M 2631 2963 
Q 2534 3019 2420 3045 
Q 2306 3072 2169 3072 
Q 1681 3072 1420 2755 
Q 1159 2438 1159 1844 
L 1159 0 
L 581 0 
L 581 3500 
L 1159 3500 
L 1159 2956 
Q 1341 3275 1631 3429 
Q 1922 3584 2338 3584 
Q 2397 3584 2469 3576 
Q 2541 3569 2628 3553 
L 2631 2963 
z
" transform="scale(0.015625)"/>
      <path id="DejaVuSans-66" d="M 2375 4863 
L 2375 4384 
L 1825 4384 
Q 1516 4384 1395 4259 
Q 1275 4134 1275 3809 
L 1275 3500 
L 2222 3500 
L 2222 3053 
L 1275 3053 
L 1275 0 
L 697 0 
L 697 3053 
L 147 3053 
L 147 3500 
L 697 3500 
L 697 3744 
Q 697 4328 969 4595 
Q 1241 4863 1831 4863 
L 2375 4863 
z
" transform="scale(0.015625)"/>
      <path id="DejaVuSans-6c" d="M 603 4863 
L 1178 4863 
L 1178 0 
L 603 0 
L 603 4863 
z
" transform="scale(0.015625)"/>
      <path id="DejaVuSans-69" d="M 603 3500 
L 1178 3500 
L 1178 0 
L 603 0 
L 603 3500 
z
M 603 4863 
L 1178 4863 
L 1178 4134 
L 603 4134 
L 603 4863 
z
" transform="scale(0.015625)"/>
      <path id="DejaVuSans-70" d="M 1159 525 
L 1159 -1331 
L 581 -1331 
L 581 3500 
L 1159 3500 
L 1159 2969 
Q 1341 3281 1617 3432 
Q 1894 3584 2278 3584 
Q 2916 3584 3314 3078 
Q 3713 2572 3713 1747 
Q 3713 922 3314 415 
Q 2916 -91 2278 -91 
Q 1894 -91 1617 61 
Q 1341 213 1159 525 
z
M 3116 1747 
Q 3116 2381 2855 2742 
Q 2594 3103 2138 3103 
Q 1681 3103 1420 2742 
Q 1159 2381 1159 1747 
Q 1159 1113 1420 752 
Q 1681 391 2138 391 
Q 2594 391 2855 752 
Q 3116 1113 3116 1747 
z
" transform="scale(0.015625)"/>
     </defs>
     <use xlink:href="#DejaVuSans-32"/>
     <use xlink:href="#DejaVuSans-20" x="63.623047"/>
     <use xlink:href="#DejaVuSans-73" x="95.410156"/>
     <use xlink:href="#DejaVuSans-65" x="147.509766"/>
     <use xlink:href="#DejaVuSans-63" x="209.033203"/>
     <use xlink:href="#DejaVuSans-74" x="264.013672"/>
     <use xlink:href="#DejaVuSans-6f" x="303.222656"/>
     <use xlink:href="#DejaVuSans-72" x="364.404297"/>
     <use xlink:href="#DejaVuSans-73" x="405.517578"/>
     <use xlink:href="#DejaVuSans-20" x="457.617188"/>
     <use xlink:href="#DejaVuSans-6f" x="489.404297"/>
     <use xlink:href="#DejaVuSans-66" x="550.585938"/>
     <use xlink:href="#DejaVuSans-20" x="585.791016"/>
     <use xlink:href="#DejaVuSans-65" x="617.578125"/>
     <use xlink:href="#DejaVuSans-6c" x="679.101562"/>
     <use xlink:href="#DejaVuSans-6c" x="706.884766"/>
     <use xlink:href="#DejaVuSans-69" x="734.667969"/>
     <use xlink:href="#DejaVuSans-70" x="762.451172"/>
     <use xlink:href="#DejaVuSans-73" x="825.927734"/>
     <use xlink:href="#DejaVuSans-65" x="878.027344"/>
    </g>
   </g>
   <g id="legend_1">
    <g id="patch_7">
     <path d="M 571.6125 145.0425 
L 698.64 145.0425 
Q 701.04 145.0425 701.04 142.6425 
L 701.04 38.16 
Q 701.04 35.76 698.64 35.76 
L 571.6125 35.76 
Q 569.2125 35.76 569.2125 38.16 
L 569.2125 142.6425 
Q 569.2125 145.0425 571.6125 145.0425 
z
" style="fill: #ffffff; opacity: 0.8; stroke: #cccccc; stroke-linejoin: miter"/>
    </g>
    <g id="PathCollection_2">
     <g>
      <use xlink:href="#mbef9029d8f" x="586.0125" y="46.528125" style="fill: #1f77b4; stroke: #1f77b4"/>
     </g>
    </g>
    <g id="text_15">
     <!-- Measurements -->
     <g transform="translate(607.6125 49.678125) scale(0.12 -0.12)">
      <defs>
       <path id="DejaVuSans-4d" d="M 628 4666 
L 1569 4666 
L 2759 1491 
L 3956 4666 
L 4897 4666 
L 4897 0 
L 4281 0 
L 4281 4097 
L 3078 897 
L 2444 897 
L 1241 4097 
L 1241 0 
L 628 0 
L 628 4666 
z
" transform="scale(0.015625)"/>
       <path id="DejaVuSans-61" d="M 2194 1759 
Q 1497 1759 1228 1600 
Q 959 1441 959 1056 
Q 959 750 1161 570 
Q 1363 391 1709 391 
Q 2188 391 2477 730 
Q 2766 1069 2766 1631 
L 2766 1759 
L 2194 1759 
z
M 3341 1997 
L 3341 0 
L 2766 0 
L 2766 531 
Q 2569 213 2275 61 
Q 1981 -91 1556 -91 
Q 1019 -91 701 211 
Q 384 513 384 1019 
Q 384 1609 779 1909 
Q 1175 2209 1959 2209 
L 2766 2209 
L 2766 2266 
Q 2766 2663 2505 2880 
Q 2244 3097 1772 3097 
Q 1472 3097 1187 3025 
Q 903 2953 641 2809 
L 641 3341 
Q 956 3463 1253 3523 
Q 1550 3584 1831 3584 
Q 2591 3584 2966 3190 
Q 3341 2797 3341 1997 
z
" transform="scale(0.015625)"/>
       <path id="DejaVuSans-75" d="M 544 1381 
L 544 3500 
L 1119 3500 
L 1119 1403 
Q 1119 906 1312 657 
Q 1506 409 1894 409 
Q 2359 409 2629 706 
Q 2900 1003 2900 1516 
L 2900 3500 
L 3475 3500 
L 3475 0 
L 2900 0 
L 2900 538 
Q 2691 219 2414 64 
Q 2138 -91 1772 -91 
Q 1169 -91 856 284 
Q 544 659 544 1381 
z
M 1991 3584 
L 1991 3584 
z
" transform="scale(0.015625)"/>
       <path id="DejaVuSans-6d" d="M 3328 2828 
Q 3544 3216 3844 3400 
Q 4144 3584 4550 3584 
Q 5097 3584 5394 3201 
Q 5691 2819 5691 2113 
L 5691 0 
L 5113 0 
L 5113 2094 
Q 5113 2597 4934 2840 
Q 4756 3084 4391 3084 
Q 3944 3084 3684 2787 
Q 3425 2491 3425 1978 
L 3425 0 
L 2847 0 
L 2847 2094 
Q 2847 2600 2669 2842 
Q 2491 3084 2119 3084 
Q 1678 3084 1418 2786 
Q 1159 2488 1159 1978 
L 1159 0 
L 581 0 
L 581 3500 
L 1159 3500 
L 1159 2956 
Q 1356 3278 1631 3431 
Q 1906 3584 2284 3584 
Q 2666 3584 2933 3390 
Q 3200 3197 3328 2828 
z
" transform="scale(0.015625)"/>
       <path id="DejaVuSans-6e" d="M 3513 2113 
L 3513 0 
L 2938 0 
L 2938 2094 
Q 2938 2591 2744 2837 
Q 2550 3084 2163 3084 
Q 1697 3084 1428 2787 
Q 1159 2491 1159 1978 
L 1159 0 
L 581 0 
L 581 3500 
L 1159 3500 
L 1159 2956 
Q 1366 3272 1645 3428 
Q 1925 3584 2291 3584 
Q 2894 3584 3203 3211 
Q 3513 2838 3513 2113 
z
" transform="scale(0.015625)"/>
      </defs>
      <use xlink:href="#DejaVuSans-4d"/>
      <use xlink:href="#DejaVuSans-65" x="86.279297"/>
      <use xlink:href="#DejaVuSans-61" x="147.802734"/>
      <use xlink:href="#DejaVuSans-73" x="209.082031"/>
      <use xlink:href="#DejaVuSans-75" x="261.181641"/>
      <use xlink:href="#DejaVuSans-72" x="324.560547"/>
      <use xlink:href="#DejaVuSans-65" x="363.423828"/>
      <use xlink:href="#DejaVuSans-6d" x="424.947266"/>
      <use xlink:href="#DejaVuSans-65" x="522.359375"/>
      <use xlink:href="#DejaVuSans-6e" x="583.882812"/>
      <use xlink:href="#DejaVuSans-74" x="647.261719"/>
      <use xlink:href="#DejaVuSans-73" x="686.470703"/>
     </g>
    </g>
    <g id="line2d_32">
     <path d="M 574.0125 63.091875 
L 586.0125 63.091875 
L 598.0125 63.091875 
" style="fill: none; stroke: #1f77b4; stroke-width: 1.5; stroke-linecap: square"/>
    </g>
    <g id="text_16">
     <!-- True -->
     <g transform="translate(607.6125 67.291875) scale(0.12 -0.12)">
      <defs>
       <path id="DejaVuSans-54" d="M -19 4666 
L 3928 4666 
L 3928 4134 
L 2272 4134 
L 2272 0 
L 1638 0 
L 1638 4134 
L -19 4134 
L -19 4666 
z
" transform="scale(0.015625)"/>
      </defs>
      <use xlink:href="#DejaVuSans-54"/>
      <use xlink:href="#DejaVuSans-72" x="46.333984"/>
      <use xlink:href="#DejaVuSans-75" x="87.447266"/>
      <use xlink:href="#DejaVuSans-65" x="150.826172"/>
     </g>
    </g>
    <g id="line2d_33">
     <path d="M 574.0125 80.705625 
L 586.0125 80.705625 
L 598.0125 80.705625 
" style="fill: none; stroke: #ff7f0e; stroke-width: 1.5; stroke-linecap: square"/>
    </g>
    <g id="text_17">
     <!-- Fit, $\alpha$=0.00 -->
     <g transform="translate(607.6125 84.905625) scale(0.12 -0.12)">
      <defs>
       <path id="DejaVuSans-46" d="M 628 4666 
L 3309 4666 
L 3309 4134 
L 1259 4134 
L 1259 2759 
L 3109 2759 
L 3109 2228 
L 1259 2228 
L 1259 0 
L 628 0 
L 628 4666 
z
" transform="scale(0.015625)"/>
       <path id="DejaVuSans-2c" d="M 750 794 
L 1409 794 
L 1409 256 
L 897 -744 
L 494 -744 
L 750 256 
L 750 794 
z
" transform="scale(0.015625)"/>
       <path id="DejaVuSans-Oblique-3b1" d="M 2619 1628 
L 2622 2350 
Q 2625 3088 2069 3091 
Q 1653 3094 1394 2747 
Q 1069 2319 959 1747 
Q 825 1059 994 731 
Q 1169 397 1547 397 
Q 1966 397 2319 1063 
L 2619 1628 
z
M 2166 3578 
Q 3141 3594 3128 2584 
Q 3128 2584 3616 3500 
L 4128 3500 
L 3119 1603 
L 3109 919 
Q 3109 766 3194 638 
Q 3291 488 3391 488 
L 3669 488 
L 3575 0 
L 3228 0 
Q 2934 0 2722 263 
Q 2622 394 2619 669 
Q 2416 334 2066 50 
Q 1900 -81 1453 -78 
Q 722 -72 456 397 
Q 184 884 353 1747 
Q 534 2675 1009 3097 
Q 1544 3569 2166 3578 
z
" transform="scale(0.015625)"/>
       <path id="DejaVuSans-3d" d="M 678 2906 
L 4684 2906 
L 4684 2381 
L 678 2381 
L 678 2906 
z
M 678 1631 
L 4684 1631 
L 4684 1100 
L 678 1100 
L 678 1631 
z
" transform="scale(0.015625)"/>
       <path id="DejaVuSans-2e" d="M 684 794 
L 1344 794 
L 1344 0 
L 684 0 
L 684 794 
z
" transform="scale(0.015625)"/>
      </defs>
      <use xlink:href="#DejaVuSans-46" transform="translate(0 0.015625)"/>
      <use xlink:href="#DejaVuSans-69" transform="translate(57.519531 0.015625)"/>
      <use xlink:href="#DejaVuSans-74" transform="translate(85.302734 0.015625)"/>
      <use xlink:href="#DejaVuSans-2c" transform="translate(124.511719 0.015625)"/>
      <use xlink:href="#DejaVuSans-20" transform="translate(156.298828 0.015625)"/>
      <use xlink:href="#DejaVuSans-Oblique-3b1" transform="translate(188.085938 0.015625)"/>
      <use xlink:href="#DejaVuSans-3d" transform="translate(254.003906 0.015625)"/>
      <use xlink:href="#DejaVuSans-30" transform="translate(337.792969 0.015625)"/>
      <use xlink:href="#DejaVuSans-2e" transform="translate(401.416016 0.015625)"/>
      <use xlink:href="#DejaVuSans-30" transform="translate(433.203125 0.015625)"/>
      <use xlink:href="#DejaVuSans-30" transform="translate(496.826172 0.015625)"/>
     </g>
    </g>
    <g id="line2d_34">
     <path d="M 574.0125 98.319375 
L 586.0125 98.319375 
L 598.0125 98.319375 
" style="fill: none; stroke: #2ca02c; stroke-width: 1.5; stroke-linecap: square"/>
    </g>
    <g id="text_18">
     <!-- Fit, $\alpha$=0.01 -->
     <g transform="translate(607.6125 102.519375) scale(0.12 -0.12)">
      <use xlink:href="#DejaVuSans-46" transform="translate(0 0.015625)"/>
      <use xlink:href="#DejaVuSans-69" transform="translate(57.519531 0.015625)"/>
      <use xlink:href="#DejaVuSans-74" transform="translate(85.302734 0.015625)"/>
      <use xlink:href="#DejaVuSans-2c" transform="translate(124.511719 0.015625)"/>
      <use xlink:href="#DejaVuSans-20" transform="translate(156.298828 0.015625)"/>
      <use xlink:href="#DejaVuSans-Oblique-3b1" transform="translate(188.085938 0.015625)"/>
      <use xlink:href="#DejaVuSans-3d" transform="translate(254.003906 0.015625)"/>
      <use xlink:href="#DejaVuSans-30" transform="translate(337.792969 0.015625)"/>
      <use xlink:href="#DejaVuSans-2e" transform="translate(401.416016 0.015625)"/>
      <use xlink:href="#DejaVuSans-30" transform="translate(433.203125 0.015625)"/>
      <use xlink:href="#DejaVuSans-31" transform="translate(496.826172 0.015625)"/>
     </g>
    </g>
    <g id="line2d_35">
     <path d="M 574.0125 115.933125 
L 586.0125 115.933125 
L 598.0125 115.933125 
" style="fill: none; stroke: #d62728; stroke-width: 1.5; stroke-linecap: square"/>
    </g>
    <g id="text_19">
     <!-- Fit, $\alpha$=0.10 -->
     <g transform="translate(607.6125 120.133125) scale(0.12 -0.12)">
      <use xlink:href="#DejaVuSans-46" transform="translate(0 0.015625)"/>
      <use xlink:href="#DejaVuSans-69" transform="translate(57.519531 0.015625)"/>
      <use xlink:href="#DejaVuSans-74" transform="translate(85.302734 0.015625)"/>
      <use xlink:href="#DejaVuSans-2c" transform="translate(124.511719 0.015625)"/>
      <use xlink:href="#DejaVuSans-20" transform="translate(156.298828 0.015625)"/>
      <use xlink:href="#DejaVuSans-Oblique-3b1" transform="translate(188.085938 0.015625)"/>
      <use xlink:href="#DejaVuSans-3d" transform="translate(254.003906 0.015625)"/>
      <use xlink:href="#DejaVuSans-30" transform="translate(337.792969 0.015625)"/>
      <use xlink:href="#DejaVuSans-2e" transform="translate(401.416016 0.015625)"/>
      <use xlink:href="#DejaVuSans-31" transform="translate(433.203125 0.015625)"/>
      <use xlink:href="#DejaVuSans-30" transform="translate(496.826172 0.015625)"/>
     </g>
    </g>
    <g id="line2d_36">
     <path d="M 574.0125 133.546875 
L 586.0125 133.546875 
L 598.0125 133.546875 
" style="fill: none; stroke: #9467bd; stroke-width: 1.5; stroke-linecap: square"/>
    </g>
    <g id="text_20">
     <!-- Fit, $\alpha$=1.00 -->
     <g transform="translate(607.6125 137.746875) scale(0.12 -0.12)">
      <use xlink:href="#DejaVuSans-46" transform="translate(0 0.015625)"/>
      <use xlink:href="#DejaVuSans-69" transform="translate(57.519531 0.015625)"/>
      <use xlink:href="#DejaVuSans-74" transform="translate(85.302734 0.015625)"/>
      <use xlink:href="#DejaVuSans-2c" transform="translate(124.511719 0.015625)"/>
      <use xlink:href="#DejaVuSans-20" transform="translate(156.298828 0.015625)"/>
      <use xlink:href="#DejaVuSans-Oblique-3b1" transform="translate(188.085938 0.015625)"/>
      <use xlink:href="#DejaVuSans-3d" transform="translate(254.003906 0.015625)"/>
      <use xlink:href="#DejaVuSans-31" transform="translate(337.792969 0.015625)"/>
      <use xlink:href="#DejaVuSans-2e" transform="translate(401.416016 0.015625)"/>
      <use xlink:href="#DejaVuSans-30" transform="translate(433.203125 0.015625)"/>
      <use xlink:href="#DejaVuSans-30" transform="translate(496.826172 0.015625)"/>
     </g>
    </g>
   </g>
  </g>
 </g>
 <defs>
  <clipPath id="paec49dbc7e">
   <rect x="27.61" y="29.76" width="679.43" height="371.48"/>
  </clipPath>
 </defs>
</svg>
