<?xml version="1.0" encoding="utf-8" standalone="no"?>
<!DOCTYPE svg PUBLIC "-//W3C//DTD SVG 1.1//EN"
  "http://www.w3.org/Graphics/SVG/1.1/DTD/svg11.dtd">
<svg xmlns:xlink="http://www.w3.org/1999/xlink" width="720pt" height="432pt" viewBox="0 0 720 432" xmlns="http://www.w3.org/2000/svg" version="1.1">
 <metadata>
  <rdf:RDF xmlns:dc="http://purl.org/dc/elements/1.1/" xmlns:cc="http://creativecommons.org/ns#" xmlns:rdf="http://www.w3.org/1999/02/22-rdf-syntax-ns#">
   <cc:Work>
    <dc:type rdf:resource="http://purl.org/dc/dcmitype/StillImage"/>
    <dc:date>2025-11-05T11:56:48.887345</dc:date>
    <dc:format>image/svg+xml</dc:format>
    <dc:creator>
     <cc:Agent>
      <dc:title>Matplotlib v3.8.4, https://matplotlib.org/</dc:title>
     </cc:Agent>
    </dc:creator>
   </cc:Work>
  </rdf:RDF>
 </metadata>
 <defs>
  <style type="text/css">*{stroke-linejoin: round; stroke-linecap: butt}</style>
 </defs>
 <g id="figure_1">
  <g id="patch_1">
   <path d="M 0 432 
L 720 432 
L 720 0 
L 0 0 
z
" style="fill: #ffffff"/>
  </g>
  <g id="axes_1">
   <g id="patch_2">
    <path d="M 27.61 401.24 
L 707.04 401.24 
L 707.04 29.76 
L 27.61 29.76 
z
" style="fill: #ffffff"/>
   </g>
   <g id="PathCollection_1">
    <defs>
     <path id="m28cdd01efa" d="M 0 3 
C 0.795609 3 1.55874 2.683901 2.12132 2.12132 
C 2.683901 1.55874 3 0.795609 3 0 
C 3 -0.795609 2.683901 -1.55874 2.12132 -2.12132 
C 1.55874 -2.683901 0.795609 -3 0 -3 
C -0.795609 -3 -1.55874 -2.683901 -2.12132 -2.12132 
C -2.683901 -1.55874 -3 -0.795609 -3 0 
C -3 0.795609 -2.683901 1.55874 -2.12132 2.12132 
C -1.55874 2.683901 -0.795609 3 0 3 
z
" style="stroke: #1f77b4"/>
    </defs>
    <g clip-path="url(#pe2d014e07f)">
     <use xlink:href="#m28cdd01efa" x="514.166324" y="67.272123" style="fill: #1f77b4; stroke: #1f77b4"/>
     <use xlink:href="#m28cdd01efa" x="516.871567" y="58.159249" style="fill: #1f77b4; stroke: #1f77b4"/>
     <use xlink:href="#m28cdd01efa" x="508.868085" y="66.299403" style="fill: #1f77b4; stroke: #1f77b4"/>
     <use xlink:href="#m28cdd01efa" x="499.232383" y="58.516566" style="fill: #1f77b4; stroke: #1f77b4"/>
     <use xlink:href="#m28cdd01efa" x="494.154848" y="52.63366" style="fill: #1f77b4; stroke: #1f77b4"/>
     <use xlink:href="#m28cdd01efa" x="490.285945" y="48.584491" style="fill: #1f77b4; stroke: #1f77b4"/>
     <use xlink:href="#m28cdd01efa" x="481.980294" y="51.496026" style="fill: #1f77b4; stroke: #1f77b4"/>
     <use xlink:href="#m28cdd01efa" x="464.788486" y="50.661279" style="fill: #1f77b4; stroke: #1f77b4"/>
     <use xlink:href="#m28cdd01efa" x="461.149726" y="46.645455" style="fill: #1f77b4; stroke: #1f77b4"/>
     <use xlink:href="#m28cdd01efa" x="464.219966" y="49.657796" style="fill: #1f77b4; stroke: #1f77b4"/>
     <use xlink:href="#m28cdd01efa" x="438.098873" y="52.716965" style="fill: #1f77b4; stroke: #1f77b4"/>
     <use xlink:href="#m28cdd01efa" x="431.151036" y="50.492683" style="fill: #1f77b4; stroke: #1f77b4"/>
     <use xlink:href="#m28cdd01efa" x="415.69161" y="55.463162" style="fill: #1f77b4; stroke: #1f77b4"/>
     <use xlink:href="#m28cdd01efa" x="414.581312" y="57.988609" style="fill: #1f77b4; stroke: #1f77b4"/>
     <use xlink:href="#m28cdd01efa" x="400.407952" y="64.496846" style="fill: #1f77b4; stroke: #1f77b4"/>
     <use xlink:href="#m28cdd01efa" x="385.706419" y="70.486608" style="fill: #1f77b4; stroke: #1f77b4"/>
     <use xlink:href="#m28cdd01efa" x="379.874107" y="70.948072" style="fill: #1f77b4; stroke: #1f77b4"/>
     <use xlink:href="#m28cdd01efa" x="366.129168" y="74.838228" style="fill: #1f77b4; stroke: #1f77b4"/>
     <use xlink:href="#m28cdd01efa" x="369.512537" y="96.171468" style="fill: #1f77b4; stroke: #1f77b4"/>
     <use xlink:href="#m28cdd01efa" x="353.382481" y="88.616196" style="fill: #1f77b4; stroke: #1f77b4"/>
     <use xlink:href="#m28cdd01efa" x="337.342151" y="101.627713" style="fill: #1f77b4; stroke: #1f77b4"/>
     <use xlink:href="#m28cdd01efa" x="329.648563" y="108.936788" style="fill: #1f77b4; stroke: #1f77b4"/>
     <use xlink:href="#m28cdd01efa" x="318.528682" y="124.440633" style="fill: #1f77b4; stroke: #1f77b4"/>
     <use xlink:href="#m28cdd01efa" x="316.201912" y="118.626112" style="fill: #1f77b4; stroke: #1f77b4"/>
     <use xlink:href="#m28cdd01efa" x="296.102374" y="141.027232" style="fill: #1f77b4; stroke: #1f77b4"/>
     <use xlink:href="#m28cdd01efa" x="293.610213" y="145.701236" style="fill: #1f77b4; stroke: #1f77b4"/>
     <use xlink:href="#m28cdd01efa" x="282.424674" y="153.996481" style="fill: #1f77b4; stroke: #1f77b4"/>
     <use xlink:href="#m28cdd01efa" x="276.46363" y="158.562424" style="fill: #1f77b4; stroke: #1f77b4"/>
     <use xlink:href="#m28cdd01efa" x="260.551786" y="179.583986" style="fill: #1f77b4; stroke: #1f77b4"/>
     <use xlink:href="#m28cdd01efa" x="247.996153" y="179.384551" style="fill: #1f77b4; stroke: #1f77b4"/>
     <use xlink:href="#m28cdd01efa" x="242.462565" y="195.65717" style="fill: #1f77b4; stroke: #1f77b4"/>
     <use xlink:href="#m28cdd01efa" x="238.450005" y="203.761306" style="fill: #1f77b4; stroke: #1f77b4"/>
     <use xlink:href="#m28cdd01efa" x="224.792193" y="213.028689" style="fill: #1f77b4; stroke: #1f77b4"/>
     <use xlink:href="#m28cdd01efa" x="231.631929" y="224.09354" style="fill: #1f77b4; stroke: #1f77b4"/>
     <use xlink:href="#m28cdd01efa" x="221.720076" y="234.543927" style="fill: #1f77b4; stroke: #1f77b4"/>
     <use xlink:href="#m28cdd01efa" x="220.503762" y="260.036481" style="fill: #1f77b4; stroke: #1f77b4"/>
     <use xlink:href="#m28cdd01efa" x="224.337174" y="253.712398" style="fill: #1f77b4; stroke: #1f77b4"/>
     <use xlink:href="#m28cdd01efa" x="206.906911" y="267.940773" style="fill: #1f77b4; stroke: #1f77b4"/>
     <use xlink:href="#m28cdd01efa" x="209.833471" y="276.41556" style="fill: #1f77b4; stroke: #1f77b4"/>
     <use xlink:href="#m28cdd01efa" x="194.122234" y="274.632171" style="fill: #1f77b4; stroke: #1f77b4"/>
     <use xlink:href="#m28cdd01efa" x="202.415542" y="289.505325" style="fill: #1f77b4; stroke: #1f77b4"/>
     <use xlink:href="#m28cdd01efa" x="198.229015" y="295.857169" style="fill: #1f77b4; stroke: #1f77b4"/>
     <use xlink:href="#m28cdd01efa" x="202.90437" y="309.433932" style="fill: #1f77b4; stroke: #1f77b4"/>
     <use xlink:href="#m28cdd01efa" x="196.113207" y="314.579069" style="fill: #1f77b4; stroke: #1f77b4"/>
     <use xlink:href="#m28cdd01efa" x="206.100686" y="321.983688" style="fill: #1f77b4; stroke: #1f77b4"/>
     <use xlink:href="#m28cdd01efa" x="200.714071" y="338.771109" style="fill: #1f77b4; stroke: #1f77b4"/>
     <use xlink:href="#m28cdd01efa" x="218.312491" y="348.744189" style="fill: #1f77b4; stroke: #1f77b4"/>
     <use xlink:href="#m28cdd01efa" x="208.339609" y="343.616542" style="fill: #1f77b4; stroke: #1f77b4"/>
     <use xlink:href="#m28cdd01efa" x="213.050099" y="352.396771" style="fill: #1f77b4; stroke: #1f77b4"/>
     <use xlink:href="#m28cdd01efa" x="214.545163" y="358.818194" style="fill: #1f77b4; stroke: #1f77b4"/>
     <use xlink:href="#m28cdd01efa" x="214.494329" y="356.765813" style="fill: #1f77b4; stroke: #1f77b4"/>
     <use xlink:href="#m28cdd01efa" x="226.040303" y="373.15693" style="fill: #1f77b4; stroke: #1f77b4"/>
     <use xlink:href="#m28cdd01efa" x="236.032027" y="375.486911" style="fill: #1f77b4; stroke: #1f77b4"/>
     <use xlink:href="#m28cdd01efa" x="231.93545" y="382.986274" style="fill: #1f77b4; stroke: #1f77b4"/>
     <use xlink:href="#m28cdd01efa" x="249.520998" y="378.944974" style="fill: #1f77b4; stroke: #1f77b4"/>
     <use xlink:href="#m28cdd01efa" x="252.595099" y="373.981726" style="fill: #1f77b4; stroke: #1f77b4"/>
     <use xlink:href="#m28cdd01efa" x="255.258886" y="384.354545" style="fill: #1f77b4; stroke: #1f77b4"/>
     <use xlink:href="#m28cdd01efa" x="267.465953" y="380.224608" style="fill: #1f77b4; stroke: #1f77b4"/>
     <use xlink:href="#m28cdd01efa" x="277.970372" y="381.762844" style="fill: #1f77b4; stroke: #1f77b4"/>
     <use xlink:href="#m28cdd01efa" x="286.931861" y="379.68782" style="fill: #1f77b4; stroke: #1f77b4"/>
     <use xlink:href="#m28cdd01efa" x="292.862085" y="381.601048" style="fill: #1f77b4; stroke: #1f77b4"/>
     <use xlink:href="#m28cdd01efa" x="307.756901" y="379.561106" style="fill: #1f77b4; stroke: #1f77b4"/>
     <use xlink:href="#m28cdd01efa" x="310.153334" y="373.426665" style="fill: #1f77b4; stroke: #1f77b4"/>
     <use xlink:href="#m28cdd01efa" x="325.530331" y="356.202889" style="fill: #1f77b4; stroke: #1f77b4"/>
     <use xlink:href="#m28cdd01efa" x="332.947437" y="358.757596" style="fill: #1f77b4; stroke: #1f77b4"/>
     <use xlink:href="#m28cdd01efa" x="350.990058" y="365.013116" style="fill: #1f77b4; stroke: #1f77b4"/>
     <use xlink:href="#m28cdd01efa" x="361.62454" y="359.460114" style="fill: #1f77b4; stroke: #1f77b4"/>
     <use xlink:href="#m28cdd01efa" x="354.130115" y="343.970759" style="fill: #1f77b4; stroke: #1f77b4"/>
     <use xlink:href="#m28cdd01efa" x="369.410737" y="338.16869" style="fill: #1f77b4; stroke: #1f77b4"/>
     <use xlink:href="#m28cdd01efa" x="385.532306" y="324.693827" style="fill: #1f77b4; stroke: #1f77b4"/>
     <use xlink:href="#m28cdd01efa" x="405.142568" y="328.190163" style="fill: #1f77b4; stroke: #1f77b4"/>
     <use xlink:href="#m28cdd01efa" x="406.190282" y="324.134775" style="fill: #1f77b4; stroke: #1f77b4"/>
     <use xlink:href="#m28cdd01efa" x="417.591745" y="310.762521" style="fill: #1f77b4; stroke: #1f77b4"/>
     <use xlink:href="#m28cdd01efa" x="427.885554" y="299.618192" style="fill: #1f77b4; stroke: #1f77b4"/>
     <use xlink:href="#m28cdd01efa" x="442.483224" y="289.41064" style="fill: #1f77b4; stroke: #1f77b4"/>
     <use xlink:href="#m28cdd01efa" x="444.782518" y="289.298378" style="fill: #1f77b4; stroke: #1f77b4"/>
     <use xlink:href="#m28cdd01efa" x="464.991022" y="275.59414" style="fill: #1f77b4; stroke: #1f77b4"/>
     <use xlink:href="#m28cdd01efa" x="463.05773" y="264.706333" style="fill: #1f77b4; stroke: #1f77b4"/>
     <use xlink:href="#m28cdd01efa" x="465.065533" y="254.284724" style="fill: #1f77b4; stroke: #1f77b4"/>
     <use xlink:href="#m28cdd01efa" x="480.059845" y="238.170448" style="fill: #1f77b4; stroke: #1f77b4"/>
     <use xlink:href="#m28cdd01efa" x="493.617369" y="230.957393" style="fill: #1f77b4; stroke: #1f77b4"/>
     <use xlink:href="#m28cdd01efa" x="501.718858" y="218.673026" style="fill: #1f77b4; stroke: #1f77b4"/>
     <use xlink:href="#m28cdd01efa" x="503.095764" y="209.071822" style="fill: #1f77b4; stroke: #1f77b4"/>
     <use xlink:href="#m28cdd01efa" x="507.985002" y="201.468679" style="fill: #1f77b4; stroke: #1f77b4"/>
     <use xlink:href="#m28cdd01efa" x="512.818855" y="194.858659" style="fill: #1f77b4; stroke: #1f77b4"/>
     <use xlink:href="#m28cdd01efa" x="520.346706" y="183.791759" style="fill: #1f77b4; stroke: #1f77b4"/>
     <use xlink:href="#m28cdd01efa" x="527.333463" y="169.671762" style="fill: #1f77b4; stroke: #1f77b4"/>
     <use xlink:href="#m28cdd01efa" x="526.584872" y="155.739911" style="fill: #1f77b4; stroke: #1f77b4"/>
     <use xlink:href="#m28cdd01efa" x="532.477856" y="156.78503" style="fill: #1f77b4; stroke: #1f77b4"/>
     <use xlink:href="#m28cdd01efa" x="530.134032" y="134.375508" style="fill: #1f77b4; stroke: #1f77b4"/>
     <use xlink:href="#m28cdd01efa" x="523.763652" y="127.734992" style="fill: #1f77b4; stroke: #1f77b4"/>
     <use xlink:href="#m28cdd01efa" x="521.633568" y="126.2529" style="fill: #1f77b4; stroke: #1f77b4"/>
     <use xlink:href="#m28cdd01efa" x="533.816196" y="121.073737" style="fill: #1f77b4; stroke: #1f77b4"/>
     <use xlink:href="#m28cdd01efa" x="527.897312" y="112.003199" style="fill: #1f77b4; stroke: #1f77b4"/>
     <use xlink:href="#m28cdd01efa" x="540.527766" y="95.753226" style="fill: #1f77b4; stroke: #1f77b4"/>
     <use xlink:href="#m28cdd01efa" x="532.982554" y="90.60589" style="fill: #1f77b4; stroke: #1f77b4"/>
     <use xlink:href="#m28cdd01efa" x="525.624263" y="91.252237" style="fill: #1f77b4; stroke: #1f77b4"/>
     <use xlink:href="#m28cdd01efa" x="522.782394" y="80.615626" style="fill: #1f77b4; stroke: #1f77b4"/>
     <use xlink:href="#m28cdd01efa" x="525.025773" y="65.031077" style="fill: #1f77b4; stroke: #1f77b4"/>
     <use xlink:href="#m28cdd01efa" x="523.810392" y="61.535723" style="fill: #1f77b4; stroke: #1f77b4"/>
    </g>
   </g>
   <g id="matplotlib.axis_1">
    <g id="xtick_1">
     <g id="line2d_1">
      <path d="M 104.843672 401.24 
L 104.843672 29.76 
" clip-path="url(#pe2d014e07f)" style="fill: none; stroke: #b0b0b0; stroke-width: 0.8; stroke-linecap: square"/>
     </g>
     <g id="line2d_2">
      <defs>
       <path id="mf1a986af0a" d="M 0 0 
L 0 3.5 
" style="stroke: #000000; stroke-width: 0.8"/>
      </defs>
      <g>
       <use xlink:href="#mf1a986af0a" x="104.843672" y="401.24" style="stroke: #000000; stroke-width: 0.8"/>
      </g>
     </g>
     <g id="text_1">
      <!-- −10 -->
      <g transform="translate(92.180859 417.358125) scale(0.12 -0.12)">
       <defs>
        <path id="DejaVuSans-2212" d="M 678 2272 
L 4684 2272 
L 4684 1741 
L 678 1741 
L 678 2272 
z
" transform="scale(0.015625)"/>
        <path id="DejaVuSans-31" d="M 794 531 
L 1825 531 
L 1825 4091 
L 703 3866 
L 703 4441 
L 1819 4666 
L 2450 4666 
L 2450 531 
L 3481 531 
L 3481 0 
L 794 0 
L 794 531 
z
" transform="scale(0.015625)"/>
        <path id="DejaVuSans-30" d="M 2034 4250 
Q 1547 4250 1301 3770 
Q 1056 3291 1056 2328 
Q 1056 1369 1301 889 
Q 1547 409 2034 409 
Q 2525 409 2770 889 
Q 3016 1369 3016 2328 
Q 3016 3291 2770 3770 
Q 2525 4250 2034 4250 
z
M 2034 4750 
Q 2819 4750 3233 4129 
Q 3647 3509 3647 2328 
Q 3647 1150 3233 529 
Q 2819 -91 2034 -91 
Q 1250 -91 836 529 
Q 422 1150 422 2328 
Q 422 3509 836 4129 
Q 1250 4750 2034 4750 
z
" transform="scale(0.015625)"/>
       </defs>
       <use xlink:href="#DejaVuSans-2212"/>
       <use xlink:href="#DejaVuSans-31" x="83.789062"/>
       <use xlink:href="#DejaVuSans-30" x="147.412109"/>
      </g>
     </g>
    </g>
    <g id="xtick_2">
     <g id="line2d_3">
      <path d="M 209.912576 401.24 
L 209.912576 29.76 
" clip-path="url(#pe2d014e07f)" style="fill: none; stroke: #b0b0b0; stroke-width: 0.8; stroke-linecap: square"/>
     </g>
     <g id="line2d_4">
      <g>
       <use xlink:href="#mf1a986af0a" x="209.912576" y="401.24" style="stroke: #000000; stroke-width: 0.8"/>
      </g>
     </g>
     <g id="text_2">
      <!-- −8 -->
      <g transform="translate(201.067263 417.358125) scale(0.12 -0.12)">
       <defs>
        <path id="DejaVuSans-38" d="M 2034 2216 
Q 1584 2216 1326 1975 
Q 1069 1734 1069 1313 
Q 1069 891 1326 650 
Q 1584 409 2034 409 
Q 2484 409 2743 651 
Q 3003 894 3003 1313 
Q 3003 1734 2745 1975 
Q 2488 2216 2034 2216 
z
M 1403 2484 
Q 997 2584 770 2862 
Q 544 3141 544 3541 
Q 544 4100 942 4425 
Q 1341 4750 2034 4750 
Q 2731 4750 3128 4425 
Q 3525 4100 3525 3541 
Q 3525 3141 3298 2862 
Q 3072 2584 2669 2484 
Q 3125 2378 3379 2068 
Q 3634 1759 3634 1313 
Q 3634 634 3220 271 
Q 2806 -91 2034 -91 
Q 1263 -91 848 271 
Q 434 634 434 1313 
Q 434 1759 690 2068 
Q 947 2378 1403 2484 
z
M 1172 3481 
Q 1172 3119 1398 2916 
Q 1625 2713 2034 2713 
Q 2441 2713 2670 2916 
Q 2900 3119 2900 3481 
Q 2900 3844 2670 4047 
Q 2441 4250 2034 4250 
Q 1625 4250 1398 4047 
Q 1172 3844 1172 3481 
z
" transform="scale(0.015625)"/>
       </defs>
       <use xlink:href="#DejaVuSans-2212"/>
       <use xlink:href="#DejaVuSans-38" x="83.789062"/>
      </g>
     </g>
    </g>
    <g id="xtick_3">
     <g id="line2d_5">
      <path d="M 314.98148 401.24 
L 314.98148 29.76 
" clip-path="url(#pe2d014e07f)" style="fill: none; stroke: #b0b0b0; stroke-width: 0.8; stroke-linecap: square"/>
     </g>
     <g id="line2d_6">
      <g>
       <use xlink:href="#mf1a986af0a" x="314.98148" y="401.24" style="stroke: #000000; stroke-width: 0.8"/>
      </g>
     </g>
     <g id="text_3">
      <!-- −6 -->
      <g transform="translate(306.136167 417.358125) scale(0.12 -0.12)">
       <defs>
        <path id="DejaVuSans-36" d="M 2113 2584 
Q 1688 2584 1439 2293 
Q 1191 2003 1191 1497 
Q 1191 994 1439 701 
Q 1688 409 2113 409 
Q 2538 409 2786 701 
Q 3034 994 3034 1497 
Q 3034 2003 2786 2293 
Q 2538 2584 2113 2584 
z
M 3366 4563 
L 3366 3988 
Q 3128 4100 2886 4159 
Q 2644 4219 2406 4219 
Q 1781 4219 1451 3797 
Q 1122 3375 1075 2522 
Q 1259 2794 1537 2939 
Q 1816 3084 2150 3084 
Q 2853 3084 3261 2657 
Q 3669 2231 3669 1497 
Q 3669 778 3244 343 
Q 2819 -91 2113 -91 
Q 1303 -91 875 529 
Q 447 1150 447 2328 
Q 447 3434 972 4092 
Q 1497 4750 2381 4750 
Q 2619 4750 2861 4703 
Q 3103 4656 3366 4563 
z
" transform="scale(0.015625)"/>
       </defs>
       <use xlink:href="#DejaVuSans-2212"/>
       <use xlink:href="#DejaVuSans-36" x="83.789062"/>
      </g>
     </g>
    </g>
    <g id="xtick_4">
     <g id="line2d_7">
      <path d="M 420.050384 401.24 
L 420.050384 29.76 
" clip-path="url(#pe2d014e07f)" style="fill: none; stroke: #b0b0b0; stroke-width: 0.8; stroke-linecap: square"/>
     </g>
     <g id="line2d_8">
      <g>
       <use xlink:href="#mf1a986af0a" x="420.050384" y="401.24" style="stroke: #000000; stroke-width: 0.8"/>
      </g>
     </g>
     <g id="text_4">
      <!-- −4 -->
      <g transform="translate(411.205071 417.358125) scale(0.12 -0.12)">
       <defs>
        <path id="DejaVuSans-34" d="M 2419 4116 
L 825 1625 
L 2419 1625 
L 2419 4116 
z
M 2253 4666 
L 3047 4666 
L 3047 1625 
L 3713 1625 
L 3713 1100 
L 3047 1100 
L 3047 0 
L 2419 0 
L 2419 1100 
L 313 1100 
L 313 1709 
L 2253 4666 
z
" transform="scale(0.015625)"/>
       </defs>
       <use xlink:href="#DejaVuSans-2212"/>
       <use xlink:href="#DejaVuSans-34" x="83.789062"/>
      </g>
     </g>
    </g>
    <g id="xtick_5">
     <g id="line2d_9">
      <path d="M 525.119288 401.24 
L 525.119288 29.76 
" clip-path="url(#pe2d014e07f)" style="fill: none; stroke: #b0b0b0; stroke-width: 0.8; stroke-linecap: square"/>
     </g>
     <g id="line2d_10">
      <g>
       <use xlink:href="#mf1a986af0a" x="525.119288" y="401.24" style="stroke: #000000; stroke-width: 0.8"/>
      </g>
     </g>
     <g id="text_5">
      <!-- −2 -->
      <g transform="translate(516.273975 417.358125) scale(0.12 -0.12)">
       <defs>
        <path id="DejaVuSans-32" d="M 1228 531 
L 3431 531 
L 3431 0 
L 469 0 
L 469 531 
Q 828 903 1448 1529 
Q 2069 2156 2228 2338 
Q 2531 2678 2651 2914 
Q 2772 3150 2772 3378 
Q 2772 3750 2511 3984 
Q 2250 4219 1831 4219 
Q 1534 4219 1204 4116 
Q 875 4013 500 3803 
L 500 4441 
Q 881 4594 1212 4672 
Q 1544 4750 1819 4750 
Q 2544 4750 2975 4387 
Q 3406 4025 3406 3419 
Q 3406 3131 3298 2873 
Q 3191 2616 2906 2266 
Q 2828 2175 2409 1742 
Q 1991 1309 1228 531 
z
" transform="scale(0.015625)"/>
       </defs>
       <use xlink:href="#DejaVuSans-2212"/>
       <use xlink:href="#DejaVuSans-32" x="83.789062"/>
      </g>
     </g>
    </g>
    <g id="xtick_6">
     <g id="line2d_11">
      <path d="M 630.188192 401.24 
L 630.188192 29.76 
" clip-path="url(#pe2d014e07f)" style="fill: none; stroke: #b0b0b0; stroke-width: 0.8; stroke-linecap: square"/>
     </g>
     <g id="line2d_12">
      <g>
       <use xlink:href="#mf1a986af0a" x="630.188192" y="401.24" style="stroke: #000000; stroke-width: 0.8"/>
      </g>
     </g>
     <g id="text_6">
      <!-- 0 -->
      <g transform="translate(626.370692 417.358125) scale(0.12 -0.12)">
       <use xlink:href="#DejaVuSans-30"/>
      </g>
     </g>
    </g>
   </g>
   <g id="matplotlib.axis_2">
    <g id="ytick_1">
     <g id="line2d_13">
      <path d="M 27.61 372.207782 
L 707.04 372.207782 
" clip-path="url(#pe2d014e07f)" style="fill: none; stroke: #b0b0b0; stroke-width: 0.8; stroke-linecap: square"/>
     </g>
     <g id="line2d_14">
      <defs>
       <path id="m45325cd4c0" d="M 0 0 
L -3.5 0 
" style="stroke: #000000; stroke-width: 0.8"/>
      </defs>
      <g>
       <use xlink:href="#m45325cd4c0" x="27.61" y="372.207782" style="stroke: #000000; stroke-width: 0.8"/>
      </g>
     </g>
     <g id="text_7">
      <!-- 0 -->
      <g transform="translate(12.975 376.766845) scale(0.12 -0.12)">
       <use xlink:href="#DejaVuSans-30"/>
      </g>
     </g>
    </g>
    <g id="ytick_2">
     <g id="line2d_15">
      <path d="M 27.61 319.67333 
L 707.04 319.67333 
" clip-path="url(#pe2d014e07f)" style="fill: none; stroke: #b0b0b0; stroke-width: 0.8; stroke-linecap: square"/>
     </g>
     <g id="line2d_16">
      <g>
       <use xlink:href="#m45325cd4c0" x="27.61" y="319.67333" style="stroke: #000000; stroke-width: 0.8"/>
      </g>
     </g>
     <g id="text_8">
      <!-- 1 -->
      <g transform="translate(12.975 324.232393) scale(0.12 -0.12)">
       <use xlink:href="#DejaVuSans-31"/>
      </g>
     </g>
    </g>
    <g id="ytick_3">
     <g id="line2d_17">
      <path d="M 27.61 267.138878 
L 707.04 267.138878 
" clip-path="url(#pe2d014e07f)" style="fill: none; stroke: #b0b0b0; stroke-width: 0.8; stroke-linecap: square"/>
     </g>
     <g id="line2d_18">
      <g>
       <use xlink:href="#m45325cd4c0" x="27.61" y="267.138878" style="stroke: #000000; stroke-width: 0.8"/>
      </g>
     </g>
     <g id="text_9">
      <!-- 2 -->
      <g transform="translate(12.975 271.697941) scale(0.12 -0.12)">
       <use xlink:href="#DejaVuSans-32"/>
      </g>
     </g>
    </g>
    <g id="ytick_4">
     <g id="line2d_19">
      <path d="M 27.61 214.604426 
L 707.04 214.604426 
" clip-path="url(#pe2d014e07f)" style="fill: none; stroke: #b0b0b0; stroke-width: 0.8; stroke-linecap: square"/>
     </g>
     <g id="line2d_20">
      <g>
       <use xlink:href="#m45325cd4c0" x="27.61" y="214.604426" style="stroke: #000000; stroke-width: 0.8"/>
      </g>
     </g>
     <g id="text_10">
      <!-- 3 -->
      <g transform="translate(12.975 219.163489) scale(0.12 -0.12)">
       <defs>
        <path id="DejaVuSans-33" d="M 2597 2516 
Q 3050 2419 3304 2112 
Q 3559 1806 3559 1356 
Q 3559 666 3084 287 
Q 2609 -91 1734 -91 
Q 1441 -91 1130 -33 
Q 819 25 488 141 
L 488 750 
Q 750 597 1062 519 
Q 1375 441 1716 441 
Q 2309 441 2620 675 
Q 2931 909 2931 1356 
Q 2931 1769 2642 2001 
Q 2353 2234 1838 2234 
L 1294 2234 
L 1294 2753 
L 1863 2753 
Q 2328 2753 2575 2939 
Q 2822 3125 2822 3475 
Q 2822 3834 2567 4026 
Q 2313 4219 1838 4219 
Q 1578 4219 1281 4162 
Q 984 4106 628 3988 
L 628 4550 
Q 988 4650 1302 4700 
Q 1616 4750 1894 4750 
Q 2613 4750 3031 4423 
Q 3450 4097 3450 3541 
Q 3450 3153 3228 2886 
Q 3006 2619 2597 2516 
z
" transform="scale(0.015625)"/>
       </defs>
       <use xlink:href="#DejaVuSans-33"/>
      </g>
     </g>
    </g>
    <g id="ytick_5">
     <g id="line2d_21">
      <path d="M 27.61 162.069974 
L 707.04 162.069974 
" clip-path="url(#pe2d014e07f)" style="fill: none; stroke: #b0b0b0; stroke-width: 0.8; stroke-linecap: square"/>
     </g>
     <g id="line2d_22">
      <g>
       <use xlink:href="#m45325cd4c0" x="27.61" y="162.069974" style="stroke: #000000; stroke-width: 0.8"/>
      </g>
     </g>
     <g id="text_11">
      <!-- 4 -->
      <g transform="translate(12.975 166.629037) scale(0.12 -0.12)">
       <use xlink:href="#DejaVuSans-34"/>
      </g>
     </g>
    </g>
    <g id="ytick_6">
     <g id="line2d_23">
      <path d="M 27.61 109.535523 
L 707.04 109.535523 
" clip-path="url(#pe2d014e07f)" style="fill: none; stroke: #b0b0b0; stroke-width: 0.8; stroke-linecap: square"/>
     </g>
     <g id="line2d_24">
      <g>
       <use xlink:href="#m45325cd4c0" x="27.61" y="109.535523" style="stroke: #000000; stroke-width: 0.8"/>
      </g>
     </g>
     <g id="text_12">
      <!-- 5 -->
      <g transform="translate(12.975 114.094585) scale(0.12 -0.12)">
       <defs>
        <path id="DejaVuSans-35" d="M 691 4666 
L 3169 4666 
L 3169 4134 
L 1269 4134 
L 1269 2991 
Q 1406 3038 1543 3061 
Q 1681 3084 1819 3084 
Q 2600 3084 3056 2656 
Q 3513 2228 3513 1497 
Q 3513 744 3044 326 
Q 2575 -91 1722 -91 
Q 1428 -91 1123 -41 
Q 819 9 494 109 
L 494 744 
Q 775 591 1075 516 
Q 1375 441 1709 441 
Q 2250 441 2565 725 
Q 2881 1009 2881 1497 
Q 2881 1984 2565 2268 
Q 2250 2553 1709 2553 
Q 1456 2553 1204 2497 
Q 953 2441 691 2322 
L 691 4666 
z
" transform="scale(0.015625)"/>
       </defs>
       <use xlink:href="#DejaVuSans-35"/>
      </g>
     </g>
    </g>
    <g id="ytick_7">
     <g id="line2d_25">
      <path d="M 27.61 57.001071 
L 707.04 57.001071 
" clip-path="url(#pe2d014e07f)" style="fill: none; stroke: #b0b0b0; stroke-width: 0.8; stroke-linecap: square"/>
     </g>
     <g id="line2d_26">
      <g>
       <use xlink:href="#m45325cd4c0" x="27.61" y="57.001071" style="stroke: #000000; stroke-width: 0.8"/>
      </g>
     </g>
     <g id="text_13">
      <!-- 6 -->
      <g transform="translate(12.975 61.560133) scale(0.12 -0.12)">
       <use xlink:href="#DejaVuSans-36"/>
      </g>
     </g>
    </g>
   </g>
   <g id="line2d_27">
    <path d="M 516.105801 66.014558 
L 511.094565 61.601641 
L 505.505189 57.804813 
L 499.360179 54.639361 
L 492.684279 52.118033 
L 485.50437 50.250979 
L 477.849363 49.045719 
L 469.750083 48.507106 
L 461.239141 48.637307 
L 452.35081 49.4358 
L 443.120878 50.899369 
L 433.586512 53.02212 
L 423.786103 55.795506 
L 413.759113 59.208359 
L 403.545919 63.246938 
L 393.187645 67.894979 
L 382.726 73.133768 
L 372.203109 78.942209 
L 361.661345 85.296915 
L 351.143155 92.172296 
L 340.690892 99.540667 
L 330.346644 107.37236 
L 320.152064 115.635839 
L 310.148202 124.297829 
L 300.375339 133.323452 
L 290.872827 142.676365 
L 281.678931 152.318907 
L 272.830669 162.21225 
L 264.363672 172.316559 
L 256.312033 182.591146 
L 248.708172 192.994638 
L 241.582708 203.485146 
L 234.964333 214.020427 
L 228.879697 224.55806 
L 223.353299 235.055613 
L 218.407394 245.470817 
L 214.061896 255.761732 
L 210.334303 265.886921 
L 207.239626 275.805614 
L 204.790324 285.477871 
L 202.996261 294.864746 
L 201.864661 303.928441 
L 201.40008 312.63246 
L 201.604388 320.941754 
L 202.476764 328.822866 
L 204.013695 336.24406 
L 206.208991 343.175454 
L 209.053813 349.589138 
L 212.536707 355.459286 
L 216.643647 360.762262 
L 221.358096 365.476711 
L 226.661072 369.583651 
L 232.53122 373.066545 
L 238.944904 375.911367 
L 245.876298 378.106663 
L 253.297493 379.643594 
L 261.178604 380.51597 
L 269.487898 380.720279 
L 278.191917 380.255698 
L 287.255612 379.124097 
L 296.642487 377.330034 
L 306.314744 374.880733 
L 316.233437 371.786055 
L 326.358626 368.058462 
L 336.649541 363.712964 
L 347.064745 358.767059 
L 357.562298 353.240662 
L 368.099931 347.156025 
L 378.635212 340.53765 
L 389.12572 333.412186 
L 399.529213 325.808326 
L 409.803799 317.756686 
L 419.908108 309.289689 
L 429.801451 300.441427 
L 439.443993 291.247531 
L 448.796906 281.745019 
L 457.822529 271.972156 
L 466.484519 261.968294 
L 474.747998 251.773714 
L 482.579691 241.429466 
L 489.948063 230.977204 
L 496.823444 220.459014 
L 503.178149 209.917249 
L 508.98659 199.394358 
L 514.225379 188.932713 
L 518.873421 178.574439 
L 522.911999 168.361245 
L 526.324853 158.334256 
L 529.098238 148.533846 
L 531.220989 138.99948 
L 532.684558 129.769548 
L 533.483051 120.881217 
L 533.613253 112.370275 
L 533.074639 104.270995 
L 531.869379 96.615988 
L 530.002326 89.436079 
L 527.480997 82.760179 
L 524.315545 76.615169 
L 520.518717 71.025793 
L 516.105801 66.014558 
" clip-path="url(#pe2d014e07f)" style="fill: none; stroke: #1f77b4; stroke-width: 1.5; stroke-linecap: square"/>
   </g>
   <g id="line2d_28">
    <path d="M 534.383048 115.375134 
L 534.264062 110.420441 
L 533.907274 105.614146 
L 533.313192 100.963092 
L 532.482661 96.473903 
L 531.416865 92.15297 
L 530.35007 88.685168 
L 529.121998 85.341917 
L 527.733865 82.126522 
L 526.187042 79.042165 
L 524.483061 76.091893 
L 522.623605 73.278625 
L 520.610513 70.605143 
L 518.445776 68.074091 
L 516.131535 65.68797 
L 513.670078 63.449142 
L 511.063839 61.359819 
L 508.315395 59.422068 
L 505.427464 57.637804 
L 502.402902 56.008793 
L 499.244699 54.536645 
L 495.95598 53.222816 
L 492.539995 52.068605 
L 489.000123 51.075153 
L 485.339863 50.243443 
L 480.793746 49.460037 
L 476.085963 48.91183 
L 471.223217 48.599603 
L 466.212433 48.523801 
L 461.060746 48.684532 
L 455.775491 49.081566 
L 450.364193 49.714338 
L 444.834558 50.581948 
L 439.19446 51.68316 
L 433.451929 53.016406 
L 427.615143 54.579787 
L 421.692411 56.371078 
L 415.692169 58.387727 
L 408.605324 61.021465 
L 401.438344 63.952915 
L 394.205121 67.176397 
L 386.91967 70.685664 
L 379.596112 74.473914 
L 372.24864 78.533806 
L 364.891493 82.857471 
L 357.53893 87.436531 
L 350.205199 92.262112 
L 342.904513 97.32486 
L 335.651022 102.614966 
L 328.458782 108.122175 
L 321.341733 113.835817 
L 314.313666 119.744816 
L 307.388202 125.837722 
L 300.578764 132.102727 
L 293.898547 138.527688 
L 287.360499 145.100155 
L 280.977289 151.80739 
L 274.761288 158.636395 
L 268.724543 165.573934 
L 262.878754 172.606562 
L 257.235249 179.720651 
L 251.804966 186.902413 
L 246.598428 194.13793 
L 241.625726 201.41318 
L 236.896497 208.714063 
L 232.419907 216.026429 
L 228.204629 223.336108 
L 224.258835 230.628934 
L 220.590171 237.890772 
L 217.205747 245.10755 
L 214.112122 252.26528 
L 211.315291 259.350092 
L 208.820675 266.348256 
L 206.926652 272.26743 
L 205.260922 278.104548 
L 203.825858 283.851299 
L 202.623503 289.499499 
L 201.655569 295.041107 
L 200.923434 300.46823 
L 200.428141 305.773143 
L 200.170395 310.94829 
L 200.150563 315.986304 
L 200.368673 320.88001 
L 200.824415 325.62244 
L 201.517139 330.206842 
L 202.44586 334.626688 
L 203.399125 338.179642 
L 204.514421 341.610433 
L 205.790646 344.915669 
L 207.226538 348.092081 
L 208.820675 351.136527 
L 210.571483 354.045997 
L 212.47723 356.817615 
L 214.536031 359.44864 
L 216.745851 361.936469 
L 219.104504 364.278643 
L 221.609658 366.472846 
L 224.258835 368.516907 
L 227.049417 370.408806 
L 229.978643 372.146672 
L 233.043618 373.728786 
L 236.241309 375.153585 
L 239.568556 376.419658 
L 243.022067 377.525754 
L 246.598428 378.470779 
L 251.047236 379.390891 
L 255.661514 380.076414 
L 260.434693 380.526371 
L 265.359975 380.740122 
L 270.430347 380.717363 
L 275.63859 380.458125 
L 280.977289 379.962779 
L 286.43884 379.232029 
L 292.015467 378.266916 
L 297.69923 377.068814 
L 303.482036 375.639428 
L 309.35565 373.980796 
L 315.311709 372.095277 
L 322.353326 369.612346 
L 329.481965 366.829078 
L 336.683812 363.750866 
L 343.944908 360.383676 
L 351.251182 356.734033 
L 358.588475 352.809011 
L 365.942566 348.616217 
L 373.299204 344.163775 
L 380.644131 339.460315 
L 387.963112 334.514953 
L 395.241964 329.337271 
L 402.46658 323.937305 
L 409.622959 318.32552 
L 416.697231 312.512792 
L 423.675686 306.510385 
L 430.544802 300.329932 
L 437.291264 293.983411 
L 443.901998 287.483122 
L 450.364193 280.841662 
L 456.665325 274.071902 
L 462.793182 267.186963 
L 468.735889 260.200186 
L 474.481928 253.125113 
L 480.020164 245.975455 
L 485.339863 238.765069 
L 490.430717 231.507927 
L 495.282858 224.218095 
L 499.886883 216.9097 
L 504.23387 209.596905 
L 508.315395 202.293883 
L 512.123546 195.014788 
L 515.650945 187.773726 
L 518.890754 180.58473 
L 521.836696 173.461733 
L 524.483061 166.418538 
L 526.82472 159.468797 
L 528.585879 153.596472 
L 530.117321 147.811066 
L 531.416865 142.120817 
L 532.482661 136.533828 
L 533.313192 131.058054 
L 533.907274 125.701292 
L 534.264062 120.47117 
L 534.383048 115.375134 
L 534.383048 115.375134 
" clip-path="url(#pe2d014e07f)" style="fill: none; stroke: #ff7f0e; stroke-width: 1.5; stroke-linecap: square"/>
   </g>
   <g id="line2d_29">
    <path d="M 534.268477 116.029867 
L 534.149579 111.065198 
L 533.793053 106.248 
L 533.199407 101.585132 
L 532.369486 97.083234 
L 531.304473 92.748716 
L 530.23846 89.268938 
L 529.011291 85.913127 
L 527.624177 82.684602 
L 526.07849 79.586556 
L 524.37576 76.622052 
L 522.517669 73.794021 
L 520.506055 71.10526 
L 518.342908 68.558429 
L 516.030366 66.156044 
L 513.570716 63.900483 
L 510.966391 61.793974 
L 508.219965 59.838602 
L 505.334155 58.0363 
L 502.311814 56.38885 
L 499.15593 54.897882 
L 495.869626 53.564869 
L 492.456149 52.391129 
L 488.918876 51.377825 
L 485.261304 50.525956 
L 480.718525 49.717985 
L 476.014199 49.144837 
L 471.155024 48.807329 
L 466.147919 48.705941 
L 461.000015 48.840817 
L 455.71864 49.211766 
L 450.311316 49.818259 
L 444.785742 50.659433 
L 439.149785 51.73409 
L 433.411471 53.0407 
L 427.57897 54.577401 
L 421.660588 56.342007 
L 415.664751 58.332005 
L 408.583109 60.93474 
L 401.421393 63.835345 
L 394.19348 67.028197 
L 386.913379 70.507109 
L 379.595199 74.265339 
L 372.253122 78.295603 
L 364.901377 82.590091 
L 357.554212 87.14048 
L 350.225867 91.93795 
L 342.930542 96.973206 
L 335.682377 102.236487 
L 328.495418 107.717595 
L 321.383594 113.405907 
L 314.360688 119.290398 
L 307.44031 125.359664 
L 300.635872 131.601944 
L 293.96056 138.00514 
L 287.427312 144.556842 
L 281.048789 151.244353 
L 274.837353 158.054712 
L 268.805041 164.974722 
L 262.963544 171.99097 
L 257.324183 179.089861 
L 251.897887 186.257635 
L 246.695173 193.480402 
L 241.726122 200.744164 
L 237.000366 208.034844 
L 232.527062 215.338312 
L 228.31488 222.640414 
L 224.371983 229.926999 
L 220.706013 237.183946 
L 217.324074 244.39719 
L 214.232721 251.552751 
L 211.437943 258.636764 
L 208.945159 265.635498 
L 207.052526 271.556252 
L 205.38802 277.395953 
L 203.954009 283.146288 
L 202.752537 288.799067 
L 201.785314 294.346242 
L 201.053717 299.779913 
L 200.558787 305.092345 
L 200.30123 310.275973 
L 200.281413 315.323416 
L 200.499363 320.227486 
L 200.95477 324.981201 
L 201.646986 329.577792 
L 202.575025 334.010713 
L 203.52759 337.575229 
L 204.642067 341.018173 
L 205.917355 344.33614 
L 207.352192 347.525851 
L 208.945159 350.58415 
L 210.694681 353.508014 
L 212.599029 356.294551 
L 214.656318 358.941006 
L 216.864515 361.444762 
L 219.221436 363.803342 
L 221.724751 366.014415 
L 224.371983 368.075795 
L 227.160516 369.985442 
L 230.087591 371.741468 
L 233.150315 373.342138 
L 236.345658 374.785868 
L 239.670462 376.07123 
L 243.121437 377.196953 
L 246.695173 378.161925 
L 251.140714 379.106367 
L 255.751604 379.816616 
L 260.521277 380.29166 
L 265.442943 380.530824 
L 270.509592 380.533767 
L 275.714011 380.300485 
L 281.048789 379.831309 
L 286.50633 379.126908 
L 292.078862 378.188285 
L 297.758452 377.016776 
L 303.537011 375.61405 
L 309.406313 373.982103 
L 315.357999 372.12326 
L 322.394445 369.671387 
L 329.51785 366.91905 
L 336.714408 363.871583 
L 343.970173 360.534893 
L 351.271082 356.915445 
L 358.602987 353.020254 
L 365.951678 348.85687 
L 373.302914 344.43336 
L 380.642448 339.758297 
L 387.956055 334.840743 
L 395.229562 329.690227 
L 402.448873 324.31673 
L 409.599997 318.730667 
L 416.669075 312.942863 
L 423.642406 306.964536 
L 430.506478 300.807271 
L 437.247986 294.483001 
L 443.853866 288.003983 
L 450.311316 281.382772 
L 456.607821 274.632201 
L 462.731179 267.765353 
L 468.669522 260.795535 
L 474.411342 253.736255 
L 479.945511 246.601194 
L 485.261304 239.40418 
L 490.348419 232.15916 
L 495.196998 224.880176 
L 499.797642 217.581334 
L 504.141438 210.276779 
L 508.219965 202.980667 
L 512.02532 195.707139 
L 515.550129 188.470291 
L 518.78756 181.284147 
L 521.731338 174.162634 
L 524.37576 167.119555 
L 526.715699 160.168557 
L 528.475565 154.294067 
L 530.005882 148.505493 
L 531.304473 142.81108 
L 532.369486 137.218934 
L 533.199407 131.73702 
L 533.793053 126.373142 
L 534.149579 121.134938 
L 534.268477 116.029867 
L 534.268477 116.029867 
" clip-path="url(#pe2d014e07f)" style="fill: none; stroke: #2ca02c; stroke-width: 1.5; stroke-linecap: square"/>
   </g>
   <g id="line2d_30">
    <path d="M 533.427457 121.646034 
L 533.309206 116.592541 
L 532.954621 111.678577 
L 532.364208 106.91114 
L 531.538806 102.297019 
L 530.479592 97.842783 
L 529.419385 94.257637 
L 528.198897 90.791476 
L 526.819337 87.447729 
L 525.282067 84.2297 
L 523.588608 81.140573 
L 521.740635 78.183402 
L 519.739976 75.361112 
L 517.588607 72.676493 
L 515.288658 70.1322 
L 512.842402 67.730749 
L 510.252258 65.474514 
L 507.520787 63.365727 
L 504.650691 61.406473 
L 501.644807 59.598689 
L 498.506109 57.944163 
L 495.237699 56.444532 
L 491.84281 55.101277 
L 488.324798 53.915728 
L 484.687144 52.889056 
L 480.169101 51.868187 
L 475.490391 51.079008 
L 470.657676 50.522645 
L 465.677837 50.199888 
L 460.557964 50.111198 
L 455.305349 50.256701 
L 449.927469 50.636189 
L 444.431983 51.249123 
L 438.826716 52.094629 
L 433.119649 53.171503 
L 427.318908 54.478213 
L 421.432753 56.012897 
L 415.469565 57.773371 
L 409.437836 59.757127 
L 402.325652 62.349928 
L 395.145653 65.237759 
L 387.911752 68.415023 
L 380.63797 71.875563 
L 373.338402 75.612673 
L 366.027197 79.619109 
L 358.718521 83.887107 
L 351.426541 88.408396 
L 344.165387 93.174214 
L 336.949132 98.175325 
L 329.791762 103.402035 
L 322.707146 108.844217 
L 315.709015 114.491322 
L 308.810932 120.332407 
L 302.026265 126.356152 
L 295.368163 132.550882 
L 288.849528 138.904593 
L 282.482995 145.404971 
L 276.280902 152.039417 
L 270.255268 158.795075 
L 264.417771 165.658852 
L 258.779724 172.617446 
L 253.352054 179.657371 
L 248.145279 186.764984 
L 243.169491 193.92651 
L 238.434332 201.128069 
L 233.948979 208.355707 
L 229.722125 215.595414 
L 225.761961 222.833161 
L 222.076162 230.054921 
L 218.671872 237.246698 
L 215.555688 244.394555 
L 212.733649 251.484638 
L 210.211223 258.503207 
L 208.291335 264.45189 
L 206.597905 270.329565 
L 205.133347 276.127865 
L 203.899745 281.838531 
L 202.898855 287.453434 
L 202.132104 292.964578 
L 201.600582 298.364115 
L 201.305046 303.644357 
L 201.245918 308.797787 
L 201.423281 313.817065 
L 201.836884 318.695045 
L 202.486136 323.42478 
L 203.370114 327.999538 
L 204.487559 332.412802 
L 205.595968 335.96262 
L 206.864311 339.392411 
L 208.291335 342.698784 
L 209.875628 345.878471 
L 211.615623 348.928326 
L 213.509601 351.845333 
L 215.555688 354.626609 
L 217.751861 357.269403 
L 220.095947 359.771101 
L 222.585631 362.129231 
L 225.218448 364.341459 
L 227.991796 366.405598 
L 230.902933 368.319608 
L 233.948979 370.081595 
L 237.126922 371.689817 
L 240.433621 373.142685 
L 243.865805 374.43876 
L 247.42008 375.576762 
L 251.092932 376.555565 
L 255.651754 377.518635 
L 260.369598 378.249702 
L 265.239748 378.747725 
L 270.255268 379.011995 
L 275.409017 379.042136 
L 280.693657 378.838104 
L 286.101663 378.400191 
L 291.625334 377.72902 
L 297.256806 376.825546 
L 302.988059 375.691056 
L 308.810932 374.327165 
L 314.717136 372.735816 
L 320.698259 370.919274 
L 326.745785 368.880127 
L 333.873666 366.223662 
L 341.066391 363.27332 
L 348.310021 360.034816 
L 355.590517 356.514428 
L 362.893771 352.718978 
L 370.205628 348.655822 
L 377.511917 344.332834 
L 384.79848 339.758391 
L 392.051195 334.94136 
L 399.256005 329.891076 
L 406.398949 324.617326 
L 413.466182 319.13033 
L 420.44401 313.440723 
L 427.318908 307.559532 
L 434.077553 301.498153 
L 440.706847 295.268333 
L 447.193942 288.882147 
L 453.526266 282.351971 
L 459.691547 275.69046 
L 465.677837 268.910524 
L 471.473534 262.025302 
L 477.067407 255.048139 
L 482.448613 247.992556 
L 487.606726 240.872227 
L 492.531747 233.700951 
L 497.214132 226.492626 
L 501.644807 219.261222 
L 505.815186 212.020753 
L 509.717185 204.785252 
L 513.343244 197.56874 
L 516.686333 190.385204 
L 519.739976 183.248565 
L 522.498253 176.172653 
L 524.955819 169.171183 
L 526.819337 163.239462 
L 528.455761 157.38085 
L 529.862764 151.60369 
L 531.038339 145.916207 
L 531.980815 140.3265 
L 532.688849 134.842529 
L 533.161432 129.472101 
L 533.397892 124.222863 
L 533.427457 121.646034 
L 533.427457 121.646034 
" clip-path="url(#pe2d014e07f)" style="fill: none; stroke: #d62728; stroke-width: 1.5; stroke-linecap: square"/>
   </g>
   <g id="line2d_31">
    <path d="M 533.136661 158.260524 
L 533.018887 152.544898 
L 532.665735 146.917308 
L 532.077706 141.385765 
L 531.255639 135.958146 
L 530.200703 130.64218 
L 528.914401 125.445436 
L 527.398565 120.375313 
L 525.655352 115.439032 
L 523.687245 110.64362 
L 521.497047 105.995906 
L 519.087875 101.502508 
L 516.915427 97.880512 
L 514.595439 94.37371 
L 512.130205 90.985567 
L 509.522164 87.719435 
L 506.773895 84.578544 
L 503.888114 81.565999 
L 500.867675 78.684779 
L 497.715567 75.937733 
L 494.434904 73.327579 
L 491.028932 70.856896 
L 487.501018 68.528129 
L 483.111479 65.924168 
L 478.557624 63.531581 
L 473.845937 61.353775 
L 468.983128 59.393851 
L 463.976121 57.654599 
L 458.832044 56.138497 
L 453.558223 54.847702 
L 448.162168 53.784053 
L 442.65156 52.949064 
L 437.034248 52.343924 
L 431.31823 51.969496 
L 425.511644 51.826311 
L 419.622759 51.914575 
L 413.659959 52.23416 
L 407.631736 52.784613 
L 401.546673 53.56515 
L 395.413434 54.574658 
L 389.240752 55.811701 
L 383.037418 57.274517 
L 376.812263 58.961023 
L 370.574152 60.868818 
L 364.331967 62.995186 
L 358.094596 65.337098 
L 351.870921 67.89122 
L 345.669804 70.653915 
L 339.500075 73.621249 
L 333.370518 76.788997 
L 327.289861 80.152649 
L 321.266763 83.707415 
L 315.309801 87.448234 
L 309.427455 91.369778 
L 303.628102 95.466465 
L 297.92 99.73246 
L 291.386714 104.915324 
L 285.001349 110.310315 
L 278.77628 115.906977 
L 272.72357 121.694463 
L 266.854951 127.661556 
L 261.181795 133.796694 
L 255.715098 140.087986 
L 250.465453 146.523239 
L 246.146237 152.144305 
L 242.00012 157.853976 
L 238.033007 163.644122 
L 234.250544 169.506499 
L 230.65812 175.432759 
L 227.260848 181.414463 
L 224.063566 187.443095 
L 221.070827 193.51007 
L 218.286892 199.606749 
L 215.715725 205.724451 
L 213.360987 211.854466 
L 211.226031 217.988064 
L 209.313898 224.116513 
L 207.627309 230.231085 
L 206.168666 236.323075 
L 204.940047 242.383807 
L 203.943201 248.404652 
L 203.179546 254.377038 
L 202.650171 260.292459 
L 202.35583 266.142493 
L 202.29694 271.91881 
L 202.473587 277.613184 
L 202.885519 283.217509 
L 203.532149 288.723804 
L 204.412556 294.124228 
L 205.525487 299.411092 
L 206.869357 304.576867 
L 208.442252 309.614199 
L 210.241934 314.515915 
L 212.265839 319.275034 
L 214.511085 323.884781 
L 216.974476 328.338592 
L 219.191419 331.9264 
L 221.555228 335.397964 
L 224.063566 338.74985 
L 226.713953 341.978743 
L 229.503767 345.081451 
L 232.430251 348.054905 
L 235.49051 350.896166 
L 238.681519 353.602423 
L 242.00012 356.171001 
L 245.443034 358.599359 
L 249.006856 360.885097 
L 253.438069 363.43655 
L 258.031999 365.775749 
L 262.782103 367.899363 
L 267.681619 369.804369 
L 272.72357 371.488053 
L 277.900777 372.948019 
L 283.205868 374.182187 
L 288.631288 375.1888 
L 294.169313 375.966425 
L 299.812057 376.513955 
L 305.551486 376.83061 
L 311.379427 376.915939 
L 317.287581 376.76982 
L 323.267536 376.392462 
L 329.310777 375.784402 
L 335.4087 374.946506 
L 341.55262 373.879966 
L 347.733791 372.586302 
L 353.94341 371.067356 
L 360.172636 369.32529 
L 366.412599 367.362585 
L 372.654414 365.182035 
L 378.889192 362.786746 
L 385.108057 360.180129 
L 391.302154 357.365893 
L 397.462662 354.348048 
L 403.580809 351.13089 
L 409.647885 347.719 
L 415.65525 344.117235 
L 421.594349 340.330726 
L 427.456728 336.364863 
L 433.234037 332.225293 
L 439.855746 327.184126 
L 446.337642 321.924327 
L 452.667164 316.45609 
L 458.832044 310.790012 
L 464.820336 304.937074 
L 470.620433 298.90862 
L 476.221095 292.716332 
L 481.611469 286.37221 
L 486.781107 279.888551 
L 491.028932 274.229586 
L 495.101167 268.485389 
L 498.992014 262.664139 
L 502.695933 256.774124 
L 506.20765 250.823732 
L 509.522164 244.821435 
L 512.634757 238.775781 
L 515.540995 232.695377 
L 518.236741 226.588881 
L 520.718157 220.464988 
L 522.981708 214.332419 
L 525.024173 208.199905 
L 526.842642 202.076179 
L 528.434526 195.96996 
L 529.79756 189.889942 
L 530.929801 183.844783 
L 531.829637 177.843092 
L 532.495788 171.893412 
L 532.927305 166.004217 
L 533.123573 160.183892 
L 533.136661 158.260524 
L 533.136661 158.260524 
" clip-path="url(#pe2d014e07f)" style="fill: none; stroke: #9467bd; stroke-width: 1.5; stroke-linecap: square"/>
   </g>
   <g id="patch_3">
    <path d="M 27.61 401.24 
L 27.61 29.76 
" style="fill: none; stroke: #000000; stroke-width: 0.8; stroke-linejoin: miter; stroke-linecap: square"/>
   </g>
   <g id="patch_4">
    <path d="M 707.04 401.24 
L 707.04 29.76 
" style="fill: none; stroke: #000000; stroke-width: 0.8; stroke-linejoin: miter; stroke-linecap: square"/>
   </g>
   <g id="patch_5">
    <path d="M 27.61 401.24 
L 707.04 401.24 
" style="fill: none; stroke: #000000; stroke-width: 0.8; stroke-linejoin: miter; stroke-linecap: square"/>
   </g>
   <g id="patch_6">
    <path d="M 27.61 29.76 
L 707.04 29.76 
" style="fill: none; stroke: #000000; stroke-width: 0.8; stroke-linejoin: miter; stroke-linecap: square"/>
   </g>
   <g id="text_14">
    <!-- Full ellipse -->
    <g transform="translate(329.54525 23.76) scale(0.144 -0.144)">
     <defs>
      <path id="DejaVuSans-46" d="M 628 4666 
L 3309 4666 
L 3309 4134 
L 1259 4134 
L 1259 2759 
L 3109 2759 
L 3109 2228 
L 1259 2228 
L 1259 0 
L 628 0 
L 628 4666 
z
" transform="scale(0.015625)"/>
      <path id="DejaVuSans-75" d="M 544 1381 
L 544 3500 
L 1119 3500 
L 1119 1403 
Q 1119 906 1312 657 
Q 1506 409 1894 409 
Q 2359 409 2629 706 
Q 2900 1003 2900 1516 
L 2900 3500 
L 3475 3500 
L 3475 0 
L 2900 0 
L 2900 538 
Q 2691 219 2414 64 
Q 2138 -91 1772 -91 
Q 1169 -91 856 284 
Q 544 659 544 1381 
z
M 1991 3584 
L 1991 3584 
z
" transform="scale(0.015625)"/>
      <path id="DejaVuSans-6c" d="M 603 4863 
L 1178 4863 
L 1178 0 
L 603 0 
L 603 4863 
z
" transform="scale(0.015625)"/>
      <path id="DejaVuSans-20" transform="scale(0.015625)"/>
      <path id="DejaVuSans-65" d="M 3597 1894 
L 3597 1613 
L 953 1613 
Q 991 1019 1311 708 
Q 1631 397 2203 397 
Q 2534 397 2845 478 
Q 3156 559 3463 722 
L 3463 178 
Q 3153 47 2828 -22 
Q 2503 -91 2169 -91 
Q 1331 -91 842 396 
Q 353 884 353 1716 
Q 353 2575 817 3079 
Q 1281 3584 2069 3584 
Q 2775 3584 3186 3129 
Q 3597 2675 3597 1894 
z
M 3022 2063 
Q 3016 2534 2758 2815 
Q 2500 3097 2075 3097 
Q 1594 3097 1305 2825 
Q 1016 2553 972 2059 
L 3022 2063 
z
" transform="scale(0.015625)"/>
      <path id="DejaVuSans-69" d="M 603 3500 
L 1178 3500 
L 1178 0 
L 603 0 
L 603 3500 
z
M 603 4863 
L 1178 4863 
L 1178 4134 
L 603 4134 
L 603 4863 
z
" transform="scale(0.015625)"/>
      <path id="DejaVuSans-70" d="M 1159 525 
L 1159 -1331 
L 581 -1331 
L 581 3500 
L 1159 3500 
L 1159 2969 
Q 1341 3281 1617 3432 
Q 1894 3584 2278 3584 
Q 2916 3584 3314 3078 
Q 3713 2572 3713 1747 
Q 3713 922 3314 415 
Q 2916 -91 2278 -91 
Q 1894 -91 1617 61 
Q 1341 213 1159 525 
z
M 3116 1747 
Q 3116 2381 2855 2742 
Q 2594 3103 2138 3103 
Q 1681 3103 1420 2742 
Q 1159 2381 1159 1747 
Q 1159 1113 1420 752 
Q 1681 391 2138 391 
Q 2594 391 2855 752 
Q 3116 1113 3116 1747 
z
" transform="scale(0.015625)"/>
      <path id="DejaVuSans-73" d="M 2834 3397 
L 2834 2853 
Q 2591 2978 2328 3040 
Q 2066 3103 1784 3103 
Q 1356 3103 1142 2972 
Q 928 2841 928 2578 
Q 928 2378 1081 2264 
Q 1234 2150 1697 2047 
L 1894 2003 
Q 2506 1872 2764 1633 
Q 3022 1394 3022 966 
Q 3022 478 2636 193 
Q 2250 -91 1575 -91 
Q 1294 -91 989 -36 
Q 684 19 347 128 
L 347 722 
Q 666 556 975 473 
Q 1284 391 1588 391 
Q 1994 391 2212 530 
Q 2431 669 2431 922 
Q 2431 1156 2273 1281 
Q 2116 1406 1581 1522 
L 1381 1569 
Q 847 1681 609 1914 
Q 372 2147 372 2553 
Q 372 3047 722 3315 
Q 1072 3584 1716 3584 
Q 2034 3584 2315 3537 
Q 2597 3491 2834 3397 
z
" transform="scale(0.015625)"/>
     </defs>
     <use xlink:href="#DejaVuSans-46"/>
     <use xlink:href="#DejaVuSans-75" x="52.019531"/>
     <use xlink:href="#DejaVuSans-6c" x="115.398438"/>
     <use xlink:href="#DejaVuSans-6c" x="143.181641"/>
     <use xlink:href="#DejaVuSans-20" x="170.964844"/>
     <use xlink:href="#DejaVuSans-65" x="202.751953"/>
     <use xlink:href="#DejaVuSans-6c" x="264.275391"/>
     <use xlink:href="#DejaVuSans-6c" x="292.058594"/>
     <use xlink:href="#DejaVuSans-69" x="319.841797"/>
     <use xlink:href="#DejaVuSans-70" x="347.625"/>
     <use xlink:href="#DejaVuSans-73" x="411.101562"/>
     <use xlink:href="#DejaVuSans-65" x="463.201172"/>
    </g>
   </g>
   <g id="legend_1">
    <g id="patch_7">
     <path d="M 571.6125 145.0425 
L 698.64 145.0425 
Q 701.04 145.0425 701.04 142.6425 
L 701.04 38.16 
Q 701.04 35.76 698.64 35.76 
L 571.6125 35.76 
Q 569.2125 35.76 569.2125 38.16 
L 569.2125 142.6425 
Q 569.2125 145.0425 571.6125 145.0425 
z
" style="fill: #ffffff; opacity: 0.8; stroke: #cccccc; stroke-linejoin: miter"/>
    </g>
    <g id="PathCollection_2">
     <g>
      <use xlink:href="#m28cdd01efa" x="586.0125" y="46.528125" style="fill: #1f77b4; stroke: #1f77b4"/>
     </g>
    </g>
    <g id="text_15">
     <!-- Measurements -->
     <g transform="translate(607.6125 49.678125) scale(0.12 -0.12)">
      <defs>
       <path id="DejaVuSans-4d" d="M 628 4666 
L 1569 4666 
L 2759 1491 
L 3956 4666 
L 4897 4666 
L 4897 0 
L 4281 0 
L 4281 4097 
L 3078 897 
L 2444 897 
L 1241 4097 
L 1241 0 
L 628 0 
L 628 4666 
z
" transform="scale(0.015625)"/>
       <path id="DejaVuSans-61" d="M 2194 1759 
Q 1497 1759 1228 1600 
Q 959 1441 959 1056 
Q 959 750 1161 570 
Q 1363 391 1709 391 
Q 2188 391 2477 730 
Q 2766 1069 2766 1631 
L 2766 1759 
L 2194 1759 
z
M 3341 1997 
L 3341 0 
L 2766 0 
L 2766 531 
Q 2569 213 2275 61 
Q 1981 -91 1556 -91 
Q 1019 -91 701 211 
Q 384 513 384 1019 
Q 384 1609 779 1909 
Q 1175 2209 1959 2209 
L 2766 2209 
L 2766 2266 
Q 2766 2663 2505 2880 
Q 2244 3097 1772 3097 
Q 1472 3097 1187 3025 
Q 903 2953 641 2809 
L 641 3341 
Q 956 3463 1253 3523 
Q 1550 3584 1831 3584 
Q 2591 3584 2966 3190 
Q 3341 2797 3341 1997 
z
" transform="scale(0.015625)"/>
       <path id="DejaVuSans-72" d="M 2631 2963 
Q 2534 3019 2420 3045 
Q 2306 3072 2169 3072 
Q 1681 3072 1420 2755 
Q 1159 2438 1159 1844 
L 1159 0 
L 581 0 
L 581 3500 
L 1159 3500 
L 1159 2956 
Q 1341 3275 1631 3429 
Q 1922 3584 2338 3584 
Q 2397 3584 2469 3576 
Q 2541 3569 2628 3553 
L 2631 2963 
z
" transform="scale(0.015625)"/>
       <path id="DejaVuSans-6d" d="M 3328 2828 
Q 3544 3216 3844 3400 
Q 4144 3584 4550 3584 
Q 5097 3584 5394 3201 
Q 5691 2819 5691 2113 
L 5691 0 
L 5113 0 
L 5113 2094 
Q 5113 2597 4934 2840 
Q 4756 3084 4391 3084 
Q 3944 3084 3684 2787 
Q 3425 2491 3425 1978 
L 3425 0 
L 2847 0 
L 2847 2094 
Q 2847 2600 2669 2842 
Q 2491 3084 2119 3084 
Q 1678 3084 1418 2786 
Q 1159 2488 1159 1978 
L 1159 0 
L 581 0 
L 581 3500 
L 1159 3500 
L 1159 2956 
Q 1356 3278 1631 3431 
Q 1906 3584 2284 3584 
Q 2666 3584 2933 3390 
Q 3200 3197 3328 2828 
z
" transform="scale(0.015625)"/>
       <path id="DejaVuSans-6e" d="M 3513 2113 
L 3513 0 
L 2938 0 
L 2938 2094 
Q 2938 2591 2744 2837 
Q 2550 3084 2163 3084 
Q 1697 3084 1428 2787 
Q 1159 2491 1159 1978 
L 1159 0 
L 581 0 
L 581 3500 
L 1159 3500 
L 1159 2956 
Q 1366 3272 1645 3428 
Q 1925 3584 2291 3584 
Q 2894 3584 3203 3211 
Q 3513 2838 3513 2113 
z
" transform="scale(0.015625)"/>
       <path id="DejaVuSans-74" d="M 1172 4494 
L 1172 3500 
L 2356 3500 
L 2356 3053 
L 1172 3053 
L 1172 1153 
Q 1172 725 1289 603 
Q 1406 481 1766 481 
L 2356 481 
L 2356 0 
L 1766 0 
Q 1100 0 847 248 
Q 594 497 594 1153 
L 594 3053 
L 172 3053 
L 172 3500 
L 594 3500 
L 594 4494 
L 1172 4494 
z
" transform="scale(0.015625)"/>
      </defs>
      <use xlink:href="#DejaVuSans-4d"/>
      <use xlink:href="#DejaVuSans-65" x="86.279297"/>
      <use xlink:href="#DejaVuSans-61" x="147.802734"/>
      <use xlink:href="#DejaVuSans-73" x="209.082031"/>
      <use xlink:href="#DejaVuSans-75" x="261.181641"/>
      <use xlink:href="#DejaVuSans-72" x="324.560547"/>
      <use xlink:href="#DejaVuSans-65" x="363.423828"/>
      <use xlink:href="#DejaVuSans-6d" x="424.947266"/>
      <use xlink:href="#DejaVuSans-65" x="522.359375"/>
      <use xlink:href="#DejaVuSans-6e" x="583.882812"/>
      <use xlink:href="#DejaVuSans-74" x="647.261719"/>
      <use xlink:href="#DejaVuSans-73" x="686.470703"/>
     </g>
    </g>
    <g id="line2d_32">
     <path d="M 574.0125 63.091875 
L 586.0125 63.091875 
L 598.0125 63.091875 
" style="fill: none; stroke: #1f77b4; stroke-width: 1.5; stroke-linecap: square"/>
    </g>
    <g id="text_16">
     <!-- True -->
     <g transform="translate(607.6125 67.291875) scale(0.12 -0.12)">
      <defs>
       <path id="DejaVuSans-54" d="M -19 4666 
L 3928 4666 
L 3928 4134 
L 2272 4134 
L 2272 0 
L 1638 0 
L 1638 4134 
L -19 4134 
L -19 4666 
z
" transform="scale(0.015625)"/>
      </defs>
      <use xlink:href="#DejaVuSans-54"/>
      <use xlink:href="#DejaVuSans-72" x="46.333984"/>
      <use xlink:href="#DejaVuSans-75" x="87.447266"/>
      <use xlink:href="#DejaVuSans-65" x="150.826172"/>
     </g>
    </g>
    <g id="line2d_33">
     <path d="M 574.0125 80.705625 
L 586.0125 80.705625 
L 598.0125 80.705625 
" style="fill: none; stroke: #ff7f0e; stroke-width: 1.5; stroke-linecap: square"/>
    </g>
    <g id="text_17">
     <!-- Fit, $\alpha$=0.00 -->
     <g transform="translate(607.6125 84.905625) scale(0.12 -0.12)">
      <defs>
       <path id="DejaVuSans-2c" d="M 750 794 
L 1409 794 
L 1409 256 
L 897 -744 
L 494 -744 
L 750 256 
L 750 794 
z
" transform="scale(0.015625)"/>
       <path id="DejaVuSans-Oblique-3b1" d="M 2619 1628 
L 2622 2350 
Q 2625 3088 2069 3091 
Q 1653 3094 1394 2747 
Q 1069 2319 959 1747 
Q 825 1059 994 731 
Q 1169 397 1547 397 
Q 1966 397 2319 1063 
L 2619 1628 
z
M 2166 3578 
Q 3141 3594 3128 2584 
Q 3128 2584 3616 3500 
L 4128 3500 
L 3119 1603 
L 3109 919 
Q 3109 766 3194 638 
Q 3291 488 3391 488 
L 3669 488 
L 3575 0 
L 3228 0 
Q 2934 0 2722 263 
Q 2622 394 2619 669 
Q 2416 334 2066 50 
Q 1900 -81 1453 -78 
Q 722 -72 456 397 
Q 184 884 353 1747 
Q 534 2675 1009 3097 
Q 1544 3569 2166 3578 
z
" transform="scale(0.015625)"/>
       <path id="DejaVuSans-3d" d="M 678 2906 
L 4684 2906 
L 4684 2381 
L 678 2381 
L 678 2906 
z
M 678 1631 
L 4684 1631 
L 4684 1100 
L 678 1100 
L 678 1631 
z
" transform="scale(0.015625)"/>
       <path id="DejaVuSans-2e" d="M 684 794 
L 1344 794 
L 1344 0 
L 684 0 
L 684 794 
z
" transform="scale(0.015625)"/>
      </defs>
      <use xlink:href="#DejaVuSans-46" transform="translate(0 0.015625)"/>
      <use xlink:href="#DejaVuSans-69" transform="translate(57.519531 0.015625)"/>
      <use xlink:href="#DejaVuSans-74" transform="translate(85.302734 0.015625)"/>
      <use xlink:href="#DejaVuSans-2c" transform="translate(124.511719 0.015625)"/>
      <use xlink:href="#DejaVuSans-20" transform="translate(156.298828 0.015625)"/>
      <use xlink:href="#DejaVuSans-Oblique-3b1" transform="translate(188.085938 0.015625)"/>
      <use xlink:href="#DejaVuSans-3d" transform="translate(254.003906 0.015625)"/>
      <use xlink:href="#DejaVuSans-30" transform="translate(337.792969 0.015625)"/>
      <use xlink:href="#DejaVuSans-2e" transform="translate(401.416016 0.015625)"/>
      <use xlink:href="#DejaVuSans-30" transform="translate(433.203125 0.015625)"/>
      <use xlink:href="#DejaVuSans-30" transform="translate(496.826172 0.015625)"/>
     </g>
    </g>
    <g id="line2d_34">
     <path d="M 574.0125 98.319375 
L 586.0125 98.319375 
L 598.0125 98.319375 
" style="fill: none; stroke: #2ca02c; stroke-width: 1.5; stroke-linecap: square"/>
    </g>
    <g id="text_18">
     <!-- Fit, $\alpha$=0.01 -->
     <g transform="translate(607.6125 102.519375) scale(0.12 -0.12)">
      <use xlink:href="#DejaVuSans-46" transform="translate(0 0.015625)"/>
      <use xlink:href="#DejaVuSans-69" transform="translate(57.519531 0.015625)"/>
      <use xlink:href="#DejaVuSans-74" transform="translate(85.302734 0.015625)"/>
      <use xlink:href="#DejaVuSans-2c" transform="translate(124.511719 0.015625)"/>
      <use xlink:href="#DejaVuSans-20" transform="translate(156.298828 0.015625)"/>
      <use xlink:href="#DejaVuSans-Oblique-3b1" transform="translate(188.085938 0.015625)"/>
      <use xlink:href="#DejaVuSans-3d" transform="translate(254.003906 0.015625)"/>
      <use xlink:href="#DejaVuSans-30" transform="translate(337.792969 0.015625)"/>
      <use xlink:href="#DejaVuSans-2e" transform="translate(401.416016 0.015625)"/>
      <use xlink:href="#DejaVuSans-30" transform="translate(433.203125 0.015625)"/>
      <use xlink:href="#DejaVuSans-31" transform="translate(496.826172 0.015625)"/>
     </g>
    </g>
    <g id="line2d_35">
     <path d="M 574.0125 115.933125 
L 586.0125 115.933125 
L 598.0125 115.933125 
" style="fill: none; stroke: #d62728; stroke-width: 1.5; stroke-linecap: square"/>
    </g>
    <g id="text_19">
     <!-- Fit, $\alpha$=0.10 -->
     <g transform="translate(607.6125 120.133125) scale(0.12 -0.12)">
      <use xlink:href="#DejaVuSans-46" transform="translate(0 0.015625)"/>
      <use xlink:href="#DejaVuSans-69" transform="translate(57.519531 0.015625)"/>
      <use xlink:href="#DejaVuSans-74" transform="translate(85.302734 0.015625)"/>
      <use xlink:href="#DejaVuSans-2c" transform="translate(124.511719 0.015625)"/>
      <use xlink:href="#DejaVuSans-20" transform="translate(156.298828 0.015625)"/>
      <use xlink:href="#DejaVuSans-Oblique-3b1" transform="translate(188.085938 0.015625)"/>
      <use xlink:href="#DejaVuSans-3d" transform="translate(254.003906 0.015625)"/>
      <use xlink:href="#DejaVuSans-30" transform="translate(337.792969 0.015625)"/>
      <use xlink:href="#DejaVuSans-2e" transform="translate(401.416016 0.015625)"/>
      <use xlink:href="#DejaVuSans-31" transform="translate(433.203125 0.015625)"/>
      <use xlink:href="#DejaVuSans-30" transform="translate(496.826172 0.015625)"/>
     </g>
    </g>
    <g id="line2d_36">
     <path d="M 574.0125 133.546875 
L 586.0125 133.546875 
L 598.0125 133.546875 
" style="fill: none; stroke: #9467bd; stroke-width: 1.5; stroke-linecap: square"/>
    </g>
    <g id="text_20">
     <!-- Fit, $\alpha$=1.00 -->
     <g transform="translate(607.6125 137.746875) scale(0.12 -0.12)">
      <use xlink:href="#DejaVuSans-46" transform="translate(0 0.015625)"/>
      <use xlink:href="#DejaVuSans-69" transform="translate(57.519531 0.015625)"/>
      <use xlink:href="#DejaVuSans-74" transform="translate(85.302734 0.015625)"/>
      <use xlink:href="#DejaVuSans-2c" transform="translate(124.511719 0.015625)"/>
      <use xlink:href="#DejaVuSans-20" transform="translate(156.298828 0.015625)"/>
      <use xlink:href="#DejaVuSans-Oblique-3b1" transform="translate(188.085938 0.015625)"/>
      <use xlink:href="#DejaVuSans-3d" transform="translate(254.003906 0.015625)"/>
      <use xlink:href="#DejaVuSans-31" transform="translate(337.792969 0.015625)"/>
      <use xlink:href="#DejaVuSans-2e" transform="translate(401.416016 0.015625)"/>
      <use xlink:href="#DejaVuSans-30" transform="translate(433.203125 0.015625)"/>
      <use xlink:href="#DejaVuSans-30" transform="translate(496.826172 0.015625)"/>
     </g>
    </g>
   </g>
  </g>
 </g>
 <defs>
  <clipPath id="pe2d014e07f">
   <rect x="27.61" y="29.76" width="679.43" height="371.48"/>
  </clipPath>
 </defs>
</svg>
